<?xml version="1.0" encoding="UTF-8" standalone="no"?>
<!-- Created with Inkscape (http://www.inkscape.org/) -->

<svg
   xmlns:dc="http://purl.org/dc/elements/1.1/"
   xmlns:cc="http://creativecommons.org/ns#"
   xmlns:rdf="http://www.w3.org/1999/02/22-rdf-syntax-ns#"
   xmlns:svg="http://www.w3.org/2000/svg"
   xmlns="http://www.w3.org/2000/svg"
   xmlns:xlink="http://www.w3.org/1999/xlink"
   xmlns:sodipodi="http://sodipodi.sourceforge.net/DTD/sodipodi-0.dtd"
   xmlns:inkscape="http://www.inkscape.org/namespaces/inkscape"
   width="450.24225"
   height="74.167664"
   id="svg2"
   version="1.1"
   inkscape:version="0.48.4 r9939"
   inkscape:export-filename="C:\Users\sr41756\Desktop\logo2.png"
   inkscape:export-xdpi="38.859631"
   inkscape:export-ydpi="38.859631"
   sodipodi:docname="logo.svg">
  <defs
     id="defs4">
    <linearGradient
       id="linearGradient3822">
      <stop
         style="stop-color:#008f00;stop-opacity:1;"
         offset="0"
         id="stop3824" />
      <stop
         style="stop-color:#ffffff;stop-opacity:1;"
         offset="1"
         id="stop3826" />
    </linearGradient>
    <linearGradient
       id="linearGradient3795">
      <stop
         style="stop-color:#2f9600;stop-opacity:1;"
         offset="0"
         id="stop3797" />
      <stop
         style="stop-color:#ffffff;stop-opacity:1;"
         offset="1"
         id="stop3799" />
    </linearGradient>
    <linearGradient
       inkscape:collect="always"
       xlink:href="#linearGradient3822"
       id="linearGradient4158"
       gradientUnits="userSpaceOnUse"
       gradientTransform="matrix(-0.53167848,0,0,0.71443954,433.89361,175.30088)"
       x1="275.55096"
       y1="168.02112"
       x2="269.84589"
       y2="158.97551" />
    <linearGradient
       inkscape:collect="always"
       xlink:href="#linearGradient3822"
       id="linearGradient4164"
       gradientUnits="userSpaceOnUse"
       gradientTransform="matrix(0.85440613,0,0,0.85440613,65.07178,151.79594)"
       x1="275.55096"
       y1="168.02112"
       x2="269.84589"
       y2="158.97551" />
    <linearGradient
       inkscape:collect="always"
       xlink:href="#linearGradient3795"
       id="linearGradient4239"
       gradientUnits="userSpaceOnUse"
       gradientTransform="translate(59.366541,135.15201)"
       x1="289.23138"
       y1="151.37416"
       x2="281.02191"
       y2="143.24072" />
    <linearGradient
       inkscape:collect="always"
       xlink:href="#linearGradient3795"
       id="linearGradient3083"
       gradientUnits="userSpaceOnUse"
       gradientTransform="matrix(0.85440613,0,0,0.85440613,64.357366,151.40627)"
       x1="289.23138"
       y1="151.37416"
       x2="281.02191"
       y2="143.24072" />
    <linearGradient
       inkscape:collect="always"
       xlink:href="#linearGradient3795"
       id="linearGradient3866"
       x1="338.54877"
       y1="282.63428"
       x2="328.88077"
       y2="274.08105"
       gradientUnits="userSpaceOnUse" />
    <linearGradient
       inkscape:collect="always"
       xlink:href="#linearGradient3795"
       id="linearGradient3875"
       gradientUnits="userSpaceOnUse"
       x1="335.63193"
       y1="281.57361"
       x2="328.57141"
       y2="274.83234" />
    <linearGradient
       inkscape:collect="always"
       xlink:href="#linearGradient3795"
       id="linearGradient3891"
       gradientUnits="userSpaceOnUse"
       x1="335.63193"
       y1="281.57361"
       x2="328.57141"
       y2="274.83234" />
    <linearGradient
       inkscape:collect="always"
       xlink:href="#linearGradient3795"
       id="linearGradient3905"
       gradientUnits="userSpaceOnUse"
       x1="335.63193"
       y1="281.57361"
       x2="328.57141"
       y2="274.83234" />
  </defs>
  <sodipodi:namedview
     id="base"
     pagecolor="#ffffff"
     bordercolor="#666666"
     borderopacity="1.0"
     inkscape:pageopacity="0.0"
     inkscape:pageshadow="2"
     inkscape:zoom="1.4142136"
     inkscape:cx="492.54708"
     inkscape:cy="58.197072"
     inkscape:document-units="px"
     inkscape:current-layer="layer1"
     showgrid="false"
     fit-margin-top="0"
     fit-margin-left="0"
     fit-margin-right="0"
     fit-margin-bottom="0"
     inkscape:window-width="1858"
     inkscape:window-height="1058"
     inkscape:window-x="54"
     inkscape:window-y="-8"
     inkscape:window-maximized="1" />
  <metadata
     id="metadata7">
    <rdf:RDF>
      <cc:Work
         rdf:about="">
        <dc:format>image/svg+xml</dc:format>
        <dc:type
           rdf:resource="http://purl.org/dc/dcmitype/StillImage" />
        <dc:title />
      </cc:Work>
    </rdf:RDF>
  </metadata>
  <g
     inkscape:label="Layer 1"
     inkscape:groupmode="layer"
     id="layer1"
     transform="translate(-5.0332218,-261.97177)">
    <path
       style="fill:url(#linearGradient4164);fill-opacity:1;stroke:#2f8600;stroke-width:0.25632185;stroke-miterlimit:4;stroke-opacity:0.95294118;stroke-dasharray:none"
       d="m 293.29343,296.71808 12.53465,-9.54712 -8.57291,9.87185 z"
       id="path3820"
       inkscape:connector-curvature="0"
       sodipodi:nodetypes="cccc"
       inkscape:export-filename="C:\Users\sr41756\Desktop\logo2.png"
       inkscape:export-xdpi="48.573853"
       inkscape:export-ydpi="48.573853" />
    <g
       id="g3884"
       transform="translate(-24.837126,-0.75130096)">
      <path
         sodipodi:nodetypes="aaaaaaaaaacaaaaaaaaa"
         inkscape:connector-curvature="0"
         id="path3088"
         d="m 327.56315,289.89401 c -0.61326,-0.57197 -1.13726,-1.26211 -1.50573,-2.01542 -0.46659,-0.95392 -0.71979,-2.01727 -0.84417,-3.07188 -0.14714,-1.24764 -0.21931,-2.55881 0.12586,-3.76674 0.34608,-1.21109 1.02005,-2.36057 1.8883,-3.27307 0.71141,-0.74767 1.68942,-1.19588 2.60167,-1.6785 1.39619,-0.73862 2.91316,-1.22205 4.36408,-1.84634 1.57073,-0.67584 3.18022,-1.27196 4.69978,-2.05615 1.667,-0.86027 3.3274,-1.76662 4.82566,-2.89539 1.14612,-0.8635 2.1602,-1.8957 3.14717,-2.93738 1.07904,-1.13882 3.0213,-3.60875 3.0213,-3.60875 0,0 -0.14552,2.12809 -0.25178,3.18914 -0.19656,1.96281 -0.41844,3.92426 -0.71336,5.87472 -0.34005,2.24889 -0.5983,4.52525 -1.21691,6.71397 -0.55529,1.96468 -1.21495,3.93202 -2.224,5.70688 -0.95556,1.68075 -2.14152,3.26751 -3.5668,4.57388 -1.02005,0.93494 -2.20129,1.73689 -3.48287,2.25858 -1.45382,0.5918 -3.04911,0.85317 -4.61709,0.92564 -1.20214,0.0556 -2.45517,0.0198 -3.59021,-0.38013 -0.99494,-0.35054 -1.88947,-0.99357 -2.6609,-1.71306 z"
         style="fill:#2f9600;fill-opacity:1;stroke:none" />
      <g
         id="g3877">
        <path
           sodipodi:nodetypes="aaaaaaaaaacaaaaaaaaa"
           inkscape:connector-curvature="0"
           id="path3858"
           d="m 327.83369,289.21943 c -0.553,-0.54542 -1.02032,-1.19795 -1.34199,-1.90495 -0.40734,-0.89528 -0.61427,-1.88635 -0.70215,-2.86601 -0.10394,-1.15896 -0.13687,-2.37479 0.21398,-3.48425 0.35174,-1.11236 1.00547,-2.15921 1.83298,-2.98161 0.678,-0.67385 1.59511,-1.06354 2.45222,-1.48679 1.31178,-0.64776 2.7288,-1.05611 4.08832,-1.59661 1.47177,-0.58513 2.97736,-1.09544 4.40456,-1.78219 1.56568,-0.7534 3.12645,-1.54961 4.54282,-2.55595 1.08351,-0.76986 2.04909,-1.69931 2.98986,-2.63825 1.0285,-1.02649 2.89065,-3.2631 2.89065,-3.2631 0,0 -0.18977,1.96658 -0.31558,2.94621 -0.23277,1.81222 -0.48892,3.62254 -0.81243,5.4208 -0.37299,2.07338 -0.67099,4.17435 -1.30032,6.1848 -0.56495,1.8047 -1.22659,3.60913 -2.20675,5.22632 -0.92818,1.53145 -2.06726,2.96991 -3.42067,4.14258 -0.96863,0.83926 -2.08305,1.5512 -3.28312,2.00109 -1.36135,0.51033 -2.84515,0.71107 -4.29877,0.73762 -1.11445,0.0204 -2.27368,-0.0451 -3.31424,-0.44481 -0.91212,-0.35027 -1.72371,-0.96878 -2.41934,-1.6549 z"
           style="fill:url(#linearGradient3891);fill-opacity:1;stroke:none" />
        <path
           inkscape:export-ydpi="48.573853"
           inkscape:export-xdpi="48.573853"
           inkscape:export-filename="C:\Users\sr41756\Desktop\logo2.png"
           sodipodi:nodetypes="cszzzc"
           inkscape:connector-curvature="0"
           id="path3868"
           d="m 328.37716,289.7201 c 0,0 0.008,-0.009 0.0332,-0.042 0.25402,-0.3415 3.53817,-5.38096 5.61968,-7.50687 2.08152,-2.12591 4.48719,-3.02937 6.60225,-5.04468 2.11507,-2.01531 4.33433,-4.43353 5.81648,-6.72749 1.48214,-2.29395 2.80311,-6.16685 2.80311,-6.16685"
           style="fill:none;stroke:#2f8200;stroke-width:0.64080459;stroke-linecap:butt;stroke-linejoin:miter;stroke-miterlimit:4;stroke-opacity:1;stroke-dasharray:none" />
        <path
           style="fill:#2f9600;fill-opacity:1;stroke:none"
           d="m 344.84375,0.78125 c 0,0 -1.92096,2.45493 -3,3.59375 -0.98697,1.04168 -2.01013,2.074 -3.15625,2.9375 -1.49826,1.12877 -3.1455,2.04598 -4.8125,2.90625 -1.51956,0.78419 -3.14802,1.38666 -4.71875,2.0625 -1.45092,0.62429 -2.97881,1.10513 -4.375,1.84375 -0.91225,0.48262 -1.88234,0.90858 -2.59375,1.65625 -0.86825,0.9125 -1.52892,2.07016 -1.875,3.28125 -0.34517,1.20793 -0.27214,2.53361 -0.125,3.78125 0.12438,1.05461 0.37716,2.10858 0.84375,3.0625 0.36847,0.75331 0.88674,1.45928 1.5,2.03125 0.77143,0.71949 1.66131,1.33696 2.65625,1.6875 1.13504,0.39993 2.39161,0.4306 3.59375,0.375 1.56798,-0.07247 3.17118,-0.31445 4.625,-0.90625 1.28158,-0.52169 2.4487,-1.31506 3.46875,-2.25 1.42528,-1.30637 2.60694,-2.913 3.5625,-4.59375 1.00905,-1.77486 1.66346,-3.72282 2.21875,-5.6875 0.61861,-2.18872 0.8787,-4.46986 1.21875,-6.71875 0.29492,-1.95046 0.52219,-3.91219 0.71875,-5.875 0.10626,-1.06105 0.25,-3.1875 0.25,-3.1875 z m -0.6875,1.90625 c 0,0 -0.18669,1.95787 -0.3125,2.9375 -0.23277,1.81222 -0.48899,3.63924 -0.8125,5.4375 -0.37299,2.07338 -0.65192,4.17705 -1.28125,6.1875 -0.56495,1.8047 -1.23859,3.60156 -2.21875,5.21875 -0.92818,1.53145 -2.05284,2.95233 -3.40625,4.125 -0.96863,0.83926 -2.08118,1.58136 -3.28125,2.03125 -1.36135,0.51033 -2.85888,0.6922 -4.3125,0.71875 -1.11445,0.0204 -2.27194,-0.03779 -3.3125,-0.4375 -0.91212,-0.35027 -1.71062,-0.97013 -2.40625,-1.65625 -0.553,-0.54542 -1.02208,-1.19925 -1.34375,-1.90625 -0.40734,-0.89528 -0.63087,-1.89534 -0.71875,-2.875 -0.10394,-1.15896 -0.1321,-2.35929 0.21875,-3.46875 0.35174,-1.11236 1.01624,-2.1776 1.84375,-3 0.678,-0.67385 1.58039,-1.0455 2.4375,-1.46875 1.31178,-0.64776 2.73423,-1.05325 4.09375,-1.59375 1.47177,-0.58513 2.97905,-1.0945 4.40625,-1.78125 1.56568,-0.7534 3.11488,-1.55616 4.53125,-2.5625 1.08351,-0.76986 2.05923,-1.71731 3,-2.65625 1.0285,-1.02649 2.875,-3.25 2.875,-3.25 z"
           transform="translate(5.0332218,261.97177)"
           id="path3872"
           inkscape:connector-curvature="0" />
      </g>
    </g>
    <path
       sodipodi:nodetypes="cccc"
       inkscape:connector-curvature="0"
       id="path3830"
       d="m 291.8762,296.48226 -7.80004,-7.98314 5.33474,8.25467 z"
       style="fill:url(#linearGradient4158);fill-opacity:1;stroke:#2f8600;stroke-width:0.18489644;stroke-miterlimit:4;stroke-opacity:0.95294118;stroke-dasharray:none"
       inkscape:export-filename="C:\Users\sr41756\Desktop\logo2.png"
       inkscape:export-xdpi="48.573853"
       inkscape:export-ydpi="48.573853" />
    <g
       transform="matrix(-0.72664974,0,0,0.72664974,525.12641,80.881053)"
       id="g3893">
      <path
         style="fill:#2f9600;fill-opacity:1;stroke:none"
         d="m 327.56315,289.89401 c -0.61326,-0.57197 -1.13726,-1.26211 -1.50573,-2.01542 -0.46659,-0.95392 -0.71979,-2.01727 -0.84417,-3.07188 -0.14714,-1.24764 -0.21931,-2.55881 0.12586,-3.76674 0.34608,-1.21109 1.02005,-2.36057 1.8883,-3.27307 0.71141,-0.74767 1.68942,-1.19588 2.60167,-1.6785 1.39619,-0.73862 2.91316,-1.22205 4.36408,-1.84634 1.57073,-0.67584 3.18022,-1.27196 4.69978,-2.05615 1.667,-0.86027 3.3274,-1.76662 4.82566,-2.89539 1.14612,-0.8635 2.1602,-1.8957 3.14717,-2.93738 1.07904,-1.13882 3.0213,-3.60875 3.0213,-3.60875 0,0 -0.14552,2.12809 -0.25178,3.18914 -0.19656,1.96281 -0.41844,3.92426 -0.71336,5.87472 -0.34005,2.24889 -0.5983,4.52525 -1.21691,6.71397 -0.55529,1.96468 -1.21495,3.93202 -2.224,5.70688 -0.95556,1.68075 -2.14152,3.26751 -3.5668,4.57388 -1.02005,0.93494 -2.20129,1.73689 -3.48287,2.25858 -1.45382,0.5918 -3.04911,0.85317 -4.61709,0.92564 -1.20214,0.0556 -2.45517,0.0198 -3.59021,-0.38013 -0.99494,-0.35054 -1.88947,-0.99357 -2.6609,-1.71306 z"
         id="path3895"
         inkscape:connector-curvature="0"
         sodipodi:nodetypes="aaaaaaaaaacaaaaaaaaa" />
      <g
         id="g3897">
        <path
           style="fill:url(#linearGradient3905);fill-opacity:1;stroke:none"
           d="m 327.83369,289.21943 c -0.553,-0.54542 -1.02032,-1.19795 -1.34199,-1.90495 -0.40734,-0.89528 -0.61427,-1.88635 -0.70215,-2.86601 -0.10394,-1.15896 -0.13687,-2.37479 0.21398,-3.48425 0.35174,-1.11236 1.00547,-2.15921 1.83298,-2.98161 0.678,-0.67385 1.59511,-1.06354 2.45222,-1.48679 1.31178,-0.64776 2.7288,-1.05611 4.08832,-1.59661 1.47177,-0.58513 2.97736,-1.09544 4.40456,-1.78219 1.56568,-0.7534 3.12645,-1.54961 4.54282,-2.55595 1.08351,-0.76986 2.04909,-1.69931 2.98986,-2.63825 1.0285,-1.02649 2.89065,-3.2631 2.89065,-3.2631 0,0 -0.18977,1.96658 -0.31558,2.94621 -0.23277,1.81222 -0.48892,3.62254 -0.81243,5.4208 -0.37299,2.07338 -0.67099,4.17435 -1.30032,6.1848 -0.56495,1.8047 -1.22659,3.60913 -2.20675,5.22632 -0.92818,1.53145 -2.06726,2.96991 -3.42067,4.14258 -0.96863,0.83926 -2.08305,1.5512 -3.28312,2.00109 -1.36135,0.51033 -2.84515,0.71107 -4.29877,0.73762 -1.11445,0.0204 -2.27368,-0.0451 -3.31424,-0.44481 -0.91212,-0.35027 -1.72371,-0.96878 -2.41934,-1.6549 z"
           id="path3899"
           inkscape:connector-curvature="0"
           sodipodi:nodetypes="aaaaaaaaaacaaaaaaaaa" />
        <path
           style="fill:none;stroke:#2f8200;stroke-width:0.64080459;stroke-linecap:butt;stroke-linejoin:miter;stroke-miterlimit:4;stroke-opacity:1;stroke-dasharray:none"
           d="m 328.37716,289.7201 c 0,0 0.008,-0.009 0.0332,-0.042 0.25402,-0.3415 3.53817,-5.38096 5.61968,-7.50687 2.08152,-2.12591 4.48719,-3.02937 6.60225,-5.04468 2.11507,-2.01531 4.33433,-4.43353 5.81648,-6.72749 1.48214,-2.29395 2.80311,-6.16685 2.80311,-6.16685"
           id="path3901"
           inkscape:connector-curvature="0"
           sodipodi:nodetypes="cszzzc"
           inkscape:export-filename="C:\Users\sr41756\Desktop\logo2.png"
           inkscape:export-xdpi="48.573853"
           inkscape:export-ydpi="48.573853" />
        <path
           inkscape:connector-curvature="0"
           id="path3903"
           transform="translate(5.0332218,261.97177)"
           d="m 344.84375,0.78125 c 0,0 -1.92096,2.45493 -3,3.59375 -0.98697,1.04168 -2.01013,2.074 -3.15625,2.9375 -1.49826,1.12877 -3.1455,2.04598 -4.8125,2.90625 -1.51956,0.78419 -3.14802,1.38666 -4.71875,2.0625 -1.45092,0.62429 -2.97881,1.10513 -4.375,1.84375 -0.91225,0.48262 -1.88234,0.90858 -2.59375,1.65625 -0.86825,0.9125 -1.52892,2.07016 -1.875,3.28125 -0.34517,1.20793 -0.27214,2.53361 -0.125,3.78125 0.12438,1.05461 0.37716,2.10858 0.84375,3.0625 0.36847,0.75331 0.88674,1.45928 1.5,2.03125 0.77143,0.71949 1.66131,1.33696 2.65625,1.6875 1.13504,0.39993 2.39161,0.4306 3.59375,0.375 1.56798,-0.07247 3.17118,-0.31445 4.625,-0.90625 1.28158,-0.52169 2.4487,-1.31506 3.46875,-2.25 1.42528,-1.30637 2.60694,-2.913 3.5625,-4.59375 1.00905,-1.77486 1.66346,-3.72282 2.21875,-5.6875 0.61861,-2.18872 0.8787,-4.46986 1.21875,-6.71875 0.29492,-1.95046 0.52219,-3.91219 0.71875,-5.875 0.10626,-1.06105 0.25,-3.1875 0.25,-3.1875 z m -0.6875,1.90625 c 0,0 -0.18669,1.95787 -0.3125,2.9375 -0.23277,1.81222 -0.48899,3.63924 -0.8125,5.4375 -0.37299,2.07338 -0.65192,4.17705 -1.28125,6.1875 -0.56495,1.8047 -1.23859,3.60156 -2.21875,5.21875 -0.92818,1.53145 -2.05284,2.95233 -3.40625,4.125 -0.96863,0.83926 -2.08118,1.58136 -3.28125,2.03125 -1.36135,0.51033 -2.85888,0.6922 -4.3125,0.71875 -1.11445,0.0204 -2.27194,-0.03779 -3.3125,-0.4375 -0.91212,-0.35027 -1.71062,-0.97013 -2.40625,-1.65625 -0.553,-0.54542 -1.02208,-1.19925 -1.34375,-1.90625 -0.40734,-0.89528 -0.63087,-1.89534 -0.71875,-2.875 -0.10394,-1.15896 -0.1321,-2.35929 0.21875,-3.46875 0.35174,-1.11236 1.01624,-2.1776 1.84375,-3 0.678,-0.67385 1.58039,-1.0455 2.4375,-1.46875 1.31178,-0.64776 2.73423,-1.05325 4.09375,-1.59375 1.47177,-0.58513 2.97905,-1.0945 4.40625,-1.78125 1.56568,-0.7534 3.11488,-1.55616 4.53125,-2.5625 1.08351,-0.76986 2.05923,-1.71731 3,-2.65625 1.0285,-1.02649 2.875,-3.25 2.875,-3.25 z"
           style="fill:#2f9600;fill-opacity:1;stroke:none" />
      </g>
    </g>
    <g
       transform="matrix(1.0762906,0,0,-1.0762906,-30.052134,704.52379)"
       id="g3237"
       inkscape:export-filename="C:\Users\sr41756\Desktop\logo2.png"
       inkscape:export-xdpi="48.573853"
       inkscape:export-ydpi="48.573853">
      <g
         id="g3192">
        <g
           id="g3093"
           transform="translate(60.095505,391.48151)">
          <path
             d="m 0,0 c 4.468,-2.538 9.501,-3.825 14.958,-3.825 l 10e-4,0 c 7.183,0 13.214,2.24 15.666,3.3 l 0,3.304 c -0.006,0.622 -0.22,6.133 -5.957,6.133 l -46.208,0 c -0.603,-0.005 -5.957,-0.229 -5.957,-6.133 l 0,-1.021 c 2.799,1.135 7.037,2.389 12.129,2.389 C -10.015,4.147 -4.844,2.751 0,0"
             style="fill:#6ba62e;fill-opacity:1;fill-rule:nonzero;stroke:none"
             id="path3095"
             inkscape:connector-curvature="0" />
        </g>
        <g
           id="g3097"
           transform="translate(81.502808,365.9532)">
          <path
             d="m 0,0 0,-23.681 3.255,0 c 0.62,0.007 5.963,0.236 5.963,6.133 l 0,20.104 C 7.189,1.742 3.955,0.645 0,0"
             style="fill:#6ba62e;fill-opacity:1;fill-rule:nonzero;stroke:none"
             id="path3099"
             inkscape:connector-curvature="0" />
        </g>
        <g
           id="g3101"
           transform="translate(75.055801,365.41859)">
          <path
             d="m 0,0 -0.001,0 c -1.974,0 -3.897,0.16 -5.765,0.473 l 0,-23.619 9.305,0 0,23.31 C 2.399,0.059 1.217,0 0,0"
             style="fill:#6ba62e;fill-opacity:1;fill-rule:nonzero;stroke:none"
             id="path3103"
             inkscape:connector-curvature="0" />
        </g>
        <g
           id="g3105"
           transform="translate(58.879303,369.5654)">
          <path
             d="m 0,0 c -0.596,0.338 -1.197,0.653 -1.803,0.947 l 0,-28.24 9.305,0 0,24.241 C 4.871,-2.36 2.364,-1.343 0,0"
             style="fill:#6ba62e;fill-opacity:1;fill-rule:nonzero;stroke:none"
             id="path3107"
             inkscape:connector-curvature="0" />
        </g>
        <g
           id="g3109"
           transform="translate(44.862503,373.3884)">
          <path
             d="m 0,0 0,-31.116 9.305,0 0,29.463 C 6.295,-0.571 3.182,-0.015 0,0"
             style="fill:#811c76;fill-opacity:1;fill-rule:nonzero;stroke:none"
             id="path3111"
             inkscape:connector-curvature="0" />
        </g>
        <g
           id="g3113"
           transform="translate(32.598404,370.9183)">
          <path
             d="m 0,0 0,-22.513 c 0.006,-0.622 0.22,-6.133 5.958,-6.133 l 3.398,0 0,30.981 C 5.391,1.961 2.129,0.888 0,0"
             style="fill:#811c76;fill-opacity:1;fill-rule:nonzero;stroke:none"
             id="path3115"
             inkscape:connector-curvature="0" />
        </g>
        <g
           id="g3117"
           transform="translate(60.095505,381.6107)">
          <path
             d="m 0,0 c 4.468,-2.539 9.501,-3.826 14.958,-3.826 l 10e-4,0 c 7.186,10e-4 13.215,2.241 15.666,3.301 l 0,7.199 C 27.575,5.45 21.802,3.583 14.959,3.583 l -10e-4,0 c -5.889,0 -11.33,1.395 -16.174,4.147 -4.469,2.538 -9.23,3.826 -14.152,3.826 -5.3,0 -9.634,-1.496 -12.129,-2.609 l 0,-7.187 c 2.799,1.134 7.04,2.386 12.129,2.386 C -10.015,4.146 -4.844,2.751 0,0"
             style="fill:#6ba62e;fill-opacity:1;fill-rule:nonzero;stroke:none"
             id="path3119"
             inkscape:connector-curvature="0" />
        </g>
        <g
           id="g3121"
           transform="translate(60.095505,371.7061)">
          <path
             d="m 0,0 c 4.468,-2.538 9.501,-3.825 14.959,-3.825 7.182,0 13.212,2.239 15.666,3.3 l 0,7.232 C 27.575,5.484 21.802,3.617 14.959,3.616 l -10e-4,0 c -5.889,0 -11.33,1.396 -16.174,4.148 -4.469,2.538 -9.23,3.825 -14.152,3.825 -5.3,0 -9.634,-1.496 -12.129,-2.609 l 0,-7.22 c 2.799,1.134 7.041,2.387 12.129,2.387 C -10.015,4.147 -4.844,2.751 0,0"
             style="fill:#5c9bc1;fill-opacity:1;fill-rule:nonzero;stroke:none"
             id="path3123"
             inkscape:connector-curvature="0" />
        </g>
      </g>
      <g
         transform="translate(100.01939,396.9445)"
         id="g3125">
        <path
           inkscape:connector-curvature="0"
           id="path3127"
           style="fill:#211d1d;fill-opacity:1;fill-rule:nonzero;stroke:none"
           d="m 0,0 6.617,0 0,-0.974 -2.574,-0.18 0,-8.844 -1.484,0 0,8.829 L 0,-0.959 0,0 z" />
      </g>
      <g
         transform="translate(107.28551,396.9144)"
         id="g3129">
        <path
           inkscape:connector-curvature="0"
           id="path3131"
           style="fill:#211d1d;fill-opacity:1;fill-rule:nonzero;stroke:none"
           d="m 0,0 1.358,0.165 0,-3.702 c 0.237,0.179 0.331,0.239 0.489,0.329 0.442,0.24 1.058,0.39 1.611,0.39 0.694,0 1.327,-0.225 1.753,-0.6 0.394,-0.359 0.536,-0.794 0.536,-1.663 l 0,-4.887 -1.341,0 0,4.587 c 0,0.285 -0.016,0.479 -0.064,0.644 -0.126,0.525 -0.616,0.855 -1.31,0.855 -0.411,0 -0.869,-0.12 -1.232,-0.33 -0.143,-0.075 -0.221,-0.135 -0.442,-0.3 l 0,-5.456 L 0,-9.968 0,0 z" />
      </g>
      <g
         transform="translate(118.82989,390.8886)"
         id="g3133">
        <path
           inkscape:connector-curvature="0"
           id="path3135"
           style="fill:#211d1d;fill-opacity:1;fill-rule:nonzero;stroke:none"
           d="M 0,0 C 0,1.439 -0.552,2.188 -1.626,2.188 -2.684,2.188 -3.3,1.409 -3.332,0 L 0,0 z m -3.221,-0.884 c 0.127,-1.424 0.963,-2.189 2.353,-2.189 0.505,0 0.995,0.09 1.69,0.345 L 1.09,-3.703 c -0.789,-0.269 -1.532,-0.389 -2.274,-0.389 -2.242,0 -3.554,1.364 -3.554,3.732 0,2.204 1.185,3.538 3.128,3.538 1.894,0 2.953,-1.259 2.953,-3.478 0,-0.135 0,-0.33 -0.016,-0.584 l -4.548,0 z" />
      </g>
      <g
         transform="translate(125.2121,386.5865)"
         id="g3137">
        <path
           inkscape:connector-curvature="0"
           id="path3139"
           style="fill:#211d1d;fill-opacity:1;fill-rule:nonzero;stroke:none"
           d="m 0,0 c 0.078,0.33 0.11,0.63 0.11,1.529 l 0,8.829 1.5,0 0,-8.694 C 1.61,0.405 1.579,0.15 1.341,-0.315 1.105,-0.795 0.758,-1.199 0.142,-1.664 l -0.774,0.51 C -0.268,-0.75 -0.111,-0.45 0,0" />
      </g>
      <g
         transform="translate(131.29179,390.4689)"
         id="g3141">
        <path
           inkscape:connector-curvature="0"
           id="path3143"
           style="fill:#211d1d;fill-opacity:1;fill-rule:nonzero;stroke:none"
           d="m 0,0 c -1.105,0 -1.847,-0.57 -1.847,-1.424 0,-0.735 0.584,-1.244 1.452,-1.244 0.553,0 1.011,0.18 1.58,0.614 l 0,1.949 C 0.711,-0.03 0.363,0 0,0 m 1.185,1.334 c 0,0.225 0,0.36 -0.032,0.48 -0.111,0.494 -0.6,0.764 -1.405,0.764 -0.585,0 -1.201,-0.135 -2.022,-0.419 l -0.347,1.019 c 0.394,0.105 0.536,0.135 0.774,0.195 0.663,0.15 1.279,0.225 1.894,0.225 0.885,0 1.485,-0.165 1.943,-0.525 0.427,-0.345 0.553,-0.69 0.553,-1.574 l 0,-5.022 -1.28,0 -0.047,0.645 c -0.758,-0.585 -1.374,-0.81 -2.132,-0.81 -1.437,0 -2.4,0.885 -2.4,2.189 0,1.439 1.106,2.368 2.795,2.368 0.474,0 1.105,-0.09 1.706,-0.224 l 0,0.689 z" />
      </g>
      <g
         transform="translate(135.35139,393.88651)"
         id="g3145">
        <path
           inkscape:connector-curvature="0"
           id="path3147"
           style="fill:#211d1d;fill-opacity:1;fill-rule:nonzero;stroke:none"
           d="m 0,0 1.357,0.165 0,-0.57 c 0.238,0.15 0.332,0.195 0.459,0.255 0.458,0.225 0.978,0.36 1.453,0.36 0.6,0 1.169,-0.195 1.563,-0.525 0.111,-0.09 0.174,-0.165 0.301,-0.345 0.757,0.57 1.468,0.84 2.241,0.84 0.664,0 1.248,-0.225 1.643,-0.6 0.426,-0.419 0.552,-0.809 0.552,-1.739 l 0,-4.781 -1.357,0 0,4.497 c 0,0.284 -0.016,0.509 -0.048,0.659 -0.095,0.525 -0.616,0.9 -1.232,0.9 -0.521,0 -0.947,-0.18 -1.484,-0.6 l 0,-5.456 -1.342,0 0,4.467 c 0,0.389 0,0.554 -0.032,0.674 -0.079,0.555 -0.6,0.93 -1.295,0.93 -0.473,0 -0.852,-0.135 -1.422,-0.54 l 0,-5.531 L 0,-6.94 0,0 z" />
      </g>
      <g
         transform="translate(150.8606,390.8886)"
         id="g3149">
        <path
           inkscape:connector-curvature="0"
           id="path3151"
           style="fill:#211d1d;fill-opacity:1;fill-rule:nonzero;stroke:none"
           d="M 0,0 C 0,1.439 -0.553,2.188 -1.627,2.188 -2.685,2.188 -3.3,1.409 -3.332,0 L 0,0 z m -3.222,-0.884 c 0.127,-1.424 0.963,-2.189 2.353,-2.189 0.506,0 0.995,0.09 1.69,0.345 L 1.089,-3.703 C 0.3,-3.972 -0.442,-4.092 -1.185,-4.092 c -2.242,0 -3.553,1.364 -3.553,3.732 0,2.204 1.185,3.538 3.127,3.538 1.895,0 2.953,-1.259 2.953,-3.478 0,-0.135 0,-0.33 -0.016,-0.584 l -4.548,0 z" />
      </g>
      <g
         transform="translate(153.2464,388.2803)"
         id="g3153">
        <path
           inkscape:connector-curvature="0"
           id="path3155"
           style="fill:#211d1d;fill-opacity:1;fill-rule:nonzero;stroke:none"
           d="m 0,0 c 0.757,-0.3 1.358,-0.45 1.926,-0.45 0.916,0 1.516,0.36 1.516,0.9 0,0.434 -0.284,0.659 -1.785,1.334 -0.82,0.39 -1.089,0.539 -1.405,0.824 -0.362,0.33 -0.568,0.795 -0.568,1.274 0,1.155 1.089,1.934 2.732,1.934 0.71,0 1.453,-0.15 2.337,-0.465 L 4.39,4.347 C 3.569,4.632 2.953,4.767 2.4,4.767 1.579,4.767 1.058,4.452 1.058,3.942 1.058,3.793 1.105,3.658 1.184,3.538 1.342,3.328 1.484,3.223 2.116,2.923 L 2.684,2.653 3.41,2.294 C 4.516,1.769 4.895,1.319 4.895,0.525 c 0,-1.259 -1.089,-2.054 -2.811,-2.054 -0.773,0 -1.516,0.135 -2.463,0.465 L 0,0 z" />
      </g>
      <g
         transform="translate(100.0293,381.0294)"
         id="g3157">
        <path
           inkscape:connector-curvature="0"
           id="path3159"
           style="fill:#211d1d;fill-opacity:1;fill-rule:nonzero;stroke:none"
           d="m 0,0 3.158,0 0,-6.535 4.335,0 0,6.535 3.158,0 0,-15.908 -3.158,0 0,7.155 -4.335,0 0,-7.155 -3.158,0 L 0,0 z" />
      </g>
      <g
         transform="translate(115.65871,376.6886)"
         id="g3161">
        <path
           inkscape:connector-curvature="0"
           id="path3163"
           style="fill:#211d1d;fill-opacity:1;fill-rule:nonzero;stroke:none"
           d="m 0,0 0,-7.656 c 0,-1.312 0.461,-1.836 1.636,-1.836 0.6,0 1.177,0.191 1.799,0.644 l 0,8.562 2.767,0 0,-11.281 -2.744,0 -0.023,0.668 c -1.037,-0.668 -1.891,-0.93 -2.928,-0.93 -2.167,0 -3.274,1.144 -3.274,3.386 l 0,8.133 L 0,0 z" />
      </g>
      <g
         transform="translate(123.4041,376.4025)"
         id="g3165">
        <path
           inkscape:connector-curvature="0"
           id="path3167"
           style="fill:#211d1d;fill-opacity:1;fill-rule:nonzero;stroke:none"
           d="m 0,0 1.221,0 0,1.741 2.767,0.382 0,-2.123 1.914,0 0,-1.837 -1.914,-0.214 0,-6.01 c 0,-0.334 0.023,-0.573 0.023,-0.692 0.069,-0.477 0.415,-0.739 0.945,-0.739 0.278,0 0.554,0.071 0.969,0.214 l 0,-1.955 c -0.485,-0.191 -1.269,-0.31 -1.914,-0.31 -1.983,0 -2.79,0.763 -2.79,2.623 l 0,6.869 L 0,-1.837 0,0 z" />
      </g>
      <g
         transform="translate(130.48019,376.4025)"
         id="g3169">
        <path
           inkscape:connector-curvature="0"
           id="path3171"
           style="fill:#211d1d;fill-opacity:1;fill-rule:nonzero;stroke:none"
           d="m 0,0 1.222,0 0,1.741 2.767,0.382 0,-2.123 1.913,0 0,-1.837 -1.913,-0.214 0,-6.01 c 0,-0.334 0.022,-0.573 0.022,-0.692 0.07,-0.477 0.415,-0.739 0.946,-0.739 0.277,0 0.553,0.071 0.968,0.214 l 0,-1.955 c -0.484,-0.191 -1.268,-0.31 -1.914,-0.31 -1.982,0 -2.789,0.763 -2.789,2.623 l 0,6.869 L 0,-1.837 0,0 z" />
      </g>
      <g
         transform="translate(142.58299,366.8625)"
         id="g3173">
        <path
           inkscape:connector-curvature="0"
           id="path3175"
           style="fill:#211d1d;fill-opacity:1;fill-rule:nonzero;stroke:none"
           d="M 0,0 C 1.314,0 1.983,1.264 1.983,3.888 1.983,6.511 1.314,7.799 0,7.799 -1.314,7.799 -1.983,6.511 -1.983,3.935 -1.983,1.264 -1.337,0 0,0 m 0,9.826 c 3.274,0 4.865,-1.932 4.865,-5.938 0,-4.007 -1.591,-5.939 -4.865,-5.939 -3.274,0 -4.865,1.932 -4.865,5.867 0,4.078 1.545,6.01 4.865,6.01" />
      </g>
      <g
         transform="translate(149.1528,376.37869)"
         id="g3177">
        <path
           inkscape:connector-curvature="0"
           id="path3179"
           style="fill:#211d1d;fill-opacity:1;fill-rule:nonzero;stroke:none"
           d="m 0,0 2.743,0.286 0,-0.906 C 3.735,0 4.749,0.334 5.694,0.334 c 0.968,0 1.891,-0.334 2.467,-0.93 0.6,-0.597 0.807,-1.336 0.807,-2.815 l 0,-7.846 -2.766,0 0,7.131 c 0,0.334 -0.024,0.668 -0.047,0.883 -0.115,0.739 -0.737,1.216 -1.568,1.216 -0.552,0 -1.175,-0.239 -1.844,-0.692 l 0,-8.538 -2.743,0 L 0,0 z" />
      </g>
      <path
         inkscape:connector-curvature="0"
         id="path3181"
         style="fill:#211d1d;fill-opacity:1;fill-rule:nonzero;stroke:none"
         d="m 100.019,359.279 2.546,0 0,-13.486 -2.546,0 0,13.486 z" />
      <g
         transform="translate(104.3248,355.3365)"
         id="g3183">
        <path
           inkscape:connector-curvature="0"
           id="path3185"
           style="fill:#211d1d;fill-opacity:1;fill-rule:nonzero;stroke:none"
           d="m 0,0 2.228,0.243 0,-0.769 C 3.033,0 3.857,0.283 4.624,0.283 5.41,0.283 6.159,0 6.628,-0.506 7.114,-1.011 7.283,-1.638 7.283,-2.891 l 0,-6.652 -2.247,0 0,6.045 c 0,0.283 -0.019,0.566 -0.038,0.748 -0.093,0.627 -0.599,1.031 -1.272,1.031 -0.45,0 -0.955,-0.201 -1.498,-0.586 l 0,-7.238 L 0,-9.543 0,0 z" />
      </g>
      <g
         transform="translate(113.291,347.99741)"
         id="g3187">
        <path
           inkscape:connector-curvature="0"
           id="path3189"
           style="fill:#211d1d;fill-opacity:1;fill-rule:nonzero;stroke:none"
           d="m 0,0 c 0.281,-0.121 0.412,-0.182 0.6,-0.243 0.561,-0.161 1.16,-0.263 1.61,-0.263 1.01,0 1.628,0.364 1.628,0.931 0,0.303 -0.15,0.525 -0.506,0.747 C 2.996,1.395 2.808,1.496 1.928,1.86 1.068,2.244 0.656,2.507 0.281,2.891 -0.168,3.356 -0.43,4.023 -0.43,4.751 c 0,1.759 1.385,2.891 3.576,2.891 0.898,0 1.797,-0.181 2.92,-0.565 L 5.58,5.257 C 4.625,5.621 3.782,5.803 3.146,5.803 2.303,5.803 1.798,5.479 1.798,4.933 1.798,4.772 1.854,4.609 1.928,4.509 2.116,4.266 2.21,4.185 2.921,3.841 L 3.538,3.538 4.362,3.154 C 5.71,2.507 6.216,1.799 6.216,0.607 c 0,-1.921 -1.385,-3.094 -3.651,-3.094 -0.749,0 -1.647,0.142 -2.415,0.364 -0.187,0.061 -0.318,0.101 -0.655,0.223 L 0,0 z" />
      </g>
      <g
         transform="translate(120.4422,355.35699)"
         id="g3191">
        <path
           inkscape:connector-curvature="0"
           id="path3193"
           style="fill:#211d1d;fill-opacity:1;fill-rule:nonzero;stroke:none"
           d="m 0,0 0.992,0 0,1.476 2.247,0.323 0,-1.799 1.554,0 0,-1.557 -1.554,-0.182 0,-5.095 c 0,-0.283 0.018,-0.485 0.018,-0.586 0.057,-0.405 0.338,-0.627 0.768,-0.627 0.225,0 0.449,0.061 0.786,0.182 l 0,-1.658 C 4.418,-9.685 3.782,-9.786 3.257,-9.786 c -1.61,0 -2.265,0.647 -2.265,2.224 l 0,5.823 L 0,-1.557 0,0 z" />
      </g>
      <g
         transform="translate(126.6947,355.3365)"
         id="g3195">
        <path
           inkscape:connector-curvature="0"
           id="path3197"
           style="fill:#211d1d;fill-opacity:1;fill-rule:nonzero;stroke:none"
           d="m 0,0 2.228,0.243 0,-9.786 L 0,-9.543 0,0 z m 1.105,4.044 c 0.692,0 1.254,-0.546 1.254,-1.213 0,-0.688 -0.562,-1.234 -1.254,-1.234 -0.675,0 -1.236,0.546 -1.236,1.214 0,0.687 0.543,1.233 1.236,1.233" />
      </g>
      <g
         transform="translate(130.3632,355.35699)"
         id="g3199">
        <path
           inkscape:connector-curvature="0"
           id="path3201"
           style="fill:#211d1d;fill-opacity:1;fill-rule:nonzero;stroke:none"
           d="m 0,0 0.992,0 0,1.476 2.247,0.323 0,-1.799 1.553,0 0,-1.557 -1.553,-0.182 0,-5.095 c 0,-0.283 0.019,-0.485 0.019,-0.586 0.056,-0.405 0.336,-0.627 0.767,-0.627 0.225,0 0.449,0.061 0.786,0.182 l 0,-1.658 C 4.418,-9.685 3.782,-9.786 3.258,-9.786 c -1.61,0 -2.266,0.647 -2.266,2.224 l 0,5.823 L 0,-1.557 0,0 z" />
      </g>
      <g
         transform="translate(138.6749,355.5995)"
         id="g3203">
        <path
           inkscape:connector-curvature="0"
           id="path3205"
           style="fill:#211d1d;fill-opacity:1;fill-rule:nonzero;stroke:none"
           d="m 0,0 0,-6.49 c 0,-1.112 0.375,-1.557 1.33,-1.557 0.486,0 0.954,0.162 1.46,0.546 l 0,7.259 2.247,0 0,-9.564 -2.229,0 -0.018,0.566 c -0.842,-0.566 -1.536,-0.789 -2.378,-0.789 -1.76,0 -2.658,0.971 -2.658,2.872 l 0,6.894 L 0,0 z" />
      </g>
      <g
         transform="translate(144.96429,355.35699)"
         id="g3207">
        <path
           inkscape:connector-curvature="0"
           id="path3209"
           style="fill:#211d1d;fill-opacity:1;fill-rule:nonzero;stroke:none"
           d="m 0,0 0.992,0 0,1.476 2.247,0.323 0,-1.799 1.553,0 0,-1.557 -1.553,-0.182 0,-5.095 c 0,-0.283 0.019,-0.485 0.019,-0.586 0.056,-0.405 0.336,-0.627 0.767,-0.627 0.225,0 0.449,0.061 0.786,0.182 l 0,-1.658 C 4.418,-9.685 3.782,-9.786 3.258,-9.786 c -1.61,0 -2.266,0.647 -2.266,2.224 l 0,5.823 L 0,-1.557 0,0 z" />
      </g>
      <g
         transform="translate(156.06509,351.29289)"
         id="g3211">
        <path
           inkscape:connector-curvature="0"
           id="path3213"
           style="fill:#211d1d;fill-opacity:1;fill-rule:nonzero;stroke:none"
           d="M 0,0 0,0.081 C 0,1.678 -0.542,2.568 -1.554,2.568 -2.565,2.568 -3.145,1.638 -3.164,0 L 0,0 z m -2.939,-1.516 c 0.168,-1.537 1.049,-2.366 2.527,-2.366 0.562,0 1.068,0.101 1.892,0.405 L 1.854,-5.196 C 0.88,-5.56 0.038,-5.701 -0.936,-5.701 c -2.864,0 -4.474,1.859 -4.474,5.135 0,3.053 1.441,4.873 3.894,4.873 2.359,0 3.632,-1.719 3.632,-4.873 0,-0.243 0,-0.485 -0.038,-0.95 l -5.017,0 z" />
      </g>
      <text
         id="text3215"
         transform="matrix(1,0,0,-1,513.5669,275.1613)">
        <tspan
           id="tspan3217"
           y="0"
           x="0"
           style="font-size:60px;font-variant:normal;font-weight:normal;font-stretch:normal;writing-mode:lr-tb;fill:#6ea31b;fill-opacity:1;fill-rule:nonzero;stroke:none;font-family:Webdings;-inkscape-font-specification:Webdings"></tspan>
        <tspan
           id="tspan3219"
           y="52.98"
           x="0"
           style="font-size:60px;font-variant:normal;font-weight:normal;font-stretch:normal;writing-mode:lr-tb;fill:#6ea31b;fill-opacity:1;fill-rule:nonzero;stroke:none;font-family:Webdings;-inkscape-font-specification:Webdings"></tspan>
        <tspan
           id="tspan3221"
           y="99"
           x="0"
           style="font-size:60px;font-variant:normal;font-weight:normal;font-stretch:normal;writing-mode:lr-tb;fill:#6ea31b;fill-opacity:1;fill-rule:nonzero;stroke:none;font-family:Webdings;-inkscape-font-specification:Webdings"></tspan>
        <tspan
           id="tspan3223"
           y="178.98"
           x="0"
           style="font-size:60px;font-variant:normal;font-weight:normal;font-stretch:normal;writing-mode:lr-tb;fill:#6ea31b;fill-opacity:1;fill-rule:nonzero;stroke:none;font-family:Webdings;-inkscape-font-specification:Webdings"></tspan>
      </text>
    </g>
    <g
       style="font-size:40px;font-style:normal;font-variant:normal;font-weight:normal;font-stretch:normal;line-height:125%;letter-spacing:0px;word-spacing:0px;fill:#00acef;fill-opacity:1;stroke:none;font-family:Myriad Pro;-inkscape-font-specification:Myriad Pro"
       id="text4214"
       transform="translate(7.3543915,-81.640708)"
       inkscape:export-filename="C:\Users\sr41756\Desktop\logo2.png"
       inkscape:export-xdpi="48.573853"
       inkscape:export-ydpi="48.573853">
      <path
         d="m 174.72263,385.94872 -13.03183,0 0,7.7039 4.39194,0 0,11.73585 c -0.37201,0.144 -0.996,0.216 -1.87197,0.216 -2.32799,0.066 -4.38596,-1.12798 -6.17392,-3.58196 -1.78799,-2.45395 -2.72998,-6.5639 -2.82597,-12.32984 0.078,-6.22039 1.19998,-10.62733 3.36596,-13.22083 2.16596,-2.59343 4.90792,-3.85041 8.2259,-3.77095 1.14896,4e-5 2.18094,0.09 3.09596,0.27 0.91496,0.18003 1.73094,0.45003 2.44796,0.80998 l 1.58398,-8.13589 c -0.75902,-0.37495 -1.797,-0.70494 -3.11396,-0.98999 -1.31701,-0.28495 -2.89498,-0.43494 -4.73394,-0.44999 -5.41494,-0.0614 -10.13688,1.89752 -14.16581,5.87692 -4.02895,3.97949 -6.19492,10.3484 -6.49792,19.10676 -0.063,4.21796 0.44099,8.02191 1.51198,11.41185 1.07098,3.38996 2.65496,6.11393 4.75194,8.17189 1.57797,1.61848 3.44394,2.82747 5.59793,3.62696 2.15396,0.79949 4.63192,1.19848 7.4339,1.19698 1.82996,-0.018 3.67793,-0.198 5.54393,-0.53999 1.86595,-0.342 3.35393,-0.73799 4.46394,-1.18799 z"
         style="font-size:72px;font-weight:bold;fill:#00acef;fill-opacity:1;font-family:Myriad Pro Cond;-inkscape-font-specification:Myriad Pro Cond Bold"
         id="path4219"
         inkscape:connector-curvature="0" />
      <path
         d="m 205.51393,398.90855 c 0.075,-0.48748 0.14097,-1.11447 0.19799,-1.88098 0.057,-0.76647 0.087,-1.77145 0.09,-3.01496 -0.0255,-5.3894 -1.07251,-9.51434 -3.14096,-12.37484 -2.0685,-2.86043 -5.00546,-4.30341 -8.81088,-4.32894 -4.05297,0.0465 -7.39492,1.71751 -10.02588,5.01294 -2.63097,3.29548 -3.99295,7.93642 -4.08594,13.92282 0.018,5.54243 1.29598,9.81138 3.83395,12.80683 2.53796,2.99546 6.2279,4.51044 11.06986,4.54494 1.79395,-0.007 3.53393,-0.1545 5.21993,-0.44099 1.68595,-0.2865 3.13793,-0.66749 4.35594,-1.14299 l -1.22398,-6.76791 c -0.86852,0.3 -1.8675,0.564 -2.99696,0.79199 -1.12951,0.228 -2.36249,0.348 -3.69896,0.35999 -2.09999,0.03 -3.83996,-0.53398 -5.21993,-1.69197 -1.37999,-1.15798 -2.11198,-3.08995 -2.19597,-5.79593 z m -16.63179,-6.62391 c 0.0255,-1.87946 0.38848,-3.66443 1.08898,-5.35494 0.70048,-1.69045 1.80147,-2.59343 3.30296,-2.70896 1.39347,0.0525 2.40445,0.82952 3.03296,2.33097 0.62847,1.5015 0.93747,3.41248 0.92699,5.73293 z"
         style="font-size:72px;font-weight:bold;fill:#00acef;fill-opacity:1;font-family:Myriad Pro Cond;-inkscape-font-specification:Myriad Pro Cond Bold"
         id="path4221"
         inkscape:connector-curvature="0" />
      <path
         d="m 211.19662,413.16437 9.43187,0 0,-17.92777 c -1e-5,-0.72747 0.036,-1.39646 0.108,-2.00698 0.072,-0.61047 0.17999,-1.11746 0.324,-1.52098 0.55198,-1.78195 1.37397,-3.05993 2.46597,-3.83395 1.09196,-0.77396 2.16595,-1.15196 3.22196,-1.13398 0.77997,-0.012 1.45196,0.012 2.01597,0.072 l 0,-9.28788 c -0.24152,-0.072 -0.51451,-0.12597 -0.81899,-0.162 -0.30452,-0.036 -0.70351,-0.054 -1.19698,-0.054 -1.29601,0.006 -2.57399,0.49803 -3.83396,1.47598 -1.25999,0.97802 -2.28598,2.406 -3.07796,4.28395 l -0.28799,0 -0.50399,-5.11194 -8.1359,0 c 0.075,1.67401 0.14099,3.41999 0.198,5.23793 0.057,1.81801 0.087,3.59998 0.09,5.34593 z"
         style="font-size:72px;font-weight:bold;fill:#00acef;fill-opacity:1;font-family:Myriad Pro Cond;-inkscape-font-specification:Myriad Pro Cond Bold"
         id="path4223"
         inkscape:connector-curvature="0" />
      <path
         d="m 232.35899,413.16437 9.43188,0 0,-22.17572 c 10e-4,-0.51147 0.0345,-1.00046 0.099,-1.46698 0.0645,-0.46647 0.15148,-0.86546 0.261,-1.19698 0.34048,-1.07696 0.82947,-1.87495 1.46698,-2.39397 0.63747,-0.51897 1.32446,-0.77696 2.06097,-0.77399 1.42346,0.084 2.32045,0.74401 2.69096,1.97997 0.37048,1.23601 0.52948,2.54399 0.477,3.92395 l 0,22.10372 9.43188,0 0,-22.31971 c -0.002,-0.50998 0.0195,-0.98397 0.063,-1.42199 0.0435,-0.43797 0.11847,-0.80396 0.22499,-1.09798 0.29547,-1.01396 0.74847,-1.79395 1.35899,-2.33997 0.61046,-0.54597 1.33345,-0.82197 2.16897,-0.82799 1.36345,0.0525 2.25443,0.75752 2.67296,2.11497 0.41846,1.35751 0.60746,3.05248 0.567,5.08494 l 0,20.80773 9.43188,0 0,-22.39171 c 0.0149,-4.24642 -0.71704,-7.54338 -2.19598,-9.89088 -1.47902,-2.34743 -3.79499,-3.53842 -6.94791,-3.57295 -1.81201,4e-5 -3.44399,0.43203 -4.89593,1.29598 -0.69453,0.43953 -1.35752,0.96452 -1.98898,1.57498 -0.63152,0.61053 -1.16851,1.26152 -1.61098,1.95298 l -0.14399,0 c -0.60903,-1.52395 -1.55101,-2.70594 -2.82597,-3.54596 -1.27501,-0.83995 -2.90098,-1.26595 -4.87794,-1.27798 -1.81049,0.033 -3.42747,0.48903 -4.85093,1.36798 -1.4235,0.87902 -2.59048,1.98301 -3.50096,3.31196 l -0.144,0 -0.50399,-4.03195 -8.20789,0 c 0.075,1.68301 0.14099,3.39299 0.19799,5.12993 0.057,1.73701 0.087,3.55499 0.09,5.45393 z"
         style="font-size:72px;font-weight:bold;fill:#00acef;fill-opacity:1;font-family:Myriad Pro Cond;-inkscape-font-specification:Myriad Pro Cond Bold"
         id="path4225"
         inkscape:connector-curvature="0" />
      <path
         d="m 290.80037,413.16437 0,-35.20755 -9.43188,0 0,35.20755 z"
         style="font-size:72px;font-weight:bold;fill:#00acef;fill-opacity:1;font-family:Myriad Pro Cond;-inkscape-font-specification:Myriad Pro Cond Bold"
         id="path4227"
         inkscape:connector-curvature="0"
         sodipodi:nodetypes="ccccc" />
      <path
         d="m 297.39974,413.16437 9.43188,0 0,-21.45573 c 0.003,-0.68847 0.051,-1.30946 0.144,-1.86297 0.093,-0.55347 0.21298,-1.01246 0.35999,-1.37698 0.33148,-1.04547 0.80248,-1.83445 1.41299,-2.36697 0.61047,-0.53247 1.31546,-0.79947 2.11497,-0.80099 1.34096,0.0585 2.25895,0.66152 2.75396,1.80897 0.49498,1.14751 0.72897,2.4885 0.70199,4.02295 l 0,22.03172 9.43188,0 0,-22.60771 c 0.0285,-3.98242 -0.69452,-7.15938 -2.16897,-9.53088 -1.47451,-2.37144 -3.87148,-3.58642 -7.19091,-3.64495 -1.84799,0.021 -3.49797,0.44703 -4.94993,1.27798 -1.452,0.83103 -2.63398,1.94101 -3.54596,3.32996 l -0.144,0 -0.50399,-4.03195 -8.1359,0 c 0.075,1.68301 0.141,3.39299 0.198,5.12993 0.057,1.73701 0.087,3.55499 0.09,5.45393 z"
         style="font-size:72px;font-weight:bold;fill:#00acef;fill-opacity:1;font-family:Myriad Pro Cond;-inkscape-font-specification:Myriad Pro Cond Bold"
         id="path4229"
         inkscape:connector-curvature="0" />
      <path
         d="m 354.06569,392.06864 c 0.15147,-3.76193 -0.58352,-7.10988 -2.20498,-10.04387 -1.6215,-2.93393 -5.03845,-4.48191 -10.25086,-4.64394 -2.50648,0.0435 -4.71145,0.35253 -6.61492,0.92699 -1.90348,0.57452 -3.37046,1.15352 -4.40094,1.73697 l 1.72798,6.40792 c 1.06947,-0.65396 2.18846,-1.16396 3.35695,-1.52998 1.16848,-0.36597 2.44946,-0.55196 3.84295,-0.55799 1.68747,0.0255 2.93845,0.47852 3.75295,1.35898 0.81448,0.88052 1.21947,2.0355 1.21499,3.46496 l 0,0.79199 c -4.16846,-0.003 -7.85541,1.029 -11.06086,3.09596 -3.20546,2.06699 -4.89444,5.40294 -5.06693,10.00787 0.054,3.15296 0.93598,5.70293 2.64596,7.6499 1.70998,1.94697 3.92394,2.94896 6.64192,3.00596 1.56146,-0.002 3.01044,-0.3405 4.34694,-1.01699 1.33647,-0.67649 2.47945,-1.68147 3.42896,-3.01496 l 0.21599,0 0.504,3.45596 8.42389,0 c -0.17853,-1.19999 -0.30753,-2.48997 -0.387,-3.86995 -0.0795,-1.37998 -0.11852,-2.77796 -0.11699,-4.19395 z m -9.28789,10.07987 c -1e-5,0.32101 -0.018,0.615 -0.054,0.88199 -0.036,0.267 -0.09,0.525 -0.162,0.77399 -0.34652,1.03949 -0.87751,1.80448 -1.59298,2.29497 -0.71551,0.4905 -1.4805,0.73349 -2.29497,0.72899 -0.77101,0.018 -1.51499,-0.34199 -2.23197,-1.07999 -0.71701,-0.73798 -1.101,-1.96196 -1.15199,-3.67195 0.11849,-2.38946 0.97948,-4.00043 2.58297,-4.83294 1.60346,-0.83247 3.23844,-1.23746 4.90493,-1.21498 z"
         style="font-size:72px;font-weight:bold;fill:#00acef;fill-opacity:1;font-family:Myriad Pro Cond;-inkscape-font-specification:Myriad Pro Cond Bold"
         id="path4231"
         inkscape:connector-curvature="0" />
      <path
         d="m 362.33697,371.7649 0,6.19192 -4.17595,0 0,6.69591 4.17595,0 0,16.63179 c 0.006,2.72847 0.26399,4.86744 0.77399,6.41692 0.50999,1.54948 1.23598,2.77046 2.17797,3.66295 0.86998,0.78599 1.88397,1.35598 3.04196,1.70998 1.15798,0.35399 2.42396,0.52799 3.79795,0.52199 1.22997,-0.005 2.33396,-0.0675 3.31196,-0.189 0.97797,-0.12149 1.79396,-0.27449 2.44797,-0.45899 l -0.072,-7.3439 c -0.42451,0.072 -0.83551,0.126 -1.23298,0.16199 -0.39752,0.036 -0.82651,0.054 -1.28699,0.054 -0.9345,0.0435 -1.74749,-0.29549 -2.43897,-1.01699 -0.6915,-0.72148 -1.0545,-2.08646 -1.08898,-4.09494 l 0,-16.0558 6.91191,0 0,-6.69591 -6.91191,0 0,-9.14388 z"
         style="font-size:72px;font-weight:bold;fill:#00acef;fill-opacity:1;font-family:Myriad Pro Cond;-inkscape-font-specification:Myriad Pro Cond Bold"
         id="path4233"
         inkscape:connector-curvature="0" />
      <path
         d="m 407.59205,398.90855 c 0.075,-0.48748 0.14097,-1.11447 0.198,-1.88098 0.057,-0.76647 0.087,-1.77145 0.09,-3.01496 -0.0255,-5.3894 -1.07252,-9.51434 -3.14096,-12.37484 -2.0685,-2.86043 -5.00546,-4.30341 -8.81089,-4.32894 -4.05296,0.0465 -7.39492,1.71751 -10.02587,5.01294 -2.63097,3.29548 -3.99295,7.93642 -4.08595,13.92282 0.018,5.54243 1.29598,9.81138 3.83395,12.80683 2.53796,2.99546 6.22791,4.51044 11.06986,4.54494 1.79396,-0.007 3.53393,-0.1545 5.21993,-0.44099 1.68596,-0.2865 3.13794,-0.66749 4.35595,-1.14299 l -1.22399,-6.76791 c -0.86851,0.3 -1.8675,0.564 -2.99696,0.79199 -1.12951,0.228 -2.36249,0.348 -3.69895,0.35999 -2.09999,0.03 -3.83997,-0.53398 -5.21994,-1.69197 -1.37999,-1.15798 -2.11198,-3.08995 -2.19597,-5.79593 z m -16.63179,-6.62391 c 0.0255,-1.87946 0.38849,-3.66443 1.08899,-5.35494 0.70048,-1.69045 1.80146,-2.59343 3.30296,-2.70896 1.39346,0.0525 2.40445,0.82952 3.03296,2.33097 0.62847,1.5015 0.93747,3.41248 0.92699,5.73293 z"
         style="font-size:72px;font-weight:bold;fill:#00acef;fill-opacity:1;font-family:Myriad Pro Cond;-inkscape-font-specification:Myriad Pro Cond Bold"
         id="path4235"
         inkscape:connector-curvature="0" />
      <path
         d="m 423.08139,411.65239 c 1.02898,0.59099 2.33696,1.08298 3.92394,1.47598 1.58698,0.39299 3.32695,0.59699 5.21994,0.61199 5.12692,-0.1425 9.02086,-1.60348 11.68185,-4.38294 2.66094,-2.77946 3.99892,-6.02242 4.01395,-9.72888 -0.0495,-3.14094 -0.81452,-5.71491 -2.29497,-7.7219 -1.48051,-2.00695 -3.37948,-3.39293 -5.69693,-4.15795 l 0,-0.14399 c 2.10895,-0.99596 3.75893,-2.40595 4.94994,-4.22995 1.19096,-1.82394 1.79695,-3.91792 1.81797,-6.28192 -0.003,-3.08542 -1.04101,-5.71638 -3.11396,-7.8929 -2.07299,-2.17642 -5.16295,-3.31341 -9.26988,-3.41095 -1.98148,0.0256 -3.83246,0.28054 -5.55293,0.76499 -1.72048,0.48454 -3.08546,1.04553 -4.09494,1.68298 l 1.29598,7.1279 c 0.86698,-0.58195 1.79697,-1.03794 2.78996,-1.36798 0.99298,-0.32995 2.03097,-0.49795 3.11396,-0.50399 1.67397,0.0135 2.98795,0.49053 3.94195,1.43098 0.95397,0.94053 1.43997,2.26351 1.45798,3.96895 -0.11101,2.232 -0.987,3.79798 -2.62796,4.69794 -1.64099,0.90002 -3.38097,1.35001 -5.21994,1.34998 l -0.93598,0 0,6.91191 1.29598,0 c 2.41046,0.0165 4.44743,0.61351 6.11092,1.79098 1.66346,1.1775 2.53045,3.05248 2.60097,5.62493 -0.009,2.01448 -0.62101,3.63746 -1.83598,4.86893 -1.215,1.23149 -2.97897,1.86449 -5.29193,1.89898 -1.24499,-0.007 -2.48098,-0.17249 -3.70795,-0.49499 -1.22699,-0.32249 -2.31898,-0.75749 -3.27596,-1.30499 z"
         style="font-size:72px;font-weight:bold;fill:#00acef;fill-opacity:1;font-family:Myriad Pro Cond;-inkscape-font-specification:Myriad Pro Cond Bold"
         id="path4237"
         inkscape:connector-curvature="0" />
    </g>
  </g>
</svg>
