<?xml version="1.0" encoding="UTF-8" standalone="no"?>
<!-- Created with Inkscape (http://www.inkscape.org/) -->

<svg
   xmlns:dc="http://purl.org/dc/elements/1.1/"
   xmlns:cc="http://creativecommons.org/ns#"
   xmlns:rdf="http://www.w3.org/1999/02/22-rdf-syntax-ns#"
   xmlns:svg="http://www.w3.org/2000/svg"
   xmlns="http://www.w3.org/2000/svg"
   xmlns:xlink="http://www.w3.org/1999/xlink"
   xmlns:sodipodi="http://sodipodi.sourceforge.net/DTD/sodipodi-0.dtd"
   xmlns:inkscape="http://www.inkscape.org/namespaces/inkscape"
   width="302.50732"
   height="70.10656"
   id="svg2"
   version="1.1"
   inkscape:version="0.48.4 r9939"
   inkscape:export-filename="C:\Users\sr41756\Desktop\logo2.png"
   inkscape:export-xdpi="38.859631"
   inkscape:export-ydpi="38.859631"
   sodipodi:docname="logo.svg">
  <defs
     id="defs4">
    <linearGradient
       id="linearGradient3822">
      <stop
         style="stop-color:#008f00;stop-opacity:1;"
         offset="0"
         id="stop3824" />
      <stop
         style="stop-color:#ffffff;stop-opacity:1;"
         offset="1"
         id="stop3826" />
    </linearGradient>
    <linearGradient
       id="linearGradient3795">
      <stop
         style="stop-color:#2f9600;stop-opacity:1;"
         offset="0"
         id="stop3797" />
      <stop
         style="stop-color:#ffffff;stop-opacity:1;"
         offset="1"
         id="stop3799" />
    </linearGradient>
    <linearGradient
       inkscape:collect="always"
       xlink:href="#linearGradient3822"
       id="linearGradient4158"
       gradientUnits="userSpaceOnUse"
       gradientTransform="matrix(-0.53167848,0,0,0.71443954,433.89361,175.30088)"
       x1="275.55096"
       y1="168.02112"
       x2="269.84589"
       y2="158.97551" />
    <linearGradient
       inkscape:collect="always"
       xlink:href="#linearGradient3822"
       id="linearGradient4164"
       gradientUnits="userSpaceOnUse"
       gradientTransform="matrix(0.85440613,0,0,0.85440613,65.07178,151.79594)"
       x1="275.55096"
       y1="168.02112"
       x2="269.84589"
       y2="158.97551" />
    <linearGradient
       inkscape:collect="always"
       xlink:href="#linearGradient3795"
       id="linearGradient4239"
       gradientUnits="userSpaceOnUse"
       gradientTransform="translate(59.366541,135.15201)"
       x1="289.23138"
       y1="151.37416"
       x2="281.02191"
       y2="143.24072" />
    <linearGradient
       inkscape:collect="always"
       xlink:href="#linearGradient3795"
       id="linearGradient3083"
       gradientUnits="userSpaceOnUse"
       gradientTransform="matrix(0.85440613,0,0,0.85440613,64.357366,151.40627)"
       x1="289.23138"
       y1="151.37416"
       x2="281.02191"
       y2="143.24072" />
    <linearGradient
       inkscape:collect="always"
       xlink:href="#linearGradient3795"
       id="linearGradient3866"
       x1="338.54877"
       y1="282.63428"
       x2="328.88077"
       y2="274.08105"
       gradientUnits="userSpaceOnUse" />
    <linearGradient
       inkscape:collect="always"
       xlink:href="#linearGradient3795"
       id="linearGradient3875"
       gradientUnits="userSpaceOnUse"
       x1="335.63193"
       y1="281.57361"
       x2="328.57141"
       y2="274.83234" />
    <linearGradient
       inkscape:collect="always"
       xlink:href="#linearGradient3795"
       id="linearGradient3891"
       gradientUnits="userSpaceOnUse"
       x1="335.63193"
       y1="281.57361"
       x2="328.57141"
       y2="274.83234" />
    <linearGradient
       inkscape:collect="always"
       xlink:href="#linearGradient3795"
       id="linearGradient3905"
       gradientUnits="userSpaceOnUse"
       x1="335.63193"
       y1="281.57361"
       x2="328.57141"
       y2="274.83234" />
    <linearGradient
       inkscape:collect="always"
       xlink:href="#linearGradient3795"
       id="linearGradient3907"
       gradientUnits="userSpaceOnUse"
       x1="335.63193"
       y1="281.57361"
       x2="328.57141"
       y2="274.83234" />
  </defs>
  <sodipodi:namedview
     id="base"
     pagecolor="#ffffff"
     bordercolor="#666666"
     borderopacity="1.0"
     inkscape:pageopacity="0.0"
     inkscape:pageshadow="2"
     inkscape:zoom="2"
     inkscape:cx="269.72212"
     inkscape:cy="71.905702"
     inkscape:document-units="px"
     inkscape:current-layer="layer1"
     showgrid="false"
     fit-margin-top="0"
     fit-margin-left="0"
     fit-margin-right="0"
     fit-margin-bottom="0"
     inkscape:window-width="1858"
     inkscape:window-height="1058"
     inkscape:window-x="54"
     inkscape:window-y="-8"
     inkscape:window-maximized="1" />
  <metadata
     id="metadata7">
    <rdf:RDF>
      <cc:Work
         rdf:about="">
        <dc:format>image/svg+xml</dc:format>
        <dc:type
           rdf:resource="http://purl.org/dc/dcmitype/StillImage" />
        <dc:title></dc:title>
      </cc:Work>
    </rdf:RDF>
  </metadata>
  <g
     inkscape:label="Layer 1"
     inkscape:groupmode="layer"
     id="layer1"
     transform="translate(-152.76815,-261.99309)">
    <path
       style="fill:url(#linearGradient4164);fill-opacity:1;stroke:#2f8600;stroke-width:0.25632185;stroke-miterlimit:4;stroke-opacity:0.95294118;stroke-dasharray:none"
       d="m 293.29343,296.71808 12.53465,-9.54712 -8.57291,9.87185 z"
       id="path3820"
       inkscape:connector-curvature="0"
       sodipodi:nodetypes="cccc"
       inkscape:export-filename="C:\Users\sr41756\Desktop\logo2.png"
       inkscape:export-xdpi="48.573853"
       inkscape:export-ydpi="48.573853" />
    <g
       id="g3884"
       transform="translate(-24.837126,-0.75130096)">
      <path
         sodipodi:nodetypes="aaaaaaaaaacaaaaaaaaa"
         inkscape:connector-curvature="0"
         id="path3088"
         d="m 327.56315,289.89401 c -0.61326,-0.57197 -1.13726,-1.26211 -1.50573,-2.01542 -0.46659,-0.95392 -0.71979,-2.01727 -0.84417,-3.07188 -0.14714,-1.24764 -0.21931,-2.55881 0.12586,-3.76674 0.34608,-1.21109 1.02005,-2.36057 1.8883,-3.27307 0.71141,-0.74767 1.68942,-1.19588 2.60167,-1.6785 1.39619,-0.73862 2.91316,-1.22205 4.36408,-1.84634 1.57073,-0.67584 3.18022,-1.27196 4.69978,-2.05615 1.667,-0.86027 3.3274,-1.76662 4.82566,-2.89539 1.14612,-0.8635 2.1602,-1.8957 3.14717,-2.93738 1.07904,-1.13882 3.0213,-3.60875 3.0213,-3.60875 0,0 -0.14552,2.12809 -0.25178,3.18914 -0.19656,1.96281 -0.41844,3.92426 -0.71336,5.87472 -0.34005,2.24889 -0.5983,4.52525 -1.21691,6.71397 -0.55529,1.96468 -1.21495,3.93202 -2.224,5.70688 -0.95556,1.68075 -2.14152,3.26751 -3.5668,4.57388 -1.02005,0.93494 -2.20129,1.73689 -3.48287,2.25858 -1.45382,0.5918 -3.04911,0.85317 -4.61709,0.92564 -1.20214,0.0556 -2.45517,0.0198 -3.59021,-0.38013 -0.99494,-0.35054 -1.88947,-0.99357 -2.6609,-1.71306 z"
         style="fill:#2f9600;fill-opacity:1;stroke:none" />
      <g
         id="g3877">
        <path
           sodipodi:nodetypes="aaaaaaaaaacaaaaaaaaa"
           inkscape:connector-curvature="0"
           id="path3858"
           d="m 327.83369,289.21943 c -0.553,-0.54542 -1.02032,-1.19795 -1.34199,-1.90495 -0.40734,-0.89528 -0.61427,-1.88635 -0.70215,-2.86601 -0.10394,-1.15896 -0.13687,-2.37479 0.21398,-3.48425 0.35174,-1.11236 1.00547,-2.15921 1.83298,-2.98161 0.678,-0.67385 1.59511,-1.06354 2.45222,-1.48679 1.31178,-0.64776 2.7288,-1.05611 4.08832,-1.59661 1.47177,-0.58513 2.97736,-1.09544 4.40456,-1.78219 1.56568,-0.7534 3.12645,-1.54961 4.54282,-2.55595 1.08351,-0.76986 2.04909,-1.69931 2.98986,-2.63825 1.0285,-1.02649 2.89065,-3.2631 2.89065,-3.2631 0,0 -0.18977,1.96658 -0.31558,2.94621 -0.23277,1.81222 -0.48892,3.62254 -0.81243,5.4208 -0.37299,2.07338 -0.67099,4.17435 -1.30032,6.1848 -0.56495,1.8047 -1.22659,3.60913 -2.20675,5.22632 -0.92818,1.53145 -2.06726,2.96991 -3.42067,4.14258 -0.96863,0.83926 -2.08305,1.5512 -3.28312,2.00109 -1.36135,0.51033 -2.84515,0.71107 -4.29877,0.73762 -1.11445,0.0204 -2.27368,-0.0451 -3.31424,-0.44481 -0.91212,-0.35027 -1.72371,-0.96878 -2.41934,-1.6549 z"
           style="fill:url(#linearGradient3891);fill-opacity:1;stroke:none" />
        <path
           inkscape:export-ydpi="48.573853"
           inkscape:export-xdpi="48.573853"
           inkscape:export-filename="C:\Users\sr41756\Desktop\logo2.png"
           sodipodi:nodetypes="cszzzc"
           inkscape:connector-curvature="0"
           id="path3868"
           d="m 328.37716,289.7201 c 0,0 0.008,-0.009 0.0332,-0.042 0.25402,-0.3415 3.53817,-5.38096 5.61968,-7.50687 2.08152,-2.12591 4.48719,-3.02937 6.60225,-5.04468 2.11507,-2.01531 4.33433,-4.43353 5.81648,-6.72749 1.48214,-2.29395 2.80311,-6.16685 2.80311,-6.16685"
           style="fill:none;stroke:#2f8200;stroke-width:0.64080459;stroke-linecap:butt;stroke-linejoin:miter;stroke-miterlimit:4;stroke-opacity:1;stroke-dasharray:none" />
        <path
           style="fill:#2f9600;fill-opacity:1;stroke:none"
           d="m 344.84375,0.78125 c 0,0 -1.92096,2.45493 -3,3.59375 -0.98697,1.04168 -2.01013,2.074 -3.15625,2.9375 -1.49826,1.12877 -3.1455,2.04598 -4.8125,2.90625 -1.51956,0.78419 -3.14802,1.38666 -4.71875,2.0625 -1.45092,0.62429 -2.97881,1.10513 -4.375,1.84375 -0.91225,0.48262 -1.88234,0.90858 -2.59375,1.65625 -0.86825,0.9125 -1.52892,2.07016 -1.875,3.28125 -0.34517,1.20793 -0.27214,2.53361 -0.125,3.78125 0.12438,1.05461 0.37716,2.10858 0.84375,3.0625 0.36847,0.75331 0.88674,1.45928 1.5,2.03125 0.77143,0.71949 1.66131,1.33696 2.65625,1.6875 1.13504,0.39993 2.39161,0.4306 3.59375,0.375 1.56798,-0.07247 3.17118,-0.31445 4.625,-0.90625 1.28158,-0.52169 2.4487,-1.31506 3.46875,-2.25 1.42528,-1.30637 2.60694,-2.913 3.5625,-4.59375 1.00905,-1.77486 1.66346,-3.72282 2.21875,-5.6875 0.61861,-2.18872 0.8787,-4.46986 1.21875,-6.71875 0.29492,-1.95046 0.52219,-3.91219 0.71875,-5.875 0.10626,-1.06105 0.25,-3.1875 0.25,-3.1875 z m -0.6875,1.90625 c 0,0 -0.18669,1.95787 -0.3125,2.9375 -0.23277,1.81222 -0.48899,3.63924 -0.8125,5.4375 -0.37299,2.07338 -0.65192,4.17705 -1.28125,6.1875 -0.56495,1.8047 -1.23859,3.60156 -2.21875,5.21875 -0.92818,1.53145 -2.05284,2.95233 -3.40625,4.125 -0.96863,0.83926 -2.08118,1.58136 -3.28125,2.03125 -1.36135,0.51033 -2.85888,0.6922 -4.3125,0.71875 -1.11445,0.0204 -2.27194,-0.03779 -3.3125,-0.4375 -0.91212,-0.35027 -1.71062,-0.97013 -2.40625,-1.65625 -0.553,-0.54542 -1.02208,-1.19925 -1.34375,-1.90625 -0.40734,-0.89528 -0.63087,-1.89534 -0.71875,-2.875 -0.10394,-1.15896 -0.1321,-2.35929 0.21875,-3.46875 0.35174,-1.11236 1.01624,-2.1776 1.84375,-3 0.678,-0.67385 1.58039,-1.0455 2.4375,-1.46875 1.31178,-0.64776 2.73423,-1.05325 4.09375,-1.59375 1.47177,-0.58513 2.97905,-1.0945 4.40625,-1.78125 1.56568,-0.7534 3.11488,-1.55616 4.53125,-2.5625 1.08351,-0.76986 2.05923,-1.71731 3,-2.65625 1.0285,-1.02649 2.875,-3.25 2.875,-3.25 z"
           transform="translate(5.0332218,261.97177)"
           id="path3872"
           inkscape:connector-curvature="0" />
      </g>
    </g>
    <path
       sodipodi:nodetypes="cccc"
       inkscape:connector-curvature="0"
       id="path3830"
       d="m 291.8762,296.48226 -7.80004,-7.98314 5.33474,8.25467 z"
       style="fill:url(#linearGradient4158);fill-opacity:1;stroke:#2f8600;stroke-width:0.18489644;stroke-miterlimit:4;stroke-opacity:0.95294118;stroke-dasharray:none"
       inkscape:export-filename="C:\Users\sr41756\Desktop\logo2.png"
       inkscape:export-xdpi="48.573853"
       inkscape:export-ydpi="48.573853" />
    <g
       transform="matrix(-0.72664974,0,0,0.72664974,525.12641,80.881053)"
       id="g3893">
      <path
         style="fill:#2f9600;fill-opacity:1;stroke:none"
         d="m 327.56315,289.89401 c -0.61326,-0.57197 -1.13726,-1.26211 -1.50573,-2.01542 -0.46659,-0.95392 -0.71979,-2.01727 -0.84417,-3.07188 -0.14714,-1.24764 -0.21931,-2.55881 0.12586,-3.76674 0.34608,-1.21109 1.02005,-2.36057 1.8883,-3.27307 0.71141,-0.74767 1.68942,-1.19588 2.60167,-1.6785 1.39619,-0.73862 2.91316,-1.22205 4.36408,-1.84634 1.57073,-0.67584 3.18022,-1.27196 4.69978,-2.05615 1.667,-0.86027 3.3274,-1.76662 4.82566,-2.89539 1.14612,-0.8635 2.1602,-1.8957 3.14717,-2.93738 1.07904,-1.13882 3.0213,-3.60875 3.0213,-3.60875 0,0 -0.14552,2.12809 -0.25178,3.18914 -0.19656,1.96281 -0.41844,3.92426 -0.71336,5.87472 -0.34005,2.24889 -0.5983,4.52525 -1.21691,6.71397 -0.55529,1.96468 -1.21495,3.93202 -2.224,5.70688 -0.95556,1.68075 -2.14152,3.26751 -3.5668,4.57388 -1.02005,0.93494 -2.20129,1.73689 -3.48287,2.25858 -1.45382,0.5918 -3.04911,0.85317 -4.61709,0.92564 -1.20214,0.0556 -2.45517,0.0198 -3.59021,-0.38013 -0.99494,-0.35054 -1.88947,-0.99357 -2.6609,-1.71306 z"
         id="path3895"
         inkscape:connector-curvature="0"
         sodipodi:nodetypes="aaaaaaaaaacaaaaaaaaa" />
      <g
         id="g3897">
        <path
           style="fill:url(#linearGradient3907);fill-opacity:1;stroke:none"
           d="m 327.83369,289.21943 c -0.553,-0.54542 -1.02032,-1.19795 -1.34199,-1.90495 -0.40734,-0.89528 -0.61427,-1.88635 -0.70215,-2.86601 -0.10394,-1.15896 -0.13687,-2.37479 0.21398,-3.48425 0.35174,-1.11236 1.00547,-2.15921 1.83298,-2.98161 0.678,-0.67385 1.59511,-1.06354 2.45222,-1.48679 1.31178,-0.64776 2.7288,-1.05611 4.08832,-1.59661 1.47177,-0.58513 2.97736,-1.09544 4.40456,-1.78219 1.56568,-0.7534 3.12645,-1.54961 4.54282,-2.55595 1.08351,-0.76986 2.04909,-1.69931 2.98986,-2.63825 1.0285,-1.02649 2.89065,-3.2631 2.89065,-3.2631 0,0 -0.18977,1.96658 -0.31558,2.94621 -0.23277,1.81222 -0.48892,3.62254 -0.81243,5.4208 -0.37299,2.07338 -0.67099,4.17435 -1.30032,6.1848 -0.56495,1.8047 -1.22659,3.60913 -2.20675,5.22632 -0.92818,1.53145 -2.06726,2.96991 -3.42067,4.14258 -0.96863,0.83926 -2.08305,1.5512 -3.28312,2.00109 -1.36135,0.51033 -2.84515,0.71107 -4.29877,0.73762 -1.11445,0.0204 -2.27368,-0.0451 -3.31424,-0.44481 -0.91212,-0.35027 -1.72371,-0.96878 -2.41934,-1.6549 z"
           id="path3899"
           inkscape:connector-curvature="0"
           sodipodi:nodetypes="aaaaaaaaaacaaaaaaaaa" />
        <path
           style="fill:none;stroke:#2f8200;stroke-width:0.64080459;stroke-linecap:butt;stroke-linejoin:miter;stroke-miterlimit:4;stroke-opacity:1;stroke-dasharray:none"
           d="m 328.37716,289.7201 c 0,0 0.008,-0.009 0.0332,-0.042 0.25402,-0.3415 3.53817,-5.38096 5.61968,-7.50687 2.08152,-2.12591 4.48719,-3.02937 6.60225,-5.04468 2.11507,-2.01531 4.33433,-4.43353 5.81648,-6.72749 1.48214,-2.29395 2.80311,-6.16685 2.80311,-6.16685"
           id="path3901"
           inkscape:connector-curvature="0"
           sodipodi:nodetypes="cszzzc"
           inkscape:export-filename="C:\Users\sr41756\Desktop\logo2.png"
           inkscape:export-xdpi="48.573853"
           inkscape:export-ydpi="48.573853" />
        <path
           inkscape:connector-curvature="0"
           id="path3903"
           transform="translate(5.0332218,261.97177)"
           d="m 344.84375,0.78125 c 0,0 -1.92096,2.45493 -3,3.59375 -0.98697,1.04168 -2.01013,2.074 -3.15625,2.9375 -1.49826,1.12877 -3.1455,2.04598 -4.8125,2.90625 -1.51956,0.78419 -3.14802,1.38666 -4.71875,2.0625 -1.45092,0.62429 -2.97881,1.10513 -4.375,1.84375 -0.91225,0.48262 -1.88234,0.90858 -2.59375,1.65625 -0.86825,0.9125 -1.52892,2.07016 -1.875,3.28125 -0.34517,1.20793 -0.27214,2.53361 -0.125,3.78125 0.12438,1.05461 0.37716,2.10858 0.84375,3.0625 0.36847,0.75331 0.88674,1.45928 1.5,2.03125 0.77143,0.71949 1.66131,1.33696 2.65625,1.6875 1.13504,0.39993 2.39161,0.4306 3.59375,0.375 1.56798,-0.07247 3.17118,-0.31445 4.625,-0.90625 1.28158,-0.52169 2.4487,-1.31506 3.46875,-2.25 1.42528,-1.30637 2.60694,-2.913 3.5625,-4.59375 1.00905,-1.77486 1.66346,-3.72282 2.21875,-5.6875 0.61861,-2.18872 0.8787,-4.46986 1.21875,-6.71875 0.29492,-1.95046 0.52219,-3.91219 0.71875,-5.875 0.10626,-1.06105 0.25,-3.1875 0.25,-3.1875 z m -0.6875,1.90625 c 0,0 -0.18669,1.95787 -0.3125,2.9375 -0.23277,1.81222 -0.48899,3.63924 -0.8125,5.4375 -0.37299,2.07338 -0.65192,4.17705 -1.28125,6.1875 -0.56495,1.8047 -1.23859,3.60156 -2.21875,5.21875 -0.92818,1.53145 -2.05284,2.95233 -3.40625,4.125 -0.96863,0.83926 -2.08118,1.58136 -3.28125,2.03125 -1.36135,0.51033 -2.85888,0.6922 -4.3125,0.71875 -1.11445,0.0204 -2.27194,-0.03779 -3.3125,-0.4375 -0.91212,-0.35027 -1.71062,-0.97013 -2.40625,-1.65625 -0.553,-0.54542 -1.02208,-1.19925 -1.34375,-1.90625 -0.40734,-0.89528 -0.63087,-1.89534 -0.71875,-2.875 -0.10394,-1.15896 -0.1321,-2.35929 0.21875,-3.46875 0.35174,-1.11236 1.01624,-2.1776 1.84375,-3 0.678,-0.67385 1.58039,-1.0455 2.4375,-1.46875 1.31178,-0.64776 2.73423,-1.05325 4.09375,-1.59375 1.47177,-0.58513 2.97905,-1.0945 4.40625,-1.78125 1.56568,-0.7534 3.11488,-1.55616 4.53125,-2.5625 1.08351,-0.76986 2.05923,-1.71731 3,-2.65625 1.0285,-1.02649 2.875,-3.25 2.875,-3.25 z"
           style="fill:#2f9600;fill-opacity:1;stroke:none" />
      </g>
    </g>
    <g
       style="font-size:40px;font-style:normal;font-variant:normal;font-weight:normal;font-stretch:normal;line-height:125%;letter-spacing:0px;word-spacing:0px;fill:#00acef;fill-opacity:1;stroke:none;font-family:Myriad Pro;-inkscape-font-specification:Myriad Pro"
       id="text4214"
       transform="translate(7.3543915,-81.640708)"
       inkscape:export-filename="C:\Users\sr41756\Desktop\logo2.png"
       inkscape:export-xdpi="48.573853"
       inkscape:export-ydpi="48.573853">
      <path
         d="m 174.72263,385.94872 -13.03183,0 0,7.7039 4.39194,0 0,11.73585 c -0.37201,0.144 -0.996,0.216 -1.87197,0.216 -2.32799,0.066 -4.38596,-1.12798 -6.17392,-3.58196 -1.78799,-2.45395 -2.72998,-6.5639 -2.82597,-12.32984 0.078,-6.22039 1.19998,-10.62733 3.36596,-13.22083 2.16596,-2.59343 4.90792,-3.85041 8.2259,-3.77095 1.14896,4e-5 2.18094,0.09 3.09596,0.27 0.91496,0.18003 1.73094,0.45003 2.44796,0.80998 l 1.58398,-8.13589 c -0.75902,-0.37495 -1.797,-0.70494 -3.11396,-0.98999 -1.31701,-0.28495 -2.89498,-0.43494 -4.73394,-0.44999 -5.41494,-0.0614 -10.13688,1.89752 -14.16581,5.87692 -4.02895,3.97949 -6.19492,10.3484 -6.49792,19.10676 -0.063,4.21796 0.44099,8.02191 1.51198,11.41185 1.07098,3.38996 2.65496,6.11393 4.75194,8.17189 1.57797,1.61848 3.44394,2.82747 5.59793,3.62696 2.15396,0.79949 4.63192,1.19848 7.4339,1.19698 1.82996,-0.018 3.67793,-0.198 5.54393,-0.53999 1.86595,-0.342 3.35393,-0.73799 4.46394,-1.18799 z"
         style="font-size:72px;font-weight:bold;fill:#00acef;fill-opacity:1;font-family:Myriad Pro Cond;-inkscape-font-specification:Myriad Pro Cond Bold"
         id="path4219"
         inkscape:connector-curvature="0" />
      <path
         d="m 205.51393,398.90855 c 0.075,-0.48748 0.14097,-1.11447 0.19799,-1.88098 0.057,-0.76647 0.087,-1.77145 0.09,-3.01496 -0.0255,-5.3894 -1.07251,-9.51434 -3.14096,-12.37484 -2.0685,-2.86043 -5.00546,-4.30341 -8.81088,-4.32894 -4.05297,0.0465 -7.39492,1.71751 -10.02588,5.01294 -2.63097,3.29548 -3.99295,7.93642 -4.08594,13.92282 0.018,5.54243 1.29598,9.81138 3.83395,12.80683 2.53796,2.99546 6.2279,4.51044 11.06986,4.54494 1.79395,-0.007 3.53393,-0.1545 5.21993,-0.44099 1.68595,-0.2865 3.13793,-0.66749 4.35594,-1.14299 l -1.22398,-6.76791 c -0.86852,0.3 -1.8675,0.564 -2.99696,0.79199 -1.12951,0.228 -2.36249,0.348 -3.69896,0.35999 -2.09999,0.03 -3.83996,-0.53398 -5.21993,-1.69197 -1.37999,-1.15798 -2.11198,-3.08995 -2.19597,-5.79593 z m -16.63179,-6.62391 c 0.0255,-1.87946 0.38848,-3.66443 1.08898,-5.35494 0.70048,-1.69045 1.80147,-2.59343 3.30296,-2.70896 1.39347,0.0525 2.40445,0.82952 3.03296,2.33097 0.62847,1.5015 0.93747,3.41248 0.92699,5.73293 z"
         style="font-size:72px;font-weight:bold;fill:#00acef;fill-opacity:1;font-family:Myriad Pro Cond;-inkscape-font-specification:Myriad Pro Cond Bold"
         id="path4221"
         inkscape:connector-curvature="0" />
      <path
         d="m 211.19662,413.16437 9.43187,0 0,-17.92777 c -1e-5,-0.72747 0.036,-1.39646 0.108,-2.00698 0.072,-0.61047 0.17999,-1.11746 0.324,-1.52098 0.55198,-1.78195 1.37397,-3.05993 2.46597,-3.83395 1.09196,-0.77396 2.16595,-1.15196 3.22196,-1.13398 0.77997,-0.012 1.45196,0.012 2.01597,0.072 l 0,-9.28788 c -0.24152,-0.072 -0.51451,-0.12597 -0.81899,-0.162 -0.30452,-0.036 -0.70351,-0.054 -1.19698,-0.054 -1.29601,0.006 -2.57399,0.49803 -3.83396,1.47598 -1.25999,0.97802 -2.28598,2.406 -3.07796,4.28395 l -0.28799,0 -0.50399,-5.11194 -8.1359,0 c 0.075,1.67401 0.14099,3.41999 0.198,5.23793 0.057,1.81801 0.087,3.59998 0.09,5.34593 z"
         style="font-size:72px;font-weight:bold;fill:#00acef;fill-opacity:1;font-family:Myriad Pro Cond;-inkscape-font-specification:Myriad Pro Cond Bold"
         id="path4223"
         inkscape:connector-curvature="0" />
      <path
         d="m 232.35899,413.16437 9.43188,0 0,-22.17572 c 10e-4,-0.51147 0.0345,-1.00046 0.099,-1.46698 0.0645,-0.46647 0.15148,-0.86546 0.261,-1.19698 0.34048,-1.07696 0.82947,-1.87495 1.46698,-2.39397 0.63747,-0.51897 1.32446,-0.77696 2.06097,-0.77399 1.42346,0.084 2.32045,0.74401 2.69096,1.97997 0.37048,1.23601 0.52948,2.54399 0.477,3.92395 l 0,22.10372 9.43188,0 0,-22.31971 c -0.002,-0.50998 0.0195,-0.98397 0.063,-1.42199 0.0435,-0.43797 0.11847,-0.80396 0.22499,-1.09798 0.29547,-1.01396 0.74847,-1.79395 1.35899,-2.33997 0.61046,-0.54597 1.33345,-0.82197 2.16897,-0.82799 1.36345,0.0525 2.25443,0.75752 2.67296,2.11497 0.41846,1.35751 0.60746,3.05248 0.567,5.08494 l 0,20.80773 9.43188,0 0,-22.39171 c 0.0149,-4.24642 -0.71704,-7.54338 -2.19598,-9.89088 -1.47902,-2.34743 -3.79499,-3.53842 -6.94791,-3.57295 -1.81201,4e-5 -3.44399,0.43203 -4.89593,1.29598 -0.69453,0.43953 -1.35752,0.96452 -1.98898,1.57498 -0.63152,0.61053 -1.16851,1.26152 -1.61098,1.95298 l -0.14399,0 c -0.60903,-1.52395 -1.55101,-2.70594 -2.82597,-3.54596 -1.27501,-0.83995 -2.90098,-1.26595 -4.87794,-1.27798 -1.81049,0.033 -3.42747,0.48903 -4.85093,1.36798 -1.4235,0.87902 -2.59048,1.98301 -3.50096,3.31196 l -0.144,0 -0.50399,-4.03195 -8.20789,0 c 0.075,1.68301 0.14099,3.39299 0.19799,5.12993 0.057,1.73701 0.087,3.55499 0.09,5.45393 z"
         style="font-size:72px;font-weight:bold;fill:#00acef;fill-opacity:1;font-family:Myriad Pro Cond;-inkscape-font-specification:Myriad Pro Cond Bold"
         id="path4225"
         inkscape:connector-curvature="0" />
      <path
         d="m 290.80037,413.16437 0,-35.20755 -9.43188,0 0,35.20755 z"
         style="font-size:72px;font-weight:bold;fill:#00acef;fill-opacity:1;font-family:Myriad Pro Cond;-inkscape-font-specification:Myriad Pro Cond Bold"
         id="path4227"
         inkscape:connector-curvature="0"
         sodipodi:nodetypes="ccccc" />
      <path
         d="m 297.39974,413.16437 9.43188,0 0,-21.45573 c 0.003,-0.68847 0.051,-1.30946 0.144,-1.86297 0.093,-0.55347 0.21298,-1.01246 0.35999,-1.37698 0.33148,-1.04547 0.80248,-1.83445 1.41299,-2.36697 0.61047,-0.53247 1.31546,-0.79947 2.11497,-0.80099 1.34096,0.0585 2.25895,0.66152 2.75396,1.80897 0.49498,1.14751 0.72897,2.4885 0.70199,4.02295 l 0,22.03172 9.43188,0 0,-22.60771 c 0.0285,-3.98242 -0.69452,-7.15938 -2.16897,-9.53088 -1.47451,-2.37144 -3.87148,-3.58642 -7.19091,-3.64495 -1.84799,0.021 -3.49797,0.44703 -4.94993,1.27798 -1.452,0.83103 -2.63398,1.94101 -3.54596,3.32996 l -0.144,0 -0.50399,-4.03195 -8.1359,0 c 0.075,1.68301 0.141,3.39299 0.198,5.12993 0.057,1.73701 0.087,3.55499 0.09,5.45393 z"
         style="font-size:72px;font-weight:bold;fill:#00acef;fill-opacity:1;font-family:Myriad Pro Cond;-inkscape-font-specification:Myriad Pro Cond Bold"
         id="path4229"
         inkscape:connector-curvature="0" />
      <path
         d="m 354.06569,392.06864 c 0.15147,-3.76193 -0.58352,-7.10988 -2.20498,-10.04387 -1.6215,-2.93393 -5.03845,-4.48191 -10.25086,-4.64394 -2.50648,0.0435 -4.71145,0.35253 -6.61492,0.92699 -1.90348,0.57452 -3.37046,1.15352 -4.40094,1.73697 l 1.72798,6.40792 c 1.06947,-0.65396 2.18846,-1.16396 3.35695,-1.52998 1.16848,-0.36597 2.44946,-0.55196 3.84295,-0.55799 1.68747,0.0255 2.93845,0.47852 3.75295,1.35898 0.81448,0.88052 1.21947,2.0355 1.21499,3.46496 l 0,0.79199 c -4.16846,-0.003 -7.85541,1.029 -11.06086,3.09596 -3.20546,2.06699 -4.89444,5.40294 -5.06693,10.00787 0.054,3.15296 0.93598,5.70293 2.64596,7.6499 1.70998,1.94697 3.92394,2.94896 6.64192,3.00596 1.56146,-0.002 3.01044,-0.3405 4.34694,-1.01699 1.33647,-0.67649 2.47945,-1.68147 3.42896,-3.01496 l 0.21599,0 0.504,3.45596 8.42389,0 c -0.17853,-1.19999 -0.30753,-2.48997 -0.387,-3.86995 -0.0795,-1.37998 -0.11852,-2.77796 -0.11699,-4.19395 z m -9.28789,10.07987 c -1e-5,0.32101 -0.018,0.615 -0.054,0.88199 -0.036,0.267 -0.09,0.525 -0.162,0.77399 -0.34652,1.03949 -0.87751,1.80448 -1.59298,2.29497 -0.71551,0.4905 -1.4805,0.73349 -2.29497,0.72899 -0.77101,0.018 -1.51499,-0.34199 -2.23197,-1.07999 -0.71701,-0.73798 -1.101,-1.96196 -1.15199,-3.67195 0.11849,-2.38946 0.97948,-4.00043 2.58297,-4.83294 1.60346,-0.83247 3.23844,-1.23746 4.90493,-1.21498 z"
         style="font-size:72px;font-weight:bold;fill:#00acef;fill-opacity:1;font-family:Myriad Pro Cond;-inkscape-font-specification:Myriad Pro Cond Bold"
         id="path4231"
         inkscape:connector-curvature="0" />
      <path
         d="m 362.33697,371.7649 0,6.19192 -4.17595,0 0,6.69591 4.17595,0 0,16.63179 c 0.006,2.72847 0.26399,4.86744 0.77399,6.41692 0.50999,1.54948 1.23598,2.77046 2.17797,3.66295 0.86998,0.78599 1.88397,1.35598 3.04196,1.70998 1.15798,0.35399 2.42396,0.52799 3.79795,0.52199 1.22997,-0.005 2.33396,-0.0675 3.31196,-0.189 0.97797,-0.12149 1.79396,-0.27449 2.44797,-0.45899 l -0.072,-7.3439 c -0.42451,0.072 -0.83551,0.126 -1.23298,0.16199 -0.39752,0.036 -0.82651,0.054 -1.28699,0.054 -0.9345,0.0435 -1.74749,-0.29549 -2.43897,-1.01699 -0.6915,-0.72148 -1.0545,-2.08646 -1.08898,-4.09494 l 0,-16.0558 6.91191,0 0,-6.69591 -6.91191,0 0,-9.14388 z"
         style="font-size:72px;font-weight:bold;fill:#00acef;fill-opacity:1;font-family:Myriad Pro Cond;-inkscape-font-specification:Myriad Pro Cond Bold"
         id="path4233"
         inkscape:connector-curvature="0" />
      <path
         d="m 407.59205,398.90855 c 0.075,-0.48748 0.14097,-1.11447 0.198,-1.88098 0.057,-0.76647 0.087,-1.77145 0.09,-3.01496 -0.0255,-5.3894 -1.07252,-9.51434 -3.14096,-12.37484 -2.0685,-2.86043 -5.00546,-4.30341 -8.81089,-4.32894 -4.05296,0.0465 -7.39492,1.71751 -10.02587,5.01294 -2.63097,3.29548 -3.99295,7.93642 -4.08595,13.92282 0.018,5.54243 1.29598,9.81138 3.83395,12.80683 2.53796,2.99546 6.22791,4.51044 11.06986,4.54494 1.79396,-0.007 3.53393,-0.1545 5.21993,-0.44099 1.68596,-0.2865 3.13794,-0.66749 4.35595,-1.14299 l -1.22399,-6.76791 c -0.86851,0.3 -1.8675,0.564 -2.99696,0.79199 -1.12951,0.228 -2.36249,0.348 -3.69895,0.35999 -2.09999,0.03 -3.83997,-0.53398 -5.21994,-1.69197 -1.37999,-1.15798 -2.11198,-3.08995 -2.19597,-5.79593 z m -16.63179,-6.62391 c 0.0255,-1.87946 0.38849,-3.66443 1.08899,-5.35494 0.70048,-1.69045 1.80146,-2.59343 3.30296,-2.70896 1.39346,0.0525 2.40445,0.82952 3.03296,2.33097 0.62847,1.5015 0.93747,3.41248 0.92699,5.73293 z"
         style="font-size:72px;font-weight:bold;fill:#00acef;fill-opacity:1;font-family:Myriad Pro Cond;-inkscape-font-specification:Myriad Pro Cond Bold"
         id="path4235"
         inkscape:connector-curvature="0" />
      <path
         d="m 423.08139,411.65239 c 1.02898,0.59099 2.33696,1.08298 3.92394,1.47598 1.58698,0.39299 3.32695,0.59699 5.21994,0.61199 5.12692,-0.1425 9.02086,-1.60348 11.68185,-4.38294 2.66094,-2.77946 3.99892,-6.02242 4.01395,-9.72888 -0.0495,-3.14094 -0.81452,-5.71491 -2.29497,-7.7219 -1.48051,-2.00695 -3.37948,-3.39293 -5.69693,-4.15795 l 0,-0.14399 c 2.10895,-0.99596 3.75893,-2.40595 4.94994,-4.22995 1.19096,-1.82394 1.79695,-3.91792 1.81797,-6.28192 -0.003,-3.08542 -1.04101,-5.71638 -3.11396,-7.8929 -2.07299,-2.17642 -5.16295,-3.31341 -9.26988,-3.41095 -1.98148,0.0256 -3.83246,0.28054 -5.55293,0.76499 -1.72048,0.48454 -3.08546,1.04553 -4.09494,1.68298 l 1.29598,7.1279 c 0.86698,-0.58195 1.79697,-1.03794 2.78996,-1.36798 0.99298,-0.32995 2.03097,-0.49795 3.11396,-0.50399 1.67397,0.0135 2.98795,0.49053 3.94195,1.43098 0.95397,0.94053 1.43997,2.26351 1.45798,3.96895 -0.11101,2.232 -0.987,3.79798 -2.62796,4.69794 -1.64099,0.90002 -3.38097,1.35001 -5.21994,1.34998 l -0.93598,0 0,6.91191 1.29598,0 c 2.41046,0.0165 4.44743,0.61351 6.11092,1.79098 1.66346,1.1775 2.53045,3.05248 2.60097,5.62493 -0.009,2.01448 -0.62101,3.63746 -1.83598,4.86893 -1.215,1.23149 -2.97897,1.86449 -5.29193,1.89898 -1.24499,-0.007 -2.48098,-0.17249 -3.70795,-0.49499 -1.22699,-0.32249 -2.31898,-0.75749 -3.27596,-1.30499 z"
         style="font-size:72px;font-weight:bold;fill:#00acef;fill-opacity:1;font-family:Myriad Pro Cond;-inkscape-font-specification:Myriad Pro Cond Bold"
         id="path4237"
         inkscape:connector-curvature="0" />
    </g>
  </g>
</svg>
