<?xml version="1.0" encoding="UTF-8" standalone="no"?>
<!-- Created with Inkscape (http://www.inkscape.org/) -->

<svg
   xmlns:dc="http://purl.org/dc/elements/1.1/"
   xmlns:cc="http://creativecommons.org/ns#"
   xmlns:rdf="http://www.w3.org/1999/02/22-rdf-syntax-ns#"
   xmlns:svg="http://www.w3.org/2000/svg"
   xmlns="http://www.w3.org/2000/svg"
   xmlns:xlink="http://www.w3.org/1999/xlink"
   xmlns:sodipodi="http://sodipodi.sourceforge.net/DTD/sodipodi-0.dtd"
   xmlns:inkscape="http://www.inkscape.org/namespaces/inkscape"
   version="1.0"
   width="92.0625"
   height="91.0625"
   id="svg2408"
   style="display:inline"
   inkscape:version="0.48.4 r9939"
   sodipodi:docname="image-missing.svg"
   inkscape:export-filename="C:\Users\sr41756\Desktop\image-missing.png"
   inkscape:export-xdpi="52.5"
   inkscape:export-ydpi="52.5">
  <sodipodi:namedview
     pagecolor="#ffffff"
     bordercolor="#666666"
     borderopacity="1"
     objecttolerance="10"
     gridtolerance="10"
     guidetolerance="10"
     inkscape:pageopacity="0"
     inkscape:pageshadow="2"
     inkscape:window-width="1858"
     inkscape:window-height="1058"
     id="namedview94"
     showgrid="false"
     fit-margin-top="0"
     fit-margin-left="0"
     fit-margin-right="0"
     fit-margin-bottom="0"
     inkscape:zoom="2.4583333"
     inkscape:cx="46.03125"
     inkscape:cy="47.03125"
     inkscape:window-x="54"
     inkscape:window-y="-8"
     inkscape:window-maximized="1"
     inkscape:current-layer="svg2408" />
  <defs
     id="defs2410">
    <linearGradient
       id="linearGradient3806">
      <stop
         id="stop3808"
         style="stop-color:#fff6d5;stop-opacity:1"
         offset="0" />
      <stop
         id="stop3810"
         style="stop-color:#fff6d5;stop-opacity:0"
         offset="1" />
    </linearGradient>
    <linearGradient
       id="linearGradient3940">
      <stop
         id="stop3942"
         style="stop-color:#101010;stop-opacity:1"
         offset="0" />
      <stop
         id="stop3944"
         style="stop-color:#454545;stop-opacity:1"
         offset="1" />
    </linearGradient>
    <linearGradient
       id="linearGradient3718">
      <stop
         id="stop3720"
         style="stop-color:#000000;stop-opacity:1"
         offset="0" />
      <stop
         id="stop3722"
         style="stop-color:#000000;stop-opacity:0"
         offset="1" />
    </linearGradient>
    <linearGradient
       x1="45.447727"
       y1="92.539597"
       x2="45.447727"
       y2="7.0165396"
       id="ButtonShadow"
       gradientUnits="userSpaceOnUse"
       gradientTransform="scale(1.0058652,0.994169)">
      <stop
         id="stop3750"
         style="stop-color:#000000;stop-opacity:1"
         offset="0" />
      <stop
         id="stop3752"
         style="stop-color:#000000;stop-opacity:0.58823532"
         offset="1" />
    </linearGradient>
    <linearGradient
       id="linearGradient3737">
      <stop
         id="stop3739"
         style="stop-color:#ffffff;stop-opacity:1"
         offset="0" />
      <stop
         id="stop3741"
         style="stop-color:#ffffff;stop-opacity:0"
         offset="1" />
    </linearGradient>
    <linearGradient
       id="linearGradient3700">
      <stop
         id="stop3702"
         style="stop-color:#e6e6e6;stop-opacity:1"
         offset="0" />
      <stop
         id="stop3704"
         style="stop-color:#f5f5f5;stop-opacity:1"
         offset="1" />
    </linearGradient>
    <linearGradient
       x1="48"
       y1="90"
       x2="48"
       y2="5.9877172"
       id="linearGradient3706"
       xlink:href="#linearGradient3700"
       gradientUnits="userSpaceOnUse" />
    <filter
       color-interpolation-filters="sRGB"
       id="filter3174">
      <feGaussianBlur
         id="feGaussianBlur3176"
         stdDeviation="1.71" />
    </filter>
    <linearGradient
       x1="45.447727"
       y1="92.539597"
       x2="45.447727"
       y2="7.0165396"
       id="ButtonShadow-0"
       gradientUnits="userSpaceOnUse"
       gradientTransform="matrix(1.0058652,0,0,0.994169,100,0)">
      <stop
         id="stop3750-8"
         style="stop-color:#000000;stop-opacity:1"
         offset="0" />
      <stop
         id="stop3752-5"
         style="stop-color:#000000;stop-opacity:0.58823532"
         offset="1" />
    </linearGradient>
    <linearGradient
       x1="32.251034"
       y1="6.1317081"
       x2="32.251034"
       y2="90.238609"
       id="linearGradient3780"
       xlink:href="#ButtonShadow-0"
       gradientUnits="userSpaceOnUse"
       gradientTransform="matrix(1.0238095,0,0,1.0119048,-1.1428571,-98.071429)" />
    <linearGradient
       x1="32.251034"
       y1="6.1317081"
       x2="32.251034"
       y2="90.238609"
       id="linearGradient3772"
       xlink:href="#ButtonShadow-0"
       gradientUnits="userSpaceOnUse"
       gradientTransform="matrix(1.0238095,0,0,1.0119048,-1.1428571,-98.071429)" />
    <linearGradient
       x1="32.251034"
       y1="6.1317081"
       x2="32.251034"
       y2="90.238609"
       id="linearGradient3725"
       xlink:href="#ButtonShadow-0"
       gradientUnits="userSpaceOnUse"
       gradientTransform="matrix(1.0238095,0,0,1.0119048,-1.1428571,-98.071429)" />
    <linearGradient
       x1="32.251034"
       y1="6.1317081"
       x2="32.251034"
       y2="90.238609"
       id="linearGradient3721"
       xlink:href="#ButtonShadow-0"
       gradientUnits="userSpaceOnUse"
       gradientTransform="translate(0,-97)" />
    <linearGradient
       x1="32.251034"
       y1="6.1317081"
       x2="32.251034"
       y2="90.238609"
       id="linearGradient3760"
       xlink:href="#ButtonShadow-0"
       gradientUnits="userSpaceOnUse"
       gradientTransform="matrix(1.0238095,0,0,1.0119048,-1.1428571,-98.071429)" />
    <linearGradient
       id="linearGradient3737-1">
      <stop
         id="stop3739-9"
         style="stop-color:#ffffff;stop-opacity:1"
         offset="0" />
      <stop
         id="stop3741-3"
         style="stop-color:#ffffff;stop-opacity:0"
         offset="1" />
    </linearGradient>
    <radialGradient
       cx="48"
       cy="90.171875"
       r="42"
       fx="48"
       fy="90.171875"
       id="radialGradient2886"
       xlink:href="#linearGradient3737-0"
       gradientUnits="userSpaceOnUse"
       gradientTransform="matrix(1.1573129,0,0,0.99590774,-7.551021,0.1971319)" />
    <linearGradient
       id="linearGradient3737-0">
      <stop
         id="stop3739-6"
         style="stop-color:#ffffff;stop-opacity:1"
         offset="0" />
      <stop
         id="stop3741-0"
         style="stop-color:#ffffff;stop-opacity:0"
         offset="1" />
    </linearGradient>
    <linearGradient
       x1="36.357143"
       y1="6"
       x2="36.357143"
       y2="63.893143"
       id="linearGradient3923"
       xlink:href="#linearGradient3737-1"
       gradientUnits="userSpaceOnUse" />
    <linearGradient
       x1="48"
       y1="56"
       x2="48"
       y2="0"
       id="linearGradient3982"
       xlink:href="#linearGradient3737"
       gradientUnits="userSpaceOnUse" />
    <linearGradient
       x1="48"
       y1="48"
       x2="48"
       y2="72"
       id="linearGradient3938"
       xlink:href="#linearGradient3940"
       gradientUnits="userSpaceOnUse"
       spreadMethod="reflect" />
    <clipPath
       id="clipPath2952">
      <rect
         width="72"
         height="55.999996"
         rx="3"
         ry="3"
         x="12"
         y="20"
         id="rect2954"
         style="opacity:0.65163933;color:#000000;fill:#ff0000;fill-opacity:1;fill-rule:nonzero;stroke:none;stroke-width:1;marker:none;visibility:visible;display:inline;overflow:visible;enable-background:accumulate" />
    </clipPath>
    <clipPath
       id="clipPath2956">
      <rect
         width="72"
         height="55.999996"
         rx="3"
         ry="3"
         x="12"
         y="20"
         id="rect2958"
         style="opacity:0.65163933;color:#000000;fill:#ff0000;fill-opacity:1;fill-rule:nonzero;stroke:none;stroke-width:1;marker:none;visibility:visible;display:inline;overflow:visible;enable-background:accumulate" />
    </clipPath>
    <linearGradient
       x1="64"
       y1="80"
       x2="64"
       y2="-40.066647"
       id="linearGradient3748"
       xlink:href="#linearGradient3718"
       gradientUnits="userSpaceOnUse"
       gradientTransform="translate(-20,0)" />
    <linearGradient
       id="linearGradient5452">
      <stop
         id="stop5454"
         style="stop-color:#ffffff;stop-opacity:1"
         offset="0" />
      <stop
         id="stop5456"
         style="stop-color:#ffffff;stop-opacity:0"
         offset="1" />
    </linearGradient>
    <linearGradient
       x1="64.153542"
       y1="119.02443"
       x2="64.153542"
       y2="50.721481"
       id="linearGradient3327"
       xlink:href="#linearGradient5452"
       gradientUnits="userSpaceOnUse"
       gradientTransform="matrix(0.36936935,0,0,-0.36936934,-55.639641,71.639638)" />
    <linearGradient
       x1="47.609753"
       y1="121.36586"
       x2="47.609753"
       y2="6.6341324"
       id="linearGradient3330"
       xlink:href="#linearGradient3290-7"
       gradientUnits="userSpaceOnUse"
       gradientTransform="matrix(0.36607141,0,0,0.36607137,24.571431,24.571434)" />
    <linearGradient
       x1="52"
       y1="28"
       x2="52"
       y2="91.007935"
       id="linearGradient3812"
       xlink:href="#linearGradient3806"
       gradientUnits="userSpaceOnUse" />
    <linearGradient
       id="linearGradient3290-7">
      <stop
         id="stop3292-2"
         style="stop-color:#ba0000;stop-opacity:1"
         offset="0" />
      <stop
         id="stop3294-3"
         style="stop-color:#ff331e;stop-opacity:1"
         offset="1" />
    </linearGradient>
    <linearGradient
       inkscape:collect="always"
       xlink:href="#linearGradient3806"
       id="linearGradient3072"
       gradientUnits="userSpaceOnUse"
       x1="52"
       y1="28"
       x2="52"
       y2="91.007935"
       gradientTransform="translate(-1.96875,-3.96875)" />
    <linearGradient
       inkscape:collect="always"
       xlink:href="#linearGradient5452"
       id="linearGradient3075"
       gradientUnits="userSpaceOnUse"
       gradientTransform="matrix(0.36936935,0,0,-0.36936934,-55.639641,71.639638)"
       x1="64.153542"
       y1="119.02443"
       x2="64.153542"
       y2="50.721481" />
    <linearGradient
       inkscape:collect="always"
       xlink:href="#linearGradient3290-7"
       id="linearGradient3078"
       gradientUnits="userSpaceOnUse"
       gradientTransform="matrix(0.36607141,0,0,0.36607137,22.602681,20.602684)"
       x1="47.609753"
       y1="121.36586"
       x2="47.609753"
       y2="6.6341324" />
    <linearGradient
       inkscape:collect="always"
       xlink:href="#linearGradient3718"
       id="linearGradient3083"
       gradientUnits="userSpaceOnUse"
       gradientTransform="translate(-21.96875,-3.96875)"
       x1="64"
       y1="80"
       x2="64"
       y2="-40.066647" />
    <linearGradient
       inkscape:collect="always"
       xlink:href="#linearGradient3737"
       id="linearGradient3087"
       gradientUnits="userSpaceOnUse"
       x1="48"
       y1="56"
       x2="48"
       y2="0"
       gradientTransform="translate(-1.96875,-3.96875)" />
    <linearGradient
       inkscape:collect="always"
       xlink:href="#linearGradient3700"
       id="linearGradient3094"
       gradientUnits="userSpaceOnUse"
       x1="48"
       y1="90"
       x2="48"
       y2="5.9877172" />
    <linearGradient
       inkscape:collect="always"
       xlink:href="#linearGradient3737-1"
       id="linearGradient3096"
       gradientUnits="userSpaceOnUse"
       x1="36.357143"
       y1="6"
       x2="36.357143"
       y2="63.893143" />
    <radialGradient
       inkscape:collect="always"
       xlink:href="#linearGradient3737-0"
       id="radialGradient3098"
       gradientUnits="userSpaceOnUse"
       gradientTransform="matrix(1.1573129,0,0,0.99590774,-7.551021,0.1971319)"
       cx="48"
       cy="90.171875"
       fx="48"
       fy="90.171875"
       r="42" />
    <radialGradient
       inkscape:collect="always"
       xlink:href="#linearGradient3737-0"
       id="radialGradient3107"
       gradientUnits="userSpaceOnUse"
       gradientTransform="matrix(1.1573129,0,0,0.99590774,-9.519771,-3.7716181)"
       cx="48"
       cy="90.171875"
       fx="48"
       fy="90.171875"
       r="42" />
    <linearGradient
       inkscape:collect="always"
       xlink:href="#linearGradient3737-1"
       id="linearGradient3110"
       gradientUnits="userSpaceOnUse"
       x1="36.357143"
       y1="6"
       x2="36.357143"
       y2="63.893143"
       gradientTransform="translate(-1.96875,-3.96875)" />
    <linearGradient
       inkscape:collect="always"
       xlink:href="#linearGradient3700"
       id="linearGradient3113"
       gradientUnits="userSpaceOnUse"
       x1="48"
       y1="90"
       x2="48"
       y2="5.9877172"
       gradientTransform="translate(-1.96875,-3.96875)" />
    <linearGradient
       inkscape:collect="always"
       xlink:href="#ButtonShadow-0"
       id="linearGradient3116"
       gradientUnits="userSpaceOnUse"
       gradientTransform="translate(-1.96875,-93.03125)"
       x1="32.251034"
       y1="6.1317081"
       x2="32.251034"
       y2="90.238609" />
    <linearGradient
       inkscape:collect="always"
       xlink:href="#ButtonShadow-0"
       id="linearGradient3119"
       gradientUnits="userSpaceOnUse"
       gradientTransform="matrix(1.0238095,0,0,1.0119048,-3.1116071,-94.102679)"
       x1="32.251034"
       y1="6.1317081"
       x2="32.251034"
       y2="90.238609" />
    <linearGradient
       inkscape:collect="always"
       xlink:href="#ButtonShadow-0"
       id="linearGradient3122"
       gradientUnits="userSpaceOnUse"
       gradientTransform="matrix(1.0238095,0,0,-1.0119048,-3.1116071,94.102679)"
       x1="32.251034"
       y1="6.1317081"
       x2="32.251034"
       y2="90.238609" />
    <linearGradient
       inkscape:collect="always"
       xlink:href="#ButtonShadow-0"
       id="linearGradient3125"
       gradientUnits="userSpaceOnUse"
       gradientTransform="matrix(1.0238095,0,0,-1.0119048,-3.1116071,94.102679)"
       x1="32.251034"
       y1="6.1317081"
       x2="32.251034"
       y2="90.238609" />
    <linearGradient
       inkscape:collect="always"
       xlink:href="#ButtonShadow-0"
       id="linearGradient3128"
       gradientUnits="userSpaceOnUse"
       gradientTransform="matrix(1.0238095,0,0,-1.0119048,-3.1116071,94.102679)"
       x1="32.251034"
       y1="6.1317081"
       x2="32.251034"
       y2="90.238609" />
    <linearGradient
       inkscape:collect="always"
       xlink:href="#linearGradient3940"
       id="linearGradient3130"
       gradientUnits="userSpaceOnUse"
       spreadMethod="reflect"
       x1="48"
       y1="48"
       x2="48"
       y2="72" />
  </defs>
  <metadata
     id="metadata2413">
    <rdf:RDF>
      <cc:Work
         rdf:about="">
        <dc:format>image/svg+xml</dc:format>
        <dc:type
           rdf:resource="http://purl.org/dc/dcmitype/StillImage" />
        <dc:title></dc:title>
      </cc:Work>
    </rdf:RDF>
  </metadata>
  <g
     id="layer2"
     style="display:none"
     transform="translate(-1.96875,-3.96875)">
    <rect
       width="86"
       height="85"
       rx="6"
       ry="6"
       x="5"
       y="7"
       id="rect3745"
       style="opacity:0.9;fill:url(#ButtonShadow);fill-opacity:1;fill-rule:nonzero;stroke:none;filter:url(#filter3174)" />
  </g>
  <path
     inkscape:connector-curvature="0"
     style="opacity:0.07999998;fill:url(#linearGradient3128);fill-opacity:1;fill-rule:nonzero;stroke:none;display:inline"
     id="path3786"
     d="M 10.03125,91.0625 C 4.5201597,91.0625 0,86.54234 0,81.03125 l 0,-71 C 0,4.5201598 4.5201598,0 10.03125,0 l 72,0 C 87.54234,0 92.0625,4.5201597 92.0625,10.03125 l 0,71 c 0,5.51109 -4.52016,10.03125 -10.03125,10.03125 l -72,0 z" />
  <path
     inkscape:connector-curvature="0"
     style="opacity:0.1;fill:url(#linearGradient3125);fill-opacity:1;fill-rule:nonzero;stroke:none;display:inline"
     id="path3778"
     d="M 10.03125,90.0625 C 5.059617,90.0625 1,86.002883 1,81.03125 l 0,-71 C 1,5.0596171 5.0596171,1 10.03125,1 l 72,0 c 4.971633,0 9.03125,4.059617 9.03125,9.03125 l 0,71 c 0,4.971633 -4.059617,9.03125 -9.03125,9.03125 l -72,0 z" />
  <path
     inkscape:connector-curvature="0"
     style="opacity:0.2;fill:url(#linearGradient3122);fill-opacity:1;fill-rule:nonzero;stroke:none;display:inline"
     id="path3770"
     d="m 10.03125,89.03125 c -4.4091333,0 -8,-3.590867 -8,-8 l 0,-71 c 0,-4.4091333 3.5908667,-8 8,-8 l 72,0 c 4.409133,0 8,3.5908667 8,8 l 0,71 c 0,4.409133 -3.590867,8 -8,8 l -72,0 z" />
  <rect
     style="opacity:0.3;fill:url(#linearGradient3119);fill-opacity:1;fill-rule:nonzero;stroke:none;display:inline"
     id="rect3723"
     transform="scale(1,-1)"
     y="-88.03125"
     x="3.03125"
     ry="7"
     rx="7"
     height="85"
     width="86" />
  <rect
     style="opacity:0.45;fill:url(#linearGradient3116);fill-opacity:1;fill-rule:nonzero;stroke:none;display:inline"
     id="rect3716"
     transform="scale(1,-1)"
     y="-87.03125"
     x="4.03125"
     ry="6"
     rx="6"
     height="84"
     width="84" />
  <rect
     style="fill:url(#linearGradient3113);fill-opacity:1;fill-rule:nonzero;stroke:none"
     id="rect2419"
     y="2.03125"
     x="4.03125"
     ry="6"
     rx="6"
     height="84"
     width="84" />
  <path
     style="opacity:0.5;fill:url(#linearGradient3110);fill-opacity:1;fill-rule:nonzero;stroke:none;display:inline"
     id="rect3728"
     inkscape:connector-curvature="0"
     d="m 10.03125,2.03125 c -3.324,0 -6,2.676 -6,6 l 0,2 0,68 0,2 c 0,0.334721 0.04135,0.6507 0.09375,0.96875 0.0487,0.295596 0.09704,0.596915 0.1875,0.875 0.0099,0.03038 0.02089,0.0636 0.03125,0.09375 0.09886,0.287771 0.23488,0.547452 0.375,0.8125 0.144592,0.273507 0.315616,0.535615 0.5,0.78125 0.184384,0.245635 0.373776,0.473472 0.59375,0.6875 0.439947,0.428056 0.94291,0.814526 1.5,1.09375 0.278545,0.139612 0.573473,0.246947 0.875,0.34375 -0.256202,-0.100222 -0.486711,-0.236272 -0.71875,-0.375 -0.0074,-0.0044 -0.02387,0.0045 -0.03125,0 C 7.40557,85.2932 7.37521,85.26999 7.34375,85.25 7.223355,85.1733 7.112727,85.086487 7,85 6.893827,84.9192 6.786719,84.838888 6.6875,84.75 6.50957,84.588567 6.34004,84.404612 6.1875,84.21875 6.079921,84.088495 5.969106,83.953465 5.875,83.8125 5.84991,83.77412 5.83655,83.72663 5.8125,83.6875 5.74774,83.584468 5.682272,83.482983 5.625,83.375 5.523992,83.180294 5.419325,82.959299 5.34375,82.75 5.33575,82.72819 5.32016,82.70945 5.3125,82.6875 5.28067,82.59555 5.2767,82.500669 5.25,82.40625 5.219668,82.299632 5.179611,82.203219 5.15625,82.09375 c -0.072879,-0.341512 -0.125,-0.698205 -0.125,-1.0625 l 0,-2 0,-68 0,-2 c 0,-2.781848 2.218152,-5 5,-5 l 2,0 68,0 2,0 c 2.781848,0 5,2.218152 5,5 l 0,2 0,68 0,2 c 0,0.364295 -0.05212,0.720988 -0.125,1.0625 -0.04415,0.206893 -0.08838,0.397658 -0.15625,0.59375 -0.0077,0.02195 -0.0233,0.04069 -0.03125,0.0625 -0.06274,0.173739 -0.138383,0.367449 -0.21875,0.53125 -0.04158,0.0828 -0.07904,0.169954 -0.125,0.25 -0.0546,0.09721 -0.126774,0.18835 -0.1875,0.28125 -0.09411,0.140965 -0.204921,0.275995 -0.3125,0.40625 -0.143174,0.17445 -0.303141,0.346998 -0.46875,0.5 -0.01117,0.0102 -0.01998,0.02115 -0.03125,0.03125 -0.138386,0.125556 -0.285091,0.234436 -0.4375,0.34375 -0.102571,0.07315 -0.204318,0.153364 -0.3125,0.21875 -0.0074,0.0045 -0.02384,-0.0044 -0.03125,0 -0.232039,0.138728 -0.462548,0.274778 -0.71875,0.375 0.301527,-0.0968 0.596455,-0.204138 0.875,-0.34375 0.55709,-0.279224 1.060053,-0.665694 1.5,-1.09375 0.219973,-0.214028 0.409366,-0.441865 0.59375,-0.6875 0.184384,-0.245635 0.355408,-0.507743 0.5,-0.78125 0.14012,-0.265048 0.276135,-0.524729 0.375,-0.8125 0.01041,-0.03078 0.02133,-0.06274 0.03125,-0.09375 0.09046,-0.278085 0.1388,-0.579404 0.1875,-0.875 0.0524,-0.31805 0.09375,-0.634029 0.09375,-0.96875 l 0,-2 0,-68 0,-2 c 0,-3.324 -2.676,-6 -6,-6 l -72,0 z" />
  <path
     style="opacity:0.4;fill:url(#radialGradient3107);fill-opacity:1;fill-rule:nonzero;stroke:none;display:inline"
     id="path3615"
     inkscape:connector-curvature="0"
     d="m 10.03125,86.03125 c -3.324,0 -6,-2.676 -6,-6 l 0,-2 0,-68 0,-2 C 4.03125,7.696529 4.0726,7.38055 4.125,7.0625 4.1737,6.766904 4.22204,6.465585 4.3125,6.1875 4.32238,6.15712 4.333392,6.1239 4.34375,6.09375 4.442615,5.805979 4.5786302,5.546298 4.71875,5.28125 4.8633418,5.007743 5.0343661,4.745635 5.21875,4.5 5.4031339,4.254365 5.5925265,4.026528 5.8125,3.8125 6.252447,3.384444 6.75541,2.997974 7.3125,2.71875 7.591045,2.579138 7.8859731,2.471803 8.1875,2.375 7.9312982,2.475222 7.7007891,2.611272 7.46875,2.75 7.46134,2.7544 7.444884,2.7455 7.4375,2.75 7.405567,2.7693 7.375207,2.79251 7.34375,2.8125 7.223355,2.8892 7.1127274,2.976013 7,3.0625 6.8938272,3.1433 6.7867191,3.223612 6.6875,3.3125 6.5095701,3.473933 6.3400404,3.657888 6.1875,3.84375 6.0799211,3.974005 5.9691061,4.109035 5.875,4.25 5.849911,4.28838 5.836554,4.33587 5.8125,4.375 5.747737,4.478032 5.6822725,4.579517 5.625,4.6875 5.5239917,4.882206 5.4193252,5.103201 5.34375,5.3125 5.33579,5.33431 5.320161,5.35305 5.3125,5.375 5.2806749,5.46695 5.2766955,5.561831 5.25,5.65625 c -0.030332,0.106618 -0.070389,0.203031 -0.09375,0.3125 -0.072879,0.341512 -0.125,0.698205 -0.125,1.0625 l 0,2 0,68 0,2 c 0,2.781848 2.2181517,5 5,5 l 2,0 68,0 2,0 c 2.781848,0 5,-2.218152 5,-5 l 0,-2 0,-68 0,-2 c 0,-0.364295 -0.05212,-0.720988 -0.125,-1.0625 C 86.8621,5.761857 86.81787,5.571092 86.75,5.375 86.7423,5.35305 86.7267,5.33431 86.71875,5.3125 86.65601,5.138761 86.580367,4.945051 86.5,4.78125 86.45842,4.69845 86.42096,4.611296 86.375,4.53125 86.3204,4.43404 86.248226,4.3429 86.1875,4.25 86.09339,4.109035 85.982579,3.974005 85.875,3.84375 85.731826,3.6693 85.571859,3.496752 85.40625,3.34375 85.39508,3.33355 85.38627,3.3226 85.375,3.3125 85.236614,3.186944 85.089909,3.078064 84.9375,2.96875 84.834929,2.8956 84.733182,2.815386 84.625,2.75 84.6176,2.7455 84.60116,2.7544 84.59375,2.75 84.361711,2.611272 84.131202,2.475222 83.875,2.375 c 0.301527,0.0968 0.596455,0.204138 0.875,0.34375 0.55709,0.279224 1.060053,0.665694 1.5,1.09375 0.219973,0.214028 0.409366,0.441865 0.59375,0.6875 0.184384,0.245635 0.355408,0.507743 0.5,0.78125 0.14012,0.265048 0.276135,0.524729 0.375,0.8125 0.01041,0.03078 0.02133,0.06274 0.03125,0.09375 0.09046,0.278085 0.1388,0.579404 0.1875,0.875 0.0524,0.31805 0.09375,0.634029 0.09375,0.96875 l 0,2 0,68 0,2 c 0,3.324 -2.676,6 -6,6 l -72,0 z" />
  <rect
     style="opacity:0.65163933;color:#000000;fill:#ff0000;fill-opacity:1;fill-rule:nonzero;stroke:none;stroke-width:1;marker:none;visibility:visible;display:inline;overflow:visible;enable-background:accumulate"
     id="rect3727"
     clip-path="url(#clipPath2956)"
     y="20"
     x="-88"
     height="55.999996"
     width="72"
     transform="translate(-1.96875,-3.96875)" />
  <g
     id="g3871"
     clip-path="url(#clipPath2952)"
     transform="translate(-1.96875,-3.96875)">
    <rect
       style="color:#000000;fill:url(#linearGradient3130);fill-opacity:1;fill-rule:nonzero;stroke:none;stroke-width:1;marker:none;visibility:visible;display:inline;overflow:visible;enable-background:accumulate"
       id="rect3966"
       y="20"
       x="12"
       height="55.999996"
       width="72" />
  </g>
  <g
     id="layer5"
     style="display:none"
     transform="translate(-1.96875,-3.96875)">
    <text
       x="43.749348"
       y="71.477806"
       id="text3989"
       xml:space="preserve"
       style="font-size:20.88772774px;font-style:normal;font-variant:normal;font-weight:bold;font-stretch:normal;text-align:start;line-height:125%;writing-mode:lr-tb;text-anchor:start;opacity:0.7;fill:#ffffff;fill-opacity:1;stroke:none;display:inline;font-family:BabelSans;-inkscape-font-specification:BabelSans Medium"
       sodipodi:linespacing="125%"><tspan
         x="43.749348"
         y="71.477806"
         id="tspan3991">PNG</tspan></text>
  </g>
  <path
     inkscape:connector-curvature="0"
     style="opacity:0.1;fill:#000000;fill-opacity:1;stroke:none;display:inline"
     id="path3799"
     d="m 46.03125,22.1875 c -12.588928,0 -22.84375,10.254823 -22.84375,22.84375 0,12.588926 10.254821,22.84375 22.84375,22.84375 C 58.620178,67.875 68.875,57.620176 68.875,45.03125 68.875,32.442323 58.620177,22.1875 46.03125,22.1875 z m 0,12 c 6.003788,0 10.84375,4.839963 10.84375,10.84375 0,0.252184 -0.131302,0.574979 -0.1875,0.84375 l -11.5,-11.5 c 0.268749,-0.0562 0.590398,-0.1875 0.84375,-0.1875 z m -10.625,9.5 11.96875,11.96875 c -0.443694,0.07745 -0.893577,0.21875 -1.34375,0.21875 -6.003787,0 -10.84375,-4.839965 -10.84375,-10.84375 0,-0.448616 0.141288,-0.899778 0.21875,-1.34375 z" />
  <path
     inkscape:connector-curvature="0"
     style="opacity:0.15;fill:#000000;fill-opacity:1;stroke:none;display:inline"
     id="path3795"
     d="M 46.03125,23 C 33.88454,23 24,32.884541 24,45.03125 24,57.177957 33.88454,67.0625 46.03125,67.0625 58.177959,67.0625 68.0625,57.177957 68.0625,45.03125 68.0625,32.884541 58.177959,23 46.03125,23 z m 0,10.375 c 6.443426,0 11.65625,5.212825 11.65625,11.65625 0,0.867734 -0.30043,1.656275 -0.5,2.46875 L 43.5625,33.875 c 0.811488,-0.199455 1.59837,-0.5 2.46875,-0.5 z M 34.875,42.03125 49.03125,56.1875 c -0.968257,0.283886 -1.954985,0.5 -3,0.5 -6.443425,0 -11.65625,-5.212827 -11.65625,-11.65625 0,-1.042072 0.216046,-2.030598 0.5,-3 z" />
  <path
     style="opacity:0.2;fill:url(#linearGradient3087);fill-opacity:1;fill-rule:nonzero;stroke:none;display:inline"
     id="rect3969"
     inkscape:connector-curvature="0"
     d="m 10.03125,2.03125 c -3.324,0 -6,2.676 -6,6 l 0,53.375 c 15.659672,-11.050178 42.932917,-18.375 74,-18.375 3.382367,0 6.716951,0.1124 10,0.28125 l 0,-35.28125 c 0,-3.324 -2.676,-6 -6,-6 l -72,0 z" />
  <path
     inkscape:connector-curvature="0"
     style="opacity:0.3;fill:#000000;fill-opacity:1;stroke:none;display:inline"
     id="path3791"
     d="m 46.03125,23.96875 c -11.623022,0 -21.0625,9.439479 -21.0625,21.0625 0,11.623019 9.439478,21.0625 21.0625,21.0625 11.623021,0 21.0625,-9.439481 21.0625,-21.0625 0,-11.623021 -9.439479,-21.0625 -21.0625,-21.0625 z m 0,8.4375 c 6.967085,0 12.625,5.657916 12.625,12.625 0,1.577229 -0.341074,3.045362 -0.875,4.4375 l -16.1875,-16.1875 c 1.391994,-0.534839 2.856583,-0.875 4.4375,-0.875 z M 34.4375,40.21875 50.84375,56.625 c -1.492105,0.624748 -3.094137,1.03125 -4.8125,1.03125 -6.967084,0 -12.625,-5.657918 -12.625,-12.625 0,-1.714686 0.407579,-3.320374 1.03125,-4.8125 z" />
  <path
     style="opacity:0.3;color:#000000;fill:url(#linearGradient3083);fill-opacity:1;fill-rule:nonzero;stroke:none;stroke-width:0.5;marker:none;visibility:visible;display:inline;overflow:visible;enable-background:accumulate"
     id="rect2960"
     inkscape:connector-curvature="0"
     d="m 13.03125,16.03125 c -1.662,0 -3,1.338 -3,3 l 0,50 c 0,1.662 1.338,3 3,3 l 66,0 c 1.662,0 3,-1.338 3,-3 l 0,-50 c 0,-1.662 -1.338,-3 -3,-3 l -66,0 z m 0,0.96875 66,0 c 1.14652,0 2.03125,0.884731 2.03125,2.03125 l 0,50 c 0,1.146519 -0.88473,2.03125 -2.03125,2.03125 l -66,0 C 11.884731,71.0625 11,70.177769 11,69.03125 l 0,-50 C 11,17.884731 11.884731,17 13.03125,17 z" />
  <path
     style="opacity:0.7;color:#000000;fill:#ffffff;fill-opacity:1;fill-rule:nonzero;stroke:none;stroke-width:0.5;marker:none;visibility:visible;display:inline;overflow:visible;enable-background:accumulate"
     id="rect3750"
     inkscape:connector-curvature="0"
     d="m 10.03125,69.03125 0,1 c 0,1.662 1.338,3 3,3 l 66,0 c 1.662,0 3,-1.338 3,-3 l 0,-1 c 0,1.662 -1.338,3 -3,3 l -66,0 c -1.662,0 -3,-1.338 -3,-3 z" />
  <path
     style="fill:url(#linearGradient3078);fill-opacity:1;stroke:#a00000;stroke-width:0.99999994;stroke-linecap:round;stroke-linejoin:miter;stroke-miterlimit:4;stroke-opacity:1;stroke-dasharray:none;display:inline"
     id="path2424"
     inkscape:connector-curvature="0"
     d="m 46.03125,23.531251 c -11.316001,0 -20.499999,9.183999 -20.499999,20.499999 0,11.315998 9.183998,20.499999 20.499999,20.499999 11.316,0 20.5,-9.184001 20.5,-20.499999 0,-11.316 -9.184,-20.499999 -20.5,-20.499999 z m 0,7.321432 c 7.27457,0 13.178571,5.903998 13.178571,13.178567 0,1.965932 -0.439706,3.82625 -1.212613,5.502513 L 40.517297,32.065286 c 1.678707,-0.77565 3.544313,-1.212604 5.513953,-1.212604 z m -11.805802,7.344301 17.651505,17.640067 c -1.762845,0.875367 -3.745171,1.372765 -5.845703,1.372765 -7.274569,0 -13.178569,-5.904 -13.178569,-13.178567 0,-2.096897 0.500235,-4.073699 1.372767,-5.834265 z" />
  <path
     style="opacity:0.5;fill:url(#linearGradient3072);fill-opacity:1;stroke:none;display:inline"
     id="path3801"
     inkscape:connector-curvature="0"
     d="m 46.03125,23.53125 c -11.316001,0 -20.5,9.184 -20.5,20.5 0,0.166268 -0.0039,0.334675 0,0.5 0.264419,-11.086501 9.350267,-20 20.5,-20 11.149732,0 20.235581,8.913499 20.5,20 0.0039,-0.165325 0,-0.333732 0,-0.5 0,-11.316 -9.184,-20.5 -20.5,-20.5 z m -4.78125,9.25 c -0.242641,0.09522 -0.483237,0.172431 -0.71875,0.28125 L 58,50.53125 c 0.772907,-1.676263 1.21875,-3.534068 1.21875,-5.5 0,-0.200954 -0.02233,-0.394984 -0.03125,-0.59375 -0.05617,1.81592 -0.468083,3.533495 -1.1875,5.09375 l -16.75,-16.75 z m -8.375,11.8125 c -0.0049,0.145671 -0.03125,0.290617 -0.03125,0.4375 0,7.274567 5.912931,13.1875 13.1875,13.1875 2.100532,0 4.080905,-0.499633 5.84375,-1.375 L 51.15625,56.125 c -1.582026,0.674511 -3.297258,1.09375 -5.125,1.09375 -7.084166,0 -12.858304,-5.613728 -13.15625,-12.625 z" />
</svg>
