<?xml version="1.0" encoding="UTF-8" standalone="no"?>
<!-- Created with Inkscape (http://www.inkscape.org/) -->

<svg
   xmlns:dc="http://purl.org/dc/elements/1.1/"
   xmlns:cc="http://creativecommons.org/ns#"
   xmlns:rdf="http://www.w3.org/1999/02/22-rdf-syntax-ns#"
   xmlns:svg="http://www.w3.org/2000/svg"
   xmlns="http://www.w3.org/2000/svg"
   xmlns:sodipodi="http://sodipodi.sourceforge.net/DTD/sodipodi-0.dtd"
   xmlns:inkscape="http://www.inkscape.org/namespaces/inkscape"
   width="305"
   height="85"
   viewBox="0 0 305 85.000001"
   id="svg4207"
   version="1.1"
   inkscape:version="0.91 r13725"
   sodipodi:docname="markerclusterer.svg">
  <defs
     id="defs4209" />
  <sodipodi:namedview
     id="base"
     pagecolor="#ffffff"
     bordercolor="#666666"
     borderopacity="1.0"
     inkscape:pageopacity="0.0"
     inkscape:pageshadow="2"
     inkscape:zoom="3.959798"
     inkscape:cx="178.7616"
     inkscape:cy="47.323686"
     inkscape:document-units="px"
     inkscape:current-layer="layer1"
     showgrid="false"
     units="px"
     fit-margin-top="0"
     fit-margin-left="0"
     fit-margin-right="0"
     fit-margin-bottom="0"
     inkscape:window-width="1920"
     inkscape:window-height="1018"
     inkscape:window-x="-8"
     inkscape:window-y="-8"
     inkscape:window-maximized="1" />
  <metadata
     id="metadata4212">
    <rdf:RDF>
      <cc:Work
         rdf:about="">
        <dc:format>image/svg+xml</dc:format>
        <dc:type
           rdf:resource="http://purl.org/dc/dcmitype/StillImage" />
        <dc:title></dc:title>
      </cc:Work>
    </rdf:RDF>
  </metadata>
  <g
     inkscape:label="Layer 1"
     inkscape:groupmode="layer"
     id="layer1"
     transform="translate(-6.6190475e-8,-967.3622)">
    <g
       id="g4887"
       transform="matrix(0.88095238,0,0,0.88095238,-163.91834,131.82541)"
       style="fill:#7cb3da;fill-opacity:1;stroke:none;stroke-width:0.1;stroke-miterlimit:4;stroke-dasharray:none;stroke-opacity:1"
       inkscape:export-xdpi="90.000046"
       inkscape:export-ydpi="90.000046">
      <path
         id="path4158"
         d="m 511.28568,1002.9336 a 21,21 0 0 0 -21,21 21,21 0 0 0 21,21 21,21 0 0 0 21,-21 21,21 0 0 0 -21,-21 z m 0,0.6563 a 20.34375,20.34375 0 0 1 20.3438,20.3437 20.34375,20.34375 0 0 1 -20.3438,20.3438 20.34375,20.34375 0 0 1 -20.3437,-20.3438 20.34375,20.34375 0 0 1 20.3437,-20.3437 z"
         style="opacity:0.25;fill:#7cb3da;fill-opacity:1;stroke:none;stroke-width:0.1;stroke-linecap:round;stroke-miterlimit:4;stroke-dasharray:none;stroke-opacity:1"
         inkscape:connector-curvature="0" />
      <path
         id="path4165"
         d="m 511.28568,1004.2461 a 19.6875,19.6875 0 0 0 -19.6875,19.6875 19.6875,19.6875 0 0 0 19.6875,19.6875 19.6875,19.6875 0 0 0 19.6875,-19.6875 19.6875,19.6875 0 0 0 -19.6875,-19.6875 z m 0,1.3125 a 18.375,18.375 0 0 1 18.375,18.375 18.375,18.375 0 0 1 -18.375,18.375 18.375,18.375 0 0 1 -18.375,-18.375 18.375,18.375 0 0 1 18.375,-18.375 z"
         style="opacity:0.5;fill:#7cb3da;fill-opacity:1;stroke:none;stroke-width:0.1;stroke-linecap:round;stroke-miterlimit:4;stroke-dasharray:none;stroke-opacity:1"
         inkscape:connector-curvature="0" />
      <path
         id="path4175"
         d="m 511.28568,1006.2149 a 17.71875,17.71875 0 0 0 -17.7187,17.7187 17.71875,17.71875 0 0 0 17.7187,17.7188 17.71875,17.71875 0 0 0 17.7188,-17.7188 17.71875,17.71875 0 0 0 -17.7188,-17.7187 z m 0,1.9687 a 15.75,15.75 0 0 1 15.75,15.75 15.75,15.75 0 0 1 -15.75,15.75 15.75,15.75 0 0 1 -15.75,-15.75 15.75,15.75 0 0 1 15.75,-15.75 z"
         style="opacity:0.75;fill:#7cb3da;fill-opacity:1;stroke:none;stroke-width:0.1;stroke-linecap:round;stroke-miterlimit:4;stroke-dasharray:none;stroke-opacity:1"
         inkscape:connector-curvature="0" />
      <circle
         r="15.09375"
         cy="1023.9337"
         cx="511.28568"
         id="path4182"
         style="opacity:1;fill:#7cb3da;fill-opacity:1;stroke:none;stroke-width:0.1;stroke-linecap:round;stroke-miterlimit:4;stroke-dasharray:none;stroke-opacity:1" />
    </g>
    <g
       id="g4881"
       transform="matrix(0.90740724,0,0,0.90740724,-124.77774,104.18184)"
       style="fill:#3e8bc1;fill-opacity:1"
       inkscape:export-xdpi="90.000046"
       inkscape:export-ydpi="90.000046">
      <path
         id="path4158-1"
         d="m 405.85717,990.93363 a 26.999998,27 0 0 0 -27,26.99997 26.999998,27 0 0 0 27,27 26.999998,27 0 0 0 27.00001,-27 26.999998,27 0 0 0 -27.00001,-26.99997 z m 0,0.84375 a 26.156248,26.15625 0 0 1 26.15621,26.15622 26.156248,26.15625 0 0 1 -26.15621,26.1563 26.156248,26.15625 0 0 1 -26.15625,-26.1563 26.156248,26.15625 0 0 1 26.15625,-26.15622 z"
         style="opacity:0.25;fill:#3e8bc1;fill-opacity:1;stroke:none;stroke-width:0.5;stroke-linecap:round;stroke-miterlimit:4;stroke-dasharray:none;stroke-opacity:1"
         inkscape:connector-curvature="0" />
      <path
         id="path4165-1"
         d="m 405.85717,992.62113 a 25.312498,25.3125 0 0 0 -25.3125,25.31247 25.312498,25.3125 0 0 0 25.3125,25.3125 25.312498,25.3125 0 0 0 25.31251,-25.3125 25.312498,25.3125 0 0 0 -25.31251,-25.31247 z m 0,1.6875 a 23.624998,23.625 0 0 1 23.62501,23.62497 23.624998,23.625 0 0 1 -23.62501,23.625 23.624998,23.625 0 0 1 -23.625,-23.625 23.624998,23.625 0 0 1 23.625,-23.62497 z"
         style="opacity:0.5;fill:#3e8bc1;fill-opacity:1;stroke:none;stroke-width:0.5;stroke-linecap:round;stroke-miterlimit:4;stroke-dasharray:none;stroke-opacity:1"
         inkscape:connector-curvature="0" />
      <path
         id="path4175-7"
         d="m 405.85717,995.15238 a 22.781248,22.78125 0 0 0 -22.78125,22.78122 22.781248,22.78125 0 0 0 22.78125,22.7813 22.781248,22.78125 0 0 0 22.78121,-22.7813 22.781248,22.78125 0 0 0 -22.78121,-22.78122 z m 0,2.53125 a 20.249998,20.25 0 0 1 20.25001,20.24997 20.249998,20.25 0 0 1 -20.25001,20.25 20.249998,20.25 0 0 1 -20.25,-20.25 20.249998,20.25 0 0 1 20.25,-20.24997 z"
         style="opacity:0.75;fill:#3e8bc1;fill-opacity:1;stroke:none;stroke-width:0.5;stroke-linecap:round;stroke-miterlimit:4;stroke-dasharray:none;stroke-opacity:1"
         inkscape:connector-curvature="0" />
      <ellipse
         ry="19.40625"
         rx="19.406248"
         cy="1017.9337"
         cx="405.85715"
         id="path4182-4"
         style="opacity:1;fill:#3e8bc1;fill-opacity:1;stroke:none;stroke-width:0.5;stroke-linecap:round;stroke-miterlimit:4;stroke-dasharray:none;stroke-opacity:1" />
    </g>
    <g
       id="g4875"
       transform="matrix(0.92424242,0,0,0.92424242,-81.246759,81.308804)"
       style="fill:#0f70b6;fill-opacity:1"
       inkscape:export-xdpi="90.000046"
       inkscape:export-ydpi="90.000046">
      <path
         id="path4158-9"
         d="m 291.85715,984.64791 a 33,33 0 0 0 -33,32.99999 33,33 0 0 0 33,33 33,33 0 0 0 33,-33 33,33 0 0 0 -33,-32.99999 z m 0,1.03125 a 31.96875,31.96875 0 0 1 31.96875,31.96874 31.96875,31.96875 0 0 1 -31.96875,31.9688 31.96875,31.96875 0 0 1 -31.96875,-31.9688 31.96875,31.96875 0 0 1 31.96875,-31.96874 z"
         style="opacity:0.25;fill:#0f70b6;fill-opacity:1;stroke:none;stroke-width:0.5;stroke-linecap:round;stroke-miterlimit:4;stroke-dasharray:none;stroke-opacity:1"
         inkscape:connector-curvature="0" />
      <path
         id="path4165-10"
         d="m 291.85715,986.71041 a 30.9375,30.9375 0 0 0 -30.9375,30.93749 30.9375,30.9375 0 0 0 30.9375,30.9375 30.9375,30.9375 0 0 0 30.9375,-30.9375 30.9375,30.9375 0 0 0 -30.9375,-30.93749 z m 0,2.0625 a 28.875,28.875 0 0 1 28.875,28.87499 28.875,28.875 0 0 1 -28.875,28.875 28.875,28.875 0 0 1 -28.875,-28.875 28.875,28.875 0 0 1 28.875,-28.87499 z"
         style="opacity:0.5;fill:#0f70b6;fill-opacity:1;stroke:none;stroke-width:0.5;stroke-linecap:round;stroke-miterlimit:4;stroke-dasharray:none;stroke-opacity:1"
         inkscape:connector-curvature="0" />
      <path
         id="path4175-9"
         d="m 291.85715,989.80416 a 27.84375,27.84375 0 0 0 -27.84375,27.84374 27.84375,27.84375 0 0 0 27.84375,27.8438 27.84375,27.84375 0 0 0 27.84375,-27.8438 27.84375,27.84375 0 0 0 -27.84375,-27.84374 z m 0,3.09375 a 24.75,24.75 0 0 1 24.75,24.74999 24.75,24.75 0 0 1 -24.75,24.75 24.75,24.75 0 0 1 -24.75,-24.75 24.75,24.75 0 0 1 24.75,-24.74999 z"
         style="opacity:0.75;fill:#0f70b6;fill-opacity:1;stroke:none;stroke-width:0.5;stroke-linecap:round;stroke-miterlimit:4;stroke-dasharray:none;stroke-opacity:1"
         inkscape:connector-curvature="0" />
      <circle
         r="23.71875"
         cy="1017.6479"
         cx="291.85715"
         id="path4182-3"
         style="opacity:1;fill:#0f70b6;fill-opacity:1;stroke:none;stroke-width:0.5;stroke-linecap:round;stroke-miterlimit:4;stroke-dasharray:none;stroke-opacity:1" />
    </g>
    <g
       id="g4869"
       style="fill:#064f83;fill-opacity:1"
       inkscape:export-xdpi="90.000046"
       inkscape:export-ydpi="90.000046"
       transform="matrix(0.93589744,0,0,0.93589744,0.76923042,67.459113)">
      <path
         id="path4158-0"
         d="m 129,974.36216 a 39.000003,39 0 0 0 -39,39.00004 39.000003,39 0 0 0 39,39 39.000003,39 0 0 0 39,-39 39.000003,39 0 0 0 -39,-39.00004 z m 0,1.21875 A 37.781253,37.78125 0 0 1 166.78125,1013.3622 37.781253,37.78125 0 0 1 129,1051.1434 37.781253,37.78125 0 0 1 91.21875,1013.3622 37.781253,37.78125 0 0 1 129,975.58091 Z"
         style="opacity:0.25;fill:#064f83;fill-opacity:1;stroke:none;stroke-width:0.5;stroke-linecap:round;stroke-miterlimit:4;stroke-dasharray:none;stroke-opacity:1"
         inkscape:connector-curvature="0" />
      <path
         id="path4165-14"
         d="M 129,976.79966 A 36.562503,36.5625 0 0 0 92.4375,1013.3622 36.562503,36.5625 0 0 0 129,1049.9247 36.562503,36.5625 0 0 0 165.5625,1013.3622 36.562503,36.5625 0 0 0 129,976.79966 Z m 0,2.4375 A 34.125003,34.125 0 0 1 163.125,1013.3622 34.125003,34.125 0 0 1 129,1047.4872 34.125003,34.125 0 0 1 94.875,1013.3622 34.125003,34.125 0 0 1 129,979.23716 Z"
         style="opacity:0.5;fill:#064f83;fill-opacity:1;stroke:none;stroke-width:0.5;stroke-linecap:round;stroke-miterlimit:4;stroke-dasharray:none;stroke-opacity:1"
         inkscape:connector-curvature="0" />
      <path
         id="path4175-2"
         d="M 129,980.45591 A 32.906253,32.90625 0 0 0 96.09375,1013.3622 32.906253,32.90625 0 0 0 129,1046.2684 32.906253,32.90625 0 0 0 161.90625,1013.3622 32.906253,32.90625 0 0 0 129,980.45591 Z m 0,3.65625 a 29.250002,29.25 0 0 1 29.25,29.25004 29.250002,29.25 0 0 1 -29.25,29.25 29.250002,29.25 0 0 1 -29.25,-29.25 29.250002,29.25 0 0 1 29.25,-29.25004 z"
         style="opacity:0.75;fill:#064f83;fill-opacity:1;stroke:none;stroke-width:0.5;stroke-linecap:round;stroke-miterlimit:4;stroke-dasharray:none;stroke-opacity:1"
         inkscape:connector-curvature="0" />
      <ellipse
         ry="28.03125"
         rx="28.031252"
         cy="1013.3621"
         cx="129.00003"
         id="path4182-9"
         style="opacity:1;fill:#064f83;fill-opacity:1;stroke:none;stroke-width:0.5;stroke-linecap:round;stroke-miterlimit:4;stroke-dasharray:none;stroke-opacity:1" />
    </g>
    <g
       id="g4863"
       transform="matrix(0.94444444,0,0,0.94444444,1.0793651,51.988376)"
       style="fill:#033456;fill-opacity:1"
       inkscape:export-xdpi="90.000046"
       inkscape:export-ydpi="90.000046">
      <path
         id="path4158-5"
         d="m 43.857143,969.21935 a 45,45 0 0 0 -45.0000001,44.99995 45,45 0 0 0 45.0000001,45 45,45 0 0 0 45,-45 45,45 0 0 0 -45,-44.99995 z m 0,1.40625 a 43.59375,43.59375 0 0 1 43.59375,43.5937 43.59375,43.59375 0 0 1 -43.59375,43.5938 A 43.59375,43.59375 0 0 1 0.26339286,1014.2193 43.59375,43.59375 0 0 1 43.857143,970.6256 Z"
         style="opacity:0.25;fill:#033456;fill-opacity:1;stroke:none;stroke-width:0.5;stroke-linecap:round;stroke-miterlimit:4;stroke-dasharray:none;stroke-opacity:1"
         inkscape:connector-curvature="0" />
      <path
         id="path4165-0"
         d="m 43.857143,972.03185 a 42.1875,42.1875 0 0 0 -42.1875001,42.18745 42.1875,42.1875 0 0 0 42.1875001,42.1875 42.1875,42.1875 0 0 0 42.1875,-42.1875 42.1875,42.1875 0 0 0 -42.1875,-42.18745 z m 0,2.8125 a 39.375,39.375 0 0 1 39.375,39.37495 39.375,39.375 0 0 1 -39.375,39.375 39.375,39.375 0 0 1 -39.3750001,-39.375 39.375,39.375 0 0 1 39.3750001,-39.37495 z"
         style="opacity:0.5;fill:#033456;fill-opacity:1;stroke:none;stroke-width:0.5;stroke-linecap:round;stroke-miterlimit:4;stroke-dasharray:none;stroke-opacity:1"
         inkscape:connector-curvature="0" />
      <path
         id="path4175-4"
         d="m 43.857143,976.2506 a 37.96875,37.96875 0 0 0 -37.9687501,37.9687 37.96875,37.96875 0 0 0 37.9687501,37.9688 37.96875,37.96875 0 0 0 37.96875,-37.9688 37.96875,37.96875 0 0 0 -37.96875,-37.9687 z m 0,4.21875 a 33.75,33.75 0 0 1 33.75,33.74995 33.75,33.75 0 0 1 -33.75,33.75 33.75,33.75 0 0 1 -33.75,-33.75 33.75,33.75 0 0 1 33.75,-33.74995 z"
         style="opacity:0.75;fill:#033456;fill-opacity:1;stroke:none;stroke-width:0.5;stroke-linecap:round;stroke-miterlimit:4;stroke-dasharray:none;stroke-opacity:1"
         inkscape:connector-curvature="0" />
      <circle
         r="32.34375"
         cy="1014.2194"
         cx="43.857159"
         id="path4182-33"
         style="opacity:1;fill:#033456;fill-opacity:1;stroke:none;stroke-width:0.5;stroke-linecap:round;stroke-miterlimit:4;stroke-dasharray:none;stroke-opacity:1" />
    </g>
  </g>
</svg>
