<svg height="480" id="flag-icon-css-gr" width="640" xmlns="http://www.w3.org/2000/svg">
  <defs>
    <clipPath id="a">
      <path d="M0 0h120v90H0z" fill-opacity=".7"/>
    </clipPath>
  </defs>
  <g clip-path="url(#a)" fill-rule="evenodd" stroke-width="1pt" transform="scale(5.33)">
    <path d="M0 0h135v10H0z" fill="#0d5eaf"/>
    <path d="M0 10h135v10H0z" fill="#fff"/>
    <path d="M0 20h135v10H0z" fill="#0d5eaf"/>
    <path d="M0 30h135v10H0z" fill="#fff"/>
    <path d="M0 40h135v10H0z" fill="#0d5eaf"/>
    <path d="M0 50h135v10H0z" fill="#fff"/>
    <path d="M0 60h135v10H0z" fill="#0d5eaf"/>
    <path d="M0 70h135v10H0z" fill="#fff"/>
    <path d="M0 80h135v10H0zM0 0h50v50H0z" fill="#0d5eaf"/>
    <g fill="#fff">
      <path d="M20 0h10v50H20z"/>
      <path d="M0 20h50v10H0z"/>
    </g>
  </g>
</svg>
