<?xml version="1.0" encoding="UTF-8" standalone="no"?>
<!-- Generator: Adobe Illustrator 16.0.0, SVG Export Plug-In . SVG Version: 6.00 Build 0)  -->

<svg
   xmlns:dc="http://purl.org/dc/elements/1.1/"
   xmlns:cc="http://creativecommons.org/ns#"
   xmlns:rdf="http://www.w3.org/1999/02/22-rdf-syntax-ns#"
   xmlns:svg="http://www.w3.org/2000/svg"
   xmlns="http://www.w3.org/2000/svg"
   xmlns:sodipodi="http://sodipodi.sourceforge.net/DTD/sodipodi-0.dtd"
   xmlns:inkscape="http://www.inkscape.org/namespaces/inkscape"
   version="1.1"
   id="Layer_1"
   x="0px"
   y="0px"
   width="496.0625"
   height="86.705078"
   viewBox="0 0 496.06247 86.705076"
   enable-background="new 0 0 595.28 320.704"
   xml:space="preserve"
   sodipodi:docname="jhi-header.svg"
   inkscape:version="0.92.1 r15371"><metadata
     id="metadata153"><rdf:RDF><cc:Work
         rdf:about=""><dc:format>image/svg+xml</dc:format><dc:type
           rdf:resource="http://purl.org/dc/dcmitype/StillImage" /><dc:title></dc:title></cc:Work></rdf:RDF></metadata><defs
     id="defs151" /><sodipodi:namedview
     pagecolor="#ffffff"
     bordercolor="#666666"
     borderopacity="1"
     objecttolerance="10"
     gridtolerance="10"
     guidetolerance="10"
     inkscape:pageopacity="0"
     inkscape:pageshadow="2"
     inkscape:window-width="1920"
     inkscape:window-height="1017"
     id="namedview149"
     showgrid="false"
     fit-margin-top="0"
     fit-margin-left="0"
     fit-margin-right="0"
     fit-margin-bottom="0"
     inkscape:zoom="1.3494041"
     inkscape:cx="266.90608"
     inkscape:cy="82.864586"
     inkscape:window-x="-8"
     inkscape:window-y="-8"
     inkscape:window-maximized="1"
     inkscape:current-layer="Layer_1" /><path
     style="fill:#ffd100"
     d="M 49.818359,0 V 86.70508 H 99.619141 V 0 Z"
     id="rect2"
     inkscape:connector-curvature="0" /><path
     style="fill:#d6c300"
     d="M 99.621094,0 V 86.70508 H 149.42383 V 0 Z"
     id="rect4"
     inkscape:connector-curvature="0" /><path
     style="fill:#799900"
     d="m 149.42383,0 v 86.70508 h 49.80273 V 0 Z"
     id="rect6"
     inkscape:connector-curvature="0" /><path
     style="fill:#6ba2b9"
     d="m 199.22656,0 v 86.70508 h 49.80078 V 0 Z"
     id="rect8"
     inkscape:connector-curvature="0" /><path
     style="fill:#00758d"
     d="m 249.0293,0 v 86.70508 h 49.80273 V 0 Z"
     id="rect10"
     inkscape:connector-curvature="0" /><path
     style="fill:#d0009e"
     d="m 298.83203,0 v 86.70508 h 49.80274 V 0 Z"
     id="rect12"
     inkscape:connector-curvature="0" /><path
     style="fill:#863275"
     d="M 348.63477,0 V 86.70508 H 398.4375 V 0 Z"
     id="rect14"
     inkscape:connector-curvature="0" /><path
     style="fill:#c3002f"
     d="m 398.4375,0 v 86.70508 h 49.80273 V 0 Z"
     id="rect16"
     inkscape:connector-curvature="0" /><path
     style="fill:#55565a"
     d="M 448.23242,0 V 86.70508 H 496.0625 V 0 Z"
     id="rect18"
     inkscape:connector-curvature="0" /><path
     style="fill:#ff9e16"
     d="M 0,0 V 86.70508 H 49.818359 V 0 Z"
     id="rect20"
     inkscape:connector-curvature="0" /><path
     d="m 19.092001,49.90591 c 0.094,1.347 0.671,2.627 1.633,3.588 0.934,0.935 2.173,1.512 3.49,1.625 -0.028,-0.051 -0.05,-0.105 -0.065,-0.164 -0.588,-2.279 -1.174,-3.117 -1.47,-3.414 -0.963,-0.963 -2.242,-1.541 -3.588,-1.635 m 5.714,5.584 c 0.057,0.103 0.089,0.219 0.089,0.344 v 0.125 c 0.113,-0.18 0.303,-0.307 0.529,-0.331 1.291,-0.138 2.458,-0.696 3.373,-1.614 0.963,-0.962 1.54,-2.241 1.635,-3.588 -1.346,0.094 -2.625,0.671 -3.587,1.634 -0.491,0.49 -0.938,1.804 -1.204,2.588 l -0.125,0.366 c -0.105,0.296 -0.381,0.48 -0.705,0.479 -0.001,-0.002 -0.003,-0.002 -0.003,-0.002 h -0.002 z m 0.694,5.963 c -0.297,0 -0.552,-0.183 -0.66,-0.441 -0.107,0.259 -0.362,0.441 -0.66,0.441 -0.394,0 -0.714,-0.32 -0.714,-0.715 v -4.277 c -1.415,-0.252 -2.728,-0.934 -3.751,-1.956 -1.41,-1.408 -2.159,-3.36 -2.056,-5.355 0.019,-0.366 0.311,-0.657 0.677,-0.677 1.988,-0.102 3.945,0.646 5.354,2.059 0.435,0.435 0.837,1.117 1.201,2.041 0.258,-0.591 0.567,-1.147 0.943,-1.523 1.409,-1.409 3.373,-2.157 5.355,-2.057 0.366,0.019 0.658,0.311 0.676,0.678 0.103,1.994 -0.648,3.947 -2.057,5.354 -0.98,0.981 -2.238,1.652 -3.593,1.925 v 3.789 c 0,0.394 -0.321,0.714 -0.715,0.714"
     id="path22"
     inkscape:connector-curvature="0"
     style="fill:#ffffff" /><path
     d="m 31.507001,72.68191 h 7.928 v -6.981 l -4.381,-3.701 c -4.03,-0.229 -13.756,-0.783 -14.092,-0.792 -0.281,0 -0.52,0.239 -0.52,0.534 0,0.295 0.239,0.536 0.534,0.536 6.825,0.879 6.832,0.896 7.047,1.359 0.102,0.221 0.084,0.479 -0.047,0.685 -0.131,0.204 -0.358,0.329 -0.602,0.329 h -9.261 c -0.464,0 -5.828,-3.322 -5.864,-3.356 -0.308,-0.276 -0.822,-0.248 -1.1,0.06 -0.287,0.319 -0.26,0.813 0.059,1.101 0.688,0.618 8.937,6.299 9.979,6.547 l 9.606,-0.006 c 0.394,0 0.714,0.319 0.714,0.714 z m 8.642,1.429 h -9.356 c -0.395,0 -0.715,-0.32 -0.715,-0.715 v -2.973 h -8.967 c -1.384,0 -10.781,-6.838 -10.858,-6.906 -0.9059996,-0.814 -0.9799996,-2.213 -0.166,-3.119 0.786,-0.87 2.247,-0.947 3.118,-0.166 0.329,0.252 4.26,2.535 5.084,2.99 h 1.385 c -0.399,-0.36 -0.661,-0.892 -0.661,-1.481 0,-1.082 0.88,-1.963 1.963,-1.963 0.215,0 11.074,0.618 14.398,0.808 0.155,0.01 0.302,0.068 0.42,0.168 l 4.816,4.069 c 0.161,0.136 0.254,0.336 0.254,0.546 v 8.027 c 0,0.395 -0.321,0.715 -0.715,0.715"
     id="path24"
     inkscape:connector-curvature="0"
     style="fill:#ffffff" /><path
     d="m 118.208,69.53291 -1.946,3.349 c -0.119,0.25 -0.192,0.562 -0.192,0.88 0,1.178 0.959,2.134 2.138,2.134 1.177,0 2.134,-0.956 2.134,-2.134 0,-0.318 -0.073,-0.631 -0.216,-0.932 z m 0,7.791 c -1.967,0 -3.567,-1.598 -3.567,-3.562 0,-0.536 0.121,-1.059 0.36,-1.551 l 2.589,-4.458 c 0.255,-0.438 0.981,-0.438 1.236,0 l 2.563,4.411 c 0.263,0.546 0.382,1.066 0.382,1.598 0,1.965 -1.598,3.562 -3.563,3.562"
     id="path26"
     inkscape:connector-curvature="0"
     style="fill:#ffffff" /><path
     d="m 120.461,68.82591 h -6.966 c -0.394,0 -0.714,-0.32 -0.714,-0.714 v -9.943 c 0,-0.395 0.32,-0.714 0.714,-0.714 0.395,0 0.715,0.319 0.715,0.714 v 9.228 h 5.537 v -3.217 c 0,-0.396 0.32,-0.715 0.714,-0.715 0.394,0 0.714,0.319 0.714,0.715 v 3.933 c 0,0.393 -0.32,0.713 -0.714,0.713"
     id="path28"
     inkscape:connector-curvature="0"
     style="fill:#ffffff" /><path
     d="m 124.927,55.43091 h -7.976 c -0.394,0 -0.714,-0.319 -0.714,-0.715 0,-0.394 0.32,-0.714 0.714,-0.714 h 7.976 c 0.394,0 0.714,0.32 0.714,0.714 0,0.395 -0.32,0.715 -0.714,0.715"
     id="path30"
     inkscape:connector-curvature="0"
     style="fill:#ffffff" /><path
     d="m 132.905,62.39691 h -8.99 c -0.394,0 -0.714,-0.32 -0.714,-0.715 0,-0.395 0.32,-0.715 0.714,-0.715 h 8.275 v -5.537 h -2.042 c -0.395,0 -0.715,-0.319 -0.715,-0.713 0,-0.395 0.32,-0.715 0.715,-0.715 h 2.757 c 0.394,0 0.714,0.32 0.714,0.715 v 6.965 c 0,0.394 -0.321,0.715 -0.714,0.715"
     id="path32"
     inkscape:connector-curvature="0"
     style="fill:#ffffff" /><path
     d="m 120.461,64.89291 c -0.394,0 -0.714,-0.319 -0.714,-0.713 0,-1.201 0.541,-3.216 4.167,-3.216 0.394,0 0.714,0.32 0.714,0.714 0,0.396 -0.32,0.715 -0.714,0.715 -2.739,0 -2.739,1.297 -2.739,1.787 0,0.393 -0.32,0.713 -0.714,0.713"
     id="path34"
     inkscape:connector-curvature="0"
     style="fill:#ffffff" /><path
     d="m 113.496,58.88391 c -0.395,0 -0.714,-0.32 -0.714,-0.714 0,-2.299 1.87,-4.168 4.167,-4.168 0.394,0 0.714,0.32 0.714,0.715 0,0.394 -0.32,0.714 -0.714,0.714 -1.51,0 -2.738,1.229 -2.738,2.739 0,0.394 -0.32,0.714 -0.715,0.714"
     id="path36"
     inkscape:connector-curvature="0"
     style="fill:#ffffff" /><path
     d="m 130.147,55.43091 c -0.395,0 -0.715,-0.319 -0.715,-0.715 v -3.552 h -3.791 v 3.552 c 0,0.396 -0.32,0.715 -0.714,0.715 -0.395,0 -0.715,-0.319 -0.715,-0.715 v -4.265 c 0,-0.396 0.32,-0.715 0.715,-0.715 h 5.22 c 0.394,0 0.714,0.319 0.714,0.715 v 4.265 c 0,0.395 -0.32,0.715 -0.714,0.715"
     id="path38"
     inkscape:connector-curvature="0"
     style="fill:#ffffff" /><path
     d="m 124.251,49.73491 h 6.569 v -3.057 h -6.569 z m 7.284,1.429 h -7.998 c -0.395,0 -0.715,-0.319 -0.715,-0.713 v -4.486 c 0,-0.395 0.32,-0.715 0.715,-0.715 h 7.998 c 0.394,0 0.714,0.32 0.714,0.715 v 4.486 c 0,0.394 -0.32,0.713 -0.714,0.713"
     id="path40"
     inkscape:connector-curvature="0"
     style="fill:#ffffff" /><path
     d="m 123.537,48.46491 h -4.028 c -0.394,0 -0.714,-0.32 -0.714,-0.714 0,-0.396 0.32,-0.715 0.714,-0.715 h 4.028 c 0.394,0 0.714,0.319 0.714,0.715 0,0.394 -0.32,0.714 -0.714,0.714"
     id="path42"
     inkscape:connector-curvature="0"
     style="fill:#ffffff" /><path
     d="m 135.548,48.46491 h -4.028 c -0.394,0 -0.714,-0.32 -0.714,-0.714 0,-0.396 0.32,-0.715 0.714,-0.715 h 4.028 c 0.394,0 0.714,0.319 0.714,0.715 0,0.394 -0.32,0.714 -0.714,0.714"
     id="path44"
     inkscape:connector-curvature="0"
     style="fill:#ffffff" /><path
     d="m 62.170001,57.77291 11.671,6.202 11.67,-6.202 -11.671,-6.119 z m 11.671,7.915 c -0.129,0 -0.259,-0.031 -0.377,-0.094 l -13.39,-7.117 c -0.263,-0.139 -0.427,-0.412 -0.426,-0.711 10e-4,-0.297 0.166,-0.57 0.43,-0.708 l 13.389,-7.021 c 0.234,-0.123 0.512,-0.123 0.746,0 l 13.39,7.021 c 0.264,0.138 0.43,0.411 0.43,0.708 0.001,0.299 -0.163,0.572 -0.426,0.711 l -13.389,7.117 c -0.118,0.062 -0.248,0.094 -0.377,0.094"
     id="path46"
     inkscape:connector-curvature="0"
     style="fill:#ffffff" /><path
     d="m 73.840001,72.62991 c -3.484,0 -9.38,-0.668 -9.38,-3.172 v -8.7 c 0,-0.443 0.36,-0.803 0.803,-0.803 0.443,0 0.803,0.359 0.803,0.803 v 8.7 c 0.217,0.524 3.085,1.567 7.774,1.567 4.69,0 7.557,-1.043 7.779,-1.603 l -0.005,-8.665 c 0,-0.443 0.36,-0.803 0.803,-0.803 0.443,0 0.803,0.359 0.803,0.803 v 8.7 c 0,2.505 -5.896,3.173 -9.38,3.173"
     id="path48"
     inkscape:connector-curvature="0"
     style="fill:#ffffff" /><path
     d="m 87.640001,62.72491 c -0.222,0 -0.401,-0.18 -0.401,-0.401 v -4.508 c 0,-0.222 0.179,-0.401 0.401,-0.401 0.222,0 0.401,0.18 0.401,0.401 v 4.508 c 0,0.221 -0.179,0.401 -0.401,0.401"
     id="path50"
     inkscape:connector-curvature="0"
     style="fill:#ffffff" /><path
     d="m 87.640001,63.45291 c -0.301,0 -0.546,0.245 -0.546,0.545 0,0.301 0.245,0.547 0.546,0.547 0.3,0 0.545,-0.246 0.545,-0.547 0,-0.3 -0.245,-0.545 -0.545,-0.545 m 0,2.696 c -1.186,0 -2.151,-0.965 -2.151,-2.151 0,-1.186 0.965,-2.149 2.151,-2.149 1.186,0 2.15,0.964 2.15,2.149 0,1.187 -0.964,2.151 -2.15,2.151"
     id="path52"
     inkscape:connector-curvature="0"
     style="fill:#ffffff" /><path
     d="m 73.840001,69.77491 c -4.462,0 -8.978,-0.951 -8.978,-2.77 0,-0.222 0.179,-0.402 0.401,-0.402 0.222,0 0.401,0.181 0.401,0.402 0,0.803 3.185,1.967 8.176,1.967 4.991,0 8.176,-1.164 8.176,-1.967 0,-0.222 0.179,-0.402 0.401,-0.402 0.222,0 0.401,0.181 0.401,0.402 0,1.819 -4.516,2.77 -8.978,2.77"
     id="path54"
     inkscape:connector-curvature="0"
     style="fill:#ffffff" /><path
     d="m 180.244,45.30891 c -0.147,0 -0.293,0.026 -0.433,0.078 l -11.837,4.381 c -0.646,0.24 -0.977,0.961 -0.738,1.607 0.232,0.626 0.969,0.975 1.605,0.739 l 11.836,-4.381 c 0.647,-0.24 0.98,-0.962 0.741,-1.608 -0.182,-0.486 -0.653,-0.816 -1.174,-0.816 m -11.836,8.312 c -1.114,0 -2.124,-0.703 -2.512,-1.75 -0.512,-1.386 0.198,-2.929 1.582,-3.443 l 11.837,-4.381 c 1.358,-0.5 2.944,0.238 3.443,1.582 0.512,1.387 -0.199,2.932 -1.584,3.443 l -11.837,4.382 c -0.299,0.111 -0.611,0.167 -0.929,0.167"
     id="path56"
     inkscape:connector-curvature="0"
     style="fill:#ffffff" /><path
     d="m 180.244,51.84891 c -0.147,0 -0.293,0.026 -0.434,0.077 l -11.836,4.384 c -0.314,0.116 -0.563,0.347 -0.703,0.649 -0.139,0.304 -0.153,0.644 -0.036,0.957 0.233,0.625 0.971,0.973 1.605,0.738 l 11.837,-4.382 c 0.647,-0.239 0.979,-0.961 0.741,-1.608 -0.182,-0.486 -0.653,-0.815 -1.174,-0.815 m -11.837,8.311 c -1.114,0 -2.123,-0.701 -2.512,-1.746 -0.249,-0.674 -0.221,-1.4 0.078,-2.051 0.299,-0.65 0.834,-1.146 1.506,-1.395 l 11.835,-4.382 c 1.359,-0.501 2.945,0.239 3.443,1.582 0.512,1.386 -0.199,2.93 -1.584,3.442 l -11.836,4.383 c -0.299,0.112 -0.612,0.167 -0.93,0.167"
     id="path58"
     inkscape:connector-curvature="0"
     style="fill:#ffffff" /><path
     d="m 174.921,64.41991 c -0.29,0 -0.563,-0.18 -0.67,-0.467 -0.137,-0.369 0.052,-0.781 0.422,-0.918 l 6.005,-2.224 c 0.646,-0.239 0.977,-0.959 0.739,-1.608 -0.237,-0.646 -0.962,-0.976 -1.609,-0.736 l -10.442,4.002 c -0.454,0.168 -0.764,0.563 -0.817,1.035 -0.007,0.062 -0.009,0.119 -0.007,0.172 0.016,0.395 -0.291,0.727 -0.685,0.742 -0.36,0.053 -0.726,-0.289 -0.742,-0.685 -0.006,-0.132 0,-0.267 0.015,-0.394 0.113,-1.008 0.777,-1.855 1.733,-2.209 l 10.442,-4.002 c 1.397,-0.514 2.942,0.194 3.452,1.58 0.51,1.388 -0.2,2.931 -1.583,3.442 l -6.005,2.224 c -0.081,0.031 -0.165,0.046 -0.248,0.046"
     id="path60"
     inkscape:connector-curvature="0"
     style="fill:#ffffff" /><path
     d="m 174.324,73.96391 c -1.989,0 -3.547,-1.181 -3.547,-2.685 0,-0.395 0.32,-0.715 0.714,-0.715 0.395,0 0.715,0.32 0.715,0.715 0,0.594 0.869,1.256 2.118,1.256 1.25,0 2.121,-0.662 2.121,-1.256 0,-0.395 0.32,-0.715 0.714,-0.715 0.394,0 0.714,0.32 0.714,0.715 0,1.504 -1.559,2.685 -3.549,2.685"
     id="path62"
     inkscape:connector-curvature="0"
     style="fill:#ffffff" /><path
     d="m 174.324,76.22991 c -1.989,0 -3.547,-1.179 -3.547,-2.685 0,-0.395 0.32,-0.715 0.714,-0.715 0.395,0 0.715,0.32 0.715,0.715 0,0.595 0.869,1.256 2.118,1.256 1.25,0 2.121,-0.661 2.121,-1.256 0,-0.395 0.32,-0.715 0.714,-0.715 0.394,0 0.714,0.32 0.714,0.715 0,1.506 -1.559,2.685 -3.549,2.685"
     id="path64"
     inkscape:connector-curvature="0"
     style="fill:#ffffff" /><path
     d="m 170.825,68.22591 c 0.441,0.192 1.38,0.884 1.38,3.265 v 4.506 c 0,0.6 0.87,1.26 2.12,1.26 1.249,0 2.12,-0.66 2.12,-1.256 v -4.51 c 0,-0.048 0.004,-0.095 0.014,-0.142 0.035,-2.183 0.879,-2.882 1.33,-3.101 0.028,-0.018 0.057,-0.035 0.088,-0.049 1.287,-0.59 2.413,-1.496 3.271,-2.634 v -1.146 h -13.646 v 1.146 c 0.863,1.14 1.992,2.05 3.278,2.638 0.015,0.006 0.03,0.015 0.045,0.023 m 3.5,10.46 c -1.99,0 -3.549,-1.18 -3.549,-2.686 v -4.51 c 0,-1.389 -0.387,-1.886 -0.536,-1.961 -0.096,-0.023 -0.181,-0.063 -0.253,-0.119 -1.496,-0.727 -2.799,-1.828 -3.779,-3.194 -0.087,-0.121 -0.134,-0.267 -0.134,-0.416 v -2.095 c 0,-0.395 0.32,-0.715 0.714,-0.715 h 15.074 c 0.395,0 0.715,0.32 0.715,0.715 v 2.095 c 0,0.149 -0.047,0.294 -0.133,0.416 -0.99,1.384 -2.317,2.495 -3.842,3.222 -0.071,0.053 -0.153,0.091 -0.242,0.113 -0.086,0.054 -0.474,0.551 -0.474,1.939 0,0.047 -0.004,0.094 -0.013,0.137 v 4.373 c 0,1.506 -1.558,2.686 -3.548,2.686"
     id="path66"
     inkscape:connector-curvature="0"
     style="fill:#ffffff" /><path
     d="m 235.04,55.77291 h -4.258 v 18.419 h 4.258 z m -5.863,19.223 v -20.025 c 0,-0.443 0.359,-0.803 0.803,-0.803 h 5.863 c 0.444,0 0.803,0.359 0.803,0.803 v 20.025 c 0,0.442 -0.359,0.803 -0.803,0.803 h -5.863 c -0.444,0 -0.803,-0.36 -0.803,-0.803"
     id="path68"
     inkscape:connector-curvature="0"
     style="fill:#ffffff" /><path
     d="m 217.473,65.78491 h -4.258 v 8.407 h 4.258 z m -5.863,9.211 v -10.013 c 0,-0.444 0.359,-0.803 0.803,-0.803 h 5.863 c 0.443,0 0.803,0.358 0.803,0.803 v 10.013 c 0,0.442 -0.36,0.803 -0.803,0.803 h -5.863 c -0.444,0 -0.803,-0.36 -0.803,-0.803"
     id="path70"
     inkscape:connector-curvature="0"
     style="fill:#ffffff" /><path
     d="m 226.289,60.77891 h -4.257 v 13.413 h 4.257 z m -5.862,14.217 v -15.02 c 0,-0.443 0.359,-0.803 0.803,-0.803 h 5.862 c 0.443,0 0.803,0.359 0.803,0.803 v 15.02 c 0,0.442 -0.36,0.803 -0.803,0.803 h -5.862 c -0.444,0 -0.803,-0.36 -0.803,-0.803"
     id="path72"
     inkscape:connector-curvature="0"
     style="fill:#ffffff" /><path
     d="m 212.478,63.16191 c 0.143,0 0.288,-0.038 0.419,-0.119 l 20.555,-12.621 c 0.378,-0.232 0.496,-0.727 0.264,-1.104 -0.232,-0.379 -0.725,-0.496 -1.105,-0.265 l -20.554,12.621 c -0.378,0.231 -0.496,0.728 -0.264,1.104 0.153,0.247 0.415,0.384 0.685,0.384"
     id="path74"
     inkscape:connector-curvature="0"
     style="fill:#ffffff" /><path
     d="m 233.292,48.54291 0.826,1.506 0.568,-1.354 z m 0.221,3.738 -2.368,-4.316 c -0.145,-0.262 -0.13,-0.582 0.035,-0.83 0.167,-0.25 0.457,-0.387 0.755,-0.354 l 3.994,0.432 c 0.252,0.027 0.476,0.172 0.605,0.391 0.129,0.219 0.147,0.484 0.049,0.718 l -1.626,3.884 c -0.119,0.284 -0.39,0.475 -0.698,0.491 -0.014,10e-4 -0.028,0.002 -0.042,0.002 -0.293,-10e-4 -0.564,-0.16 -0.704,-0.418"
     id="path76"
     inkscape:connector-curvature="0"
     style="fill:#ffffff" /><path
     d="m 280.002,67.38491 c -1.945,0 -3.528,1.583 -3.528,3.529 0,1.945 1.583,3.527 3.528,3.527 1.946,0 3.529,-1.582 3.529,-3.527 10e-4,-1.946 -1.582,-3.529 -3.529,-3.529 m 0,8.662 c -2.83,0 -5.133,-2.302 -5.133,-5.133 0,-2.832 2.303,-5.135 5.133,-5.135 2.832,0 5.135,2.303 5.135,5.135 0,2.831 -2.303,5.133 -5.135,5.133"
     id="path78"
     inkscape:connector-curvature="0"
     style="fill:#ffffff" /><path
     d="m 280.002,48.13391 c -1.945,0 -3.528,1.583 -3.528,3.528 0,1.945 1.583,3.527 3.528,3.527 1.946,0 3.529,-1.582 3.529,-3.527 0,-1.945 -1.582,-3.528 -3.529,-3.528 m 0,8.662 c -2.83,0 -5.133,-2.304 -5.133,-5.134 0,-2.83 2.303,-5.135 5.133,-5.135 2.832,0 5.135,2.305 5.135,5.135 0,2.83 -2.303,5.134 -5.135,5.134"
     id="path80"
     inkscape:connector-curvature="0"
     style="fill:#ffffff" /><path
     d="m 267.858,57.56691 c -1.945,0 -3.529,1.583 -3.529,3.528 0,1.946 1.584,3.53 3.529,3.53 1.946,0 3.529,-1.584 3.529,-3.53 0,-1.945 -1.583,-3.528 -3.529,-3.528 m 0,8.664 c -2.83,0 -5.134,-2.303 -5.134,-5.135 0,-2.83 2.304,-5.135 5.134,-5.135 2.832,0 5.135,2.305 5.135,5.135 0,2.832 -2.303,5.135 -5.135,5.135"
     id="path82"
     inkscape:connector-curvature="0"
     style="fill:#ffffff" /><path
     d="m 280.002,66.98191 c -0.222,0 -0.4,-0.18 -0.4,-0.4 v -10.589 c 0,-0.222 0.179,-0.401 0.4,-0.401 0.223,0 0.401,0.18 0.401,0.401 v 10.589 c 10e-4,0.221 -0.178,0.4 -0.401,0.4"
     id="path84"
     inkscape:connector-curvature="0"
     style="fill:#ffffff" /><path
     d="m 276.63,68.59791 c -0.088,0 -0.177,-0.029 -0.251,-0.089 l -5.416,-4.36 c -0.173,-0.141 -0.199,-0.393 -0.062,-0.565 0.141,-0.173 0.393,-0.199 0.565,-0.062 l 5.416,4.362 c 0.173,0.14 0.2,0.392 0.062,0.563 -0.08,0.1 -0.196,0.151 -0.314,0.151"
     id="path86"
     inkscape:connector-curvature="0"
     style="fill:#ffffff" /><path
     d="m 271.247,58.80291 c -0.118,0 -0.233,-0.051 -0.313,-0.15 -0.139,-0.172 -0.111,-0.425 0.062,-0.564 l 5.233,-4.215 c 0.173,-0.139 0.426,-0.11 0.564,0.062 0.139,0.172 0.112,0.425 -0.061,0.564 l -5.234,4.213 c -0.074,0.06 -0.163,0.09 -0.251,0.09"
     id="path88"
     inkscape:connector-curvature="0"
     style="fill:#ffffff" /><path
     d="m 383.293,64.70291 c -0.221,0 -0.441,-0.094 -0.598,-0.275 -0.281,-0.33 -0.242,-0.826 0.086,-1.108 1.156,-0.986 1.817,-2.423 1.817,-3.941 0,-2.858 -2.325,-5.184 -5.184,-5.184 -2.292,0 -4.339,1.532 -4.979,3.726 -0.119,0.416 -0.553,0.653 -0.974,0.534 -0.416,-0.121 -0.656,-0.558 -0.534,-0.974 0.833,-2.86 3.501,-4.858 6.487,-4.858 3.724,0 6.755,3.03 6.755,6.756 0,1.979 -0.862,3.851 -2.367,5.138 -0.147,0.124 -0.328,0.186 -0.509,0.186"
     id="path90"
     inkscape:connector-curvature="0"
     style="fill:#ffffff" /><path
     d="m 379.414,52.29491 c -0.434,0 -0.785,-0.353 -0.785,-0.786 v -2.978 c 0,-0.434 0.352,-0.785 0.785,-0.785 0.435,0 0.787,0.352 0.787,0.785 v 2.978 c 10e-4,0.433 -0.352,0.786 -0.787,0.786"
     id="path92"
     inkscape:connector-curvature="0"
     style="fill:#ffffff" /><path
     d="m 390.26,60.16391 h -2.977 c -0.434,0 -0.785,-0.352 -0.785,-0.786 0,-0.434 0.352,-0.786 0.785,-0.786 h 2.977 c 0.434,0 0.785,0.352 0.785,0.786 0,0.434 -0.351,0.786 -0.785,0.786"
     id="path94"
     inkscape:connector-curvature="0"
     style="fill:#ffffff" /><path
     d="m 373.85,54.59991 c -0.201,0 -0.401,-0.078 -0.555,-0.23 l -2.105,-2.104 c -0.309,-0.307 -0.309,-0.805 -0.002,-1.111 0.308,-0.309 0.806,-0.307 1.111,-10e-4 l 2.107,2.104 c 0.307,0.307 0.307,0.803 0,1.11 -0.154,0.154 -0.353,0.232 -0.556,0.232"
     id="path96"
     inkscape:connector-curvature="0"
     style="fill:#ffffff" /><path
     d="m 384.977,54.59991 c -0.201,0 -0.401,-0.078 -0.555,-0.23 -0.308,-0.309 -0.308,-0.805 0,-1.111 l 2.105,-2.104 c 0.307,-0.308 0.806,-0.306 1.111,10e-4 0.308,0.307 0.308,0.805 0,1.111 l -2.105,2.104 c -0.154,0.151 -0.356,0.229 -0.556,0.229"
     id="path98"
     inkscape:connector-curvature="0"
     style="fill:#ffffff" /><path
     d="m 387.065,74.82891 c -0.434,0 -0.786,-0.353 -0.786,-0.786 0,-0.433 0.353,-0.785 0.786,-0.785 0.566,0 1.037,-0.445 1.068,-1.015 0.025,-0.412 0.365,-0.735 0.776,-0.739 0.397,-0.025 0.759,0.309 0.792,0.721 0.012,0.121 0.018,0.203 0.018,0.287 0,0.152 -0.043,0.295 -0.117,0.416 -0.325,1.103 -1.344,1.901 -2.537,1.901"
     id="path100"
     inkscape:connector-curvature="0"
     style="fill:#ffffff" /><path
     d="m 358.678,74.82891 c -1.461,0 -2.651,-1.19 -2.651,-2.651 0,-0.435 0.353,-0.787 0.786,-0.787 0.433,0 0.786,0.353 0.786,0.787 0,0.596 0.483,1.08 1.079,1.08 0.435,0 0.787,0.352 0.787,0.785 0,0.433 -0.352,0.786 -0.787,0.786"
     id="path102"
     inkscape:connector-curvature="0"
     style="fill:#ffffff" /><path
     d="m 387.065,74.82891 h -28.387 c -0.434,0 -0.785,-0.353 -0.785,-0.786 0,-0.433 0.352,-0.785 0.785,-0.785 h 28.387 c 0.434,0 0.786,0.352 0.786,0.785 0,0.433 -0.353,0.786 -0.786,0.786"
     id="path104"
     inkscape:connector-curvature="0"
     style="fill:#ffffff" /><path
     d="m 356.813,72.96291 c -0.435,0 -0.786,-0.352 -0.786,-0.786 v -2.153 c 0,-4.52 3.678,-8.197 8.198,-8.197 0.281,0 0.567,0.016 0.865,0.049 1.945,-3.082 5.353,-4.973 9.019,-4.973 5.634,0 10.262,4.391 10.641,9.932 2.459,0.326 4.456,2.207 4.884,4.714 0.071,0.428 -0.216,0.834 -0.644,0.905 -0.429,0.074 -0.833,-0.213 -0.906,-0.642 -0.341,-2.003 -2.063,-3.456 -4.095,-3.456 -0.434,0 -0.785,-0.352 -0.785,-0.785 0,-5.016 -4.08,-9.098 -9.095,-9.098 -3.281,0 -6.318,1.777 -7.929,4.641 -0.162,0.291 -0.49,0.448 -0.818,0.389 -0.408,-0.07 -0.78,-0.104 -1.137,-0.104 -3.654,0 -6.627,2.972 -6.627,6.626 v 2.153 c 0,0.433 -0.351,0.785 -0.785,0.785"
     id="path106"
     inkscape:connector-curvature="0"
     style="fill:#ffffff" /><path
     d="m 331.354,73.90491 c -0.264,0 -0.522,-0.13 -0.676,-0.367 -0.24,-0.373 -0.134,-0.87 0.239,-1.11 3.802,-2.455 6.07,-6.619 6.07,-11.14 0,-5.69 -3.618,-10.735 -9.003,-12.558 -0.42,-0.144 -0.646,-0.599 -0.504,-1.019 0.143,-0.42 0.6,-0.647 1.019,-0.503 6.037,2.042 10.095,7.7 10.095,14.079 0,5.067 -2.545,9.735 -6.806,12.487 -0.134,0.089 -0.286,0.131 -0.434,0.131"
     id="path108"
     inkscape:connector-curvature="0"
     style="fill:#ffffff" /><path
     d="m 316.538,48.77191 1.887,1.705 v -1.705 z m 2.689,4.314 c -0.195,0 -0.389,-0.07 -0.538,-0.206 l -4.774,-4.315 c -0.246,-0.223 -0.33,-0.574 -0.211,-0.884 0.119,-0.31 0.418,-0.515 0.749,-0.515 h 4.774 c 0.443,0 0.803,0.359 0.803,0.804 v 4.313 c 0,0.318 -0.188,0.605 -0.477,0.734 -0.105,0.047 -0.217,0.069 -0.326,0.069"
     id="path110"
     inkscape:connector-curvature="0"
     style="fill:#ffffff" /><path
     d="m 319.225,75.40891 c -0.085,0 -0.172,-0.015 -0.258,-0.044 -6.037,-2.043 -10.094,-7.7 -10.094,-14.077 0,-5.067 2.545,-9.737 6.807,-12.489 0.372,-0.24 0.87,-0.135 1.11,0.238 0.241,0.373 0.134,0.87 -0.239,1.109 -3.802,2.457 -6.072,6.621 -6.072,11.142 0,5.688 3.618,10.735 9.004,12.557 0.42,0.144 0.645,0.599 0.502,1.019 -0.112,0.333 -0.425,0.545 -0.76,0.545"
     id="path112"
     inkscape:connector-curvature="0"
     style="fill:#ffffff" /><path
     d="m 329.043,73.80391 h 1.887 l -1.887,-1.706 z m 3.99,1.604 c -0.007,0 -0.011,0 -0.017,0 h -4.775 c -0.443,0 -0.803,-0.358 -0.803,-0.803 v -4.314 c 0,-0.317 0.187,-0.604 0.477,-0.733 0.289,-0.13 0.629,-0.076 0.863,0.138 l 4.688,4.234 c 0.223,0.143 0.37,0.393 0.37,0.676 -0.001,0.444 -0.361,0.802 -0.803,0.802"
     id="path114"
     inkscape:connector-curvature="0"
     style="fill:#ffffff" /><path
     d="m 331.354,73.90491 c -0.264,0 -0.521,-0.13 -0.676,-0.367 -0.24,-0.373 -0.134,-0.869 0.239,-1.11 3.802,-2.455 6.07,-6.621 6.07,-11.141 0,-5.689 -3.618,-10.734 -9.003,-12.557 -0.42,-0.144 -0.646,-0.599 -0.504,-1.019 0.143,-0.42 0.6,-0.647 1.019,-0.503 6.037,2.042 10.095,7.7 10.095,14.078 0,5.066 -2.545,9.736 -6.806,12.488 -0.134,0.089 -0.286,0.131 -0.434,0.131"
     id="path116"
     inkscape:connector-curvature="0"
     style="fill:#ffffff" /><path
     d="m 324.01,54.86791 c -3.316,0 -6.013,2.696 -6.013,6.013 0,3.314 2.696,6.012 6.013,6.012 3.317,0 6.014,-2.697 6.014,-6.012 0,-3.316 -2.697,-6.013 -6.014,-6.013 m 0,13.631 c -4.201,0 -7.617,-3.418 -7.617,-7.618 0,-4.201 3.416,-7.619 7.617,-7.619 4.201,0 7.618,3.418 7.618,7.619 0,4.2 -3.417,7.618 -7.618,7.618"
     id="path118"
     inkscape:connector-curvature="0"
     style="fill:#ffffff" /><path
     d="m 324.01,68.09791 c -0.222,0 -0.4,-0.18 -0.4,-0.4 v -13.632 c 0,-0.222 0.179,-0.401 0.4,-0.401 0.223,0 0.401,0.18 0.401,0.401 v 13.632 c 10e-4,0.22 -0.178,0.4 -0.401,0.4"
     id="path120"
     inkscape:connector-curvature="0"
     style="fill:#ffffff" /><path
     d="m 321.653,67.55391 c -0.143,0 -0.282,-0.077 -0.355,-0.212 -3.511,-6.59 -0.14,-12.676 0.006,-12.93 0.109,-0.194 0.354,-0.262 0.547,-0.152 0.193,0.11 0.261,0.355 0.152,0.548 -0.033,0.058 -3.295,5.967 0.004,12.155 0.104,0.195 0.03,0.439 -0.164,0.543 -0.062,0.033 -0.128,0.048 -0.19,0.048"
     id="path122"
     inkscape:connector-curvature="0"
     style="fill:#ffffff" /><path
     d="m 326.367,67.55391 c -0.063,0 -0.128,-0.015 -0.188,-0.048 -0.195,-0.104 -0.27,-0.348 -0.166,-0.543 3.299,-6.188 0.039,-12.098 0.006,-12.155 -0.109,-0.192 -0.041,-0.438 0.151,-0.548 0.192,-0.107 0.438,-0.042 0.548,0.152 0.145,0.254 3.516,6.34 0.004,12.93 -0.073,0.135 -0.212,0.212 -0.355,0.212"
     id="path124"
     inkscape:connector-curvature="0"
     style="fill:#ffffff" /><path
     d="m 317.739,58.93691 c -0.143,0 -0.282,-0.077 -0.354,-0.213 -0.104,-0.195 -0.03,-0.438 0.166,-0.543 6.589,-3.509 12.675,-0.14 12.931,0.005 0.191,0.109 0.26,0.354 0.15,0.547 -0.11,0.193 -0.355,0.26 -0.547,0.152 -0.059,-0.033 -5.969,-3.293 -12.157,0.005 -0.06,0.032 -0.126,0.047 -0.189,0.047"
     id="path126"
     inkscape:connector-curvature="0"
     style="fill:#ffffff" /><path
     d="m 323.885,65.19691 c -1.913,0 -4.096,-0.398 -6.336,-1.592 -0.194,-0.104 -0.27,-0.348 -0.164,-0.543 0.104,-0.196 0.346,-0.27 0.543,-0.165 6.188,3.298 12.097,0.038 12.156,0.005 0.194,-0.109 0.438,-0.042 0.547,0.15 0.108,0.193 0.041,0.438 -0.151,0.548 -0.169,0.096 -2.877,1.597 -6.595,1.597"
     id="path128"
     inkscape:connector-curvature="0"
     style="fill:#ffffff" /><path
     d="m 415.152,54.79991 c -1.25,0 -2.231,0.985 -2.231,2.197 0,0.397 0.115,0.797 0.334,1.153 0.213,0.344 0.136,0.795 -0.182,1.047 -0.775,0.621 -1.221,1.531 -1.221,2.5 0,1.771 1.439,3.211 3.211,3.211 1.411,0 2.673,-0.957 3.068,-2.327 0.099,-0.345 0.414,-0.581 0.771,-0.581 0.027,0 0.062,0.002 0.096,0.006 0.41,-0.007 0.819,-0.113 1.215,-0.314 0.273,-0.139 0.601,-0.11 0.846,0.071 0.566,0.423 1.227,0.646 1.908,0.646 1.258,0 2.404,-0.743 2.922,-1.895 0.137,-0.305 0.455,-0.492 0.783,-0.472 0.334,0.021 0.621,0.248 0.718,0.569 0.414,1.369 1.643,2.291 3.059,2.291 1.771,0 3.212,-1.441 3.212,-3.211 0,-0.277 -0.048,-0.562 -0.148,-0.896 -0.106,-0.352 0.039,-0.73 0.354,-0.92 0.601,-0.361 0.96,-0.985 0.96,-1.67 0,-1.079 -0.88,-1.956 -1.959,-1.956 -0.941,0 -1.748,0.673 -1.919,1.602 -0.065,0.359 -0.366,0.63 -0.731,0.655 -0.348,0.025 -0.668,0.094 -0.948,0.204 -0.351,0.14 -0.754,0.013 -0.964,-0.304 -0.209,-0.315 -0.168,-0.735 0.098,-1.006 0.594,-0.604 0.921,-1.403 0.921,-2.25 0,-1.77 -1.44,-3.211 -3.211,-3.211 -1.231,0 -2.368,0.729 -2.896,1.857 -0.117,0.25 -0.355,0.422 -0.631,0.456 -0.273,0.032 -0.547,-0.077 -0.721,-0.292 -0.621,-0.766 -1.527,-1.206 -2.484,-1.206 -1.76,0 -3.192,1.422 -3.211,3.176 0.002,0.03 0.004,0.062 0.004,0.084 0,0.222 -0.09,0.433 -0.252,0.584 -0.159,0.151 -0.369,0.228 -0.597,0.218 -0.055,-0.004 -0.108,-0.01 -0.163,-0.017 h -0.011 z m -0.089,11.714 c -2.656,0 -4.816,-2.16 -4.816,-4.816 0,-1.24 0.48,-2.416 1.338,-3.31 -0.179,-0.444 -0.271,-0.917 -0.271,-1.391 0,-1.931 1.444,-3.53 3.308,-3.775 0.359,-2.304 2.357,-4.071 4.76,-4.071 1.08,0 2.115,0.366 2.957,1.032 0.901,-1.147 2.291,-1.849 3.774,-1.849 2.656,0 4.817,2.161 4.817,4.816 0,0.023 0,0.045 -0.001,0.068 0.561,-0.365 1.229,-0.576 1.938,-0.576 1.965,0 3.564,1.598 3.564,3.562 0,1.05 -0.456,2.019 -1.244,2.691 0.052,0.272 0.077,0.535 0.077,0.795 0,2.655 -2.16,4.815 -4.816,4.815 -1.608,0 -3.056,-0.787 -3.936,-2.058 -0.897,0.979 -2.177,1.565 -3.546,1.565 -0.872,0 -1.717,-0.239 -2.469,-0.694 -0.334,0.129 -0.676,0.215 -1.021,0.258 -0.747,1.757 -2.487,2.938 -4.413,2.938"
     id="path130"
     inkscape:connector-curvature="0"
     style="fill:#ffffff" /><path
     d="m 423.338,74.23991 c -0.444,0 -0.803,-0.359 -0.803,-0.803 v -7.174 c 0,-0.213 0.084,-0.418 0.234,-0.568 l 4.049,-4.048 c 0.313,-0.313 0.821,-0.313 1.135,0 0.314,0.313 0.313,0.821 0,1.135 l -3.812,3.813 v 6.842 c 0,0.444 -0.359,0.803 -0.803,0.803"
     id="path132"
     inkscape:connector-curvature="0"
     style="fill:#ffffff" /><path
     d="m 423.338,67.06591 c -0.199,0 -0.397,-0.074 -0.553,-0.222 l -3.711,-3.528 c -0.32,-0.305 -0.334,-0.813 -0.027,-1.135 0.305,-0.32 0.814,-0.333 1.134,-0.027 l 3.71,3.527 c 0.321,0.305 0.334,0.812 0.029,1.135 -0.158,0.166 -0.37,0.25 -0.582,0.25"
     id="path134"
     inkscape:connector-curvature="0"
     style="fill:#ffffff" /><path
     d="m 428.674,74.23991 h -11.108 c -0.444,0 -0.804,-0.359 -0.804,-0.803 0,-0.444 0.359,-0.803 0.804,-0.803 h 11.108 c 0.443,0 0.803,0.359 0.803,0.803 0,0.444 -0.359,0.803 -0.803,0.803"
     id="path136"
     inkscape:connector-curvature="0"
     style="fill:#ffffff" /><path
     d="m 473.133,48.29691 c -1.351,0 -3.312,5.061 -3.312,12.99 0,7.929 1.962,12.992 3.312,12.992 1.35,0 3.312,-5.062 3.312,-12.992 0,-7.93 -1.961,-12.99 -3.312,-12.99 m 0,27.588 c -3.229,0 -4.918,-7.344 -4.918,-14.598 0,-7.254 1.689,-14.597 4.918,-14.597 3.229,0 4.918,7.343 4.918,14.597 0,7.254 -1.689,14.598 -4.918,14.598"
     id="path138"
     inkscape:connector-curvature="0"
     style="fill:#ffffff" /><path
     d="m 464.62,51.90891 c -0.219,0 -0.513,0.032 -0.672,0.192 -0.39,0.389 -0.25,1.766 0.938,3.965 1.256,2.324 3.353,5.01 5.905,7.562 4.621,4.62 8.959,7.038 10.856,7.038 0.218,0 0.511,-0.034 0.671,-0.191 0.389,-0.391 0.25,-1.768 -0.938,-3.967 -1.258,-2.324 -3.355,-5.011 -5.907,-7.562 -4.617,-4.62 -8.955,-7.037 -10.853,-7.037 m 17.028,20.363 c -2.682,0 -7.502,-3.018 -11.991,-7.508 -2.658,-2.658 -4.854,-5.477 -6.184,-7.935 -1.497,-2.771 -1.727,-4.798 -0.661,-5.863 0.44,-0.44 1.048,-0.663 1.808,-0.663 2.684,0 7.502,3.018 11.99,7.508 2.659,2.658 4.854,5.477 6.184,7.935 1.498,2.771 1.726,4.798 0.66,5.864 -0.44,0.438 -1.047,0.662 -1.806,0.662"
     id="path140"
     inkscape:connector-curvature="0"
     style="fill:#ffffff" /><path
     d="m 473.133,57.97691 c -7.93,0 -12.99,1.961 -12.99,3.311 0,1.35 5.061,3.312 12.99,3.312 7.931,0 12.991,-1.963 12.991,-3.312 0,-1.349 -5.06,-3.311 -12.991,-3.311 m 0,8.227 c -7.254,0 -14.597,-1.688 -14.597,-4.917 0,-3.229 7.343,-4.917 14.597,-4.917 7.254,0 14.598,1.688 14.598,4.917 0,3.229 -7.344,4.917 -14.598,4.917"
     id="path142"
     inkscape:connector-curvature="0"
     style="fill:#ffffff" /><path
     d="m 481.684,51.90891 c -1.899,0 -6.237,2.417 -10.856,7.036 -5.606,5.607 -7.799,10.574 -6.844,11.527 0.159,0.159 0.452,0.193 0.671,0.193 1.898,0 6.236,-2.418 10.857,-7.038 2.551,-2.551 4.647,-5.237 5.904,-7.563 1.188,-2.197 1.327,-3.574 0.938,-3.963 -0.158,-0.16 -0.452,-0.192 -0.67,-0.192 m -17.029,20.363 c -0.759,0 -1.366,-0.224 -1.807,-0.662 -2.281,-2.282 1.716,-8.67 6.845,-13.799 4.489,-4.49 9.308,-7.508 11.991,-7.508 0.759,0 1.365,0.223 1.806,0.663 1.065,1.064 0.837,3.091 -0.66,5.863 -1.329,2.458 -3.524,5.276 -6.182,7.935 -4.491,4.49 -9.31,7.508 -11.993,7.508"
     id="path144"
     inkscape:connector-curvature="0"
     style="fill:#ffffff" /><path
     d="m 473.17,59.57591 c -0.937,0 -1.699,0.762 -1.699,1.698 0,0.936 0.763,1.698 1.699,1.698 0.936,0 1.697,-0.762 1.697,-1.698 0,-0.936 -0.761,-1.698 -1.697,-1.698 m 0,4.199 c -1.38,0 -2.502,-1.122 -2.502,-2.501 0,-1.379 1.122,-2.5 2.502,-2.5 1.379,0 2.5,1.121 2.5,2.5 0,1.379 -1.121,2.501 -2.5,2.501"
     id="path146"
     inkscape:connector-curvature="0"
     style="fill:#ffffff" /></svg>