<?xml version="1.0" encoding="UTF-8" standalone="no"?>
<!-- Created with Inkscape (http://www.inkscape.org/) -->

<svg
   xmlns:dc="http://purl.org/dc/elements/1.1/"
   xmlns:cc="http://creativecommons.org/ns#"
   xmlns:rdf="http://www.w3.org/1999/02/22-rdf-syntax-ns#"
   xmlns:svg="http://www.w3.org/2000/svg"
   xmlns="http://www.w3.org/2000/svg"
   xmlns:xlink="http://www.w3.org/1999/xlink"
   xmlns:sodipodi="http://sodipodi.sourceforge.net/DTD/sodipodi-0.dtd"
   xmlns:inkscape="http://www.inkscape.org/namespaces/inkscape"
   viewBox="0 0 92.910135 92.821001"
   id="svg4316"
   version="1.1"
   inkscape:version="0.92.1 r15371"
   sodipodi:docname="logo.svg"
   width="92.910133"
   height="92.820999">
  <defs
     id="defs4318">
    <linearGradient
       id="linearGradient4347"
       inkscape:collect="always">
      <stop
         id="stop4349"
         offset="0"
         style="stop-color:#00acef;stop-opacity:1" />
      <stop
         id="stop4351"
         offset="1"
         style="stop-color:#2b4775;stop-opacity:1" />
    </linearGradient>
    <linearGradient
       inkscape:collect="always"
       xlink:href="#linearGradient4347"
       id="linearGradient4306-3"
       gradientUnits="userSpaceOnUse"
       x1="2.2898221e-006"
       y1="200"
       x2="60.000004"
       y2="260"
       gradientTransform="matrix(0.42453651,0,0,0.42453651,-1273.5577,-404.80385)" />
  </defs>
  <sodipodi:namedview
     id="base"
     pagecolor="#ffffff"
     bordercolor="#666666"
     borderopacity="1.0"
     inkscape:pageopacity="0.0"
     inkscape:pageshadow="2"
     inkscape:zoom="1.979899"
     inkscape:cx="3.0751786"
     inkscape:cy="66.78907"
     inkscape:document-units="px"
     inkscape:current-layer="layer1"
     showgrid="false"
     units="px"
     fit-margin-top="0"
     fit-margin-left="0"
     fit-margin-right="0"
     fit-margin-bottom="0"
     inkscape:window-width="1920"
     inkscape:window-height="1017"
     inkscape:window-x="-8"
     inkscape:window-y="-8"
     inkscape:window-maximized="1" />
  <metadata
     id="metadata4321">
    <rdf:RDF>
      <cc:Work
         rdf:about="">
        <dc:format>image/svg+xml</dc:format>
        <dc:type
           rdf:resource="http://purl.org/dc/dcmitype/StillImage" />
        <dc:title></dc:title>
      </cc:Work>
    </rdf:RDF>
  </metadata>
  <g
     inkscape:label="Layer 1"
     inkscape:groupmode="layer"
     id="layer1"
     transform="translate(1273.2961,394.76268)">
    <g
       id="g4689"
       transform="matrix(0.74670434,0,0,0.74670434,-310.75349,-95.316811)">
      <g
         transform="matrix(0.73983191,0,0,-0.73983191,-1252.9528,-378.48099)"
         id="g3093">
        <path
           inkscape:connector-curvature="0"
           id="path3095"
           style="fill:#6ba62e;fill-opacity:1;fill-rule:nonzero;stroke:none"
           d="m 0,0 c 4.468,-2.538 9.501,-3.825 14.958,-3.825 h 10e-4 c 7.183,0 13.214,2.24 15.666,3.3 v 3.304 c -0.006,0.622 -0.22,6.133 -5.957,6.133 H -21.54 C -22.143,8.907 -27.497,8.683 -27.497,2.779 V 1.758 c 2.799,1.135 7.037,2.389 12.129,2.389 C -10.015,4.147 -4.844,2.751 0,0" />
      </g>
      <g
         transform="matrix(0.73983191,0,0,-0.73983191,-1237.115,-359.59433)"
         id="g3097">
        <path
           inkscape:connector-curvature="0"
           id="path3099"
           style="fill:#6ba62e;fill-opacity:1;fill-rule:nonzero;stroke:none"
           d="m 0,0 v -23.681 h 3.255 c 0.62,0.007 5.963,0.236 5.963,6.133 V 2.556 C 7.189,1.742 3.955,0.645 0,0" />
      </g>
      <g
         transform="matrix(0.73983191,0,0,-0.73983191,-1241.8847,-359.19881)"
         id="g3101">
        <path
           inkscape:connector-curvature="0"
           id="path3103"
           style="fill:#6ba62e;fill-opacity:1;fill-rule:nonzero;stroke:none"
           d="M 0,0 H -0.001 C -1.975,0 -3.898,0.16 -5.766,0.473 V -23.146 H 3.539 V 0.164 C 2.399,0.059 1.217,0 0,0" />
      </g>
      <g
         transform="matrix(0.73983191,0,0,-0.73983191,-1253.8526,-362.26675)"
         id="g3105">
        <path
           inkscape:connector-curvature="0"
           id="path3107"
           style="fill:#6ba62e;fill-opacity:1;fill-rule:nonzero;stroke:none"
           d="m 0,0 c -0.596,0.338 -1.197,0.653 -1.803,0.947 v -28.24 H 7.502 V -3.052 C 4.871,-2.36 2.364,-1.343 0,0" />
      </g>
      <g
         transform="matrix(0.73983191,0,0,-0.73983191,-1264.2227,-365.09513)"
         id="g3109">
        <path
           inkscape:connector-curvature="0"
           id="path3111"
           style="fill:#811c76;fill-opacity:1;fill-rule:nonzero;stroke:none"
           d="M 0,0 V -31.116 H 9.305 V -1.653 C 6.295,-0.571 3.182,-0.015 0,0" />
      </g>
      <g
         transform="matrix(0.73983191,0,0,-0.73983191,-1273.2961,-363.26767)"
         id="g3113">
        <path
           inkscape:connector-curvature="0"
           id="path3115"
           style="fill:#811c76;fill-opacity:1;fill-rule:nonzero;stroke:none"
           d="m 0,0 v -22.513 c 0.006,-0.622 0.22,-6.133 5.958,-6.133 H 9.356 V 2.335 C 5.391,1.961 2.129,0.888 0,0" />
      </g>
      <g
         transform="matrix(0.73983191,0,0,-0.73983191,-1252.9528,-371.17825)"
         id="g3117">
        <path
           inkscape:connector-curvature="0"
           id="path3119"
           style="fill:#6ba62e;fill-opacity:1;fill-rule:nonzero;stroke:none"
           d="m 0,0 c 4.468,-2.539 9.501,-3.826 14.958,-3.826 h 10e-4 c 7.186,10e-4 13.215,2.241 15.666,3.301 V 6.674 C 27.575,5.45 21.802,3.583 14.959,3.583 h -10e-4 c -5.889,0 -11.33,1.395 -16.174,4.147 -4.469,2.538 -9.23,3.826 -14.152,3.826 -5.3,0 -9.634,-1.496 -12.129,-2.609 V 1.76 c 2.799,1.134 7.04,2.386 12.129,2.386 C -10.015,4.146 -4.844,2.751 0,0" />
      </g>
      <g
         transform="matrix(0.73983191,0,0,-0.73983191,-1252.9528,-363.85051)"
         id="g3121">
        <path
           inkscape:connector-curvature="0"
           id="path3123"
           style="fill:#5c9bc1;fill-opacity:1;fill-rule:nonzero;stroke:none"
           d="m 0,0 c 4.468,-2.538 9.501,-3.825 14.959,-3.825 7.182,0 13.212,2.239 15.666,3.3 V 6.707 C 27.575,5.484 21.802,3.617 14.959,3.616 h -10e-4 c -5.889,0 -11.33,1.396 -16.174,4.148 -4.469,2.538 -9.23,3.825 -14.152,3.825 -5.3,0 -9.634,-1.496 -12.129,-2.609 V 1.76 c 2.799,1.134 7.041,2.387 12.129,2.387 C -10.015,4.147 -4.844,2.751 0,0" />
      </g>
      <g
         transform="matrix(0.73983191,0,0,-0.73983191,-1223.4159,-382.52268)"
         id="g3125">
        <path
           inkscape:connector-curvature="0"
           id="path3127"
           style="fill:#211d1d;fill-opacity:1;fill-rule:nonzero;stroke:none"
           d="M 0,0 H 6.617 V -0.974 L 4.043,-1.154 V -9.998 H 2.559 v 8.829 L 0,-0.959 Z" />
      </g>
      <g
         transform="matrix(0.73983191,0,0,-0.73983191,-1218.0402,-382.50041)"
         id="g3129">
        <path
           inkscape:connector-curvature="0"
           id="path3131"
           style="fill:#211d1d;fill-opacity:1;fill-rule:nonzero;stroke:none"
           d="m 0,0 1.358,0.165 v -3.702 c 0.237,0.179 0.331,0.239 0.489,0.329 0.442,0.24 1.058,0.39 1.611,0.39 0.694,0 1.327,-0.225 1.753,-0.6 0.394,-0.359 0.536,-0.794 0.536,-1.663 V -9.968 H 4.406 v 4.587 c 0,0.285 -0.016,0.479 -0.064,0.644 -0.126,0.525 -0.616,0.855 -1.31,0.855 -0.411,0 -0.869,-0.12 -1.232,-0.33 -0.143,-0.075 -0.221,-0.135 -0.442,-0.3 V -9.968 H 0 Z" />
      </g>
      <g
         transform="matrix(0.73983191,0,0,-0.73983191,-1209.4993,-378.04233)"
         id="g3133">
        <path
           inkscape:connector-curvature="0"
           id="path3135"
           style="fill:#211d1d;fill-opacity:1;fill-rule:nonzero;stroke:none"
           d="M 0,0 C 0,1.439 -0.552,2.188 -1.626,2.188 -2.684,2.188 -3.3,1.409 -3.332,0 Z m -3.221,-0.884 c 0.127,-1.424 0.963,-2.189 2.353,-2.189 0.505,0 0.995,0.09 1.69,0.345 L 1.09,-3.703 c -0.789,-0.269 -1.532,-0.389 -2.274,-0.389 -2.242,0 -3.554,1.364 -3.554,3.732 0,2.204 1.185,3.538 3.128,3.538 1.894,0 2.953,-1.259 2.953,-3.478 0,-0.135 0,-0.33 -0.016,-0.584 z" />
      </g>
      <g
         transform="matrix(0.73983191,0,0,-0.73983191,-1204.7775,-374.8595)"
         id="g3137">
        <path
           inkscape:connector-curvature="0"
           id="path3139"
           style="fill:#211d1d;fill-opacity:1;fill-rule:nonzero;stroke:none"
           d="m 0,0 c 0.078,0.33 0.11,0.63 0.11,1.529 v 8.829 h 1.5 V 1.664 C 1.61,0.405 1.579,0.15 1.341,-0.315 1.105,-0.795 0.758,-1.199 0.142,-1.664 l -0.774,0.51 C -0.268,-0.75 -0.111,-0.45 0,0" />
      </g>
      <g
         transform="matrix(0.73983191,0,0,-0.73983191,-1200.2795,-377.73183)"
         id="g3141">
        <path
           inkscape:connector-curvature="0"
           id="path3143"
           style="fill:#211d1d;fill-opacity:1;fill-rule:nonzero;stroke:none"
           d="m 0,0 c -1.105,0 -1.847,-0.57 -1.847,-1.424 0,-0.735 0.584,-1.244 1.452,-1.244 0.553,0 1.011,0.18 1.58,0.614 v 1.949 C 0.711,-0.03 0.363,0 0,0 m 1.185,1.334 c 0,0.225 0,0.36 -0.032,0.48 -0.111,0.494 -0.6,0.764 -1.405,0.764 -0.585,0 -1.201,-0.135 -2.022,-0.419 l -0.347,1.019 c 0.394,0.105 0.536,0.135 0.774,0.195 0.663,0.15 1.279,0.225 1.894,0.225 0.885,0 1.485,-0.165 1.943,-0.525 0.427,-0.345 0.553,-0.69 0.553,-1.574 v -5.022 h -1.28 l -0.047,0.645 c -0.758,-0.585 -1.374,-0.81 -2.132,-0.81 -1.437,0 -2.4,0.885 -2.4,2.189 0,1.439 1.106,2.368 2.795,2.368 0.474,0 1.105,-0.09 1.706,-0.224 z" />
      </g>
      <g
         transform="matrix(0.73983191,0,0,-0.73983191,-1197.2761,-380.26028)"
         id="g3145">
        <path
           inkscape:connector-curvature="0"
           id="path3147"
           style="fill:#211d1d;fill-opacity:1;fill-rule:nonzero;stroke:none"
           d="m 0,0 1.357,0.165 v -0.57 c 0.238,0.15 0.332,0.195 0.459,0.255 0.458,0.225 0.978,0.36 1.453,0.36 0.6,0 1.169,-0.195 1.563,-0.525 0.111,-0.09 0.174,-0.165 0.301,-0.345 0.757,0.57 1.468,0.84 2.241,0.84 0.664,0 1.248,-0.225 1.643,-0.6 0.426,-0.419 0.552,-0.809 0.552,-1.739 V -6.94 H 8.212 v 4.497 c 0,0.284 -0.016,0.509 -0.048,0.659 -0.095,0.525 -0.616,0.9 -1.232,0.9 -0.521,0 -0.947,-0.18 -1.484,-0.6 V -6.94 H 4.106 v 4.467 c 0,0.389 0,0.554 -0.032,0.674 -0.079,0.555 -0.6,0.93 -1.295,0.93 -0.473,0 -0.852,-0.135 -1.422,-0.54 V -6.94 H 0 Z" />
      </g>
      <g
         transform="matrix(0.73983191,0,0,-0.73983191,-1185.8019,-378.04233)"
         id="g3149">
        <path
           inkscape:connector-curvature="0"
           id="path3151"
           style="fill:#211d1d;fill-opacity:1;fill-rule:nonzero;stroke:none"
           d="M 0,0 C 0,1.439 -0.553,2.188 -1.627,2.188 -2.685,2.188 -3.3,1.409 -3.332,0 Z m -3.222,-0.884 c 0.127,-1.424 0.963,-2.189 2.353,-2.189 0.506,0 0.995,0.09 1.69,0.345 L 1.089,-3.703 C 0.3,-3.972 -0.442,-4.092 -1.185,-4.092 c -2.242,0 -3.553,1.364 -3.553,3.732 0,2.204 1.185,3.538 3.127,3.538 1.895,0 2.953,-1.259 2.953,-3.478 0,-0.135 0,-0.33 -0.016,-0.584 z" />
      </g>
      <g
         transform="matrix(0.73983191,0,0,-0.73983191,-1184.0368,-376.11263)"
         id="g3153">
        <path
           inkscape:connector-curvature="0"
           id="path3155"
           style="fill:#211d1d;fill-opacity:1;fill-rule:nonzero;stroke:none"
           d="m 0,0 c 0.757,-0.3 1.358,-0.45 1.926,-0.45 0.916,0 1.516,0.36 1.516,0.9 0,0.434 -0.284,0.659 -1.785,1.334 -0.82,0.39 -1.089,0.539 -1.405,0.824 -0.362,0.33 -0.568,0.795 -0.568,1.274 0,1.155 1.089,1.934 2.732,1.934 0.71,0 1.453,-0.15 2.337,-0.465 L 4.39,4.347 C 3.569,4.632 2.953,4.767 2.4,4.767 1.579,4.767 1.058,4.452 1.058,3.942 1.058,3.793 1.105,3.658 1.184,3.538 1.342,3.328 1.484,3.223 2.116,2.923 L 2.684,2.653 3.41,2.294 C 4.516,1.769 4.895,1.319 4.895,0.525 c 0,-1.259 -1.089,-2.054 -2.811,-2.054 -0.773,0 -1.516,0.135 -2.463,0.465 z" />
      </g>
      <g
         transform="matrix(0.73983191,0,0,-0.73983191,-1223.4085,-370.74818)"
         id="g3157">
        <path
           inkscape:connector-curvature="0"
           id="path3159"
           style="fill:#211d1d;fill-opacity:1;fill-rule:nonzero;stroke:none"
           d="M 0,0 H 3.158 V -6.535 H 7.493 V 0 h 3.158 V -15.908 H 7.493 v 7.155 H 3.158 v -7.155 H 0 Z" />
      </g>
      <g
         transform="matrix(0.73983191,0,0,-0.73983191,-1211.8454,-367.53672)"
         id="g3161">
        <path
           inkscape:connector-curvature="0"
           id="path3163"
           style="fill:#211d1d;fill-opacity:1;fill-rule:nonzero;stroke:none"
           d="m 0,0 v -7.656 c 0,-1.312 0.461,-1.836 1.636,-1.836 0.6,0 1.177,0.191 1.799,0.644 v 8.562 H 6.202 V -11.567 H 3.458 l -0.023,0.668 c -1.037,-0.668 -1.891,-0.93 -2.928,-0.93 -2.167,0 -3.274,1.144 -3.274,3.386 v 8.133 z" />
      </g>
      <g
         transform="matrix(0.73983191,0,0,-0.73983191,-1206.1151,-367.32506)"
         id="g3165">
        <path
           inkscape:connector-curvature="0"
           id="path3167"
           style="fill:#211d1d;fill-opacity:1;fill-rule:nonzero;stroke:none"
           d="M 0,0 H 1.221 V 1.741 L 3.988,2.123 V 0 H 5.902 V -1.837 L 3.988,-2.051 v -6.01 c 0,-0.334 0.023,-0.573 0.023,-0.692 0.069,-0.477 0.415,-0.739 0.945,-0.739 0.278,0 0.554,0.071 0.969,0.214 v -1.955 c -0.485,-0.191 -1.269,-0.31 -1.914,-0.31 -1.983,0 -2.79,0.763 -2.79,2.623 v 6.869 L 0,-1.837 Z" />
      </g>
      <g
         transform="matrix(0.73983191,0,0,-0.73983191,-1200.88,-367.32506)"
         id="g3169">
        <path
           inkscape:connector-curvature="0"
           id="path3171"
           style="fill:#211d1d;fill-opacity:1;fill-rule:nonzero;stroke:none"
           d="M 0,0 H 1.222 V 1.741 L 3.989,2.123 V 0 H 5.902 V -1.837 L 3.989,-2.051 v -6.01 c 0,-0.334 0.022,-0.573 0.022,-0.692 0.07,-0.477 0.415,-0.739 0.946,-0.739 0.277,0 0.553,0.071 0.968,0.214 v -1.955 c -0.484,-0.191 -1.268,-0.31 -1.914,-0.31 -1.982,0 -2.789,0.763 -2.789,2.623 v 6.869 L 0,-1.837 Z" />
      </g>
      <g
         transform="matrix(0.73983191,0,0,-0.73983191,-1191.926,-360.26706)"
         id="g3173">
        <path
           inkscape:connector-curvature="0"
           id="path3175"
           style="fill:#211d1d;fill-opacity:1;fill-rule:nonzero;stroke:none"
           d="M 0,0 C 1.314,0 1.983,1.264 1.983,3.888 1.983,6.511 1.314,7.799 0,7.799 -1.314,7.799 -1.983,6.511 -1.983,3.935 -1.983,1.264 -1.337,0 0,0 m 0,9.826 c 3.274,0 4.865,-1.932 4.865,-5.938 0,-4.007 -1.591,-5.939 -4.865,-5.939 -3.274,0 -4.865,1.932 -4.865,5.867 0,4.078 1.545,6.01 4.865,6.01" />
      </g>
      <g
         transform="matrix(0.73983191,0,0,-0.73983191,-1187.0654,-367.30744)"
         id="g3177">
        <path
           inkscape:connector-curvature="0"
           id="path3179"
           style="fill:#211d1d;fill-opacity:1;fill-rule:nonzero;stroke:none"
           d="M 0,0 2.743,0.286 V -0.62 C 3.735,0 4.749,0.334 5.694,0.334 c 0.968,0 1.891,-0.334 2.467,-0.93 0.6,-0.597 0.807,-1.336 0.807,-2.815 v -7.846 H 6.202 v 7.131 c 0,0.334 -0.024,0.668 -0.047,0.883 -0.115,0.739 -0.737,1.216 -1.568,1.216 -0.552,0 -1.175,-0.239 -1.844,-0.692 v -8.538 H 0 Z" />
      </g>
      <path
         inkscape:connector-curvature="0"
         id="path3181"
         style="fill:#211d1d;fill-opacity:1;fill-rule:nonzero;stroke:none;stroke-width:0.73983192"
         d="m -1223.4162,-354.65654 h 1.8837 v 9.97737 h -1.8837 z" />
      <g
         transform="matrix(0.73983191,0,0,-0.73983191,-1220.2306,-351.73976)"
         id="g3183">
        <path
           inkscape:connector-curvature="0"
           id="path3185"
           style="fill:#211d1d;fill-opacity:1;fill-rule:nonzero;stroke:none"
           d="M 0,0 2.228,0.243 V -0.526 C 3.033,0 3.857,0.283 4.624,0.283 5.41,0.283 6.159,0 6.628,-0.506 7.114,-1.011 7.283,-1.638 7.283,-2.891 V -9.543 H 5.036 v 6.045 c 0,0.283 -0.019,0.566 -0.038,0.748 -0.093,0.627 -0.599,1.031 -1.272,1.031 -0.45,0 -0.955,-0.201 -1.498,-0.586 V -9.543 H 0 Z" />
      </g>
      <g
         transform="matrix(0.73983191,0,0,-0.73983191,-1213.5971,-346.31006)"
         id="g3187">
        <path
           inkscape:connector-curvature="0"
           id="path3189"
           style="fill:#211d1d;fill-opacity:1;fill-rule:nonzero;stroke:none"
           d="m 0,0 c 0.281,-0.121 0.412,-0.182 0.6,-0.243 0.561,-0.161 1.16,-0.263 1.61,-0.263 1.01,0 1.628,0.364 1.628,0.931 0,0.303 -0.15,0.525 -0.506,0.747 C 2.996,1.395 2.808,1.496 1.928,1.86 1.068,2.244 0.656,2.507 0.281,2.891 -0.168,3.356 -0.43,4.023 -0.43,4.751 c 0,1.759 1.385,2.891 3.576,2.891 0.898,0 1.797,-0.181 2.92,-0.565 L 5.58,5.257 C 4.625,5.621 3.782,5.803 3.146,5.803 2.303,5.803 1.798,5.479 1.798,4.933 1.798,4.772 1.854,4.609 1.928,4.509 2.116,4.266 2.21,4.185 2.921,3.841 L 3.538,3.538 4.362,3.154 C 5.71,2.507 6.216,1.799 6.216,0.607 c 0,-1.921 -1.385,-3.094 -3.651,-3.094 -0.749,0 -1.647,0.142 -2.415,0.364 -0.187,0.061 -0.318,0.101 -0.655,0.223 z" />
      </g>
      <g
         transform="matrix(0.73983191,0,0,-0.73983191,-1208.3064,-351.75492)"
         id="g3191">
        <path
           inkscape:connector-curvature="0"
           id="path3193"
           style="fill:#211d1d;fill-opacity:1;fill-rule:nonzero;stroke:none"
           d="M 0,0 H 0.992 V 1.476 L 3.239,1.799 V 0 H 4.793 V -1.557 L 3.239,-1.739 v -5.095 c 0,-0.283 0.018,-0.485 0.018,-0.586 0.057,-0.405 0.338,-0.627 0.768,-0.627 0.225,0 0.449,0.061 0.786,0.182 V -9.523 C 4.418,-9.685 3.782,-9.786 3.257,-9.786 c -1.61,0 -2.265,0.647 -2.265,2.224 v 5.823 L 0,-1.557 Z" />
      </g>
      <g
         transform="matrix(0.73983191,0,0,-0.73983191,-1203.6806,-351.73976)"
         id="g3195">
        <path
           inkscape:connector-curvature="0"
           id="path3197"
           style="fill:#211d1d;fill-opacity:1;fill-rule:nonzero;stroke:none"
           d="M 0,0 2.228,0.243 V -9.543 H 0 Z m 1.105,4.044 c 0.692,0 1.254,-0.546 1.254,-1.213 0,-0.688 -0.562,-1.234 -1.254,-1.234 -0.675,0 -1.236,0.546 -1.236,1.214 0,0.687 0.543,1.233 1.236,1.233" />
      </g>
      <g
         transform="matrix(0.73983191,0,0,-0.73983191,-1200.9665,-351.75492)"
         id="g3199">
        <path
           inkscape:connector-curvature="0"
           id="path3201"
           style="fill:#211d1d;fill-opacity:1;fill-rule:nonzero;stroke:none"
           d="M 0,0 H 0.992 V 1.476 L 3.239,1.799 V 0 H 4.792 V -1.557 L 3.239,-1.739 v -5.095 c 0,-0.283 0.019,-0.485 0.019,-0.586 0.056,-0.405 0.336,-0.627 0.767,-0.627 0.225,0 0.449,0.061 0.786,0.182 V -9.523 C 4.418,-9.685 3.782,-9.786 3.258,-9.786 c -1.61,0 -2.266,0.647 -2.266,2.224 v 5.823 L 0,-1.557 Z" />
      </g>
      <g
         transform="matrix(0.73983191,0,0,-0.73983191,-1194.8173,-351.93433)"
         id="g3203">
        <path
           inkscape:connector-curvature="0"
           id="path3205"
           style="fill:#211d1d;fill-opacity:1;fill-rule:nonzero;stroke:none"
           d="m 0,0 v -6.49 c 0,-1.112 0.375,-1.557 1.33,-1.557 0.486,0 0.954,0.162 1.46,0.546 v 7.259 H 5.037 V -9.806 H 2.808 L 2.79,-9.24 c -0.842,-0.566 -1.536,-0.789 -2.378,-0.789 -1.76,0 -2.658,0.971 -2.658,2.872 v 6.894 z" />
      </g>
      <g
         transform="matrix(0.73983191,0,0,-0.73983191,-1190.1642,-351.75492)"
         id="g3207">
        <path
           inkscape:connector-curvature="0"
           id="path3209"
           style="fill:#211d1d;fill-opacity:1;fill-rule:nonzero;stroke:none"
           d="M 0,0 H 0.992 V 1.476 L 3.239,1.799 V 0 H 4.792 V -1.557 L 3.239,-1.739 v -5.095 c 0,-0.283 0.019,-0.485 0.019,-0.586 0.056,-0.405 0.336,-0.627 0.767,-0.627 0.225,0 0.449,0.061 0.786,0.182 V -9.523 C 4.418,-9.685 3.782,-9.786 3.258,-9.786 c -1.61,0 -2.266,0.647 -2.266,2.224 v 5.823 L 0,-1.557 Z" />
      </g>
      <g
         transform="matrix(0.73983191,0,0,-0.73983191,-1181.9515,-348.74816)"
         id="g3211">
        <path
           inkscape:connector-curvature="0"
           id="path3213"
           style="fill:#211d1d;fill-opacity:1;fill-rule:nonzero;stroke:none"
           d="m 0,0 v 0.081 c 0,1.597 -0.542,2.487 -1.554,2.487 -1.011,0 -1.591,-0.93 -1.61,-2.568 z m -2.939,-1.516 c 0.168,-1.537 1.049,-2.366 2.527,-2.366 0.562,0 1.068,0.101 1.892,0.405 L 1.854,-5.196 C 0.88,-5.56 0.038,-5.701 -0.936,-5.701 c -2.864,0 -4.474,1.859 -4.474,5.135 0,3.053 1.441,4.873 3.894,4.873 2.359,0 3.632,-1.719 3.632,-4.873 0,-0.243 0,-0.485 -0.038,-0.95 z" />
      </g>
    </g>
    <g
       id="g4805"
       transform="translate(12.028654,-18.865491)">
      <path
         inkscape:connector-curvature="0"
         style="opacity:1;fill:url(#linearGradient4306-3);fill-opacity:1;stroke:none;stroke-width:0.21226826;stroke-linecap:square;stroke-linejoin:round;stroke-miterlimit:4;stroke-dasharray:none;stroke-dashoffset:0;stroke-opacity:1"
         d="m -1270.3737,-319.89656 a 3.1840238,3.1840238 0 0 0 -3.184,3.18403 3.1840238,3.1840238 0 0 0 3.184,3.18403 3.1840238,3.1840238 0 0 0 3.1194,-2.54722 h 3.1044 a 3.1840238,3.1840238 0 0 0 3.116,2.54722 3.1840238,3.1840238 0 0 0 1.7968,-0.5597 l 1.6327,1.63264 0.9005,-0.90048 -1.6476,-1.64756 a 3.1840238,3.1840238 0 0 0 0.5016,-1.70893 3.1840238,3.1840238 0 0 0 -3.184,-3.18403 3.1840238,3.1840238 0 0 0 -3.1193,2.54723 h -3.1044 a 3.1840238,3.1840238 0 0 0 -3.1161,-2.54723 z m 15.4193,8.29007 -0.9004,0.90049 1.5339,1.53397 a 3.1840238,3.1840238 0 0 0 -0.5572,1.7993 3.1840238,3.1840238 0 0 0 0.5688,1.81009 l -4.9128,4.91285 a 3.1840238,3.1840238 0 0 0 -1.8118,-0.56716 3.1840238,3.1840238 0 0 0 -1.7114,0.49916 l -4.946,-4.94601 a 3.1840238,3.1840238 0 0 0 0.5016,-1.70893 3.1840238,3.1840238 0 0 0 -3.184,-3.18402 3.1840238,3.1840238 0 0 0 -3.184,3.18402 3.1840238,3.1840238 0 0 0 3.184,3.18403 3.1840238,3.1840238 0 0 0 1.7969,-0.5597 l 4.9161,4.91617 a 3.1840238,3.1840238 0 0 0 -0.4925,1.1625 h -3.1044 a 3.1840238,3.1840238 0 0 0 -3.1161,-2.54722 3.1840238,3.1840238 0 0 0 -3.184,3.18403 3.1840238,3.1840238 0 0 0 3.184,3.18402 3.1840238,3.1840238 0 0 0 3.1194,-2.54722 h 3.1044 a 3.1840238,3.1840238 0 0 0 3.116,2.54722 3.1840238,3.1840238 0 0 0 3.184,-3.18402 3.1840238,3.1840238 0 0 0 -0.4917,-1.69649 l 4.9527,-4.95265 a 3.1840238,3.1840238 0 0 0 1.6948,0.49336 3.1840238,3.1840238 0 0 0 3.1194,-2.54722 h 3.1044 a 3.1840238,3.1840238 0 0 0 0.5008,1.17328 l -4.9128,4.91285 a 3.1840238,3.1840238 0 0 0 -1.8118,-0.56716 3.1840238,3.1840238 0 0 0 -3.184,3.18403 3.1840238,3.1840238 0 0 0 3.184,3.18402 3.1840238,3.1840238 0 0 0 3.184,-3.18402 3.1840238,3.1840238 0 0 0 -0.4917,-1.69649 l 4.9527,-4.95265 a 3.1840238,3.1840238 0 0 0 1.6948,0.49336 3.1840238,3.1840238 0 0 0 3.1841,-3.18403 3.1840238,3.1840238 0 0 0 -3.1841,-3.18402 3.1840238,3.1840238 0 0 0 -3.1193,2.54722 h -3.1045 a 3.1840238,3.1840238 0 0 0 -3.116,-2.54722 3.1840238,3.1840238 0 0 0 -1.7114,0.49916 z"
         id="path4278-8" />
      <g
         id="text4523"
         style="font-style:normal;font-weight:normal;font-size:26.66666603px;line-height:1.25;font-family:sans-serif;letter-spacing:0px;word-spacing:0px;fill:#000000;fill-opacity:1;stroke:none;stroke-width:1px;stroke-linecap:butt;stroke-linejoin:miter;stroke-opacity:1"
         aria-label="Information"
         transform="matrix(0.42453651,0,0,0.42453651,-1184.915,-474.71784)">
        <path
           id="path4630"
           style="font-style:normal;font-variant:normal;font-weight:normal;font-stretch:normal;font-size:17.33333397px;font-family:Glasgow-Medium;-inkscape-font-specification:Glasgow-Medium"
           d="m -123.21168,365.9886 h 2.30533 v 12.49733 h -2.30533 z"
           inkscape:connector-curvature="0" />
        <path
           id="path4632"
           style="font-style:normal;font-variant:normal;font-weight:normal;font-stretch:normal;font-size:17.33333397px;font-family:Glasgow-Medium;-inkscape-font-specification:Glasgow-Medium"
           d="m -119.18303,369.69793 2.01066,-0.22533 v 0.74533 q 1.33467,-0.78 2.444,-0.78 1.26534,0 1.80267,0.52 0.53733,0.52 0.71067,1.04 0.17333,0.52 0.17333,1.352 v 6.136 h -2.04533 v -5.616 l -0.0347,-0.728 q -0.0867,-0.468 -0.468,-0.74533 -0.364,-0.27734 -0.90133,-0.27734 -0.69334,0 -1.68134,0.624 v 6.74267 h -2.01066 z"
           inkscape:connector-curvature="0" />
        <path
           id="path4634"
           style="font-style:normal;font-variant:normal;font-weight:normal;font-stretch:normal;font-size:17.33333397px;font-family:Glasgow-Medium;-inkscape-font-specification:Glasgow-Medium"
           d="m -111.14524,369.6806 h 1.02266 v -1.26534 q 0,-2.56533 2.63467,-2.56533 l 0.832,0.052 0.84933,0.13867 -0.34666,1.456 -0.78,-0.12134 q -1.144,0 -1.144,1.3 v 1.00534 h 1.90666 v 1.36933 l -1.90666,0.12133 v 7.31467 h -2.028 v -7.332 l -1.04,-0.0867 z"
           inkscape:connector-curvature="0" />
        <path
           id="path4636"
           style="font-style:normal;font-variant:normal;font-weight:normal;font-stretch:normal;font-size:17.33333397px;font-family:Glasgow-Medium;-inkscape-font-specification:Glasgow-Medium"
           d="m -102.30687,369.45526 q 3.900004,0 3.900004,4.628 0,4.64534 -3.900004,4.64534 -3.86533,0 -3.86533,-4.64534 0,-4.628 3.86533,-4.628 z m -1.73333,4.628 q 0,3.172 1.73333,3.172 1.75067,0 1.75067,-3.172 0,-3.15466 -1.75067,-3.15466 -1.73333,0 -1.73333,3.15466 z"
           inkscape:connector-curvature="0" />
        <path
           id="path4638"
           style="font-style:normal;font-variant:normal;font-weight:normal;font-stretch:normal;font-size:17.33333397px;font-family:Glasgow-Medium;-inkscape-font-specification:Glasgow-Medium"
           d="m -96.940846,369.69793 2.045334,-0.12133 v 0.728 q 0.953333,-0.79734 1.993333,-0.79734 h 0.208 l -0.208,1.88934 -0.606666,-0.052 q -0.728,0 -1.386667,0.38133 v 6.76 h -2.045334 z"
           inkscape:connector-curvature="0" />
        <path
           id="path4640"
           style="font-style:normal;font-variant:normal;font-weight:normal;font-stretch:normal;font-size:17.33333397px;font-family:Glasgow-Medium;-inkscape-font-specification:Glasgow-Medium"
           d="m -92.03199,369.69793 2.045333,-0.22533 v 0.65866 q 1.126667,-0.69333 2.184,-0.69333 1.404,0 2.201334,1.00533 1.317333,-0.97066 2.669333,-0.97066 1.265334,0 1.785334,0.572 0.52,0.572 0.658666,1.05733 0.052,0.22533 0.08667,0.572 0.03467,0.32933 0.03467,0.78 v 6.032 h -2.045334 v -5.52933 l -0.03467,-0.78 q -0.06933,-0.468 -0.433334,-0.76267 -0.364,-0.29467 -0.849333,-0.29467 -0.728,0 -1.490667,0.624 v 6.74267 h -2.028 v -5.52933 l -0.03467,-0.76267 q -0.052,-0.45067 -0.433333,-0.76267 -0.364,-0.312 -0.884,-0.312 -0.676,0 -1.421333,0.53734 v 6.82933 h -2.010667 z"
           inkscape:connector-curvature="0" />
        <path
           id="path4642"
           style="font-style:normal;font-variant:normal;font-weight:normal;font-stretch:normal;font-size:17.33333397px;font-family:Glasgow-Medium;-inkscape-font-specification:Glasgow-Medium"
           d="m -73.807071,372.4366 q 0,-0.39867 -0.052,-0.55467 -0.156,-0.84933 -1.56,-0.84933 -0.52,0 -1.057334,0.104 -0.52,0.104 -1.248,0.38133 l -0.52,-1.52533 q 0.953333,-0.26 1.768,-0.39867 0.832,-0.13867 1.508,-0.13867 1.629334,0 2.253334,0.50267 0.624,0.50267 0.78,0.936 0.156,0.43333 0.156,1.33467 v 6.25733 h -1.924 l -0.08667,-0.78 q -1.196,1.00533 -2.461333,1.00533 -1.282667,0 -2.062667,-0.78 -0.762667,-0.78 -0.762667,-2.028 0,-1.33466 0.884,-2.16666 0.433333,-0.39867 1.022667,-0.60667 0.589333,-0.208 1.334667,-0.208 0.970666,0 2.028,0.27733 z m 0,1.83733 -0.572,-0.0867 -0.52,-0.0173 q -0.918667,0 -1.473334,0.43333 -0.554667,0.416 -0.554667,1.16134 0,0.60666 0.416001,1.02266 0.416,0.364 1.126666,0.364 0.710667,0 1.577334,-0.572 z"
           inkscape:connector-curvature="0" />
        <path
           id="path4644"
           style="font-style:normal;font-variant:normal;font-weight:normal;font-stretch:normal;font-size:17.33333397px;font-family:Glasgow-Medium;-inkscape-font-specification:Glasgow-Medium"
           d="m -70.90997,369.6806 h 1.005333 v -1.38667 l 2.045334,-0.29467 v 1.68134 h 1.612 v 1.31733 l -1.612,0.156 v 4.888 l 0.01733,0.572 q 0.104,0.572 0.797333,0.572 0.312001,0 0.814667,-0.156 v 1.42133 l -0.78,0.17334 -0.745333,0.0693 q -1.144,0 -1.664,-0.468 -0.485334,-0.48533 -0.485334,-1.56 v -5.52933 l -1.005333,-0.104 z"
           inkscape:connector-curvature="0" />
        <path
           id="path4646"
           style="font-style:normal;font-variant:normal;font-weight:normal;font-stretch:normal;font-size:17.33333397px;font-family:Glasgow-Medium;-inkscape-font-specification:Glasgow-Medium"
           d="m -65.269866,369.69793 2.028,-0.22533 v 9.01333 h -2.028 z m 1.144,-3.76133 q 1.022667,0 1.022667,0.91866 l -0.01733,0.156 q -0.06933,0.65867 -0.190667,0.79734 -0.121333,0.12133 -0.953333,0.27733 h -0.173334 q -0.970666,0 -0.970666,-1.092 0,-0.60667 0.277333,-0.832 0.277333,-0.22533 1.005333,-0.22533 z"
           inkscape:connector-curvature="0" />
        <path
           id="path4648"
           style="font-style:normal;font-variant:normal;font-weight:normal;font-stretch:normal;font-size:17.33333397px;font-family:Glasgow-Medium;-inkscape-font-specification:Glasgow-Medium"
           d="m -57.890198,369.45526 q 3.9,0 3.9,4.628 0,4.64534 -3.9,4.64534 -3.865333,0 -3.865333,-4.64534 0,-4.628 3.865333,-4.628 z m -1.733333,4.628 q 0,3.172 1.733333,3.172 1.750667,0 1.750667,-3.172 0,-3.15466 -1.750667,-3.15466 -1.733333,0 -1.733333,3.15466 z"
           inkscape:connector-curvature="0" />
        <path
           id="path4650"
           style="font-style:normal;font-variant:normal;font-weight:normal;font-stretch:normal;font-size:17.33333397px;font-family:Glasgow-Medium;-inkscape-font-specification:Glasgow-Medium"
           d="m -52.52418,369.69793 2.010667,-0.22533 v 0.74533 q 1.334667,-0.78 2.444,-0.78 1.265334,0 1.802667,0.52 0.537333,0.52 0.710667,1.04 0.173333,0.52 0.173333,1.352 v 6.136 h -2.045333 v -5.616 l -0.03467,-0.728 q -0.08667,-0.468 -0.468,-0.74533 -0.364,-0.27734 -0.901333,-0.27734 -0.693334,0 -1.681334,0.624 v 6.74267 h -2.010667 z"
           inkscape:connector-curvature="0" />
      </g>
      <g
         id="text4527"
         style="font-style:normal;font-weight:normal;font-size:26.66666603px;line-height:1.25;font-family:sans-serif;letter-spacing:0px;word-spacing:0px;fill:#000000;fill-opacity:1;stroke:none;stroke-width:1px;stroke-linecap:butt;stroke-linejoin:miter;stroke-opacity:1"
         aria-label="Systems"
         transform="matrix(0.42453651,0,0,0.42453651,-1184.915,-474.71784)">
        <path
           id="path4653"
           style="font-style:normal;font-variant:normal;font-weight:normal;font-stretch:normal;font-size:17.33333397px;font-family:Glasgow-Medium;-inkscape-font-specification:Glasgow-Medium"
           d="m -116.30836,389.80227 q -1.144,-0.52 -2.11466,-0.52 -0.97067,0 -1.54267,0.45067 -0.572,0.45067 -0.572,1.196 0,0.624 0.32933,0.95333 0.27734,0.24267 0.69334,0.50267 l 1.12666,0.55467 q 0.74534,0.32933 1.248,0.60666 0.52,0.27734 1.3,0.884 0.79734,0.58934 0.79734,2.21867 0,1.69867 -1.23067,2.77333 -1.23067,1.07467 -3.172,1.07467 -1.33467,0 -3.29333,-0.728 l 0.55466,-1.75067 q 1.508,0.728 2.66934,0.728 0.91866,0 1.52533,-0.468 0.60667,-0.48533 0.60667,-1.26533 0,-0.71067 -0.50267,-1.16133 l -0.69333,-0.43334 -1.248,-0.624 q -0.90134,-0.416 -1.26534,-0.64133 -0.34666,-0.24267 -1.02266,-0.884 -0.65867,-0.65867 -0.65867,-2.08 0,-1.612 1.12667,-2.6 1.12666,-1.00533 3.016,-1.00533 0.71066,0 1.3,0.12133 0.39866,0.0693 0.71066,0.156 0.312,0.0693 0.84934,0.24267 z"
           inkscape:connector-curvature="0" />
        <path
           id="path4655"
           style="font-style:normal;font-variant:normal;font-weight:normal;font-stretch:normal;font-size:17.33333397px;font-family:Glasgow-Medium;-inkscape-font-specification:Glasgow-Medium"
           d="m -112.68406,391.25827 1.69866,6.032 0.104,0.65867 0.052,0.34667 0.052,0.22533 q 0,-0.34667 0.0347,-0.52 l 0.156,-0.728 1.716,-5.80667 h 2.132 l -3.03333,9.828 q -0.416,1.42134 -1.00534,1.924 -0.572,0.53734 -1.664,0.53734 -0.86666,0 -1.99333,-0.312 l 0.43333,-1.456 q 0.624,0.26 1.10934,0.26 0.55466,0 0.84933,-0.27734 0.29467,-0.26 0.52,-0.95333 l 0.24267,-0.74533 h -0.988 l -2.56534,-8.788 z"
           inkscape:connector-curvature="0" />
        <path
           id="path4657"
           style="font-style:normal;font-variant:normal;font-weight:normal;font-stretch:normal;font-size:17.33333397px;font-family:Glasgow-Medium;-inkscape-font-specification:Glasgow-Medium"
           d="m -106.09036,398.33027 q 1.26534,0.50267 2.21867,0.50267 0.76267,0 1.23067,-0.26 0.468,-0.26 0.468,-0.69333 0,-0.45067 -0.38134,-0.676 l -0.572,-0.312 -1.17866,-0.53734 q -1.00534,-0.416 -1.612,-1.00533 -0.58934,-0.58933 -0.58934,-1.56 0,-1.17867 0.936,-1.88933 0.95334,-0.71067 2.548,-0.71067 0.468,0 0.69334,0.0173 0.22533,0.0173 0.71066,0.12134 0.50267,0.0867 1.456,0.39866 l -0.468,1.54267 q -1.49066,-0.52 -2.40933,-0.52 -0.676,0 -1.05733,0.22533 -0.364,0.208 -0.364,0.64134 0,0.32933 0.17333,0.53733 0.19067,0.19067 0.78,0.468 l 0.208,0.104 0.64133,0.29467 0.71067,0.32933 0.79733,0.416 q 0.53734,0.26 0.832,0.76267 0.312,0.468 0.312,1.21333 0,1.23067 -0.95333,1.99333 -0.95333,0.76267 -2.6,0.76267 -1.144,0 -2.392,-0.364 l -0.624,-0.19067 z"
           inkscape:connector-curvature="0" />
        <path
           id="path4659"
           style="font-style:normal;font-variant:normal;font-weight:normal;font-stretch:normal;font-size:17.33333397px;font-family:Glasgow-Medium;-inkscape-font-specification:Glasgow-Medium"
           d="m -99.593335,391.46627 h 1.005334 v -1.38666 l 2.045333,-0.29467 v 1.68133 h 1.612 v 1.31734 l -1.612,0.156 v 4.888 l 0.01733,0.572 q 0.104,0.572 0.797334,0.572 0.312,0 0.814666,-0.156 v 1.42133 l -0.78,0.17333 -0.745333,0.0693 q -1.144,0 -1.664,-0.468 -0.485333,-0.48534 -0.485333,-1.56 v -5.52934 l -1.005334,-0.104 z"
           inkscape:connector-curvature="0" />
        <path
           id="path4661"
           style="font-style:normal;font-variant:normal;font-weight:normal;font-stretch:normal;font-size:17.33333397px;font-family:Glasgow-Medium;-inkscape-font-specification:Glasgow-Medium"
           d="m -91.994564,396.54494 q 0.242667,2.35733 2.634667,2.35733 0.208,0 0.416,-0.0173 0.225333,-0.0173 0.554667,-0.0693 0.329333,-0.0693 0.953333,-0.312 l 0.364,1.49066 q -1.456,0.468 -2.773333,0.468 -2.097334,0 -3.241334,-1.248 -1.144,-1.248 -1.144,-3.50133 0,-2.09733 0.988,-3.276 1.005333,-1.17867 2.825333,-1.17867 1.716001,0 2.669334,1.144 0.953333,1.144 0.953333,3.29334 l -0.03467,0.84933 z m -0.173333,-1.31733 h 3.397333 v -0.0867 q 0,-2.40933 -1.664,-2.40933 -0.832,0 -1.282667,0.65866 -0.450666,0.64134 -0.450666,1.83734 z"
           inkscape:connector-curvature="0" />
        <path
           id="path4663"
           style="font-style:normal;font-variant:normal;font-weight:normal;font-stretch:normal;font-size:17.33333397px;font-family:Glasgow-Medium;-inkscape-font-specification:Glasgow-Medium"
           d="m -85.473169,391.48361 2.045333,-0.22534 v 0.65867 q 1.126667,-0.69333 2.184,-0.69333 1.404,0 2.201333,1.00533 1.317334,-0.97067 2.669334,-0.97067 1.265333,0 1.785333,0.572 0.52,0.572 0.658667,1.05734 0.052,0.22533 0.08667,0.572 0.03467,0.32933 0.03467,0.78 v 6.032 h -2.045333 v -5.52934 l -0.03467,-0.78 q -0.06933,-0.468 -0.433333,-0.76266 -0.364,-0.29467 -0.849333,-0.29467 -0.728,0 -1.490667,0.624 v 6.74267 h -2.028 v -5.52934 l -0.03467,-0.76266 q -0.052,-0.45067 -0.433333,-0.76267 -0.364,-0.312 -0.884,-0.312 -0.676,0 -1.421334,0.53733 v 6.82934 h -2.010666 z"
           inkscape:connector-curvature="0" />
        <path
           id="path4665"
           style="font-style:normal;font-variant:normal;font-weight:normal;font-stretch:normal;font-size:17.33333397px;font-family:Glasgow-Medium;-inkscape-font-specification:Glasgow-Medium"
           d="m -72.066916,398.33027 q 1.265334,0.50267 2.218667,0.50267 0.762667,0 1.230667,-0.26 0.468,-0.26 0.468,-0.69333 0,-0.45067 -0.381333,-0.676 l -0.572,-0.312 -1.178667,-0.53734 q -1.005334,-0.416 -1.612,-1.00533 -0.589334,-0.58933 -0.589334,-1.56 0,-1.17867 0.936,-1.88933 0.953334,-0.71067 2.548001,-0.71067 0.468,0 0.693333,0.0173 0.225333,0.0173 0.710667,0.12134 0.502666,0.0867 1.456,0.39866 l -0.468,1.54267 q -1.490667,-0.52 -2.409334,-0.52 -0.676,0 -1.057333,0.22533 -0.364,0.208 -0.364,0.64134 0,0.32933 0.173333,0.53733 0.190667,0.19067 0.78,0.468 l 0.208,0.104 0.641334,0.29467 0.710666,0.32933 0.797334,0.416 q 0.537333,0.26 0.832,0.76267 0.312,0.468 0.312,1.21333 0,1.23067 -0.953334,1.99333 -0.953333,0.76267 -2.6,0.76267 -1.144,0 -2.392,-0.364 l -0.624,-0.19067 z"
           inkscape:connector-curvature="0" />
      </g>
      <g
         transform="matrix(0.42453651,0,0,0.42453651,-1273.5577,-320.38716)"
         style="font-style:normal;font-weight:normal;font-size:40px;line-height:125%;font-family:sans-serif;letter-spacing:0px;word-spacing:0px;fill:#000000;fill-opacity:1;stroke:none;stroke-width:1px;stroke-linecap:butt;stroke-linejoin:miter;stroke-opacity:1"
         id="text4290-1">
        <path
           inkscape:connector-curvature="0"
           d="m 93.532311,48.648135 q -1.3475,-0.805 -2.52,-0.805 -0.6825,0 -1.365,0.385 -0.6825,0.3675 -1.0675,1.47 -0.385,1.085 -0.385,3.0625 0,2.4675 0.63,3.57 0.63,1.085 2.1,1.085 0.8925,0 1.68,-0.4025 v -3.4825 h -2.45 v -1.5925 h 4.62 v 6.3 q -1.0675,0.42 -2.205,0.7175 -0.385,0.0875 -0.9275,0.1575 -0.525,0.07 -0.91,0.07 -2.4675,0 -3.7625,-1.61 -1.2775,-1.6275 -1.2775,-4.76 0,-3.255 1.2775,-4.9525 1.2775,-1.715 3.7275,-1.715 1.7325,0 3.4825,1.015 z"
           style="font-style:normal;font-variant:normal;font-weight:100;font-stretch:normal;font-size:17.5px;font-family:Glasgow-Medium;-inkscape-font-specification:'Glasgow-Medium Thin';fill:#000000;fill-opacity:1"
           id="path4352-2" />
        <path
           inkscape:connector-curvature="0"
           d="m 96.517975,50.083135 2.065,-0.1225 v 0.735 q 0.9625,-0.805 2.012495,-0.805 h 0.21 l -0.21,1.9075 -0.612495,-0.0525 q -0.735,0 -1.4,0.385 v 6.825 h -2.065 z"
           style="font-style:normal;font-variant:normal;font-weight:100;font-stretch:normal;font-size:17.5px;font-family:Glasgow-Medium;-inkscape-font-specification:'Glasgow-Medium Thin';fill:#000000;fill-opacity:1"
           id="path4354-2" />
        <path
           inkscape:connector-curvature="0"
           d="m 104.84059,49.838135 q 3.9375,0 3.9375,4.6725 0,4.69 -3.9375,4.69 -3.9025,0 -3.9025,-4.69 0,-4.6725 3.9025,-4.6725 z m -1.75,4.6725 q 0,3.2025 1.75,3.2025 1.7675,0 1.7675,-3.2025 0,-3.185 -1.7675,-3.185 -1.75,0 -1.75,3.185 z"
           style="font-style:normal;font-variant:normal;font-weight:100;font-stretch:normal;font-size:17.5px;font-family:Glasgow-Medium;-inkscape-font-specification:'Glasgow-Medium Thin';fill:#000000;fill-opacity:1"
           id="path4356-6" />
        <path
           inkscape:connector-curvature="0"
           d="m 112.95321,59.165635 q -2.695,0 -2.695,-2.695 v -6.3875 l 2.065,-0.2275 v 6.0725 q 0,0.84 0.315,1.2075 0.315,0.35 1.12,0.35 0.77,0 1.645,-0.595 v -6.825 h 2.065 v 8.89 h -2.0475 l -0.0175,-0.5425 q -1.295,0.7525 -2.45,0.7525 z"
           style="font-style:normal;font-variant:normal;font-weight:100;font-stretch:normal;font-size:17.5px;font-family:Glasgow-Medium;-inkscape-font-specification:'Glasgow-Medium Thin';fill:#000000;fill-opacity:1"
           id="path4358-1" />
        <path
           inkscape:connector-curvature="0"
           d="m 119.21329,50.083135 1.9775,-0.21 0.0875,0.7875 q 0.5075,-0.385 1.015,-0.6125 0.525,-0.175 1.05,-0.175 1.54,0 2.4675,1.2775 0.945,1.2775 0.945,3.4125 0,2.065 -0.91,3.3425 -0.8925,1.26 -2.3975,1.26 -1.0675,0 -2.205,-0.84 v 3.9025 h -2.03 z m 2.065,6.755 q 0.42,0.2275 0.7875,0.3675 0.4025,0.1225 0.665,0.1225 1.8375,0 1.8375,-2.8 0,-1.3125 -0.5075,-2.0825 -0.5075,-0.77 -1.3825,-0.77 -0.63,0 -1.4,0.49 z"
           style="font-style:normal;font-variant:normal;font-weight:100;font-stretch:normal;font-size:17.5px;font-family:Glasgow-Medium;-inkscape-font-specification:'Glasgow-Medium Thin';fill:#000000;fill-opacity:1"
           id="path4360-9" />
      </g>
      <rect
         inkscape:export-ydpi="349.32202"
         inkscape:export-xdpi="349.32202"
         transform="matrix(-0.70710678,0.70710678,0.70710678,0.70710678,0,0)"
         style="opacity:1;fill:#333333;fill-opacity:1;stroke:none;stroke-width:0.21226826;stroke-linecap:square;stroke-linejoin:round;stroke-miterlimit:4;stroke-dasharray:none;stroke-dashoffset:0;stroke-opacity:1"
         id="rect4294-2"
         width="8.915266"
         height="1.2736095"
         x="663.22668"
         y="-1109.6002"
         ry="0" />
      <rect
         inkscape:export-ydpi="349.32202"
         inkscape:export-xdpi="349.32202"
         ry="0"
         y="-317.34933"
         x="-1249.359"
         height="1.2736095"
         width="4.6699018"
         id="rect4296-0"
         style="opacity:1;fill:#333333;fill-opacity:1;stroke:none;stroke-width:0.21226826;stroke-linecap:square;stroke-linejoin:round;stroke-miterlimit:4;stroke-dasharray:none;stroke-dashoffset:0;stroke-opacity:1" />
      <path
         inkscape:export-ydpi="349.32202"
         inkscape:export-xdpi="349.32202"
         id="path4298-6"
         d="m -1242.3543,-319.89656 a 3.1840238,3.1840238 0 0 0 -3.184,3.18403 3.1840238,3.1840238 0 0 0 3.184,3.18403 3.1840238,3.1840238 0 0 0 3.1841,-3.18403 3.1840238,3.1840238 0 0 0 -3.1841,-3.18403 z m 0,1.27362 c 1.0584,0 1.9105,0.85204 1.9105,1.91041 0,1.05837 -0.8521,1.91042 -1.9105,1.91042 -1.0583,0 -1.9104,-0.85205 -1.9104,-1.91042 0,-1.05837 0.8521,-1.91041 1.9104,-1.91041 z"
         style="opacity:1;fill:#559bbd;fill-opacity:1;stroke:none;stroke-width:0.21226826;stroke-linecap:square;stroke-linejoin:round;stroke-miterlimit:4;stroke-dasharray:none;stroke-dashoffset:0;stroke-opacity:1"
         inkscape:connector-curvature="0" />
      <path
         inkscape:export-ydpi="349.32202"
         inkscape:export-xdpi="349.32202"
         inkscape:connector-curvature="0"
         style="opacity:1;fill:#862174;fill-opacity:1;stroke:none;stroke-width:0.21226826;stroke-linecap:square;stroke-linejoin:round;stroke-miterlimit:4;stroke-dasharray:none;stroke-dashoffset:0;stroke-opacity:1"
         d="m -1261.0339,-310.55675 a 3.1840238,3.1840238 0 0 0 -3.184,3.18402 3.1840238,3.1840238 0 0 0 3.184,3.18403 3.1840238,3.1840238 0 0 0 3.184,-3.18403 3.1840238,3.1840238 0 0 0 -3.184,-3.18402 z m 0,1.27361 c 1.0584,0 1.9105,0.85204 1.9105,1.91041 0,1.05838 -0.8521,1.91042 -1.9105,1.91042 -1.0584,0 -1.9104,-0.85204 -1.9104,-1.91042 0,-1.05837 0.852,-1.91041 1.9104,-1.91041 z"
         id="path4300-5" />
      <path
         inkscape:export-ydpi="349.32202"
         inkscape:export-xdpi="349.32202"
         id="path4302-3"
         d="m -1251.6941,-319.89656 a 3.1840238,3.1840238 0 0 0 -3.184,3.18403 3.1840238,3.1840238 0 0 0 3.184,3.18403 3.1840238,3.1840238 0 0 0 3.184,-3.18403 3.1840238,3.1840238 0 0 0 -3.184,-3.18403 z m 0,1.27362 c 1.0584,0 1.9105,0.85204 1.9105,1.91041 0,1.05837 -0.8521,1.91042 -1.9105,1.91042 -1.0583,0 -1.9104,-0.85205 -1.9104,-1.91042 0,-1.05837 0.8521,-1.91041 1.9104,-1.91041 z"
         style="opacity:1;fill:#78a22f;fill-opacity:1;stroke:none;stroke-width:0.21226826;stroke-linecap:square;stroke-linejoin:round;stroke-miterlimit:4;stroke-dasharray:none;stroke-dashoffset:0;stroke-opacity:1"
         inkscape:connector-curvature="0" />
      <path
         inkscape:export-ydpi="349.32202"
         inkscape:export-xdpi="349.32202"
         inkscape:connector-curvature="0"
         style="opacity:1;fill:#00acef;fill-opacity:1;stroke:none;stroke-width:0.21226826;stroke-linecap:square;stroke-linejoin:round;stroke-miterlimit:4;stroke-dasharray:none;stroke-dashoffset:0;stroke-opacity:1"
         d="m -1242.3543,-301.21695 a 3.1840238,3.1840238 0 0 0 -3.184,3.18403 3.1840238,3.1840238 0 0 0 3.184,3.18402 3.1840238,3.1840238 0 0 0 3.1841,-3.18402 3.1840238,3.1840238 0 0 0 -3.1841,-3.18403 z m 0,1.27361 c 1.0584,0 1.9105,0.85205 1.9105,1.91042 0,1.05837 -0.8521,1.91042 -1.9105,1.91042 -1.0583,0 -1.9104,-0.85205 -1.9104,-1.91042 0,-1.05837 0.8521,-1.91042 1.9104,-1.91042 z"
         id="path4304-2" />
    </g>
  </g>
</svg>
