<?xml version="1.0" encoding="UTF-8" standalone="no"?>
<!-- Created with Inkscape (http://www.inkscape.org/) -->

<svg
   xmlns:dc="http://purl.org/dc/elements/1.1/"
   xmlns:cc="http://creativecommons.org/ns#"
   xmlns:rdf="http://www.w3.org/1999/02/22-rdf-syntax-ns#"
   xmlns:svg="http://www.w3.org/2000/svg"
   xmlns="http://www.w3.org/2000/svg"
   xmlns:xlink="http://www.w3.org/1999/xlink"
   xmlns:sodipodi="http://sodipodi.sourceforge.net/DTD/sodipodi-0.dtd"
   xmlns:inkscape="http://www.inkscape.org/namespaces/inkscape"
   viewBox="0 0 92.910135 92.821001"
   id="svg4316"
   version="1.1"
   inkscape:version="0.92.1 r15371"
   sodipodi:docname="logo.svg"
   width="92.910133"
   height="92.820999">
  <defs
     id="defs4318">
    <linearGradient
       id="linearGradient4347"
       inkscape:collect="always">
      <stop
         id="stop4349"
         offset="0"
         style="stop-color:#00acef;stop-opacity:1" />
      <stop
         id="stop4351"
         offset="1"
         style="stop-color:#2b4775;stop-opacity:1" />
    </linearGradient>
    <linearGradient
       gradientTransform="matrix(1.0666667,0,0,1.0666667,-1589.7432,-697.85467)"
       y2="260"
       gradientUnits="userSpaceOnUse"
       id="linearGradient4306"
       x1="2.2898221e-006"
       x2="60.000004"
       y1="200"
       inkscape:collect="always"
       xlink:href="#linearGradient4347" />
  </defs>
  <sodipodi:namedview
     id="base"
     pagecolor="#ffffff"
     bordercolor="#666666"
     borderopacity="1.0"
     inkscape:pageopacity="0.0"
     inkscape:pageshadow="2"
     inkscape:bbox-nodes="true"
     inkscape:bbox-paths="true"
     inkscape:cx="62.433534"
     inkscape:document-units="px"
     inkscape:current-layer="layer1"
     showgrid="false"
     units="px"
     fit-margin-top="0"
     fit-margin-left="0"
     fit-margin-right="0"
     fit-margin-bottom="0"
     inkscape:window-width="1920"
     inkscape:window-height="1017"
     inkscape:window-x="-8"
     inkscape:window-y="-8"
     inkscape:cy="32.364731"
     inkscape:snap-bbox="true"
     inkscape:snap-bbox-edge-midpoints="true"
     inkscape:snap-page="true"
     inkscape:window-maximized="1"
     inkscape:zoom="2.8">
    <inkscape:grid
       id="grid4590"
       type="xygrid" />
  </sodipodi:namedview>
  <metadata
     id="metadata4321">
    <rdf:RDF>
      <cc:Work
         rdf:about="">
        <dc:format>image/svg+xml</dc:format>
        <dc:type
           rdf:resource="http://purl.org/dc/dcmitype/StillImage" />
        <dc:title />
      </cc:Work>
    </rdf:RDF>
  </metadata>
  <g
     inkscape:label="Layer 1"
     inkscape:groupmode="layer"
     id="layer1"
     transform="translate(1273.2961,394.76268)">
    <g
       id="g4698"
       transform="translate(0,37.910547)">
      <g
         id="g4689"
         transform="matrix(0.74670434,0,0,0.74670434,-310.75349,-95.316811)">
        <g
           id="g3093"
           transform="matrix(0.73983191,0,0,-0.73983191,-1252.9528,-378.48099)">
          <path
             style="fill:#6ba62e;fill-opacity:1;fill-rule:nonzero;stroke:none"
             d="m 0,0 c 4.468,-2.538 9.501,-3.825 14.958,-3.825 h 10e-4 c 7.183,0 13.214,2.24 15.666,3.3 v 3.304 c -0.006,0.622 -0.22,6.133 -5.957,6.133 H -21.54 C -22.143,8.907 -27.497,8.683 -27.497,2.779 V 1.758 c 2.799,1.135 7.037,2.389 12.129,2.389 C -10.015,4.147 -4.844,2.751 0,0"
             id="path3095"
             inkscape:connector-curvature="0" />
        </g>
        <g
           id="g3097"
           transform="matrix(0.73983191,0,0,-0.73983191,-1237.115,-359.59433)">
          <path
             style="fill:#6ba62e;fill-opacity:1;fill-rule:nonzero;stroke:none"
             d="m 0,0 v -23.681 h 3.255 c 0.62,0.007 5.963,0.236 5.963,6.133 V 2.556 C 7.189,1.742 3.955,0.645 0,0"
             id="path3099"
             inkscape:connector-curvature="0" />
        </g>
        <g
           id="g3101"
           transform="matrix(0.73983191,0,0,-0.73983191,-1241.8847,-359.19881)">
          <path
             style="fill:#6ba62e;fill-opacity:1;fill-rule:nonzero;stroke:none"
             d="M 0,0 H -0.001 C -1.975,0 -3.898,0.16 -5.766,0.473 V -23.146 H 3.539 V 0.164 C 2.399,0.059 1.217,0 0,0"
             id="path3103"
             inkscape:connector-curvature="0" />
        </g>
        <g
           id="g3105"
           transform="matrix(0.73983191,0,0,-0.73983191,-1253.8526,-362.26675)">
          <path
             style="fill:#6ba62e;fill-opacity:1;fill-rule:nonzero;stroke:none"
             d="m 0,0 c -0.596,0.338 -1.197,0.653 -1.803,0.947 v -28.24 H 7.502 V -3.052 C 4.871,-2.36 2.364,-1.343 0,0"
             id="path3107"
             inkscape:connector-curvature="0" />
        </g>
        <g
           id="g3109"
           transform="matrix(0.73983191,0,0,-0.73983191,-1264.2227,-365.09513)">
          <path
             style="fill:#811c76;fill-opacity:1;fill-rule:nonzero;stroke:none"
             d="M 0,0 V -31.116 H 9.305 V -1.653 C 6.295,-0.571 3.182,-0.015 0,0"
             id="path3111"
             inkscape:connector-curvature="0" />
        </g>
        <g
           id="g3113"
           transform="matrix(0.73983191,0,0,-0.73983191,-1273.2961,-363.26767)">
          <path
             style="fill:#811c76;fill-opacity:1;fill-rule:nonzero;stroke:none"
             d="m 0,0 v -22.513 c 0.006,-0.622 0.22,-6.133 5.958,-6.133 H 9.356 V 2.335 C 5.391,1.961 2.129,0.888 0,0"
             id="path3115"
             inkscape:connector-curvature="0" />
        </g>
        <g
           id="g3117"
           transform="matrix(0.73983191,0,0,-0.73983191,-1252.9528,-371.17825)">
          <path
             style="fill:#6ba62e;fill-opacity:1;fill-rule:nonzero;stroke:none"
             d="m 0,0 c 4.468,-2.539 9.501,-3.826 14.958,-3.826 h 10e-4 c 7.186,10e-4 13.215,2.241 15.666,3.301 V 6.674 C 27.575,5.45 21.802,3.583 14.959,3.583 h -10e-4 c -5.889,0 -11.33,1.395 -16.174,4.147 -4.469,2.538 -9.23,3.826 -14.152,3.826 -5.3,0 -9.634,-1.496 -12.129,-2.609 V 1.76 c 2.799,1.134 7.04,2.386 12.129,2.386 C -10.015,4.146 -4.844,2.751 0,0"
             id="path3119"
             inkscape:connector-curvature="0" />
        </g>
        <g
           id="g3121"
           transform="matrix(0.73983191,0,0,-0.73983191,-1252.9528,-363.85051)">
          <path
             style="fill:#5c9bc1;fill-opacity:1;fill-rule:nonzero;stroke:none"
             d="m 0,0 c 4.468,-2.538 9.501,-3.825 14.959,-3.825 7.182,0 13.212,2.239 15.666,3.3 V 6.707 C 27.575,5.484 21.802,3.617 14.959,3.616 h -10e-4 c -5.889,0 -11.33,1.396 -16.174,4.148 -4.469,2.538 -9.23,3.825 -14.152,3.825 -5.3,0 -9.634,-1.496 -12.129,-2.609 V 1.76 c 2.799,1.134 7.041,2.387 12.129,2.387 C -10.015,4.147 -4.844,2.751 0,0"
             id="path3123"
             inkscape:connector-curvature="0" />
        </g>
        <g
           id="g3125"
           transform="matrix(0.73983191,0,0,-0.73983191,-1223.4159,-382.52268)">
          <path
             style="fill:#211d1d;fill-opacity:1;fill-rule:nonzero;stroke:none"
             d="M 0,0 H 6.617 V -0.974 L 4.043,-1.154 V -9.998 H 2.559 v 8.829 L 0,-0.959 Z"
             id="path3127"
             inkscape:connector-curvature="0" />
        </g>
        <g
           id="g3129"
           transform="matrix(0.73983191,0,0,-0.73983191,-1218.0402,-382.50041)">
          <path
             style="fill:#211d1d;fill-opacity:1;fill-rule:nonzero;stroke:none"
             d="m 0,0 1.358,0.165 v -3.702 c 0.237,0.179 0.331,0.239 0.489,0.329 0.442,0.24 1.058,0.39 1.611,0.39 0.694,0 1.327,-0.225 1.753,-0.6 0.394,-0.359 0.536,-0.794 0.536,-1.663 V -9.968 H 4.406 v 4.587 c 0,0.285 -0.016,0.479 -0.064,0.644 -0.126,0.525 -0.616,0.855 -1.31,0.855 -0.411,0 -0.869,-0.12 -1.232,-0.33 -0.143,-0.075 -0.221,-0.135 -0.442,-0.3 V -9.968 H 0 Z"
             id="path3131"
             inkscape:connector-curvature="0" />
        </g>
        <g
           id="g3133"
           transform="matrix(0.73983191,0,0,-0.73983191,-1209.4993,-378.04233)">
          <path
             style="fill:#211d1d;fill-opacity:1;fill-rule:nonzero;stroke:none"
             d="M 0,0 C 0,1.439 -0.552,2.188 -1.626,2.188 -2.684,2.188 -3.3,1.409 -3.332,0 Z m -3.221,-0.884 c 0.127,-1.424 0.963,-2.189 2.353,-2.189 0.505,0 0.995,0.09 1.69,0.345 L 1.09,-3.703 c -0.789,-0.269 -1.532,-0.389 -2.274,-0.389 -2.242,0 -3.554,1.364 -3.554,3.732 0,2.204 1.185,3.538 3.128,3.538 1.894,0 2.953,-1.259 2.953,-3.478 0,-0.135 0,-0.33 -0.016,-0.584 z"
             id="path3135"
             inkscape:connector-curvature="0" />
        </g>
        <g
           id="g3137"
           transform="matrix(0.73983191,0,0,-0.73983191,-1204.7775,-374.8595)">
          <path
             style="fill:#211d1d;fill-opacity:1;fill-rule:nonzero;stroke:none"
             d="m 0,0 c 0.078,0.33 0.11,0.63 0.11,1.529 v 8.829 h 1.5 V 1.664 C 1.61,0.405 1.579,0.15 1.341,-0.315 1.105,-0.795 0.758,-1.199 0.142,-1.664 l -0.774,0.51 C -0.268,-0.75 -0.111,-0.45 0,0"
             id="path3139"
             inkscape:connector-curvature="0" />
        </g>
        <g
           id="g3141"
           transform="matrix(0.73983191,0,0,-0.73983191,-1200.2795,-377.73183)">
          <path
             style="fill:#211d1d;fill-opacity:1;fill-rule:nonzero;stroke:none"
             d="m 0,0 c -1.105,0 -1.847,-0.57 -1.847,-1.424 0,-0.735 0.584,-1.244 1.452,-1.244 0.553,0 1.011,0.18 1.58,0.614 v 1.949 C 0.711,-0.03 0.363,0 0,0 m 1.185,1.334 c 0,0.225 0,0.36 -0.032,0.48 -0.111,0.494 -0.6,0.764 -1.405,0.764 -0.585,0 -1.201,-0.135 -2.022,-0.419 l -0.347,1.019 c 0.394,0.105 0.536,0.135 0.774,0.195 0.663,0.15 1.279,0.225 1.894,0.225 0.885,0 1.485,-0.165 1.943,-0.525 0.427,-0.345 0.553,-0.69 0.553,-1.574 v -5.022 h -1.28 l -0.047,0.645 c -0.758,-0.585 -1.374,-0.81 -2.132,-0.81 -1.437,0 -2.4,0.885 -2.4,2.189 0,1.439 1.106,2.368 2.795,2.368 0.474,0 1.105,-0.09 1.706,-0.224 z"
             id="path3143"
             inkscape:connector-curvature="0" />
        </g>
        <g
           id="g3145"
           transform="matrix(0.73983191,0,0,-0.73983191,-1197.2761,-380.26028)">
          <path
             style="fill:#211d1d;fill-opacity:1;fill-rule:nonzero;stroke:none"
             d="m 0,0 1.357,0.165 v -0.57 c 0.238,0.15 0.332,0.195 0.459,0.255 0.458,0.225 0.978,0.36 1.453,0.36 0.6,0 1.169,-0.195 1.563,-0.525 0.111,-0.09 0.174,-0.165 0.301,-0.345 0.757,0.57 1.468,0.84 2.241,0.84 0.664,0 1.248,-0.225 1.643,-0.6 0.426,-0.419 0.552,-0.809 0.552,-1.739 V -6.94 H 8.212 v 4.497 c 0,0.284 -0.016,0.509 -0.048,0.659 -0.095,0.525 -0.616,0.9 -1.232,0.9 -0.521,0 -0.947,-0.18 -1.484,-0.6 V -6.94 H 4.106 v 4.467 c 0,0.389 0,0.554 -0.032,0.674 -0.079,0.555 -0.6,0.93 -1.295,0.93 -0.473,0 -0.852,-0.135 -1.422,-0.54 V -6.94 H 0 Z"
             id="path3147"
             inkscape:connector-curvature="0" />
        </g>
        <g
           id="g3149"
           transform="matrix(0.73983191,0,0,-0.73983191,-1185.8019,-378.04233)">
          <path
             style="fill:#211d1d;fill-opacity:1;fill-rule:nonzero;stroke:none"
             d="M 0,0 C 0,1.439 -0.553,2.188 -1.627,2.188 -2.685,2.188 -3.3,1.409 -3.332,0 Z m -3.222,-0.884 c 0.127,-1.424 0.963,-2.189 2.353,-2.189 0.506,0 0.995,0.09 1.69,0.345 L 1.089,-3.703 C 0.3,-3.972 -0.442,-4.092 -1.185,-4.092 c -2.242,0 -3.553,1.364 -3.553,3.732 0,2.204 1.185,3.538 3.127,3.538 1.895,0 2.953,-1.259 2.953,-3.478 0,-0.135 0,-0.33 -0.016,-0.584 z"
             id="path3151"
             inkscape:connector-curvature="0" />
        </g>
        <g
           id="g3153"
           transform="matrix(0.73983191,0,0,-0.73983191,-1184.0368,-376.11263)">
          <path
             style="fill:#211d1d;fill-opacity:1;fill-rule:nonzero;stroke:none"
             d="m 0,0 c 0.757,-0.3 1.358,-0.45 1.926,-0.45 0.916,0 1.516,0.36 1.516,0.9 0,0.434 -0.284,0.659 -1.785,1.334 -0.82,0.39 -1.089,0.539 -1.405,0.824 -0.362,0.33 -0.568,0.795 -0.568,1.274 0,1.155 1.089,1.934 2.732,1.934 0.71,0 1.453,-0.15 2.337,-0.465 L 4.39,4.347 C 3.569,4.632 2.953,4.767 2.4,4.767 1.579,4.767 1.058,4.452 1.058,3.942 1.058,3.793 1.105,3.658 1.184,3.538 1.342,3.328 1.484,3.223 2.116,2.923 L 2.684,2.653 3.41,2.294 C 4.516,1.769 4.895,1.319 4.895,0.525 c 0,-1.259 -1.089,-2.054 -2.811,-2.054 -0.773,0 -1.516,0.135 -2.463,0.465 z"
             id="path3155"
             inkscape:connector-curvature="0" />
        </g>
        <g
           id="g3157"
           transform="matrix(0.73983191,0,0,-0.73983191,-1223.4085,-370.74818)">
          <path
             style="fill:#211d1d;fill-opacity:1;fill-rule:nonzero;stroke:none"
             d="M 0,0 H 3.158 V -6.535 H 7.493 V 0 h 3.158 V -15.908 H 7.493 v 7.155 H 3.158 v -7.155 H 0 Z"
             id="path3159"
             inkscape:connector-curvature="0" />
        </g>
        <g
           id="g3161"
           transform="matrix(0.73983191,0,0,-0.73983191,-1211.8454,-367.53672)">
          <path
             style="fill:#211d1d;fill-opacity:1;fill-rule:nonzero;stroke:none"
             d="m 0,0 v -7.656 c 0,-1.312 0.461,-1.836 1.636,-1.836 0.6,0 1.177,0.191 1.799,0.644 v 8.562 H 6.202 V -11.567 H 3.458 l -0.023,0.668 c -1.037,-0.668 -1.891,-0.93 -2.928,-0.93 -2.167,0 -3.274,1.144 -3.274,3.386 v 8.133 z"
             id="path3163"
             inkscape:connector-curvature="0" />
        </g>
        <g
           id="g3165"
           transform="matrix(0.73983191,0,0,-0.73983191,-1206.1151,-367.32506)">
          <path
             style="fill:#211d1d;fill-opacity:1;fill-rule:nonzero;stroke:none"
             d="M 0,0 H 1.221 V 1.741 L 3.988,2.123 V 0 H 5.902 V -1.837 L 3.988,-2.051 v -6.01 c 0,-0.334 0.023,-0.573 0.023,-0.692 0.069,-0.477 0.415,-0.739 0.945,-0.739 0.278,0 0.554,0.071 0.969,0.214 v -1.955 c -0.485,-0.191 -1.269,-0.31 -1.914,-0.31 -1.983,0 -2.79,0.763 -2.79,2.623 v 6.869 L 0,-1.837 Z"
             id="path3167"
             inkscape:connector-curvature="0" />
        </g>
        <g
           id="g3169"
           transform="matrix(0.73983191,0,0,-0.73983191,-1200.88,-367.32506)">
          <path
             style="fill:#211d1d;fill-opacity:1;fill-rule:nonzero;stroke:none"
             d="M 0,0 H 1.222 V 1.741 L 3.989,2.123 V 0 H 5.902 V -1.837 L 3.989,-2.051 v -6.01 c 0,-0.334 0.022,-0.573 0.022,-0.692 0.07,-0.477 0.415,-0.739 0.946,-0.739 0.277,0 0.553,0.071 0.968,0.214 v -1.955 c -0.484,-0.191 -1.268,-0.31 -1.914,-0.31 -1.982,0 -2.789,0.763 -2.789,2.623 v 6.869 L 0,-1.837 Z"
             id="path3171"
             inkscape:connector-curvature="0" />
        </g>
        <g
           id="g3173"
           transform="matrix(0.73983191,0,0,-0.73983191,-1191.926,-360.26706)">
          <path
             style="fill:#211d1d;fill-opacity:1;fill-rule:nonzero;stroke:none"
             d="M 0,0 C 1.314,0 1.983,1.264 1.983,3.888 1.983,6.511 1.314,7.799 0,7.799 -1.314,7.799 -1.983,6.511 -1.983,3.935 -1.983,1.264 -1.337,0 0,0 m 0,9.826 c 3.274,0 4.865,-1.932 4.865,-5.938 0,-4.007 -1.591,-5.939 -4.865,-5.939 -3.274,0 -4.865,1.932 -4.865,5.867 0,4.078 1.545,6.01 4.865,6.01"
             id="path3175"
             inkscape:connector-curvature="0" />
        </g>
        <g
           id="g3177"
           transform="matrix(0.73983191,0,0,-0.73983191,-1187.0654,-367.30744)">
          <path
             style="fill:#211d1d;fill-opacity:1;fill-rule:nonzero;stroke:none"
             d="M 0,0 2.743,0.286 V -0.62 C 3.735,0 4.749,0.334 5.694,0.334 c 0.968,0 1.891,-0.334 2.467,-0.93 0.6,-0.597 0.807,-1.336 0.807,-2.815 v -7.846 H 6.202 v 7.131 c 0,0.334 -0.024,0.668 -0.047,0.883 -0.115,0.739 -0.737,1.216 -1.568,1.216 -0.552,0 -1.175,-0.239 -1.844,-0.692 v -8.538 H 0 Z"
             id="path3179"
             inkscape:connector-curvature="0" />
        </g>
        <path
           style="fill:#211d1d;fill-opacity:1;fill-rule:nonzero;stroke:none;stroke-width:0.73983192"
           d="m -1223.4162,-354.65654 h 1.8837 v 9.97737 h -1.8837 z"
           id="path3181"
           inkscape:connector-curvature="0" />
        <g
           id="g3183"
           transform="matrix(0.73983191,0,0,-0.73983191,-1220.2306,-351.73976)">
          <path
             style="fill:#211d1d;fill-opacity:1;fill-rule:nonzero;stroke:none"
             d="M 0,0 2.228,0.243 V -0.526 C 3.033,0 3.857,0.283 4.624,0.283 5.41,0.283 6.159,0 6.628,-0.506 7.114,-1.011 7.283,-1.638 7.283,-2.891 V -9.543 H 5.036 v 6.045 c 0,0.283 -0.019,0.566 -0.038,0.748 -0.093,0.627 -0.599,1.031 -1.272,1.031 -0.45,0 -0.955,-0.201 -1.498,-0.586 V -9.543 H 0 Z"
             id="path3185"
             inkscape:connector-curvature="0" />
        </g>
        <g
           id="g3187"
           transform="matrix(0.73983191,0,0,-0.73983191,-1213.5971,-346.31006)">
          <path
             style="fill:#211d1d;fill-opacity:1;fill-rule:nonzero;stroke:none"
             d="m 0,0 c 0.281,-0.121 0.412,-0.182 0.6,-0.243 0.561,-0.161 1.16,-0.263 1.61,-0.263 1.01,0 1.628,0.364 1.628,0.931 0,0.303 -0.15,0.525 -0.506,0.747 C 2.996,1.395 2.808,1.496 1.928,1.86 1.068,2.244 0.656,2.507 0.281,2.891 -0.168,3.356 -0.43,4.023 -0.43,4.751 c 0,1.759 1.385,2.891 3.576,2.891 0.898,0 1.797,-0.181 2.92,-0.565 L 5.58,5.257 C 4.625,5.621 3.782,5.803 3.146,5.803 2.303,5.803 1.798,5.479 1.798,4.933 1.798,4.772 1.854,4.609 1.928,4.509 2.116,4.266 2.21,4.185 2.921,3.841 L 3.538,3.538 4.362,3.154 C 5.71,2.507 6.216,1.799 6.216,0.607 c 0,-1.921 -1.385,-3.094 -3.651,-3.094 -0.749,0 -1.647,0.142 -2.415,0.364 -0.187,0.061 -0.318,0.101 -0.655,0.223 z"
             id="path3189"
             inkscape:connector-curvature="0" />
        </g>
        <g
           id="g3191"
           transform="matrix(0.73983191,0,0,-0.73983191,-1208.3064,-351.75492)">
          <path
             style="fill:#211d1d;fill-opacity:1;fill-rule:nonzero;stroke:none"
             d="M 0,0 H 0.992 V 1.476 L 3.239,1.799 V 0 H 4.793 V -1.557 L 3.239,-1.739 v -5.095 c 0,-0.283 0.018,-0.485 0.018,-0.586 0.057,-0.405 0.338,-0.627 0.768,-0.627 0.225,0 0.449,0.061 0.786,0.182 V -9.523 C 4.418,-9.685 3.782,-9.786 3.257,-9.786 c -1.61,0 -2.265,0.647 -2.265,2.224 v 5.823 L 0,-1.557 Z"
             id="path3193"
             inkscape:connector-curvature="0" />
        </g>
        <g
           id="g3195"
           transform="matrix(0.73983191,0,0,-0.73983191,-1203.6806,-351.73976)">
          <path
             style="fill:#211d1d;fill-opacity:1;fill-rule:nonzero;stroke:none"
             d="M 0,0 2.228,0.243 V -9.543 H 0 Z m 1.105,4.044 c 0.692,0 1.254,-0.546 1.254,-1.213 0,-0.688 -0.562,-1.234 -1.254,-1.234 -0.675,0 -1.236,0.546 -1.236,1.214 0,0.687 0.543,1.233 1.236,1.233"
             id="path3197"
             inkscape:connector-curvature="0" />
        </g>
        <g
           id="g3199"
           transform="matrix(0.73983191,0,0,-0.73983191,-1200.9665,-351.75492)">
          <path
             style="fill:#211d1d;fill-opacity:1;fill-rule:nonzero;stroke:none"
             d="M 0,0 H 0.992 V 1.476 L 3.239,1.799 V 0 H 4.792 V -1.557 L 3.239,-1.739 v -5.095 c 0,-0.283 0.019,-0.485 0.019,-0.586 0.056,-0.405 0.336,-0.627 0.767,-0.627 0.225,0 0.449,0.061 0.786,0.182 V -9.523 C 4.418,-9.685 3.782,-9.786 3.258,-9.786 c -1.61,0 -2.266,0.647 -2.266,2.224 v 5.823 L 0,-1.557 Z"
             id="path3201"
             inkscape:connector-curvature="0" />
        </g>
        <g
           id="g3203"
           transform="matrix(0.73983191,0,0,-0.73983191,-1194.8173,-351.93433)">
          <path
             style="fill:#211d1d;fill-opacity:1;fill-rule:nonzero;stroke:none"
             d="m 0,0 v -6.49 c 0,-1.112 0.375,-1.557 1.33,-1.557 0.486,0 0.954,0.162 1.46,0.546 v 7.259 H 5.037 V -9.806 H 2.808 L 2.79,-9.24 c -0.842,-0.566 -1.536,-0.789 -2.378,-0.789 -1.76,0 -2.658,0.971 -2.658,2.872 v 6.894 z"
             id="path3205"
             inkscape:connector-curvature="0" />
        </g>
        <g
           id="g3207"
           transform="matrix(0.73983191,0,0,-0.73983191,-1190.1642,-351.75492)">
          <path
             style="fill:#211d1d;fill-opacity:1;fill-rule:nonzero;stroke:none"
             d="M 0,0 H 0.992 V 1.476 L 3.239,1.799 V 0 H 4.792 V -1.557 L 3.239,-1.739 v -5.095 c 0,-0.283 0.019,-0.485 0.019,-0.586 0.056,-0.405 0.336,-0.627 0.767,-0.627 0.225,0 0.449,0.061 0.786,0.182 V -9.523 C 4.418,-9.685 3.782,-9.786 3.258,-9.786 c -1.61,0 -2.266,0.647 -2.266,2.224 v 5.823 L 0,-1.557 Z"
             id="path3209"
             inkscape:connector-curvature="0" />
        </g>
        <g
           id="g3211"
           transform="matrix(0.73983191,0,0,-0.73983191,-1181.9515,-348.74816)">
          <path
             style="fill:#211d1d;fill-opacity:1;fill-rule:nonzero;stroke:none"
             d="m 0,0 v 0.081 c 0,1.597 -0.542,2.487 -1.554,2.487 -1.011,0 -1.591,-0.93 -1.61,-2.568 z m -2.939,-1.516 c 0.168,-1.537 1.049,-2.366 2.527,-2.366 0.562,0 1.068,0.101 1.892,0.405 L 1.854,-5.196 C 0.88,-5.56 0.038,-5.701 -0.936,-5.701 c -2.864,0 -4.474,1.859 -4.474,5.135 0,3.053 1.441,4.873 3.894,4.873 2.359,0 3.632,-1.719 3.632,-4.873 0,-0.243 0,-0.485 -0.038,-0.95 z"
             id="path3213"
             inkscape:connector-curvature="0" />
        </g>
      </g>
      <a
         style="opacity:0;fill:#ffffff;fill-opacity:1"
         id="a4648"
         target="_blank"
         xlink:href="http://www.hutton.ac.uk"
         xlink:title="The James Hutton Institute">
        <rect
           style="opacity:0.78800001;fill:#ffffff;fill-opacity:1;stroke:none;stroke-width:2.07616258;stroke-miterlimit:4;stroke-dasharray:none;stroke-opacity:1"
           height="32.108002"
           id="rect4584"
           width="69.375999"
           x="-1261.5291"
           y="-382.85367" />
      </a>
    </g>
    <g
       id="g4632"
       transform="translate(0,-43.418332)">
      <g
         id="g4766"
         transform="matrix(0.36622159,0,0,0.36622159,-679.33082,-160.3814)">
        <path
           style="opacity:1;fill:url(#linearGradient4306);fill-opacity:1;stroke:none;stroke-width:0.53333336;stroke-linecap:square;stroke-linejoin:round;stroke-miterlimit:4;stroke-dasharray:none;stroke-dashoffset:0;stroke-opacity:1"
           d="m -1581.7432,-484.52133 a 8.0000003,8.0000003 0 0 0 -8,8 8.0000003,8.0000003 0 0 0 8,8 8.0000003,8.0000003 0 0 0 7.8375,-6.4 h 7.8 a 8.0000003,8.0000003 0 0 0 7.8292,6.4 8.0000003,8.0000003 0 0 0 4.5145,-1.40625 l 4.1021,4.10208 2.2625,-2.2625 -4.1396,-4.13958 a 8.0000003,8.0000003 0 0 0 1.2605,-4.29375 8.0000003,8.0000003 0 0 0 -8,-8 8.0000003,8.0000003 0 0 0 -7.8375,6.4 h -7.8 a 8.0000003,8.0000003 0 0 0 -7.8292,-6.4 z m 38.7417,20.82916 -2.2625,2.26251 3.8541,3.85416 a 8.0000003,8.0000003 0 0 0 -1.4,4.52084 8.0000003,8.0000003 0 0 0 1.4292,4.54791 l -12.3438,12.34376 a 8.0000003,8.0000003 0 0 0 -4.552,-1.42501 8.0000003,8.0000003 0 0 0 -4.3,1.25417 l -12.4271,-12.42708 a 8.0000003,8.0000003 0 0 0 1.2604,-4.29375 8.0000003,8.0000003 0 0 0 -8,-8 8.0000003,8.0000003 0 0 0 -8,8 8.0000003,8.0000003 0 0 0 8,8 8.0000003,8.0000003 0 0 0 4.5146,-1.40625 l 12.3521,12.35208 a 8.0000003,8.0000003 0 0 0 -1.2375,2.92083 h -7.8 a 8.0000003,8.0000003 0 0 0 -7.8292,-6.4 8.0000003,8.0000003 0 0 0 -8,8 8.0000003,8.0000003 0 0 0 8,8 8.0000003,8.0000003 0 0 0 7.8375,-6.4 h 7.8 a 8.0000003,8.0000003 0 0 0 7.8292,6.4 8.0000003,8.0000003 0 0 0 8,-8 8.0000003,8.0000003 0 0 0 -1.2355,-4.26249 l 12.4438,-12.44376 a 8.0000003,8.0000003 0 0 0 4.2583,1.23959 8.0000003,8.0000003 0 0 0 7.8375,-6.4 h 7.8 a 8.0000003,8.0000003 0 0 0 1.2583,2.94791 l -12.3437,12.34376 a 8.0000003,8.0000003 0 0 0 -4.5521,-1.42501 8.0000003,8.0000003 0 0 0 -8,8 8.0000003,8.0000003 0 0 0 8,8 8.0000003,8.0000003 0 0 0 8,-8 8.0000003,8.0000003 0 0 0 -1.2354,-4.26249 l 12.4438,-12.44376 a 8.0000003,8.0000003 0 0 0 4.2583,1.23959 8.0000003,8.0000003 0 0 0 8,-8 8.0000003,8.0000003 0 0 0 -8,-8 8.0000003,8.0000003 0 0 0 -7.8375,6.4 h -7.8 a 8.0000003,8.0000003 0 0 0 -7.8292,-6.4 8.0000003,8.0000003 0 0 0 -4.3,1.25416 z"
           id="path4278"
           inkscape:connector-curvature="0" />
        <g
           style="fill:#000000;fill-opacity:1"
           id="g4280"
           transform="matrix(1.0666667,0,0,1.0666667,-1589.7432,-485.75401)"
           inkscape:export-xdpi="349.32202"
           inkscape:export-ydpi="349.32202">
          <g
             style="font-style:normal;font-weight:normal;font-size:40px;line-height:125%;font-family:sans-serif;letter-spacing:0px;word-spacing:0px;fill:#000000;fill-opacity:1;stroke:none;stroke-width:1px;stroke-linecap:butt;stroke-linejoin:miter;stroke-opacity:1"
             id="text4282">
            <path
               style="font-style:normal;font-variant:normal;font-weight:100;font-stretch:normal;font-size:17.5px;font-family:Glasgow-Medium;-inkscape-font-specification:'Glasgow-Medium Thin';fill:#000000;fill-opacity:1"
               d="m 92.114811,4.385637 q -1.155,-0.525 -2.135,-0.525 -0.98,0 -1.5575,0.455 -0.5775,0.455 -0.5775,1.2075 0,0.63 0.3325,0.9625 0.28,0.245 0.7,0.5075 l 1.1375,0.56 q 0.7525,0.3325 1.26,0.6125 0.525,0.28 1.3125,0.8925 0.805,0.595 0.805,2.24 0,1.715 -1.2425,2.8 -1.2425,1.085 -3.2025,1.085 -1.3475,0 -3.325,-0.735 l 0.56,-1.7675 q 1.5225,0.735 2.695,0.735 0.9275,0 1.54,-0.4725 0.6125,-0.49 0.6125,-1.2775 0,-0.7175 -0.5075,-1.1725 l -0.7,-0.4375 -1.26,-0.63 q -0.91,-0.42 -1.2775,-0.6475 -0.35,-0.245 -1.0325,-0.8925 -0.665,-0.665 -0.665,-2.1 0,-1.6275 1.1375,-2.625 1.1375,-1.015 3.045,-1.015 0.7175,0 1.3125,0.1225 0.4025,0.07 0.7175,0.1575 0.315,0.07 0.8575,0.245 z"
               id="path4309"
               inkscape:connector-curvature="0" />
            <path
               style="font-style:normal;font-variant:normal;font-weight:100;font-stretch:normal;font-size:17.5px;font-family:Glasgow-Medium;-inkscape-font-specification:'Glasgow-Medium Thin';fill:#000000;fill-opacity:1"
               d="m 98.346451,5.838137 q 3.937499,0 3.937499,4.6725 0,4.69 -3.937499,4.69 -3.9025,0 -3.9025,-4.69 0,-4.6725 3.9025,-4.6725 z m -1.75,4.6725 q 0,3.2025 1.75,3.2025 1.767499,0 1.767499,-3.2025 0,-3.185 -1.767499,-3.185 -1.75,0 -1.75,3.185 z"
               id="path4311"
               inkscape:connector-curvature="0" />
            <path
               style="font-style:normal;font-variant:normal;font-weight:100;font-stretch:normal;font-size:17.5px;font-family:Glasgow-Medium;-inkscape-font-specification:'Glasgow-Medium Thin';fill:#000000;fill-opacity:1"
               d="m 102.92407,6.065637 h 1.0325 v -1.2775 q 0,-2.59 2.66,-2.59 l 0.84,0.0525 0.8575,0.14 -0.35,1.47 -0.7875,-0.1225 q -1.155,0 -1.155,1.3125 v 1.015 h 1.925 v 1.3825 l -1.925,0.1225 v 7.385 h -2.0475 v -7.4025 l -1.05,-0.0875 z"
               id="path4314"
               inkscape:connector-curvature="0" />
            <path
               style="font-style:normal;font-variant:normal;font-weight:100;font-stretch:normal;font-size:17.5px;font-family:Glasgow-Medium;-inkscape-font-specification:'Glasgow-Medium Thin';fill:#000000;fill-opacity:1"
               d="m 107.34993,6.065637 h 1.015 v -1.4 l 2.065,-0.2975 v 1.6975 h 1.6275 v 1.33 l -1.6275,0.1575 v 4.935 l 0.0175,0.5775 q 0.105,0.5775 0.805,0.5775 0.315,0 0.8225,-0.1575 v 1.435 l -0.7875,0.175 -0.7525,0.07 q -1.155,0 -1.68,-0.4725 -0.49,-0.49 -0.49,-1.575 v -5.5825 l -1.015,-0.105 z"
               id="path4316"
               inkscape:connector-curvature="0" />
            <path
               style="font-style:normal;font-variant:normal;font-weight:100;font-stretch:normal;font-size:17.5px;font-family:Glasgow-Medium;-inkscape-font-specification:'Glasgow-Medium Thin';fill:#000000;fill-opacity:1"
               d="m 114.35676,5.855637 1.3125,5.88 0.105,0.56 0.0525,0.63 q 0,-0.49 0.035,-0.6475 l 0.1575,-0.56 1.4875,-5.6525 h 2.275 l 1.47,5.6175 0.175,1.2075 0.0525,-0.6825 0.105,-0.525 1.365,-5.6175 h 2.03 l -2.31,8.89 h -2.38 l -1.47,-5.6 -0.1575,-0.7525 -0.105,-0.8225 -0.035,0.3675 -0.0525,0.35 -0.105,0.7875 -1.4875,5.67 h -2.415 l -2.275,-8.8725 z"
               id="path4318"
               inkscape:connector-curvature="0" />
            <path
               style="font-style:normal;font-variant:normal;font-weight:100;font-stretch:normal;font-size:17.5px;font-family:Glasgow-Medium;-inkscape-font-specification:'Glasgow-Medium Thin';fill:#000000;fill-opacity:1"
               d="m 130.52116,8.848137 q 0,-0.4025 -0.0525,-0.56 -0.1575,-0.8575 -1.575,-0.8575 -0.525,0 -1.0675,0.105 -0.525,0.105 -1.26,0.385 l -0.525,-1.54 q 0.9625,-0.2625 1.785,-0.4025 0.84,-0.14 1.5225,-0.14 1.645,0 2.275,0.5075 0.63,0.5075 0.7875,0.945 0.1575,0.4375 0.1575,1.3475 v 6.3175 h -1.9425 l -0.0875,-0.7875 q -1.2075,1.015 -2.485,1.015 -1.295,0 -2.0825,-0.7875 -0.77,-0.7875 -0.77,-2.0475 0,-1.3475 0.8925,-2.1875 0.4375,-0.4025 1.0325,-0.6125 0.595,-0.21 1.3475,-0.21 0.98,0 2.0475,0.28 z m 0,1.855 -0.5775,-0.0875 -0.525,-0.0175 q -0.9275,0 -1.4875,0.4375 -0.56,0.42 -0.56,1.1725 0,0.6125 0.42,1.0325 0.42,0.3675 1.1375,0.3675 0.7175,0 1.5925,-0.5775 z"
               id="path4320"
               inkscape:connector-curvature="0" />
            <path
               style="font-style:normal;font-variant:normal;font-weight:100;font-stretch:normal;font-size:17.5px;font-family:Glasgow-Medium;-inkscape-font-specification:'Glasgow-Medium Thin';fill:#000000;fill-opacity:1"
               d="m 134.32071,6.083137 2.065,-0.1225 v 0.735 q 0.9625,-0.805 2.0125,-0.805 h 0.21 l -0.21,1.9075 -0.6125,-0.0525 q -0.735,0 -1.4,0.385 v 6.825 h -2.065 z"
               id="path4322"
               inkscape:connector-curvature="0" />
            <path
               style="font-style:normal;font-variant:normal;font-weight:100;font-stretch:normal;font-size:17.5px;font-family:Glasgow-Medium;-inkscape-font-specification:'Glasgow-Medium Thin';fill:#000000;fill-opacity:1"
               d="m 140.99833,11.193137 q 0.245,2.38 2.66,2.38 0.21,0 0.42,-0.0175 0.2275,-0.0175 0.56,-0.07 0.3325,-0.07 0.9625,-0.315 l 0.3675,1.505 q -1.47,0.4725 -2.8,0.4725 -2.1175,0 -3.2725,-1.26 -1.155,-1.26 -1.155,-3.535 0,-2.1175 0.9975,-3.3075 1.015,-1.19 2.8525,-1.19 1.7325,0 2.695,1.155 0.9625,1.155 0.9625,3.325 l -0.035,0.8575 z m -0.175,-1.33 h 3.43 v -0.0875 q 0,-2.4325 -1.68,-2.4325 -0.84,0 -1.295,0.665 -0.455,0.6475 -0.455,1.855 z"
               id="path4326"
               inkscape:connector-curvature="0" />
          </g>
          <g
             style="font-style:normal;font-weight:normal;font-size:40px;line-height:125%;font-family:sans-serif;letter-spacing:0px;word-spacing:0px;fill:#000000;fill-opacity:1;stroke:none;stroke-width:1px;stroke-linecap:butt;stroke-linejoin:miter;stroke-opacity:1"
             id="text4286">
            <path
               style="font-style:normal;font-variant:normal;font-weight:100;font-stretch:normal;font-size:17.5px;font-family:Glasgow-Medium;-inkscape-font-specification:'Glasgow-Medium Thin';fill:#000000;fill-opacity:1"
               d="m 86.024811,24.338135 h 3.5 q 1.7675,0 3.395,0.98 1.645,0.9625 1.645,5.285 0,3.2375 -1.2775,4.795 -1.26,1.5575 -3.9025,1.5575 h -3.36 z m 2.3275,10.92 h 1.1375 q 1.1025,0 1.575,-0.4725 0.49,-0.49 0.6825,-1.0325 0.21,-0.56 0.2975,-1.4175 l 0.07,-1.68 q 0,-3.1675 -0.7875,-3.885 -0.77,-0.735 -1.8025,-0.735 h -1.1725 z"
               id="path4329"
               inkscape:connector-curvature="0" />
            <path
               style="font-style:normal;font-variant:normal;font-weight:100;font-stretch:normal;font-size:17.5px;font-family:Glasgow-Medium;-inkscape-font-specification:'Glasgow-Medium Thin';fill:#000000;fill-opacity:1"
               d="m 98.00028,33.193135 q 0.245,2.38 2.66,2.38 0.21,0 0.42,-0.0175 0.2275,-0.0175 0.56,-0.07 0.3325,-0.07 0.9625,-0.315 l 0.3675,1.505 q -1.47,0.4725 -2.8,0.4725 -2.1175,0 -3.2725,-1.26 -1.155,-1.26 -1.155,-3.535 0,-2.1175 0.9975,-3.3075 1.015,-1.19 2.8525,-1.19 1.7325,0 2.695,1.155 0.9625,1.155 0.9625,3.325 l -0.035,0.8575 z m -0.175,-1.33 h 3.43 v -0.0875 q 0,-2.4325 -1.68,-2.4325 -0.84,0 -1.295,0.665 -0.455,0.6475 -0.455,1.855 z"
               id="path4331"
               inkscape:connector-curvature="0" />
            <path
               style="font-style:normal;font-variant:normal;font-weight:100;font-stretch:normal;font-size:17.5px;font-family:Glasgow-Medium;-inkscape-font-specification:'Glasgow-Medium Thin';fill:#000000;fill-opacity:1"
               d="m 105.66938,27.855635 1.6975,6.1075 q 0.105,0.3325 0.21,1.26 l 0.0875,-0.6475 q 0.0525,-0.4025 0.14,-0.6125 l 1.6625,-5.8975 h 2.1 l -2.765,8.89 h -2.6075 l -2.7125,-8.8725 z"
               id="path4333"
               inkscape:connector-curvature="0" />
            <path
               style="font-style:normal;font-variant:normal;font-weight:100;font-stretch:normal;font-size:17.5px;font-family:Glasgow-Medium;-inkscape-font-specification:'Glasgow-Medium Thin';fill:#000000;fill-opacity:1"
               d="m 114.20145,33.193135 q 0.245,2.38 2.66,2.38 0.21,0 0.42,-0.0175 0.2275,-0.0175 0.56,-0.07 0.3325,-0.07 0.9625,-0.315 l 0.3675,1.505 q -1.47,0.4725 -2.8,0.4725 -2.1175,0 -3.2725,-1.26 -1.155,-1.26 -1.155,-3.535 0,-2.1175 0.9975,-3.3075 1.015,-1.19 2.8525,-1.19 1.7325,0 2.695,1.155 0.9625,1.155 0.9625,3.325 l -0.035,0.8575 z m -0.175,-1.33 h 3.43 v -0.0875 q 0,-2.4325 -1.68,-2.4325 -0.84,0 -1.295,0.665 -0.455,0.6475 -0.455,1.855 z"
               id="path4335"
               inkscape:connector-curvature="0" />
            <path
               style="font-style:normal;font-variant:normal;font-weight:100;font-stretch:normal;font-size:17.5px;font-family:Glasgow-Medium;-inkscape-font-specification:'Glasgow-Medium Thin';fill:#000000;fill-opacity:1"
               d="m 120.78555,24.373135 2.03,-0.2275 v 12.81 h -2.03 z"
               id="path4337"
               inkscape:connector-curvature="0" />
            <path
               style="font-style:normal;font-variant:normal;font-weight:100;font-stretch:normal;font-size:17.5px;font-family:Glasgow-Medium;-inkscape-font-specification:'Glasgow-Medium Thin';fill:#000000;fill-opacity:1"
               d="m 128.2195,27.838135 q 3.9375,0 3.9375,4.6725 0,4.69 -3.9375,4.69 -3.9025,0 -3.9025,-4.69 0,-4.6725 3.9025,-4.6725 z m -1.75,4.6725 q 0,3.2025 1.75,3.2025 1.7675,0 1.7675,-3.2025 0,-3.185 -1.7675,-3.185 -1.75,0 -1.75,3.185 z"
               id="path4339"
               inkscape:connector-curvature="0" />
            <path
               style="font-style:normal;font-variant:normal;font-weight:100;font-stretch:normal;font-size:17.5px;font-family:Glasgow-Medium;-inkscape-font-specification:'Glasgow-Medium Thin';fill:#000000;fill-opacity:1"
               d="m 133.63712,28.083135 1.9775,-0.21 0.0875,0.7875 q 0.5075,-0.385 1.015,-0.6125 0.525,-0.175 1.05,-0.175 1.54,0 2.4675,1.2775 0.945,1.2775 0.945,3.4125 0,2.065 -0.91,3.3425 -0.8925,1.26 -2.3975,1.26 -1.0675,0 -2.205,-0.84 v 3.9025 h -2.03 z m 2.065,6.755 q 0.42,0.2275 0.7875,0.3675 0.4025,0.1225 0.665,0.1225 1.8375,0 1.8375,-2.8 0,-1.3125 -0.5075,-2.0825 -0.5075,-0.77 -1.3825,-0.77 -0.63,0 -1.4,0.49 z"
               id="path4341"
               inkscape:connector-curvature="0" />
            <path
               style="font-style:normal;font-variant:normal;font-weight:100;font-stretch:normal;font-size:17.5px;font-family:Glasgow-Medium;-inkscape-font-specification:'Glasgow-Medium Thin';fill:#000000;fill-opacity:1"
               d="m 142.66055,28.083135 2.065,-0.2275 v 0.665 q 1.1375,-0.7 2.205,-0.7 1.4175,0 2.2225,1.015 1.33,-0.98 2.695,-0.98 1.2775,0 1.8025,0.5775 0.525,0.5775 0.665,1.0675 0.0525,0.2275 0.0875,0.5775 0.035,0.3325 0.035,0.7875 v 6.09 h -2.065 v -5.5825 l -0.035,-0.7875 q -0.07,-0.4725 -0.4375,-0.77 -0.3675,-0.2975 -0.8575,-0.2975 -0.735,0 -1.505,0.63 v 6.8075 h -2.0475 v -5.5825 l -0.035,-0.77 q -0.0525,-0.455 -0.4375,-0.77 -0.3675,-0.315 -0.8925,-0.315 -0.6825,0 -1.435,0.5425 v 6.895 h -2.03 z"
               id="path4343"
               inkscape:connector-curvature="0" />
            <path
               style="font-style:normal;font-variant:normal;font-weight:100;font-stretch:normal;font-size:17.5px;font-family:Glasgow-Medium;-inkscape-font-specification:'Glasgow-Medium Thin';fill:#000000;fill-opacity:1"
               d="m 158.19071,33.193135 q 0.245,2.38 2.66,2.38 0.21,0 0.42,-0.0175 0.2275,-0.0175 0.56,-0.07 0.3325,-0.07 0.9625,-0.315 l 0.3675,1.505 q -1.47,0.4725 -2.8,0.4725 -2.1175,0 -3.2725,-1.26 -1.155,-1.26 -1.155,-3.535 0,-2.1175 0.9975,-3.3075 1.015,-1.19 2.8525,-1.19 1.7325,0 2.695,1.155 0.9625,1.155 0.9625,3.325 l -0.035,0.8575 z m -0.175,-1.33 h 3.43 v -0.0875 q 0,-2.4325 -1.68,-2.4325 -0.84,0 -1.295,0.665 -0.455,0.6475 -0.455,1.855 z"
               id="path4345"
               inkscape:connector-curvature="0" />
            <path
               style="font-style:normal;font-variant:normal;font-weight:100;font-stretch:normal;font-size:17.5px;font-family:Glasgow-Medium;-inkscape-font-specification:'Glasgow-Medium Thin';fill:#000000;fill-opacity:1"
               d="m 164.77481,28.083135 2.03,-0.2275 v 0.7525 q 1.3475,-0.7875 2.4675,-0.7875 1.2775,0 1.82,0.525 0.5425,0.525 0.7175,1.05 0.175,0.525 0.175,1.365 v 6.195 h -2.065 v -5.67 l -0.035,-0.735 q -0.0875,-0.4725 -0.4725,-0.7525 -0.3675,-0.28 -0.91,-0.28 -0.7,0 -1.6975,0.63 v 6.8075 h -2.03 z"
               id="path4347"
               inkscape:connector-curvature="0" />
            <path
               style="font-style:normal;font-variant:normal;font-weight:100;font-stretch:normal;font-size:17.5px;font-family:Glasgow-Medium;-inkscape-font-specification:'Glasgow-Medium Thin';fill:#000000;fill-opacity:1"
               d="m 172.87239,28.065635 h 1.015 v -1.4 l 2.065,-0.2975 v 1.6975 h 1.6275 v 1.33 l -1.6275,0.1575 v 4.935 l 0.0175,0.5775 q 0.105,0.5775 0.805,0.5775 0.315,0 0.8225,-0.1575 v 1.435 l -0.7875,0.175 -0.7525,0.07 q -1.155,0 -1.68,-0.4725 -0.49,-0.49 -0.49,-1.575 v -5.5825 l -1.015,-0.105 z"
               id="path4349"
               inkscape:connector-curvature="0" />
          </g>
          <g
             style="font-style:normal;font-weight:normal;font-size:40px;line-height:125%;font-family:sans-serif;letter-spacing:0px;word-spacing:0px;fill:#000000;fill-opacity:1;stroke:none;stroke-width:1px;stroke-linecap:butt;stroke-linejoin:miter;stroke-opacity:1"
             id="text4290">
            <path
               style="font-style:normal;font-variant:normal;font-weight:100;font-stretch:normal;font-size:17.5px;font-family:Glasgow-Medium;-inkscape-font-specification:'Glasgow-Medium Thin';fill:#000000;fill-opacity:1"
               d="m 93.532311,48.648135 q -1.3475,-0.805 -2.52,-0.805 -0.6825,0 -1.365,0.385 -0.6825,0.3675 -1.0675,1.47 -0.385,1.085 -0.385,3.0625 0,2.4675 0.63,3.57 0.63,1.085 2.1,1.085 0.8925,0 1.68,-0.4025 v -3.4825 h -2.45 v -1.5925 h 4.62 v 6.3 q -1.0675,0.42 -2.205,0.7175 -0.385,0.0875 -0.9275,0.1575 -0.525,0.07 -0.91,0.07 -2.4675,0 -3.7625,-1.61 -1.2775,-1.6275 -1.2775,-4.76 0,-3.255 1.2775,-4.9525 1.2775,-1.715 3.7275,-1.715 1.7325,0 3.4825,1.015 z"
               id="path4352"
               inkscape:connector-curvature="0" />
            <path
               style="font-style:normal;font-variant:normal;font-weight:100;font-stretch:normal;font-size:17.5px;font-family:Glasgow-Medium;-inkscape-font-specification:'Glasgow-Medium Thin';fill:#000000;fill-opacity:1"
               d="m 96.517975,50.083135 2.065,-0.1225 v 0.735 q 0.9625,-0.805 2.012495,-0.805 h 0.21 l -0.21,1.9075 -0.612495,-0.0525 q -0.735,0 -1.4,0.385 v 6.825 h -2.065 z"
               id="path4354"
               inkscape:connector-curvature="0" />
            <path
               style="font-style:normal;font-variant:normal;font-weight:100;font-stretch:normal;font-size:17.5px;font-family:Glasgow-Medium;-inkscape-font-specification:'Glasgow-Medium Thin';fill:#000000;fill-opacity:1"
               d="m 104.84059,49.838135 q 3.9375,0 3.9375,4.6725 0,4.69 -3.9375,4.69 -3.9025,0 -3.9025,-4.69 0,-4.6725 3.9025,-4.6725 z m -1.75,4.6725 q 0,3.2025 1.75,3.2025 1.7675,0 1.7675,-3.2025 0,-3.185 -1.7675,-3.185 -1.75,0 -1.75,3.185 z"
               id="path4356"
               inkscape:connector-curvature="0" />
            <path
               style="font-style:normal;font-variant:normal;font-weight:100;font-stretch:normal;font-size:17.5px;font-family:Glasgow-Medium;-inkscape-font-specification:'Glasgow-Medium Thin';fill:#000000;fill-opacity:1"
               d="m 112.95321,59.165635 q -2.695,0 -2.695,-2.695 v -6.3875 l 2.065,-0.2275 v 6.0725 q 0,0.84 0.315,1.2075 0.315,0.35 1.12,0.35 0.77,0 1.645,-0.595 v -6.825 h 2.065 v 8.89 h -2.0475 l -0.0175,-0.5425 q -1.295,0.7525 -2.45,0.7525 z"
               id="path4358"
               inkscape:connector-curvature="0" />
            <path
               style="font-style:normal;font-variant:normal;font-weight:100;font-stretch:normal;font-size:17.5px;font-family:Glasgow-Medium;-inkscape-font-specification:'Glasgow-Medium Thin';fill:#000000;fill-opacity:1"
               d="m 119.21329,50.083135 1.9775,-0.21 0.0875,0.7875 q 0.5075,-0.385 1.015,-0.6125 0.525,-0.175 1.05,-0.175 1.54,0 2.4675,1.2775 0.945,1.2775 0.945,3.4125 0,2.065 -0.91,3.3425 -0.8925,1.26 -2.3975,1.26 -1.0675,0 -2.205,-0.84 v 3.9025 h -2.03 z m 2.065,6.755 q 0.42,0.2275 0.7875,0.3675 0.4025,0.1225 0.665,0.1225 1.8375,0 1.8375,-2.8 0,-1.3125 -0.5075,-2.0825 -0.5075,-0.77 -1.3825,-0.77 -0.63,0 -1.4,0.49 z"
               id="path4360"
               inkscape:connector-curvature="0" />
          </g>
        </g>
        <rect
           style="opacity:1;fill:#333333;fill-opacity:1;stroke:none;stroke-width:0.53333336;stroke-linecap:square;stroke-linejoin:round;stroke-miterlimit:4;stroke-dasharray:none;stroke-dashoffset:0;stroke-opacity:1"
           height="3.2"
           id="rect4294"
           ry="0"
           transform="matrix(-0.70710678,0.70710678,0.70710678,0.70710678,0,0)"
           width="22.400002"
           x="753.58661"
           y="-1423.6565"
           inkscape:export-xdpi="349.32202"
           inkscape:export-ydpi="349.32202" />
        <rect
           style="opacity:1;fill:#333333;fill-opacity:1;stroke:none;stroke-width:0.53333336;stroke-linecap:square;stroke-linejoin:round;stroke-miterlimit:4;stroke-dasharray:none;stroke-dashoffset:0;stroke-opacity:1"
           height="3.2"
           id="rect4296"
           ry="0"
           width="11.733334"
           x="-1528.9432"
           y="-478.12134"
           inkscape:export-xdpi="349.32202"
           inkscape:export-ydpi="349.32202" />
        <path
           style="opacity:1;fill:#559bbd;fill-opacity:1;stroke:none;stroke-width:0.53333336;stroke-linecap:square;stroke-linejoin:round;stroke-miterlimit:4;stroke-dasharray:none;stroke-dashoffset:0;stroke-opacity:1"
           d="m -1511.3432,-484.52133 a 8.0000003,8.0000003 0 0 0 -8,8 8.0000003,8.0000003 0 0 0 8,8 8.0000003,8.0000003 0 0 0 8,-8 8.0000003,8.0000003 0 0 0 -8,-8 z m 0,3.2 c 2.6592,0 4.8,2.1408 4.8,4.8 0,2.6592 -2.1408,4.8 -4.8,4.8 -2.6592,0 -4.8,-2.1408 -4.8,-4.8 0,-2.6592 2.1408,-4.8 4.8,-4.8 z"
           id="path4298"
           inkscape:connector-curvature="0"
           inkscape:export-xdpi="349.32202"
           inkscape:export-ydpi="349.32202" />
        <path
           style="opacity:1;fill:#862174;fill-opacity:1;stroke:none;stroke-width:0.53333336;stroke-linecap:square;stroke-linejoin:round;stroke-miterlimit:4;stroke-dasharray:none;stroke-dashoffset:0;stroke-opacity:1"
           d="m -1558.2765,-461.05466 a 8.0000003,8.0000003 0 0 0 -8,8 8.0000003,8.0000003 0 0 0 8,8 8.0000003,8.0000003 0 0 0 8,-8 8.0000003,8.0000003 0 0 0 -8,-8 z m 0,3.2 c 2.6591,0 4.8,2.1408 4.8,4.8 0,2.6592 -2.1409,4.8 -4.8,4.8 -2.6592,0 -4.8,-2.1408 -4.8,-4.8 0,-2.6592 2.1408,-4.8 4.8,-4.8 z"
           id="path4300"
           inkscape:connector-curvature="0"
           inkscape:export-xdpi="349.32202"
           inkscape:export-ydpi="349.32202" />
        <path
           style="opacity:1;fill:#78a22f;fill-opacity:1;stroke:none;stroke-width:0.53333336;stroke-linecap:square;stroke-linejoin:round;stroke-miterlimit:4;stroke-dasharray:none;stroke-dashoffset:0;stroke-opacity:1"
           d="m -1534.8099,-484.52133 a 8.0000003,8.0000003 0 0 0 -8,8 8.0000003,8.0000003 0 0 0 8,8 8.0000003,8.0000003 0 0 0 8,-8 8.0000003,8.0000003 0 0 0 -8,-8 z m 0,3.2 c 2.6592,0 4.8,2.1408 4.8,4.8 0,2.6592 -2.1408,4.8 -4.8,4.8 -2.6592,0 -4.8,-2.1408 -4.8,-4.8 0,-2.6592 2.1408,-4.8 4.8,-4.8 z"
           id="path4302"
           inkscape:connector-curvature="0"
           inkscape:export-xdpi="349.32202"
           inkscape:export-ydpi="349.32202" />
        <path
           style="opacity:1;fill:#00acef;fill-opacity:1;stroke:none;stroke-width:0.53333336;stroke-linecap:square;stroke-linejoin:round;stroke-miterlimit:4;stroke-dasharray:none;stroke-dashoffset:0;stroke-opacity:1"
           d="m -1511.3432,-437.588 a 8.0000003,8.0000003 0 0 0 -8,8 8.0000003,8.0000003 0 0 0 8,8 8.0000003,8.0000003 0 0 0 8,-8 8.0000003,8.0000003 0 0 0 -8,-8 z m 0,3.2 c 2.6592,0 4.8,2.1408 4.8,4.8 0,2.6592 -2.1408,4.8 -4.8,4.8 -2.6592,0 -4.8,-2.1408 -4.8,-4.8 0,-2.6592 2.1408,-4.8 4.8,-4.8 z"
           id="path4304"
           inkscape:connector-curvature="0"
           inkscape:export-xdpi="349.32202"
           inkscape:export-ydpi="349.32202" />
      </g>
      <a
         style="opacity:0;fill:#ffffff;fill-opacity:1"
         id="a4687"
         target="_blank"
         xlink:href="https://ics.hutton.ac.uk/"
         xlink:title="Information &amp; Computational Sciences">
        <rect
           style="opacity:0.78800001;fill:#ffffff;fill-opacity:1;stroke:none;stroke-width:2.70664811;stroke-miterlimit:4;stroke-dasharray:none;stroke-opacity:1"
           height="25.927999"
           id="rect4685"
           width="69.375999"
           x="-1261.5291"
           y="-338.7627" />
      </a>
    </g>
  </g>
</svg>
