<?xml version="1.0" encoding="UTF-8" standalone="no"?>
<!-- Created with Inkscape (http://www.inkscape.org/) -->

<svg
   xmlns:dc="http://purl.org/dc/elements/1.1/"
   xmlns:cc="http://creativecommons.org/ns#"
   xmlns:rdf="http://www.w3.org/1999/02/22-rdf-syntax-ns#"
   xmlns:svg="http://www.w3.org/2000/svg"
   xmlns="http://www.w3.org/2000/svg"
   xmlns:xlink="http://www.w3.org/1999/xlink"
   xmlns:sodipodi="http://sodipodi.sourceforge.net/DTD/sodipodi-0.dtd"
   xmlns:inkscape="http://www.inkscape.org/namespaces/inkscape"
   width="1330.87"
   height="649.73999"
   id="svg3305"
   version="1.1"
   inkscape:version="0.48.4 r9939"
   sodipodi:docname="Infrastructure_v2.pdf">
  <defs
     id="defs3307">
    <filter
       inkscape:collect="always"
       id="filter6093"
       x="-0.064257026"
       width="1.1285141"
       y="-0.19277108"
       height="1.3855422"
       color-interpolation-filters="sRGB">
      <feGaussianBlur
         inkscape:collect="always"
         stdDeviation="0.89250425"
         id="feGaussianBlur6095" />
    </filter>
    <linearGradient
       inkscape:collect="always"
       xlink:href="#linearGradient5495"
       id="linearGradient4130"
       gradientUnits="userSpaceOnUse"
       gradientTransform="matrix(1.1818182,0,0,1.1818182,-30.64896,-69.394391)"
       spreadMethod="reflect"
       x1="269.96979"
       y1="511.96591"
       x2="286.62845"
       y2="511.96591" />
    <linearGradient
       id="linearGradient5495"
       inkscape:collect="always">
      <stop
         id="stop5497"
         offset="0"
         style="stop-color:#c6c6c6;stop-opacity:1" />
      <stop
         style="stop-color:#e3e3e3;stop-opacity:1"
         offset="0.20484632"
         id="stop5501" />
      <stop
         id="stop5499"
         offset="1"
         style="stop-color:#a5a5a8;stop-opacity:1" />
    </linearGradient>
    <linearGradient
       inkscape:collect="always"
       xlink:href="#linearGradient5466"
       id="linearGradient4132"
       gradientUnits="userSpaceOnUse"
       x1="282.35706"
       y1="518.55707"
       x2="286.6308"
       y2="527.33539" />
    <linearGradient
       inkscape:collect="always"
       id="linearGradient5466">
      <stop
         style="stop-color:#e3e3e3;stop-opacity:1"
         offset="0"
         id="stop5468" />
      <stop
         style="stop-color:#a5a5a8;stop-opacity:1"
         offset="1"
         id="stop5470" />
    </linearGradient>
    <linearGradient
       inkscape:collect="always"
       xlink:href="#linearGradient6035"
       id="linearGradient4134"
       gradientUnits="userSpaceOnUse"
       gradientTransform="translate(0,0.25)"
       spreadMethod="reflect"
       x1="308.5"
       y1="522.61218"
       x2="327.78125"
       y2="520.32812" />
    <linearGradient
       id="linearGradient6035">
      <stop
         style="stop-color:#ffffff;stop-opacity:1;"
         offset="0"
         id="stop6037" />
      <stop
         style="stop-color:#ffffff;stop-opacity:0;"
         offset="1"
         id="stop6039" />
    </linearGradient>
    <linearGradient
       inkscape:collect="always"
       xlink:href="#linearGradient6035"
       id="linearGradient4136"
       gradientUnits="userSpaceOnUse"
       gradientTransform="translate(0,12)"
       spreadMethod="reflect"
       x1="308.5"
       y1="522.61218"
       x2="327.78125"
       y2="520.32812" />
    <linearGradient
       id="linearGradient3147">
      <stop
         style="stop-color:#ffffff;stop-opacity:1;"
         offset="0"
         id="stop3149" />
      <stop
         style="stop-color:#ffffff;stop-opacity:0;"
         offset="1"
         id="stop3151" />
    </linearGradient>
    <linearGradient
       inkscape:collect="always"
       xlink:href="#linearGradient6035"
       id="linearGradient4138"
       gradientUnits="userSpaceOnUse"
       gradientTransform="translate(0,22)"
       spreadMethod="reflect"
       x1="308.5"
       y1="522.61218"
       x2="327.78125"
       y2="520.32812" />
    <linearGradient
       id="linearGradient3154">
      <stop
         style="stop-color:#ffffff;stop-opacity:1;"
         offset="0"
         id="stop3156" />
      <stop
         style="stop-color:#ffffff;stop-opacity:0;"
         offset="1"
         id="stop3158" />
    </linearGradient>
    <linearGradient
       inkscape:collect="always"
       xlink:href="#linearGradient5495"
       id="linearGradient4096"
       gradientUnits="userSpaceOnUse"
       gradientTransform="matrix(1.1818182,0,0,1.1818182,-30.64896,-69.394391)"
       spreadMethod="reflect"
       x1="269.96979"
       y1="511.96591"
       x2="286.62845"
       y2="511.96591" />
    <linearGradient
       inkscape:collect="always"
       xlink:href="#linearGradient5466"
       id="linearGradient4098"
       gradientUnits="userSpaceOnUse"
       x1="282.35706"
       y1="518.55707"
       x2="286.6308"
       y2="527.33539" />
    <linearGradient
       inkscape:collect="always"
       xlink:href="#linearGradient6035"
       id="linearGradient4100"
       gradientUnits="userSpaceOnUse"
       gradientTransform="translate(0,0.25)"
       spreadMethod="reflect"
       x1="308.5"
       y1="522.61218"
       x2="327.78125"
       y2="520.32812" />
    <linearGradient
       id="linearGradient3181">
      <stop
         style="stop-color:#ffffff;stop-opacity:1;"
         offset="0"
         id="stop3183" />
      <stop
         style="stop-color:#ffffff;stop-opacity:0;"
         offset="1"
         id="stop3185" />
    </linearGradient>
    <linearGradient
       inkscape:collect="always"
       xlink:href="#linearGradient6035"
       id="linearGradient4102"
       gradientUnits="userSpaceOnUse"
       gradientTransform="translate(0,12)"
       spreadMethod="reflect"
       x1="308.5"
       y1="522.61218"
       x2="327.78125"
       y2="520.32812" />
    <linearGradient
       id="linearGradient3188">
      <stop
         style="stop-color:#ffffff;stop-opacity:1;"
         offset="0"
         id="stop3190" />
      <stop
         style="stop-color:#ffffff;stop-opacity:0;"
         offset="1"
         id="stop3192" />
    </linearGradient>
    <linearGradient
       inkscape:collect="always"
       xlink:href="#linearGradient6035"
       id="linearGradient4104"
       gradientUnits="userSpaceOnUse"
       gradientTransform="translate(0,22)"
       spreadMethod="reflect"
       x1="308.5"
       y1="522.61218"
       x2="327.78125"
       y2="520.32812" />
    <linearGradient
       id="linearGradient3195">
      <stop
         style="stop-color:#ffffff;stop-opacity:1;"
         offset="0"
         id="stop3197" />
      <stop
         style="stop-color:#ffffff;stop-opacity:0;"
         offset="1"
         id="stop3199" />
    </linearGradient>
  </defs>
  <sodipodi:namedview
     id="base"
     pagecolor="#ffffff"
     bordercolor="#666666"
     borderopacity="1.0"
     inkscape:pageopacity="0.0"
     inkscape:pageshadow="2"
     inkscape:zoom="5.5282292"
     inkscape:cx="379.77211"
     inkscape:cy="56.61696"
     inkscape:document-units="px"
     inkscape:current-layer="layer1"
     showgrid="true"
     fit-margin-top="0"
     fit-margin-left="0"
     fit-margin-right="0"
     fit-margin-bottom="0"
     inkscape:window-width="1858"
     inkscape:window-height="1058"
     inkscape:window-x="54"
     inkscape:window-y="-8"
     inkscape:window-maximized="1">
    <inkscape:grid
       type="xygrid"
       id="grid3618"
       empspacing="5"
       visible="true"
       enabled="true"
       snapvisiblegridlinesonly="true"
       originx="0px"
       originy="0px" />
  </sodipodi:namedview>
  <metadata
     id="metadata3310">
    <rdf:RDF>
      <cc:Work
         rdf:about="">
        <dc:format>image/svg+xml</dc:format>
        <dc:type
           rdf:resource="http://purl.org/dc/dcmitype/StillImage" />
        <dc:title></dc:title>
      </cc:Work>
    </rdf:RDF>
  </metadata>
  <g
     inkscape:label="Layer 1"
     inkscape:groupmode="layer"
     id="layer1"
     transform="translate(1269.008,803.93484)">
    <rect
       style="fill:#4d4d4d;fill-opacity:1;fill-rule:nonzero;stroke:none"
       id="rect3759"
       width="200"
       height="200"
       x="-1139.0079"
       y="374.19485"
       ry="15"
       transform="scale(1,-1)" />
    <g
       id="g3767"
       style="fill:#ffffff"
       transform="matrix(1,0,0,-1,-1139.008,-306.83268)">
      <path
         sodipodi:nodetypes="cccc"
         inkscape:connector-curvature="0"
         id="path2987"
         d="m 0,127.36218 20,-15 0,30 z"
         style="fill:#ffffff;fill-opacity:1;stroke:none" />
      <rect
         y="122.36218"
         x="20"
         height="10"
         width="180"
         id="rect3757"
         style="fill:#ffffff;fill-opacity:1;fill-rule:nonzero;stroke:none" />
    </g>
    <g
       style="fill:#ffffff"
       id="g3771"
       transform="matrix(-1,0,0,-1,-939.008,-386.83268)">
      <path
         style="fill:#ffffff;fill-opacity:1;stroke:none"
         d="m 0,127.36218 20,-15 0,30 z"
         id="path3773"
         inkscape:connector-curvature="0"
         sodipodi:nodetypes="cccc" />
      <rect
         style="fill:#ffffff;fill-opacity:1;fill-rule:nonzero;stroke:none"
         id="rect3775"
         width="180"
         height="10"
         x="20"
         y="122.36218" />
    </g>
    <rect
       ry="15"
       y="154.19487"
       x="939.00793"
       height="200"
       width="200"
       id="rect3788"
       style="fill:#4d4d4d;fill-opacity:1;fill-rule:nonzero;stroke:none"
       transform="scale(-1,-1)" />
    <g
       style="fill:#ffffff"
       id="g3790"
       transform="matrix(-1,0,0,-1,-939.008,-86.832679)">
      <path
         style="fill:#ffffff;fill-opacity:1;stroke:none"
         d="m 0,127.36218 20,-15 0,30 z"
         id="path3792"
         inkscape:connector-curvature="0"
         sodipodi:nodetypes="cccc" />
      <rect
         style="fill:#ffffff;fill-opacity:1;fill-rule:nonzero;stroke:none"
         id="rect3794"
         width="180"
         height="10"
         x="20"
         y="122.36218" />
    </g>
    <g
       transform="matrix(1,0,0,-1,-1139.008,-166.83268)"
       id="g3796"
       style="fill:#ffffff">
      <path
         sodipodi:nodetypes="cccc"
         inkscape:connector-curvature="0"
         id="path3798"
         d="m 0,127.36218 20,-15 0,30 z"
         style="fill:#ffffff;fill-opacity:1;stroke:none" />
      <rect
         y="122.36218"
         x="20"
         height="10"
         width="180"
         id="rect3800"
         style="fill:#ffffff;fill-opacity:1;fill-rule:nonzero;stroke:none" />
    </g>
    <rect
       ry="15"
       y="-464.19485"
       x="-689.00793"
       height="200"
       width="200"
       id="rect3853"
       style="fill:#4d4d4d;fill-opacity:1;fill-rule:nonzero;stroke:none" />
    <g
       id="g4022"
       transform="translate(-1139.008,-661.55704)">
      <path
         sodipodi:nodetypes="cccc"
         inkscape:connector-curvature="0"
         id="path3863"
         d="m 450,337.36218 20,-15 0,30 z"
         style="fill:#ffffff;fill-opacity:1;stroke:none" />
      <rect
         y="332.36218"
         x="470"
         height="10"
         width="180"
         id="rect3865"
         style="fill:#ffffff;fill-opacity:1;fill-rule:nonzero;stroke:none" />
    </g>
    <path
       inkscape:connector-curvature="0"
       style="fill:#ffffff;fill-opacity:1;fill-rule:nonzero;stroke:none"
       d="m -644.00795,-444.18204 0,14.96875 0,0.0312 c -0.0168,5.50848 -4.48757,9.96875 -10,9.96875 l 0,0.0312 -35,0 0,10 35,0 0,-0.0312 c 0.34518,0 0.69037,0.0173 1.03125,0 10.5571,-0.53514 18.9524,-9.28243 18.96875,-19.96875 2e-5,-0.0104 0,-0.0208 0,-0.0312 l 0,-14.96875 -10,0 z"
       id="path3840" />
    <path
       sodipodi:nodetypes="cccc"
       inkscape:connector-curvature="0"
       id="path3880"
       d="m -639.00795,-464.19486 -15,20 30,0 z"
       style="fill:#ffffff;fill-opacity:1;stroke:none" />
    <g
       id="g3889"
       transform="matrix(0,1,-1,0,-301.63305,-914.19486)">
      <path
         style="fill:#ffffff;fill-opacity:1;fill-rule:nonzero;stroke:none"
         d="m 495,207.375 0,14.96875 0,0.0312 c -0.0168,5.50848 -4.48757,9.96875 -10,9.96875 l 0,0.0312 -35,0 0,10 35,0 0,-0.0312 c 0.34518,0 0.69037,0.0173 1.03125,0 10.5571,-0.53514 18.9524,-9.28243 18.96875,-19.96875 2e-5,-0.0104 0,-0.0208 0,-0.0312 l 0,-14.96875 -10,0 z"
         id="path3891"
         inkscape:connector-curvature="0" />
      <path
         sodipodi:nodetypes="cccc"
         inkscape:connector-curvature="0"
         id="path3893"
         d="m 500,187.36218 -15,20 30,0 z"
         style="fill:#ffffff;fill-opacity:1;stroke:none" />
    </g>
    <path
       inkscape:connector-curvature="0"
       style="fill:#4d4d4d;fill-opacity:1;fill-rule:nonzero;stroke:none"
       d="m -759.00795,-429.18204 c 0,0.34518 -0.0173,0.69037 0,1.03125 0.28216,5.56644 2.85249,10.5157 6.78125,13.96875 -3.92008,3.45249 -6.49946,8.40958 -6.78125,13.96875 -0.0173,0.34088 0,0.68607 0,1.03125 l 10,0 c 0,-5.52285 4.47715,-10 10,-10 l 0,-10 c -5.52285,0 -10,-4.47715 -10,-10 l -10,0 z"
       id="path3973" />
    <path
       inkscape:connector-curvature="0"
       id="path3989"
       d="m -767.9767,-209.20255 c 10.5674,-0.53545 18.96875,-9.2959 18.96875,-19.99231 l -10,0 c 0,5.52073 -4.47715,9.99616 -10,9.99616 l 0,9.99615 c 0.34518,0 0.69037,0.0173 1.03125,0 z"
       style="fill:#4d4d4d;fill-opacity:1;fill-rule:nonzero;stroke:none" />
    <rect
       style="fill:#4d4d4d;fill-opacity:1;fill-rule:nonzero;stroke:none"
       id="rect3992"
       width="30"
       height="10"
       x="-739.00793"
       y="-419.19485"
       ry="0" />
    <path
       style="fill:#4d4d4d;fill-opacity:1;fill-rule:nonzero;stroke:none"
       d="m -749.01564,-500.22611 c -0.53545,-10.5674 -9.2959,-18.96875 -19.99231,-18.96875 l 0,10 c 5.52073,0 9.99616,4.47715 9.99616,10 l 9.99615,0 c 0,-0.34518 0.0173,-0.69037 0,-1.03125 z"
       id="path3994"
       inkscape:connector-curvature="0" />
    <rect
       style="fill:#4d4d4d;fill-opacity:1;fill-rule:nonzero;stroke:none"
       id="rect3996"
       width="170"
       height="10"
       x="-939.00793"
       y="-519.19482" />
    <rect
       style="fill:#4d4d4d;fill-opacity:1;fill-rule:nonzero;stroke:none"
       id="rect3998"
       width="10"
       height="70"
       x="-759.00793"
       y="-499.19485" />
    <rect
       style="fill:#4d4d4d;fill-opacity:1;fill-rule:nonzero;stroke:none"
       id="rect4000"
       width="10"
       height="170"
       x="-759.00793"
       y="-399.19485" />
    <rect
       style="fill:#4d4d4d;fill-opacity:1;fill-rule:nonzero;stroke:none"
       id="rect4002"
       width="170"
       height="10"
       x="-939.00793"
       y="-219.19487" />
    <path
       sodipodi:nodetypes="cccc"
       inkscape:connector-curvature="0"
       id="path4004"
       d="m -689.00795,-414.19486 -20,-15 0,30 z"
       style="fill:#4d4d4d;fill-opacity:1;stroke:none" />
    <path
       id="path4006"
       d="m -839.00026,-339.19486 c 0,0.34518 -0.0173,0.69037 0,1.03125 0.28216,5.56644 2.85249,10.5157 6.78125,13.96875 -3.92008,3.45249 -6.49946,8.40958 -6.78125,13.96875 -0.0173,0.34088 0,0.68607 0,1.03125 l 10,0 c 0,-5.52285 4.47715,-10 10,-10 l 0,-10 c -5.52285,0 -10,-4.47715 -10,-10 l -10,0 z"
       style="fill:#4d4d4d;fill-opacity:1;fill-rule:nonzero;stroke:none"
       inkscape:connector-curvature="0" />
    <path
       style="fill:#4d4d4d;fill-opacity:1;fill-rule:nonzero;stroke:none"
       d="m -847.9767,-289.20255 c 10.5674,-0.53545 18.96875,-9.2959 18.96875,-19.99231 l -10,0 c 0,5.52073 -4.47715,9.99616 -10,9.99616 l 0,9.99615 c 0.34518,0 0.69037,0.0173 1.03125,0 z"
       id="path4026"
       inkscape:connector-curvature="0" />
    <rect
       style="fill:#4d4d4d;fill-opacity:1;fill-rule:nonzero;stroke:none"
       id="rect4028"
       width="70"
       height="10"
       x="-919.00793"
       y="-299.19485" />
    <path
       style="fill:#4d4d4d;fill-opacity:1;fill-rule:nonzero;stroke:none"
       d="M 450 474.75 L 450 484.75 L 508 484.75 L 508 474.75 L 450 474.75 z M 522 474.75 L 522 484.75 L 580 484.75 L 580 474.75 L 522 474.75 z "
       transform="translate(-1269.008,-803.93484)"
       id="rect4030" />
    <path
       inkscape:connector-curvature="0"
       id="path4032"
       d="m -829.01564,-420.22611 c -0.53545,-10.5674 -9.2959,-18.96875 -19.99231,-18.96875 l 0,10 c 5.52073,0 9.99616,4.47715 9.99616,10 l 9.99615,0 c 0,-0.34518 0.0173,-0.69037 0,-1.03125 z"
       style="fill:#4d4d4d;fill-opacity:1;fill-rule:nonzero;stroke:none" />
    <rect
       style="fill:#4d4d4d;fill-opacity:1;fill-rule:nonzero;stroke:none"
       id="rect4034"
       width="70"
       height="10"
       x="-919.00793"
       y="-439.19485" />
    <rect
       style="fill:#4d4d4d;fill-opacity:1;fill-rule:nonzero;stroke:none"
       id="rect4036"
       width="10"
       height="80"
       x="-839.00793"
       y="-419.19485" />
    <path
       style="fill:#4d4d4d;fill-opacity:1;stroke:none"
       d="m -939.008,-434.19486 20,-15 0,30 z"
       id="path4038"
       inkscape:connector-curvature="0"
       sodipodi:nodetypes="cccc" />
    <path
       sodipodi:nodetypes="cccc"
       inkscape:connector-curvature="0"
       id="path4040"
       d="m -939.008,-294.19486 20,-15 0,30 z"
       style="fill:#4d4d4d;fill-opacity:1;stroke:none" />
    <path
       sodipodi:nodetypes="cccc"
       inkscape:connector-curvature="0"
       id="path4042"
       d="m -639.00795,-614.19486 15,20 -30,0 z"
       style="fill:#4d4d4d;fill-opacity:1;stroke:none" />
    <rect
       style="fill:#4d4d4d;fill-opacity:1;fill-rule:nonzero;stroke:none"
       id="rect4046"
       width="10"
       height="130"
       x="-644.00793"
       y="-594.19489" />
    <path
       style="fill:#4d4d4d;fill-opacity:1;stroke:none"
       d="m -539.00795,-464.19486 15,-20 -30,0 z"
       id="path4048"
       inkscape:connector-curvature="0"
       sodipodi:nodetypes="cccc" />
    <rect
       style="fill:#4d4d4d;fill-opacity:1;fill-rule:nonzero;stroke:none"
       id="rect4050"
       width="10"
       height="130"
       x="-544.00793"
       y="-614.19489" />
    <g
       transform="translate(-1139.008,-651.55704)"
       id="g4060">
      <path
         sodipodi:nodetypes="cccc"
         inkscape:connector-curvature="0"
         id="path4056"
         d="m 870,237.36218 -20,-15 0,30 z"
         style="fill:#4d4d4d;fill-opacity:1;stroke:none" />
      <rect
         y="232.36218"
         x="650"
         height="10"
         width="200"
         id="rect4058"
         style="fill:#4d4d4d;fill-opacity:1;fill-rule:nonzero;stroke:none" />
    </g>
    <path
       sodipodi:nodetypes="cccc"
       inkscape:connector-curvature="0"
       id="path4066"
       d="m -489.00795,-324.19486 20,-15 0,30 z"
       style="fill:#4d4d4d;fill-opacity:1;stroke:none" />
    <rect
       y="-329.19485"
       x="269.00797"
       height="10"
       width="200"
       id="rect4068"
       style="fill:#4d4d4d;fill-opacity:1;fill-rule:nonzero;stroke:none"
       transform="scale(-1,1)" />
    <g
       id="g4072"
       transform="matrix(4.0297775,0,0,4.0297775,-1424.1791,-2523.148)">
      <path
         sodipodi:type="arc"
         style="fill:#2e3436;fill-opacity:1;stroke:none;filter:url(#filter6093)"
         id="path4074"
         sodipodi:cx="286.6308"
         sodipodi:cy="521.77954"
         sodipodi:rx="16.667517"
         sodipodi:ry="5.5558391"
         d="m 303.29832,521.77954 c 0,3.06841 -7.46231,5.55584 -16.66752,5.55584 -9.20522,0 -16.66752,-2.48743 -16.66752,-5.55584 0,-3.0684 7.4623,-5.55584 16.66752,-5.55584 9.20521,0 16.66752,2.48744 16.66752,5.55584 z"
         transform="matrix(1.1818182,0,0,1.1818182,-30.64896,-65.983596)" />
      <path
         inkscape:connector-curvature="0"
         sodipodi:nodetypes="cccssscccc"
         id="path4076"
         d="m 288.40625,517.5 0,30.09191 0.125,0 c -0.0806,0.24126 -0.125,0.47032 -0.125,0.71875 0,3.6263 8.80861,6.5625 19.6875,6.5625 10.87889,0 19.6875,-2.9362 19.6875,-6.5625 0,-0.24879 -0.0442,-0.47715 -0.125,-0.71875 l 0.125,0 0,-30.09191 -39.375,0 z"
         style="fill:url(#linearGradient4096);fill-opacity:1;stroke:none" />
      <path
         transform="matrix(1.1818182,0,0,1.1818182,-30.64896,-99.394391)"
         d="m 303.29832,521.77954 c 0,3.06841 -7.46231,5.55584 -16.66752,5.55584 -9.20522,0 -16.66752,-2.48743 -16.66752,-5.55584 0,-3.0684 7.4623,-5.55584 16.66752,-5.55584 9.20521,0 16.66752,2.48744 16.66752,5.55584 z"
         sodipodi:ry="5.5558391"
         sodipodi:rx="16.667517"
         sodipodi:cy="521.77954"
         sodipodi:cx="286.6308"
         id="path4078"
         style="fill:url(#linearGradient4098);fill-opacity:1;stroke:none"
         sodipodi:type="arc" />
      <path
         inkscape:connector-curvature="0"
         id="path4080"
         d="m 288.375,539.09375 c 0.14735,3.58398 8.93182,6.46875 19.71875,6.46875 10.75628,0 19.4918,-2.86766 19.6875,-6.4375 -3.45152,2.93589 -10.95919,4.96875 -19.6875,4.96875 -8.74612,0 -16.27686,-2.05444 -19.71875,-5 z"
         style="fill:#565656;fill-opacity:1;stroke:none" />
      <path
         inkscape:connector-curvature="0"
         id="path4082"
         d="m 288.375,517.34375 c 0.14735,3.58398 8.93182,6.46875 19.71875,6.46875 10.75628,0 19.4918,-2.86766 19.6875,-6.4375 -0.21572,0.18349 -0.44078,0.35509 -0.6875,0.53125 -0.009,0.0117 -0.0216,0.0196 -0.0312,0.0312 -2.29214,2.77744 -9.90349,4.8125 -18.96875,4.8125 -9.12203,0 -16.78563,-2.07074 -19.03125,-4.875 -0.0249,-0.0179 -0.038,-0.0446 -0.0625,-0.0625 -0.21872,-0.15969 -0.43159,-0.30323 -0.625,-0.46875 z"
         style="fill:url(#linearGradient4100);fill-opacity:1;stroke:none" />
      <g
         id="g4084">
        <g
           transform="translate(0,-0.52315203)"
           id="g4086">
          <path
             inkscape:connector-curvature="0"
             style="fill:#565656;fill-opacity:1;stroke:none"
             d="m 288.375,529.09375 c 0.14735,3.58398 8.93182,6.46875 19.71875,6.46875 10.75628,0 19.4918,-2.86766 19.6875,-6.4375 -3.45152,2.93589 -10.95919,4.96875 -19.6875,4.96875 -8.74612,0 -16.27686,-2.05444 -19.71875,-5 z"
             id="path4088" />
          <path
             inkscape:connector-curvature="0"
             id="path4090"
             d="m 288.375,529.09375 c 0.14735,3.58398 8.93182,6.46875 19.71875,6.46875 10.75628,0 19.4918,-2.86766 19.6875,-6.4375 -0.0497,0.0422 -0.10543,0.0838 -0.15625,0.125 -1.24216,3.22677 -9.51064,5.71875 -19.53125,5.71875 -10.11275,0 -18.46774,-2.51121 -19.59375,-5.78125 -0.0401,-0.0317 -0.0863,-0.0607 -0.125,-0.0937 z"
             style="fill:url(#linearGradient4102);fill-opacity:1;stroke:none" />
        </g>
        <path
           inkscape:connector-curvature="0"
           id="path4092"
           d="m 288.375,539.09375 c 0.14735,3.58398 8.93182,6.46875 19.71875,6.46875 10.75628,0 19.4918,-2.86766 19.6875,-6.4375 -0.0497,0.0422 -0.10543,0.0838 -0.15625,0.125 -1.24216,3.22677 -9.51064,5.71875 -19.53125,5.71875 -10.11275,0 -18.46774,-2.51121 -19.59375,-5.78125 -0.0401,-0.0317 -0.0863,-0.0607 -0.125,-0.0937 z"
           style="fill:url(#linearGradient4104);fill-opacity:1;stroke:none" />
      </g>
      <path
         inkscape:connector-curvature="0"
         id="path4094"
         d="m 288.5,549.9375 c 1.12601,3.27004 9.481,5.78125 19.59375,5.78125 10.02061,0 18.28909,-2.49198 19.53125,-5.71875 -3.51634,2.86779 -10.92856,4.84375 -19.53125,4.84375 -8.64783,0 -16.10003,-2.01374 -19.59375,-4.90625 z"
         style="fill:#565656;fill-opacity:1;stroke:none" />
    </g>
    <g
       transform="matrix(4.0297775,0,0,4.0297775,-1831.9331,-2861.8976)"
       id="g4106">
      <path
         transform="matrix(1.1818182,0,0,1.1818182,-30.64896,-65.983596)"
         d="m 303.29832,521.77954 c 0,3.06841 -7.46231,5.55584 -16.66752,5.55584 -9.20522,0 -16.66752,-2.48743 -16.66752,-5.55584 0,-3.0684 7.4623,-5.55584 16.66752,-5.55584 9.20521,0 16.66752,2.48744 16.66752,5.55584 z"
         sodipodi:ry="5.5558391"
         sodipodi:rx="16.667517"
         sodipodi:cy="521.77954"
         sodipodi:cx="286.6308"
         id="path4108"
         style="fill:#2e3436;fill-opacity:1;stroke:none;filter:url(#filter6093)"
         sodipodi:type="arc" />
      <path
         style="fill:url(#linearGradient4130);fill-opacity:1;stroke:none"
         d="m 288.40625,517.5 0,30.09191 0.125,0 c -0.0806,0.24126 -0.125,0.47032 -0.125,0.71875 0,3.6263 8.80861,6.5625 19.6875,6.5625 10.87889,0 19.6875,-2.9362 19.6875,-6.5625 0,-0.24879 -0.0442,-0.47715 -0.125,-0.71875 l 0.125,0 0,-30.09191 -39.375,0 z"
         id="path4110"
         sodipodi:nodetypes="cccssscccc"
         inkscape:connector-curvature="0" />
      <path
         sodipodi:type="arc"
         style="fill:url(#linearGradient4132);fill-opacity:1;stroke:none"
         id="path4112"
         sodipodi:cx="286.6308"
         sodipodi:cy="521.77954"
         sodipodi:rx="16.667517"
         sodipodi:ry="5.5558391"
         d="m 303.29832,521.77954 c 0,3.06841 -7.46231,5.55584 -16.66752,5.55584 -9.20522,0 -16.66752,-2.48743 -16.66752,-5.55584 0,-3.0684 7.4623,-5.55584 16.66752,-5.55584 9.20521,0 16.66752,2.48744 16.66752,5.55584 z"
         transform="matrix(1.1818182,0,0,1.1818182,-30.64896,-99.394391)" />
      <path
         style="fill:#565656;fill-opacity:1;stroke:none"
         d="m 288.375,539.09375 c 0.14735,3.58398 8.93182,6.46875 19.71875,6.46875 10.75628,0 19.4918,-2.86766 19.6875,-6.4375 -3.45152,2.93589 -10.95919,4.96875 -19.6875,4.96875 -8.74612,0 -16.27686,-2.05444 -19.71875,-5 z"
         id="path4114"
         inkscape:connector-curvature="0" />
      <path
         style="fill:url(#linearGradient4134);fill-opacity:1;stroke:none"
         d="m 288.375,517.34375 c 0.14735,3.58398 8.93182,6.46875 19.71875,6.46875 10.75628,0 19.4918,-2.86766 19.6875,-6.4375 -0.21572,0.18349 -0.44078,0.35509 -0.6875,0.53125 -0.009,0.0117 -0.0216,0.0196 -0.0312,0.0312 -2.29214,2.77744 -9.90349,4.8125 -18.96875,4.8125 -9.12203,0 -16.78563,-2.07074 -19.03125,-4.875 -0.0249,-0.0179 -0.038,-0.0446 -0.0625,-0.0625 -0.21872,-0.15969 -0.43159,-0.30323 -0.625,-0.46875 z"
         id="path4116"
         inkscape:connector-curvature="0" />
      <g
         id="g4118">
        <g
           id="g4120"
           transform="translate(0,-0.52315203)">
          <path
             id="path4122"
             d="m 288.375,529.09375 c 0.14735,3.58398 8.93182,6.46875 19.71875,6.46875 10.75628,0 19.4918,-2.86766 19.6875,-6.4375 -3.45152,2.93589 -10.95919,4.96875 -19.6875,4.96875 -8.74612,0 -16.27686,-2.05444 -19.71875,-5 z"
             style="fill:#565656;fill-opacity:1;stroke:none"
             inkscape:connector-curvature="0" />
          <path
             style="fill:url(#linearGradient4136);fill-opacity:1;stroke:none"
             d="m 288.375,529.09375 c 0.14735,3.58398 8.93182,6.46875 19.71875,6.46875 10.75628,0 19.4918,-2.86766 19.6875,-6.4375 -0.0497,0.0422 -0.10543,0.0838 -0.15625,0.125 -1.24216,3.22677 -9.51064,5.71875 -19.53125,5.71875 -10.11275,0 -18.46774,-2.51121 -19.59375,-5.78125 -0.0401,-0.0317 -0.0863,-0.0607 -0.125,-0.0937 z"
             id="path4124"
             inkscape:connector-curvature="0" />
        </g>
        <path
           style="fill:url(#linearGradient4138);fill-opacity:1;stroke:none"
           d="m 288.375,539.09375 c 0.14735,3.58398 8.93182,6.46875 19.71875,6.46875 10.75628,0 19.4918,-2.86766 19.6875,-6.4375 -0.0497,0.0422 -0.10543,0.0838 -0.15625,0.125 -1.24216,3.22677 -9.51064,5.71875 -19.53125,5.71875 -10.11275,0 -18.46774,-2.51121 -19.59375,-5.78125 -0.0401,-0.0317 -0.0863,-0.0607 -0.125,-0.0937 z"
           id="path4126"
           inkscape:connector-curvature="0" />
      </g>
      <path
         style="fill:#565656;fill-opacity:1;stroke:none"
         d="m 288.5,549.9375 c 1.12601,3.27004 9.481,5.78125 19.59375,5.78125 10.02061,0 18.28909,-2.49198 19.53125,-5.71875 -3.51634,2.86779 -10.92856,4.84375 -19.53125,4.84375 -8.64783,0 -16.10003,-2.01374 -19.59375,-4.90625 z"
         id="path4128"
         inkscape:connector-curvature="0" />
    </g>
    <text
       sodipodi:linespacing="125%"
       id="text3132"
       y="-539.19482"
       x="-1119.0079"
       style="font-size:128.42326355px;font-style:normal;font-variant:normal;font-weight:normal;font-stretch:normal;line-height:125%;letter-spacing:0px;word-spacing:0px;fill:#ffffff;fill-opacity:1;stroke:none;font-family:Times New Roman;-inkscape-font-specification:Times New Roman"
       xml:space="preserve"><tspan
         id="tspan3134"
         style="font-size:28px;fill:#ffffff"
         y="-539.19482"
         x="-1119.0079"
         sodipodi:role="line">process input</tspan></text>
    <text
       xml:space="preserve"
       style="font-size:128.42326355px;font-style:normal;font-variant:normal;font-weight:normal;font-stretch:normal;line-height:125%;letter-spacing:0px;word-spacing:0px;fill:#ffffff;fill-opacity:1;stroke:none;font-family:Times New Roman;-inkscape-font-specification:Times New Roman"
       x="-1119.0079"
       y="-399.19485"
       id="text4149"
       sodipodi:linespacing="125%"><tspan
         sodipodi:role="line"
         x="-1119.0079"
         y="-399.19485"
         style="font-size:28px;fill:#ffffff"
         id="tspan4151">visualize data</tspan></text>
    <text
       sodipodi:linespacing="125%"
       id="text4153"
       y="-319.19485"
       x="-1119.0079"
       style="font-size:128.42326355px;font-style:normal;font-variant:normal;font-weight:normal;font-stretch:normal;line-height:125%;letter-spacing:0px;word-spacing:0px;fill:#ffffff;fill-opacity:1;stroke:none;font-family:Times New Roman;-inkscape-font-specification:Times New Roman"
       xml:space="preserve"><tspan
         id="tspan4155"
         style="font-size:28px;fill:#ffffff"
         y="-319.19485"
         x="-1119.0079"
         sodipodi:role="line">visualize data</tspan></text>
    <text
       xml:space="preserve"
       style="font-size:128.42326355px;font-style:normal;font-variant:normal;font-weight:normal;font-stretch:normal;line-height:125%;letter-spacing:0px;word-spacing:0px;fill:#ffffff;fill-opacity:1;stroke:none;font-family:Times New Roman;-inkscape-font-specification:Times New Roman"
       x="-1119.0079"
       y="-179.19487"
       id="text4157"
       sodipodi:linespacing="125%"><tspan
         sodipodi:role="line"
         x="-1119.0079"
         y="-179.19487"
         style="font-size:28px;fill:#ffffff"
         id="tspan4159">process input</tspan></text>
    <text
       xml:space="preserve"
       style="font-size:128.42326355px;font-style:normal;font-variant:normal;font-weight:normal;font-stretch:normal;line-height:125%;letter-spacing:0px;word-spacing:0px;fill:#ffffff;fill-opacity:1;stroke:none;font-family:Times New Roman;-inkscape-font-specification:Times New Roman"
       x="-659.00793"
       y="-289.19489"
       id="text4161"
       sodipodi:linespacing="125%"><tspan
         sodipodi:role="line"
         x="-659.00793"
         y="-289.19489"
         style="font-size:28px;fill:#ffffff"
         id="tspan4163">process data</tspan></text>
    <text
       sodipodi:linespacing="125%"
       id="text4165"
       y="-379.19485"
       x="-619.00793"
       style="font-size:128.42326355px;font-style:normal;font-variant:normal;font-weight:normal;font-stretch:normal;line-height:125%;letter-spacing:0px;word-spacing:0px;fill:#ffffff;fill-opacity:1;stroke:none;font-family:Times New Roman;-inkscape-font-specification:Times New Roman"
       xml:space="preserve"><tspan
         style="font-size:28px;fill:#ffffff"
         y="-379.19485"
         x="-619.00793"
         sodipodi:role="line"
         id="tspan4169">build query</tspan></text>
    <text
       xml:space="preserve"
       style="font-size:128.42326355px;font-style:normal;font-variant:normal;font-weight:normal;font-stretch:normal;line-height:125%;letter-spacing:0px;word-spacing:0px;fill:#4d4d4d;fill-opacity:1;stroke:none;font-family:Times New Roman;-inkscape-font-specification:Times New Roman"
       x="-459.00793"
       y="-439.19485"
       id="text4173"
       sodipodi:linespacing="125%"><tspan
         id="tspan4175"
         sodipodi:role="line"
         x="-459.00793"
         y="-439.19485"
         style="font-size:28px;fill:#4d4d4d;fill-opacity:1">execute query</tspan></text>
    <text
       sodipodi:linespacing="125%"
       id="text4177"
       y="-289.19489"
       x="-459.00793"
       style="font-size:128.42326355px;font-style:normal;font-variant:normal;font-weight:normal;font-stretch:normal;line-height:125%;letter-spacing:0px;word-spacing:0px;fill:#4d4d4d;fill-opacity:1;stroke:none;font-family:Times New Roman;-inkscape-font-specification:Times New Roman"
       xml:space="preserve"><tspan
         style="font-size:28px;fill:#4d4d4d;fill-opacity:1"
         y="-289.19489"
         x="-459.00793"
         sodipodi:role="line"
         id="tspan4179">return result set</tspan></text>
    <text
       sodipodi:linespacing="125%"
       id="text4181"
       y="-569.19489"
       x="-519.00793"
       style="font-size:128.42326355px;font-style:normal;font-variant:normal;font-weight:normal;font-stretch:normal;line-height:125%;letter-spacing:0px;word-spacing:0px;fill:#4d4d4d;fill-opacity:1;stroke:none;font-family:Times New Roman;-inkscape-font-specification:Times New Roman"
       xml:space="preserve"><tspan
         style="font-size:28px;fill:#4d4d4d;fill-opacity:1"
         y="-569.19489"
         x="-519.00793"
         sodipodi:role="line"
         id="tspan4183">return user details /</tspan><tspan
         style="font-size:28px;fill:#4d4d4d;fill-opacity:1"
         y="-534.19489"
         x="-519.00793"
         sodipodi:role="line"
         id="tspan4185">throw exception</tspan></text>
    <text
       xml:space="preserve"
       style="font-size:128.42326355px;font-style:normal;font-variant:normal;font-weight:normal;font-stretch:normal;text-align:end;line-height:125%;letter-spacing:0px;word-spacing:0px;text-anchor:end;fill:#4d4d4d;fill-opacity:1;stroke:none;font-family:Times New Roman;-inkscape-font-specification:Times New Roman"
       x="-659.00793"
       y="-569.19489"
       id="text4187"
       sodipodi:linespacing="125%"><tspan
         id="tspan4191"
         sodipodi:role="line"
         x="-659.00793"
         y="-569.19489"
         style="font-size:28px;text-align:end;text-anchor:end;fill:#4d4d4d;fill-opacity:1">check user</tspan><tspan
         sodipodi:role="line"
         x="-659.00793"
         y="-534.19489"
         style="font-size:28px;text-align:end;text-anchor:end;fill:#4d4d4d;fill-opacity:1"
         id="tspan4195">permissions</tspan></text>
    <text
       xml:space="preserve"
       style="font-size:128.42326355px;font-style:normal;font-variant:normal;font-weight:normal;font-stretch:normal;text-align:start;line-height:125%;letter-spacing:0px;word-spacing:0px;text-anchor:start;fill:#4d4d4d;fill-opacity:1;stroke:none;font-family:Times New Roman;-inkscape-font-specification:Times New Roman"
       x="-89.00795"
       y="-429.19485"
       id="text4204"
       sodipodi:linespacing="125%"><tspan
         id="tspan4208"
         sodipodi:role="line"
         x="-89.00795"
         y="-429.19485"
         style="font-size:36px;text-align:start;text-anchor:start;fill:#4d4d4d;fill-opacity:1">Germinate</tspan><tspan
         sodipodi:role="line"
         x="-89.00795"
         y="-384.19485"
         style="font-size:36px;text-align:start;text-anchor:start;fill:#4d4d4d;fill-opacity:1"
         id="tspan4212">Database</tspan></text>
    <text
       sodipodi:linespacing="125%"
       id="text4214"
       y="-769.19482"
       x="-499.00793"
       style="font-size:128.42326355px;font-style:normal;font-variant:normal;font-weight:normal;font-stretch:normal;text-align:start;line-height:125%;letter-spacing:0px;word-spacing:0px;text-anchor:start;fill:#4d4d4d;fill-opacity:1;stroke:none;font-family:Times New Roman;-inkscape-font-specification:Times New Roman"
       xml:space="preserve"><tspan
         style="font-size:36px;text-align:start;text-anchor:start;fill:#4d4d4d;fill-opacity:1"
         y="-769.19482"
         x="-499.00793"
         sodipodi:role="line"
         id="tspan4216">Gatekeeper</tspan><tspan
         id="tspan4218"
         style="font-size:36px;text-align:start;text-anchor:start;fill:#4d4d4d;fill-opacity:1"
         y="-724.19482"
         x="-499.00793"
         sodipodi:role="line">Database</tspan></text>
    <text
       xml:space="preserve"
       style="font-size:128.42326355px;font-style:normal;font-variant:normal;font-weight:normal;font-stretch:normal;text-align:end;line-height:125%;letter-spacing:0px;word-spacing:0px;text-anchor:end;fill:#4d4d4d;fill-opacity:1;stroke:none;font-family:Times New Roman;-inkscape-font-specification:Times New Roman"
       x="-1150"
       y="-547.63776"
       id="text4233"
       sodipodi:linespacing="125%"><tspan
         id="tspan4235"
         sodipodi:role="line"
         x="-1150"
         y="-547.63776"
         style="font-size:36px;text-align:end;text-anchor:end;fill:#4d4d4d;fill-opacity:1">Web</tspan><tspan
         sodipodi:role="line"
         x="-1150"
         y="-502.63776"
         style="font-size:36px;text-align:end;text-anchor:end;fill:#4d4d4d;fill-opacity:1"
         id="tspan4237">Client</tspan></text>
    <text
       sodipodi:linespacing="125%"
       id="text4243"
       y="-327.63776"
       x="-1150"
       style="font-size:128.42326355px;font-style:normal;font-variant:normal;font-weight:normal;font-stretch:normal;text-align:end;line-height:125%;letter-spacing:0px;word-spacing:0px;text-anchor:end;fill:#4d4d4d;fill-opacity:1;stroke:none;font-family:Times New Roman;-inkscape-font-specification:Times New Roman"
       xml:space="preserve"><tspan
         style="font-size:36px;text-align:end;text-anchor:end;fill:#4d4d4d;fill-opacity:1"
         y="-327.63776"
         x="-1150"
         sodipodi:role="line"
         id="tspan4245">Android</tspan><tspan
         id="tspan4247"
         style="font-size:36px;text-align:end;text-anchor:end;fill:#4d4d4d;fill-opacity:1"
         y="-282.63776"
         x="-1150"
         sodipodi:role="line">Client</tspan></text>
  </g>
</svg>
