<?xml version="1.0" encoding="UTF-8" standalone="no"?>
<!-- Created with Inkscape (http://www.inkscape.org/) -->

<svg
	height="77.745781"
	id="svg2"
	version="1.1"
	viewBox="0 0 250.26572 77.74578"
	width="250.2657"
	xmlns="http://www.w3.org/2000/svg"
	xmlns:cc="http://creativecommons.org/ns#"
	xmlns:dc="http://purl.org/dc/elements/1.1/"
	xmlns:inkscape="http://www.inkscape.org/namespaces/inkscape"
	xmlns:rdf="http://www.w3.org/1999/02/22-rdf-syntax-ns#"
	xmlns:sodipodi="http://sodipodi.sourceforge.net/DTD/sodipodi-0.dtd"
	xmlns:xlink="http://www.w3.org/1999/xlink"
	inkscape:export-filename="C:\Users\sr41756\Desktop\logo2.png"
	inkscape:export-xdpi="38.859631"
	inkscape:export-ydpi="38.859631"
	inkscape:version="0.92.1 r15371"
	sodipodi:docname="germinate-padding.svg">
  <defs
     id="defs4">
    <inkscape:path-effect
       effect="spiro"
       id="path-effect4356"
       is_visible="true" />
    <inkscape:path-effect
       effect="spiro"
       id="path-effect4344"
       is_visible="true" />
    <linearGradient
       id="linearGradient4268">
      <stop
         style="stop-color:#008f00;stop-opacity:1;"
         id="stop4336"
         offset="0" />
      <stop
         style="stop-color:#ffffff;stop-opacity:1;"
         id="stop4338"
         offset="1" />
    </linearGradient>
    <linearGradient
       id="linearGradient4340">
      <stop
         style="stop-color:#008f00;stop-opacity:1;"
         id="stop4328"
         offset="0" />
      <stop
         style="stop-color:#ffffff;stop-opacity:1;"
         id="stop4330"
         offset="1" />
    </linearGradient>
    <inkscape:path-effect
       effect="spiro"
       id="path-effect4308"
       is_visible="true" />
    <linearGradient
       id="linearGradient3822">
      <stop
         style="stop-color:#008f00;stop-opacity:1;"
         id="stop4264"
         offset="0" />
      <stop
         style="stop-color:#ffffff;stop-opacity:1;"
         id="stop4266"
         offset="1" />
    </linearGradient>
    <inkscape:path-effect
       effect="spiro"
       id="path-effect4236"
       is_visible="true" />
    <inkscape:path-effect
       effect="spiro"
       id="path-effect4193"
       is_visible="true" />
    <inkscape:path-effect
       effect="spiro"
       id="path-effect4189"
       is_visible="true" />
    <linearGradient
       id="linearGradient4332">
      <stop
         style="stop-color:#2f9600;stop-opacity:1"
         id="stop3824"
         offset="0" />
      <stop
         style="stop-color:#ffffff;stop-opacity:1;"
         id="stop3826"
         offset="1" />
    </linearGradient>
    <linearGradient
       id="linearGradient3795">
      <stop
         style="stop-color:#2f9600;stop-opacity:1;"
         id="stop3797"
         offset="0" />
      <stop
         style="stop-color:#ffffff;stop-opacity:1;"
         id="stop3799"
         offset="1" />
    </linearGradient>
    <linearGradient
       gradientTransform="translate(59.366541,135.15201)"
       gradientUnits="userSpaceOnUse"
       id="linearGradient4239"
       x1="289.23138"
       x2="281.02191"
       y1="151.37416"
       y2="143.24072"
       inkscape:collect="always"
       xlink:href="#linearGradient3795" />
    <linearGradient
       gradientTransform="matrix(0.85440613,0,0,0.85440613,64.357366,151.40627)"
       gradientUnits="userSpaceOnUse"
       id="linearGradient3083"
       x1="289.23138"
       x2="281.02191"
       y1="151.37416"
       y2="143.24072"
       inkscape:collect="always"
       xlink:href="#linearGradient3795" />
    <linearGradient
       gradientUnits="userSpaceOnUse"
       id="linearGradient3866"
       x1="338.54877"
       x2="328.88077"
       y1="282.63428"
       y2="274.08105"
       inkscape:collect="always"
       xlink:href="#linearGradient3795" />
    <linearGradient
       gradientUnits="userSpaceOnUse"
       id="linearGradient3875"
       x1="335.63193"
       x2="328.57141"
       y1="281.57361"
       y2="274.83234"
       inkscape:collect="always"
       xlink:href="#linearGradient3795" />
    <inkscape:path-effect
       effect="spiro"
       id="path-effect4308-6"
       is_visible="true" />
    <inkscape:path-effect
       effect="spiro"
       id="path-effect4356-1"
       is_visible="true" />
    <inkscape:path-effect
       effect="spiro"
       id="path-effect4193-5"
       is_visible="true" />
    <linearGradient
       gradientTransform="matrix(-0.53167848,0,0,0.71443954,433.89361,175.30088)"
       gradientUnits="userSpaceOnUse"
       id="linearGradient4298"
       x1="275.55096"
       x2="269.84589"
       y1="168.02112"
       y2="158.97551"
       inkscape:collect="always"
       xlink:href="#linearGradient4268" />
    <linearGradient
       gradientTransform="matrix(0.85440613,0,0,0.85440613,65.07178,151.79594)"
       gradientUnits="userSpaceOnUse"
       id="linearGradient4300"
       x1="275.55096"
       x2="269.84589"
       y1="168.02112"
       y2="158.97551"
       inkscape:collect="always"
       xlink:href="#linearGradient4268" />
    <linearGradient
       gradientTransform="translate(59.366541,135.15201)"
       gradientUnits="userSpaceOnUse"
       id="linearGradient4302"
       x1="289.23138"
       x2="281.02191"
       y1="151.37416"
       y2="143.24072"
       inkscape:collect="always"
       xlink:href="#linearGradient4332" />
    <linearGradient
       gradientTransform="matrix(0.85440613,0,0,0.85440613,64.357366,151.40627)"
       gradientUnits="userSpaceOnUse"
       id="linearGradient4304"
       x1="289.23138"
       x2="281.02191"
       y1="151.37416"
       y2="143.24072"
       inkscape:collect="always"
       xlink:href="#linearGradient4332" />
    <linearGradient
       gradientUnits="userSpaceOnUse"
       id="linearGradient4306"
       x1="338.54877"
       x2="328.88077"
       y1="282.63428"
       y2="274.08105"
       inkscape:collect="always"
       xlink:href="#linearGradient4332" />
    <linearGradient
       gradientUnits="userSpaceOnUse"
       id="linearGradient4308"
       x1="335.63193"
       x2="328.57141"
       y1="281.57361"
       y2="274.83234"
       inkscape:collect="always"
       xlink:href="#linearGradient4332" />
    <linearGradient
       gradientUnits="userSpaceOnUse"
       id="linearGradient4311"
       x1="335.63193"
       x2="328.57141"
       y1="281.57361"
       y2="274.83234"
       inkscape:collect="always"
       xlink:href="#linearGradient4332" />
    <linearGradient
       gradientTransform="matrix(0.62848314,0,0,0.62848314,21.633088,198.05122)"
       gradientUnits="userSpaceOnUse"
       id="linearGradient4164-3"
       x1="275.55096"
       x2="269.84589"
       y1="168.02112"
       y2="158.97551"
       inkscape:collect="always"
       xlink:href="#linearGradient4268" />
    <linearGradient
       gradientTransform="matrix(-0.39109148,0,0,0.52552667,292.93066,215.34095)"
       gradientUnits="userSpaceOnUse"
       id="linearGradient4158-6"
       x1="275.55096"
       x2="269.84589"
       y1="168.02112"
       y2="158.97551"
       inkscape:collect="always"
       xlink:href="#linearGradient4268" />
    <linearGradient
       gradientTransform="matrix(0.73557892,0,0,0.73557892,9.2350965,111.31638)"
       gradientUnits="userSpaceOnUse"
       id="linearGradient4324-3"
       spreadMethod="pad"
       x1="263.03708"
       x2="251.24182"
       y1="248.57281"
       y2="240.43311"
       inkscape:collect="always"
       xlink:href="#linearGradient4332" />
    <inkscape:path-effect
       effect="spiro"
       id="path-effect4308-3"
       is_visible="true" />
    <inkscape:path-effect
       effect="spiro"
       id="path-effect4356-9"
       is_visible="true" />
    <inkscape:path-effect
       effect="spiro"
       id="path-effect4193-8"
       is_visible="true" />
    <inkscape:path-effect
       effect="spiro"
       id="path-effect4308-6-7"
       is_visible="true" />
    <inkscape:path-effect
       effect="spiro"
       id="path-effect4356-1-9"
       is_visible="true" />
    <inkscape:path-effect
       effect="spiro"
       id="path-effect4193-5-7"
       is_visible="true" />
    <linearGradient
       gradientTransform="matrix(-0.52216846,0,0,0.52216846,317.10137,167.08455)"
       gradientUnits="userSpaceOnUse"
       id="linearGradient4617"
       spreadMethod="pad"
       x1="263.03708"
       x2="251.24182"
       y1="248.57281"
       y2="240.43311"
       inkscape:collect="always"
       xlink:href="#linearGradient4332" />
  </defs>
  <sodipodi:namedview
     bordercolor="#666666"
     borderopacity="1.0"
     fit-margin-bottom="0"
     fit-margin-left="0"
     fit-margin-right="0"
     fit-margin-top="0"
     id="base"
     pagecolor="#ffffff"
     showgrid="false"
     showguides="false"
     inkscape:current-layer="layer1"
     inkscape:cx="164.25564"
     inkscape:cy="52.729473"
     inkscape:document-units="px"
     inkscape:pageopacity="0.0"
     inkscape:pageshadow="2"
     inkscape:window-height="1017"
     inkscape:window-maximized="1"
     inkscape:window-width="1920"
     inkscape:window-x="-8"
     inkscape:window-y="-8"
     inkscape:zoom="2.441736" />
  <metadata
     id="metadata7">
    <rdf:RDF>
      <cc:Work
         rdf:about="">
        <dc:format>image/svg+xml</dc:format>
        <dc:type
           rdf:resource="http://purl.org/dc/dcmitype/StillImage" />
        <dc:title></dc:title>
      </cc:Work>
    </rdf:RDF>
  </metadata>
  <g
     id="layer1"
     transform="translate(-72.254489,-266.8024)"
     inkscape:groupmode="layer"
     inkscape:label="Layer 1">
    <path
       style="fill:url(#linearGradient4164-3);fill-opacity:1;stroke:#2f8600;stroke-width:0.18854494;stroke-miterlimit:4;stroke-dasharray:none;stroke-opacity:0.95294118"
       d="m 189.74445,304.46317 8.9839,-6.83294 -5.85006,6.82217 z"
       id="path3820-5"
       inkscape:connector-curvature="0"
       inkscape:export-filename="C:\Users\sr41756\Desktop\logo2.png"
       inkscape:export-xdpi="48.573853"
       inkscape:export-ydpi="48.573853"
       sodipodi:nodetypes="cccc" />
    <path
       style="fill:url(#linearGradient4158-6);fill-opacity:1;stroke:#2f8600;stroke-width:0.13600592;stroke-miterlimit:4;stroke-dasharray:none;stroke-opacity:0.95294118"
       d="m 188.45899,304.43282 -5.73089,-5.82563 3.53454,5.8138 z"
       id="path3830-7"
       inkscape:connector-curvature="0"
       inkscape:export-filename="C:\Users\sr41756\Desktop\logo2.png"
       inkscape:export-xdpi="48.573853"
       inkscape:export-ydpi="48.573853"
       sodipodi:nodetypes="cccc" />
    <path
       style="font-style:normal;font-variant:normal;font-weight:bold;font-stretch:normal;font-size:72px;line-height:125%;font-family:'Myriad Pro Cond';-inkscape-font-specification:'Myriad Pro Cond Bold';letter-spacing:0px;word-spacing:0px;fill:#00acef;fill-opacity:1;stroke:none;stroke-width:0.73557889"
       d="m 107.69967,310.23588 h -9.585935 v 5.66682 h 3.230615 v 8.63265 c -0.27364,0.10592 -0.73263,0.15888 -1.376978,0.15888 -1.712421,0.0485 -3.22622,-0.82972 -4.541406,-2.63481 -1.315207,-1.80508 -2.008115,-4.82827 -2.078724,-9.06957 0.05738,-4.57559 0.88268,-7.81724 2.47593,-9.72497 1.593234,-1.90767 3.610162,-2.83228 6.050798,-2.77383 0.84515,3e-5 1.60425,0.0662 2.27732,0.19861 0.67303,0.13243 1.27325,0.33103 1.80067,0.5958 l 1.16514,-5.98459 c -0.55832,-0.2758 -1.32183,-0.51853 -2.29056,-0.72821 -0.96876,-0.2096 -2.12949,-0.31993 -3.48219,-0.331 -3.983112,-0.0452 -7.456472,1.39577 -10.420068,4.32293 -2.96361,2.92723 -4.556852,7.61207 -4.779733,14.05453 -0.04634,3.10265 0.324383,5.90075 1.112181,8.39432 0.78779,2.49358 1.952933,4.49728 3.495427,6.01107 1.160721,1.19052 2.533289,2.07983 4.117719,2.66792 1.584408,0.58808 3.407143,0.88157 5.468224,0.88047 1.34608,-0.0132 2.7054,-0.14565 4.07799,-0.39721 1.37256,-0.25156 2.46708,-0.54285 3.28358,-0.87386 z"
       id="path4219-9"
       inkscape:connector-curvature="0" />
    <path
       style="font-style:normal;font-variant:normal;font-weight:bold;font-stretch:normal;font-size:72px;line-height:125%;font-family:'Myriad Pro Cond';-inkscape-font-specification:'Myriad Pro Cond Bold';letter-spacing:0px;word-spacing:0px;fill:#00acef;fill-opacity:1;stroke:none;stroke-width:0.73557889"
       d="m 130.34911,319.76886 c 0.0552,-0.35858 0.10369,-0.81979 0.14563,-1.38361 0.0419,-0.5638 0.064,-1.30305 0.0662,-2.21774 -0.0188,-3.96433 -0.78892,-6.99855 -2.31043,-9.10268 -1.52154,-2.10407 -3.68191,-3.16549 -6.4811,-3.18427 -2.98128,0.0342 -5.43954,1.26336 -7.37482,3.68741 -1.93529,2.42409 -2.93713,5.83786 -3.00553,10.24133 0.0132,4.0769 0.95329,7.21705 2.82017,9.42044 1.86687,2.20339 4.58111,3.31778 8.14275,3.34316 1.3196,-0.005 2.59949,-0.11365 3.83968,-0.32438 1.24014,-0.21075 2.30819,-0.491 3.20413,-0.84076 l -0.90033,-4.97834 c -0.63887,0.22068 -1.37369,0.41487 -2.2045,0.58258 -0.83085,0.16771 -1.7378,0.25598 -2.72088,0.2648 -1.54471,0.0221 -2.82459,-0.39279 -3.83967,-1.24458 -1.01509,-0.85179 -1.55353,-2.2729 -1.61531,-4.26336 z m -12.234,-4.87241 c 0.0188,-1.38249 0.28576,-2.69548 0.80103,-3.93898 0.51526,-1.24346 1.32513,-1.90768 2.42959,-1.99266 1.02501,0.0386 1.76866,0.61018 2.23098,1.71461 0.46229,1.10448 0.68958,2.51015 0.68188,4.21703 z"
       id="path4221-5"
       inkscape:connector-curvature="0" />
    <path
       style="font-style:normal;font-variant:normal;font-weight:bold;font-stretch:normal;font-size:72px;line-height:125%;font-family:'Myriad Pro Cond';-inkscape-font-specification:'Myriad Pro Cond Bold';letter-spacing:0px;word-spacing:0px;fill:#00acef;fill-opacity:1;stroke:none;stroke-width:0.73557889"
       d="m 134.52917,330.25514 h 6.93789 v -13.18729 c -1e-5,-0.53512 0.0265,-1.02721 0.0794,-1.4763 0.053,-0.44904 0.1324,-0.82198 0.23833,-1.1188 0.40602,-1.31076 1.01066,-2.25082 1.81391,-2.82017 0.80323,-0.56931 1.59323,-0.84736 2.37001,-0.83413 0.57373,-0.009 1.06803,0.009 1.4829,0.053 v -6.83197 c -0.17765,-0.053 -0.37846,-0.0927 -0.60243,-0.11916 -0.224,-0.0265 -0.51748,-0.0397 -0.88047,-0.0397 -0.95332,0.004 -1.89337,0.36634 -2.82018,1.0857 -0.92682,0.71941 -1.68152,1.7698 -2.26408,3.15118 h -0.21184 l -0.37073,-3.76024 h -5.98459 c 0.0552,1.23137 0.10371,2.51568 0.14564,3.85292 0.0419,1.33729 0.064,2.64806 0.0662,3.93235 z"
       id="path4223-9"
       inkscape:connector-curvature="0" />
    <path
       style="font-style:normal;font-variant:normal;font-weight:bold;font-stretch:normal;font-size:72px;line-height:125%;font-family:'Myriad Pro Cond';-inkscape-font-specification:'Myriad Pro Cond Bold';letter-spacing:0px;word-spacing:0px;fill:#00acef;fill-opacity:1;stroke:none;stroke-width:0.73557889"
       d="m 150.09577,330.25514 h 6.93789 v -16.312 c 7.3e-4,-0.37622 0.0254,-0.73591 0.0728,-1.07908 0.0474,-0.34312 0.11143,-0.63661 0.19199,-0.88047 0.25045,-0.79219 0.61014,-1.37917 1.07908,-1.76095 0.46891,-0.38175 0.97424,-0.57152 1.516,-0.56933 1.04707,0.0618 1.70688,0.54727 1.97942,1.45642 0.27251,0.90918 0.38947,1.87131 0.35087,2.88638 v 16.25903 h 6.93789 v -16.41791 c -0.001,-0.37513 0.0143,-0.72379 0.0463,-1.04599 0.032,-0.32216 0.0871,-0.59137 0.1655,-0.80765 0.21734,-0.74585 0.55056,-1.31959 0.99964,-1.72123 0.44904,-0.40161 0.98086,-0.60463 1.59545,-0.60905 1.00293,0.0386 1.65831,0.55721 1.96617,1.55572 0.30781,0.99856 0.44684,2.24534 0.41708,3.74038 v 15.30573 h 6.93789 v -16.47087 c 0.011,-3.12358 -0.52744,-5.54876 -1.61532,-7.27553 -1.08793,-1.72672 -2.79151,-2.60278 -5.11073,-2.62818 -1.33288,3e-5 -2.53333,0.31779 -3.60135,0.95329 -0.51088,0.32331 -0.99856,0.70948 -1.46305,1.15852 -0.46453,0.4491 -0.85953,0.92795 -1.185,1.43658 h -0.10592 c -0.44799,-1.12099 -1.14089,-1.99044 -2.07872,-2.60834 -0.93787,-0.61785 -2.1339,-0.9312 -3.58811,-0.94005 -1.33176,0.0243 -2.52118,0.35972 -3.56824,1.00625 -1.0471,0.64659 -1.9055,1.45866 -2.57523,2.43621 h -0.10593 l -0.37072,-2.96582 h -6.03755 c 0.0552,1.23799 0.10371,2.49582 0.14563,3.77347 0.0419,1.27771 0.064,2.61498 0.0662,4.0118 z"
       id="path4225-9"
       inkscape:connector-curvature="0" />
    <path
       style="font-style:normal;font-variant:normal;font-weight:bold;font-stretch:normal;font-size:72px;line-height:125%;font-family:'Myriad Pro Cond';-inkscape-font-specification:'Myriad Pro Cond Bold';letter-spacing:0px;word-spacing:0px;fill:#00acef;fill-opacity:1;stroke:none;stroke-width:0.73557889"
       d="M 193.08401,330.25514 V 304.3572 h -6.93789 v 25.89794 z"
       id="path4227-2"
       inkscape:connector-curvature="0"
       sodipodi:nodetypes="ccccc" />
    <path
       style="font-style:normal;font-variant:normal;font-weight:bold;font-stretch:normal;font-size:72px;line-height:125%;font-family:'Myriad Pro Cond';-inkscape-font-specification:'Myriad Pro Cond Bold';letter-spacing:0px;word-spacing:0px;fill:#00acef;fill-opacity:1;stroke:none;stroke-width:0.73557889"
       d="m 197.93837,330.25514 h 6.93789 v -15.78239 c 0.002,-0.50642 0.0375,-0.96321 0.10593,-1.37036 0.0684,-0.40712 0.15666,-0.74474 0.2648,-1.01288 0.24383,-0.76902 0.59028,-1.34938 1.03936,-1.74109 0.44905,-0.39167 0.96763,-0.58807 1.55573,-0.58919 0.98638,0.043 1.66164,0.4866 2.02576,1.33064 0.36409,0.84408 0.53621,1.83049 0.51636,2.9592 v 16.20607 h 6.9379 v -16.62976 c 0.021,-2.92938 -0.51088,-5.26629 -1.59545,-7.01071 -1.08462,-1.74438 -2.84778,-2.6381 -5.28948,-2.68115 -1.35935,0.0154 -2.57304,0.32882 -3.64107,0.94005 -1.06806,0.61129 -1.9375,1.42777 -2.60833,2.44945 h -0.10593 l -0.37072,-2.96582 h -5.9846 c 0.0552,1.23799 0.10372,2.49582 0.14565,3.77347 0.0419,1.27771 0.064,2.61498 0.0662,4.0118 z"
       id="path4229-0"
       inkscape:connector-curvature="0" />
    <path
       style="font-style:normal;font-variant:normal;font-weight:bold;font-stretch:normal;font-size:72px;line-height:125%;font-family:'Myriad Pro Cond';-inkscape-font-specification:'Myriad Pro Cond Bold';letter-spacing:0px;word-spacing:0px;fill:#00acef;fill-opacity:1;stroke:none;stroke-width:0.73557889"
       d="m 239.62065,314.73756 c 0.11142,-2.76719 -0.42923,-5.22988 -1.62194,-7.38806 -1.19274,-2.15813 -3.70618,-3.2968 -7.54031,-3.41598 -1.84372,0.032 -3.46565,0.25931 -4.8658,0.68187 -1.40016,0.42261 -2.47924,0.84851 -3.23724,1.27768 l 1.27107,4.71353 c 0.78668,-0.48104 1.60978,-0.85618 2.4693,-1.12542 0.85951,-0.2692 1.80177,-0.40601 2.82679,-0.41044 1.24127,0.0188 2.16146,0.35198 2.76059,0.99963 0.59912,0.64769 0.89702,1.49727 0.89372,2.54875 v 0.58258 c -3.06623,-0.002 -5.77827,0.75691 -8.13613,2.27732 -2.35787,1.52043 -3.60025,3.97429 -3.72713,7.36158 0.0397,2.31925 0.68849,4.19495 1.94631,5.6271 1.25783,1.43215 2.88637,2.16919 4.88566,2.21112 1.14858,-10e-4 2.21442,-0.25046 3.19752,-0.74807 0.98308,-0.49762 1.82383,-1.23686 2.52227,-2.21775 h 0.15888 l 0.37073,2.54214 h 6.19643 c -0.13132,-0.88269 -0.22621,-1.83157 -0.28467,-2.84666 -0.0585,-1.01508 -0.0872,-2.04341 -0.0861,-3.08498 z m -6.83198,7.41454 c 0,0.23613 -0.0132,0.45238 -0.0397,0.64877 -0.0265,0.1964 -0.0662,0.38618 -0.11916,0.56934 -0.2549,0.76462 -0.64548,1.32733 -1.17176,1.68813 -0.52632,0.3608 -1.08903,0.53954 -1.68814,0.53623 -0.56714,0.0132 -1.11439,-0.25156 -1.64179,-0.79442 -0.52741,-0.54284 -0.80987,-1.44318 -0.84738,-2.70101 0.0872,-1.75764 0.72049,-2.94263 1.89998,-3.55501 1.17947,-0.61235 2.38213,-0.91025 3.60797,-0.89371 z"
       id="path4231-3"
       inkscape:connector-curvature="0" />
    <path
       style="font-style:normal;font-variant:normal;font-weight:bold;font-stretch:normal;font-size:72px;line-height:125%;font-family:'Myriad Pro Cond';-inkscape-font-specification:'Myriad Pro Cond Bold';letter-spacing:0px;word-spacing:0px;fill:#00acef;fill-opacity:1;stroke:none;stroke-width:0.73557889"
       d="m 245.70483,299.80256 v 4.55464 h -3.07174 v 4.92537 h 3.07174 v 12.234 c 0.004,2.007 0.19418,3.58039 0.56933,4.72015 0.37514,1.13976 0.90916,2.03789 1.60207,2.69439 0.63994,0.57816 1.38581,0.99743 2.2376,1.25782 0.85178,0.26039 1.78301,0.38838 2.79369,0.38397 0.90474,-0.004 1.71681,-0.0496 2.43621,-0.13903 0.71937,-0.0894 1.3196,-0.2019 1.80067,-0.33762 l -0.053,-5.40202 c -0.31226,0.053 -0.61458,0.0927 -0.90695,0.11916 -0.29241,0.0265 -0.60796,0.0397 -0.94668,0.0397 -0.6874,0.032 -1.28542,-0.21736 -1.79406,-0.74808 -0.50865,-0.5307 -0.77567,-1.53475 -0.80103,-3.01215 v -11.81031 h 5.08426 v -4.92537 h -5.08426 v -6.72604 z"
       id="path4233-9"
       inkscape:connector-curvature="0" />
    <path
       style="font-style:normal;font-variant:normal;font-weight:bold;font-stretch:normal;font-size:72px;line-height:125%;font-family:'Myriad Pro Cond';-inkscape-font-specification:'Myriad Pro Cond Bold';letter-spacing:0px;word-spacing:0px;fill:#00acef;fill-opacity:1;stroke:none;stroke-width:0.73557889"
       d="m 278.99351,319.76886 c 0.0552,-0.35858 0.1037,-0.81979 0.14565,-1.38361 0.0419,-0.5638 0.064,-1.30305 0.0662,-2.21774 -0.0188,-3.96433 -0.78893,-6.99855 -2.31043,-9.10268 -1.52154,-2.10407 -3.68191,-3.16549 -6.4811,-3.18427 -2.98127,0.0342 -5.43955,1.26336 -7.37482,3.68741 -1.93529,2.42409 -2.93713,5.83786 -3.00554,10.24133 0.0132,4.0769 0.9533,7.21705 2.82017,9.42044 1.86687,2.20339 4.58112,3.31778 8.14276,3.34316 1.3196,-0.005 2.59948,-0.11365 3.83967,-0.32438 1.24016,-0.21075 2.3082,-0.491 3.20415,-0.84076 l -0.90035,-4.97834 c -0.63885,0.22068 -1.37369,0.41487 -2.2045,0.58258 -0.83084,0.16771 -1.73779,0.25598 -2.72087,0.2648 -1.5447,0.0221 -2.8246,-0.39279 -3.83967,-1.24458 -1.0151,-0.85179 -1.55353,-2.2729 -1.61531,-4.26336 z m -12.23399,-4.87241 c 0.0188,-1.38249 0.28576,-2.69548 0.80103,-3.93898 0.51526,-1.24346 1.32512,-1.90768 2.42959,-1.99266 1.025,0.0386 1.76867,0.61018 2.23098,1.71461 0.46229,1.10448 0.68959,2.51015 0.68188,4.21703 z"
       id="path4235-9"
       inkscape:connector-curvature="0" />
    <path
       style="font-style:normal;font-variant:normal;font-weight:bold;font-stretch:normal;font-size:72px;line-height:125%;font-family:'Myriad Pro Cond';-inkscape-font-specification:'Myriad Pro Cond Bold';letter-spacing:0px;word-spacing:0px;fill:#00acef;fill-opacity:1;stroke:none;stroke-width:0.73557889"
       d="m 290.38714,329.14296 c 0.7569,0.43472 1.71902,0.79661 2.88637,1.0857 1.16735,0.28907 2.44723,0.43913 3.83968,0.45016 3.77125,-0.10482 6.63555,-1.17948 8.59292,-3.224 1.95733,-2.04451 2.94152,-4.42996 2.95258,-7.15636 -0.0364,-2.3104 -0.59915,-4.20376 -1.68813,-5.68006 -1.08904,-1.47627 -2.48588,-2.49577 -4.19055,-3.0585 v -0.10592 c 1.5513,-0.73261 2.76499,-1.76976 3.64108,-3.11146 0.87604,-1.34165 1.32179,-2.88194 1.33726,-4.62085 -0.002,-2.26957 -0.76575,-4.20485 -2.29057,-5.80585 -1.52484,-1.60093 -3.79775,-2.43727 -6.81872,-2.50902 -1.45754,0.0188 -2.81908,0.20636 -4.08462,0.56271 -1.26555,0.35642 -2.2696,0.76907 -3.01215,1.23796 l 0.95329,5.24314 c 0.63773,-0.42807 1.32181,-0.76349 2.05224,-1.00626 0.73041,-0.24271 1.49394,-0.36628 2.29056,-0.37073 1.23134,0.01 2.19787,0.36083 2.89962,1.0526 0.70172,0.69184 1.05921,1.66499 1.07245,2.91948 -0.0816,1.64181 -0.72601,2.79371 -1.93307,3.4557 -1.20708,0.66204 -2.48697,0.99304 -3.83968,0.99302 h -0.68848 v 5.08426 h 0.95329 c 1.77309,0.0121 3.27144,0.45128 4.49507,1.3174 1.2236,0.86615 1.86134,2.24534 1.91322,4.13758 -0.007,1.48181 -0.45681,2.67564 -1.35051,3.58149 -0.89373,0.90585 -2.19127,1.37148 -3.89263,1.39685 -0.91579,-0.005 -1.82496,-0.12688 -2.72749,-0.36411 -0.90255,-0.23722 -1.7058,-0.55719 -2.40973,-0.95992 z"
       id="path4237-1"
       inkscape:connector-curvature="0" />
    <path
       style="fill:url(#linearGradient4324-3);fill-opacity:1;fill-rule:evenodd;stroke:none;stroke-width:0.73557889px;stroke-linecap:butt;stroke-linejoin:miter;stroke-opacity:1"
       d="m 210.95108,281.49727 c -0.10437,2.97388 -0.48826,5.93789 -1.14497,8.84023 -0.45652,2.01761 -1.05001,4.01888 -1.99704,5.85798 -0.99776,1.93762 -2.42316,3.70842 -4.31361,4.7929 -1.66857,0.9572 -3.68447,1.33646 -5.56509,0.93196 -1.26929,-0.27301 -2.47749,-0.90993 -3.3284,-1.89054 -1.00782,-1.16143 -1.45873,-2.75255 -1.35798,-4.28698 0.1058,-1.61128 0.81338,-3.18863 1.99703,-4.28698 0.85884,-0.79695 1.93262,-1.32617 3.03048,-1.73537 1.09787,-0.40919 2.23389,-0.70905 3.33342,-1.11374 2.08853,-0.76869 4.033,-1.91432 5.75148,-3.3284 1.34619,-1.10774 2.55635,-2.38064 3.59468,-3.78106 z"
       id="path4306-9"
       inkscape:connector-curvature="0"
       inkscape:original-d="m 210.95108,281.49727 c 0,0 -0.8787,8.04141 -1.14497,8.84023 -0.26628,0.79882 -0.77219,3.75444 -1.99704,5.85798 -1.22486,2.10355 -2.74261,4.12722 -4.31361,4.7929 -1.57101,0.66568 -4.39349,1.25148 -5.56509,0.93196 -1.1716,-0.31953 -2.52958,-0.63906 -3.3284,-1.89054 -0.79882,-1.25147 -1.43787,-2.60946 -1.35798,-4.28698 0.0799,-1.67751 0.71893,-3.46154 1.99703,-4.28698 1.27811,-0.82544 5.59171,-2.4497 6.3639,-2.84911 0.77219,-0.39941 4.95266,-2.4497 5.75148,-3.3284 0.79882,-0.8787 0.4793,-0.23965 3.59468,-3.78106 z"
       inkscape:path-effect="#path-effect4308-3" />
    <path
       style="fill:none;fill-rule:evenodd;stroke:#2f8200;stroke-width:0.51490521;stroke-linecap:butt;stroke-linejoin:miter;stroke-miterlimit:4;stroke-dasharray:none;stroke-opacity:1"
       d="m 210.77886,281.68207 c -0.88646,3.23334 -2.67951,6.21297 -5.12129,8.51037 -2.32829,2.19062 -5.20737,3.75374 -7.41833,6.06272 -1.26604,1.32217 -2.29185,2.8737 -3.01253,4.55644"
       id="path4354-2"
       inkscape:connector-curvature="0"
       inkscape:original-d="m 210.77886,281.68207 c 0,0 -3.31377,7.23005 -5.12129,8.51037 -1.80751,1.28033 -6.58989,4.63177 -7.41833,6.06272 -0.82845,1.43094 -3.01253,4.55644 -3.01253,4.55644"
       inkscape:path-effect="#path-effect4356-9"
       sodipodi:nodetypes="cssc" />
    <path
       style="fill:none;fill-rule:evenodd;stroke:#2f9600;stroke-width:0.51490521;stroke-linecap:butt;stroke-linejoin:miter;stroke-miterlimit:4;stroke-dasharray:none;stroke-opacity:1"
       d="m 210.95108,281.49727 c -0.10437,2.97388 -0.48826,5.93789 -1.14497,8.84023 -0.45652,2.01761 -1.05001,4.01888 -1.99704,5.85798 -0.99776,1.93762 -2.42316,3.70842 -4.31361,4.7929 -1.66857,0.9572 -3.68447,1.33646 -5.56509,0.93196 -1.26929,-0.27301 -2.47749,-0.90993 -3.3284,-1.89054 -1.00782,-1.16143 -1.45873,-2.75255 -1.35798,-4.28698 0.1058,-1.61128 0.81338,-3.18863 1.99703,-4.28698 0.85884,-0.79695 1.93262,-1.32617 3.03048,-1.73537 1.09787,-0.40919 2.23389,-0.70905 3.33342,-1.11374 2.08853,-0.76869 4.033,-1.91432 5.75148,-3.3284 1.34619,-1.10774 2.55635,-2.38064 3.59468,-3.78106 z"
       id="path4191-2"
       inkscape:connector-curvature="0"
       inkscape:original-d="m 210.95108,281.49727 c 0,0 -0.8787,8.04141 -1.14497,8.84023 -0.26628,0.79882 -0.77219,3.75444 -1.99704,5.85798 -1.22486,2.10355 -2.74261,4.12722 -4.31361,4.7929 -1.57101,0.66568 -4.39349,1.25148 -5.56509,0.93196 -1.1716,-0.31953 -2.52958,-0.63906 -3.3284,-1.89054 -0.79882,-1.25147 -1.43787,-2.60946 -1.35798,-4.28698 0.0799,-1.67751 0.71893,-3.46154 1.99703,-4.28698 1.27811,-0.82544 5.59171,-2.4497 6.3639,-2.84911 0.77219,-0.39941 4.95266,-2.4497 5.75148,-3.3284 0.79882,-0.8787 0.4793,-0.23965 3.59468,-3.78106 z"
       inkscape:path-effect="#path-effect4193-8" />
    <path
       style="fill:url(#linearGradient4617);fill-opacity:1;fill-rule:evenodd;stroke:none;stroke-width:0.52216846px;stroke-linecap:butt;stroke-linejoin:miter;stroke-opacity:1"
       d="m 173.90841,287.89156 c 0.0741,2.11108 0.34661,4.21515 0.81279,6.27545 0.32408,1.43225 0.74538,2.8529 1.41765,4.15843 0.70828,1.37547 1.72014,2.63251 3.06212,3.40236 1.18447,0.67949 2.6155,0.94871 3.9505,0.66157 0.90104,-0.1938 1.75871,-0.64593 2.36275,-1.34204 0.71543,-0.82447 1.03552,-1.95397 0.964,-3.04322 -0.0751,-1.1438 -0.57741,-2.26352 -1.41765,-3.04321 -0.60967,-0.56573 -1.37192,-0.94141 -2.15126,-1.23189 -0.77934,-0.29048 -1.58577,-0.50334 -2.3663,-0.79062 -1.48259,-0.54567 -2.86292,-1.35893 -4.08283,-2.36275 -0.95563,-0.78636 -1.81469,-1.68995 -2.55177,-2.68408 z"
       id="path4365-1"
       inkscape:connector-curvature="0"
       inkscape:original-d="m 173.90841,287.89156 c 0,0 0.62377,5.70839 0.81279,6.27545 0.18902,0.56706 0.54816,2.66518 1.41765,4.15843 0.86949,1.49326 1.9469,2.92981 3.06212,3.40236 1.11521,0.47255 3.11882,0.88839 3.9505,0.66157 0.83169,-0.22683 1.79569,-0.45365 2.36275,-1.34204 0.56706,-0.88839 1.02071,-1.85239 0.964,-3.04322 -0.0567,-1.19082 -0.51035,-2.45726 -1.41765,-3.04321 -0.90729,-0.58597 -3.96941,-1.73899 -4.51756,-2.02251 -0.54816,-0.28354 -3.51577,-1.73899 -4.08283,-2.36275 -0.56706,-0.62377 -0.34024,-0.17012 -2.55177,-2.68408 z"
       inkscape:path-effect="#path-effect4308-6-7" />
    <path
       style="fill:none;fill-rule:evenodd;stroke:#2f8200;stroke-width:0.36551791;stroke-linecap:butt;stroke-linejoin:miter;stroke-miterlimit:4;stroke-dasharray:none;stroke-opacity:1"
       d="m 174.03066,288.02274 c 0.62927,2.29527 1.90212,4.41044 3.63548,6.0413 1.65279,1.55506 3.69658,2.66468 5.26608,4.30376 0.89873,0.93858 1.62692,2.03996 2.13852,3.2345"
       id="path4367-2"
       inkscape:connector-curvature="0"
       inkscape:original-d="m 174.03066,288.02274 c 0,0 2.35237,5.13243 3.63548,6.0413 1.2831,0.90887 4.67799,3.28797 5.26608,4.30376 0.58809,1.01579 2.13852,3.2345 2.13852,3.2345"
       inkscape:path-effect="#path-effect4356-1-9"
       sodipodi:nodetypes="cssc" />
    <path
       style="fill:none;fill-rule:evenodd;stroke:#2f9600;stroke-width:0.36551791;stroke-linecap:butt;stroke-linejoin:miter;stroke-miterlimit:4;stroke-dasharray:none;stroke-opacity:1"
       d="m 173.90841,287.89156 c 0.0741,2.11108 0.34661,4.21515 0.81279,6.27545 0.32408,1.43225 0.74538,2.8529 1.41765,4.15843 0.70828,1.37547 1.72014,2.63251 3.06212,3.40236 1.18447,0.67949 2.6155,0.94871 3.9505,0.66157 0.90104,-0.1938 1.75871,-0.64593 2.36275,-1.34204 0.71543,-0.82447 1.03552,-1.95397 0.964,-3.04322 -0.0751,-1.1438 -0.57741,-2.26352 -1.41765,-3.04321 -0.60967,-0.56573 -1.37192,-0.94141 -2.15126,-1.23189 -0.77934,-0.29048 -1.58577,-0.50334 -2.3663,-0.79062 -1.48259,-0.54567 -2.86292,-1.35893 -4.08283,-2.36275 -0.95563,-0.78636 -1.81469,-1.68995 -2.55177,-2.68408 z"
       id="path4369-8"
       inkscape:connector-curvature="0"
       inkscape:original-d="m 173.90841,287.89156 c 0,0 0.62377,5.70839 0.81279,6.27545 0.18902,0.56706 0.54816,2.66518 1.41765,4.15843 0.86949,1.49326 1.9469,2.92981 3.06212,3.40236 1.11521,0.47255 3.11882,0.88839 3.9505,0.66157 0.83169,-0.22683 1.79569,-0.45365 2.36275,-1.34204 0.56706,-0.88839 1.02071,-1.85239 0.964,-3.04322 -0.0567,-1.19082 -0.51035,-2.45726 -1.41765,-3.04321 -0.90729,-0.58597 -3.96941,-1.73899 -4.51756,-2.02251 -0.54816,-0.28354 -3.51577,-1.73899 -4.08283,-2.36275 -0.56706,-0.62377 -0.34024,-0.17012 -2.55177,-2.68408 z"
       inkscape:path-effect="#path-effect4193-5-7" />
  </g>
</svg>
