<?xml version="1.0" encoding="UTF-8" standalone="no"?>
<!-- Created with Inkscape (http://www.inkscape.org/) -->

<svg
   xmlns:dc="http://purl.org/dc/elements/1.1/"
   xmlns:cc="http://creativecommons.org/ns#"
   xmlns:rdf="http://www.w3.org/1999/02/22-rdf-syntax-ns#"
   xmlns:svg="http://www.w3.org/2000/svg"
   xmlns="http://www.w3.org/2000/svg"
   xmlns:sodipodi="http://sodipodi.sourceforge.net/DTD/sodipodi-0.dtd"
   xmlns:inkscape="http://www.inkscape.org/namespaces/inkscape"
   id="svg2"
   version="1.1"
   inkscape:version="0.48.4 r9939"
   width="744.09375"
   height="119.56738"
   xml:space="preserve"
   sodipodi:docname="green-waves.pdf"><metadata
     id="metadata8"><rdf:RDF><cc:Work
         rdf:about=""><dc:format>image/svg+xml</dc:format><dc:type
           rdf:resource="http://purl.org/dc/dcmitype/StillImage" /><dc:title></dc:title></cc:Work></rdf:RDF></metadata><defs
     id="defs6"><clipPath
       clipPathUnits="userSpaceOnUse"
       id="clipPath16"><path
         d="m 0,0 595.275,0 0,188.929 L 0,188.929 0,0 z"
         id="path18"
         inkscape:connector-curvature="0" /></clipPath><clipPath
       clipPathUnits="userSpaceOnUse"
       id="clipPath44"><path
         d="m 490.394,241.889 77.953,0 0,150 -77.953,0 0,-150 z"
         id="path46"
         inkscape:connector-curvature="0" /></clipPath><clipPath
       clipPathUnits="userSpaceOnUse"
       id="clipPath170"><path
         d="m 0,0 595.275,0 0,419.528 L 0,419.528 0,0 z"
         id="path172"
         inkscape:connector-curvature="0" /></clipPath><clipPath
       clipPathUnits="userSpaceOnUse"
       id="clipPath218"><path
         d="m 297.148,119.327 291.36,0 0,77.28 -291.36,0 0,-77.28 z"
         id="path220"
         inkscape:connector-curvature="0" /></clipPath><clipPath
       clipPathUnits="userSpaceOnUse"
       id="clipPath232"><path
         d="m 0,0 595.275,0 0,419.528 L 0,419.528 0,0 z"
         id="path234"
         inkscape:connector-curvature="0" /></clipPath></defs><sodipodi:namedview
     pagecolor="#ffffff"
     bordercolor="#666666"
     borderopacity="1"
     objecttolerance="10"
     gridtolerance="10"
     guidetolerance="10"
     inkscape:pageopacity="0"
     inkscape:pageshadow="2"
     inkscape:window-width="1858"
     inkscape:window-height="1058"
     id="namedview4"
     showgrid="false"
     fit-margin-top="0"
     fit-margin-left="0"
     fit-margin-right="0"
     fit-margin-bottom="0"
     inkscape:zoom="1.6038129"
     inkscape:cx="372.67039"
     inkscape:cy="81.368593"
     inkscape:window-x="54"
     inkscape:window-y="-8"
     inkscape:window-maximized="1"
     inkscape:current-layer="g10" /><g
     id="g10"
     inkscape:groupmode="layer"
     inkscape:label="logo-use-guidelines(1)"
     transform="matrix(1.25,0,0,-1.25,0.62351413,200.62421)"><g
   id="g12"
   transform="translate(-0.4988113,64.845468)"><g
     id="g14"
     clip-path="url(#clipPath16)"><g
       id="g20"
       transform="translate(-32.3824,-38.447006)"><path
         d="m 0,0 0,96.164 c 0,0 39.645,17.264 82.416,25.237 0,0 53.542,12.422 100.717,1.111 0,0 36.795,-5.036 113.66,-44.524 0,0 57.902,-27.903 97.371,-36.175 0,0 53.353,-12.341 123.524,-5.845 0,0 72.324,7.367 129.74,31.221 L 647.428,0 0,0 z"
         style="fill:#6ea31b;fill-opacity:1;fill-rule:nonzero;stroke:none"
         id="path22"
         inkscape:connector-curvature="0" /></g><g
       id="g24"
       transform="translate(105.4825,95.6539)"><path
         d="m 0,0 c -36.721,0 -88.834,-7.887 -140.376,-31.025 l 0.042,-9.264 c 31.298,12.687 83.081,30.688 139.996,30.688 59.865,0 106.351,-23.471 162.288,-50.893 62.574,-30.676 111.463,-42.26 172.49,-42.26 l 0.017,0 c 80.35,0.008 147.7,21.566 175.106,33.423 l 0.002,9.629 C 428.763,-92.911 345.31,-93.019 344.24,-93.019 l -0.01,0 c -3.379,-0.097 -6.766,-0.146 -10.152,-0.146 -43.232,0 -86.814,7.845 -125.202,21.95 -8.459,3.111 -48.545,21.076 -50.627,22.165 C 92.649,-14.714 47.073,-1.562 8.753,-0.156 5.947,-0.054 3.022,0 0,0"
         style="fill:#c0d790;fill-opacity:1;fill-rule:nonzero;stroke:none"
         id="path26"
         inkscape:connector-curvature="0" /></g><g
       id="g28"
       transform="translate(104.852,76.998001)"><path
         d="m 0,0 c -56.913,0 -108.698,-18 -139.995,-30.686 l -0.002,0.402 c -0.097,-0.043 -0.191,-0.086 -0.288,-0.129 l 0.042,-9.266 c 31.297,12.688 83.081,30.686 139.995,30.686 59.866,0 106.351,-23.469 162.286,-50.891 62.575,-30.674 111.466,-42.261 172.492,-42.261 l 0.017,0 c 80.35,0.011 147.698,21.566 175.106,33.424 l 0,8.884 c -27.568,-11.88 -94.752,-33.306 -174.858,-33.316 l -0.017,0 c -61.027,0 -109.915,11.586 -172.49,42.262 C 106.351,-23.472 59.866,0 0,0"
         style="fill:#a3c563;fill-opacity:1;fill-rule:nonzero;stroke:none"
         id="path30"
         inkscape:connector-curvature="0" /></g></g></g>
</g></svg>