<?xml version="1.0" encoding="UTF-8" standalone="no"?>
<!-- Created with Inkscape (http://www.inkscape.org/) -->

<svg
   xmlns:dc="http://purl.org/dc/elements/1.1/"
   xmlns:cc="http://creativecommons.org/ns#"
   xmlns:rdf="http://www.w3.org/1999/02/22-rdf-syntax-ns#"
   xmlns:svg="http://www.w3.org/2000/svg"
   xmlns="http://www.w3.org/2000/svg"
   xmlns:sodipodi="http://sodipodi.sourceforge.net/DTD/sodipodi-0.dtd"
   xmlns:inkscape="http://www.inkscape.org/namespaces/inkscape"
   id="svg2"
   version="1.1"
   inkscape:version="0.48.4 r9939"
   width="91.812752"
   height="187.4985"
   xml:space="preserve"
   sodipodi:docname="logo-use-guidelines(1).pdf"><metadata
     id="metadata8"><rdf:RDF><cc:Work
         rdf:about=""><dc:format>image/svg+xml</dc:format><dc:type
           rdf:resource="http://purl.org/dc/dcmitype/StillImage" /><dc:title></dc:title></cc:Work></rdf:RDF></metadata><defs
     id="defs6"><clipPath
       clipPathUnits="userSpaceOnUse"
       id="clipPath16"><path
         d="m 0,0 595.275,0 0,188.929 L 0,188.929 0,0 z"
         id="path18"
         inkscape:connector-curvature="0" /></clipPath><clipPath
       clipPathUnits="userSpaceOnUse"
       id="clipPath44"><path
         d="m 490.394,241.889 77.953,0 0,150 -77.953,0 0,-150 z"
         id="path46"
         inkscape:connector-curvature="0" /></clipPath><clipPath
       clipPathUnits="userSpaceOnUse"
       id="clipPath170"><path
         d="m 0,0 595.275,0 0,419.528 L 0,419.528 0,0 z"
         id="path172"
         inkscape:connector-curvature="0" /></clipPath><clipPath
       clipPathUnits="userSpaceOnUse"
       id="clipPath218"><path
         d="m 297.148,119.327 291.36,0 0,77.28 -291.36,0 0,-77.28 z"
         id="path220"
         inkscape:connector-curvature="0" /></clipPath><clipPath
       clipPathUnits="userSpaceOnUse"
       id="clipPath232"><path
         d="m 0,0 595.275,0 0,419.528 L 0,419.528 0,0 z"
         id="path234"
         inkscape:connector-curvature="0" /></clipPath></defs><sodipodi:namedview
     pagecolor="#ffffff"
     bordercolor="#666666"
     borderopacity="1"
     objecttolerance="10"
     gridtolerance="10"
     guidetolerance="10"
     inkscape:pageopacity="0"
     inkscape:pageshadow="2"
     inkscape:window-width="1858"
     inkscape:window-height="1058"
     id="namedview4"
     showgrid="false"
     fit-margin-top="0"
     fit-margin-left="0"
     fit-margin-right="0"
     fit-margin-bottom="0"
     inkscape:zoom="1.6038129"
     inkscape:cx="168.07964"
     inkscape:cy="63.328281"
     inkscape:window-x="54"
     inkscape:window-y="-8"
     inkscape:window-maximized="1"
     inkscape:current-layer="g10" /><g
     id="g10"
     inkscape:groupmode="layer"
     inkscape:label="logo-use-guidelines(1)"
     transform="matrix(1.25,0,0,-1.25,-203.96724,386.35791)"><g
       id="g3245"
       transform="translate(-327.22021,-82.802675)"><g
         transform="translate(490.3942,306.845)"
         id="g36"><path
           id="path38"
           style="fill:#211d1d;fill-opacity:1;fill-rule:nonzero;stroke:none"
           d="m 0,0 8.356,0 0,-1.231 -3.251,-0.227 0,-11.169 -1.874,0 0,11.15 L 0,-1.212 0,0 z"
           inkscape:connector-curvature="0" /></g><g
         id="g40"><g
           clip-path="url(#clipPath44)"
           id="g42"><g
             transform="translate(499.5699,306.80659)"
             id="g48"><path
               id="path50"
               style="fill:#211d1d;fill-opacity:1;fill-rule:nonzero;stroke:none"
               d="m 0,0 1.715,0.208 0,-4.675 c 0.299,0.227 0.419,0.303 0.618,0.416 0.558,0.303 1.336,0.492 2.034,0.492 0.877,0 1.676,-0.284 2.214,-0.757 0.499,-0.454 0.678,-1.003 0.678,-2.101 l 0,-6.172 -1.695,0 0,5.793 c 0,0.36 -0.02,0.606 -0.08,0.814 -0.16,0.663 -0.778,1.079 -1.655,1.079 -0.519,0 -1.097,-0.151 -1.556,-0.416 -0.179,-0.095 -0.279,-0.17 -0.558,-0.379 l 0,-6.891 -1.715,0 L 0,0 z"
               inkscape:connector-curvature="0" /></g><g
             transform="translate(514.14951,299.1971)"
             id="g52"><path
               id="path54"
               style="fill:#211d1d;fill-opacity:1;fill-rule:nonzero;stroke:none"
               d="M 0,0 C 0,1.817 -0.698,2.764 -2.054,2.764 -3.39,2.764 -4.168,1.779 -4.207,0 L 0,0 z m -4.068,-1.117 c 0.16,-1.798 1.216,-2.763 2.971,-2.763 0.639,0 1.257,0.113 2.134,0.434 l 0.339,-1.23 c -0.997,-0.341 -1.934,-0.492 -2.871,-0.492 -2.832,0 -4.488,1.722 -4.488,4.714 0,2.782 1.496,4.467 3.949,4.467 2.393,0 3.729,-1.59 3.729,-4.392 0,-0.17 0,-0.416 -0.02,-0.738 l -5.743,0 z"
               inkscape:connector-curvature="0" /></g><g
             transform="translate(522.2088,293.7635)"
             id="g56"><path
               id="path58"
               style="fill:#211d1d;fill-opacity:1;fill-rule:nonzero;stroke:none"
               d="m 0,0 c 0.1,0.417 0.139,0.796 0.139,1.931 l 0,11.151 1.895,0 0,-10.981 C 2.034,0.512 1.994,0.19 1.695,-0.397 1.396,-1.003 0.957,-1.514 0.179,-2.101 l -0.977,0.644 C -0.339,-0.946 -0.14,-0.567 0,0"
               inkscape:connector-curvature="0" /></g><g
             transform="translate(529.88699,298.6664)"
             id="g60"><path
               id="path62"
               style="fill:#211d1d;fill-opacity:1;fill-rule:nonzero;stroke:none"
               d="m 0,0 c -1.396,0 -2.333,-0.719 -2.333,-1.798 0,-0.927 0.738,-1.571 1.835,-1.571 0.697,0 1.276,0.227 1.994,0.776 l 0,2.46 C 0.898,-0.037 0.459,0 0,0 m 1.496,1.685 c 0,0.284 0,0.455 -0.04,0.606 -0.14,0.625 -0.758,0.966 -1.775,0.966 -0.738,0 -1.516,-0.171 -2.552,-0.531 L -3.31,4.013 c 0.498,0.133 0.678,0.172 0.977,0.247 0.838,0.189 1.615,0.284 2.393,0.284 1.117,0 1.875,-0.209 2.453,-0.663 C 3.052,3.446 3.211,3.01 3.211,1.894 l 0,-6.342 -1.615,0 -0.06,0.814 c -0.958,-0.738 -1.735,-1.023 -2.692,-1.023 -1.815,0 -3.032,1.118 -3.032,2.764 0,1.818 1.396,2.991 3.53,2.991 0.598,0 1.396,-0.113 2.154,-0.283 l 0,0.87 z"
               inkscape:connector-curvature="0" /></g><g
             transform="translate(535.01401,302.9827)"
             id="g64"><path
               id="path66"
               style="fill:#211d1d;fill-opacity:1;fill-rule:nonzero;stroke:none"
               d="m 0,0 1.715,0.208 0,-0.719 c 0.299,0.189 0.419,0.247 0.578,0.322 0.579,0.284 1.236,0.454 1.835,0.454 0.758,0 1.476,-0.246 1.974,-0.662 0.14,-0.114 0.219,-0.208 0.379,-0.436 0.957,0.72 1.855,1.061 2.832,1.061 0.837,0 1.575,-0.284 2.074,-0.758 0.538,-0.53 0.698,-1.022 0.698,-2.196 l 0,-6.039 -1.715,0 0,5.679 c 0,0.36 -0.02,0.645 -0.06,0.834 -0.119,0.662 -0.777,1.135 -1.555,1.135 -0.659,0 -1.196,-0.226 -1.875,-0.757 l 0,-6.891 -1.695,0 0,5.642 c 0,0.492 0,0.7 -0.04,0.852 -0.1,0.7 -0.758,1.173 -1.635,1.173 -0.599,0 -1.077,-0.17 -1.795,-0.681 l 0,-6.986 L 0,-8.765 0,0 z"
               inkscape:connector-curvature="0" /></g><g
             transform="translate(554.5995,299.1971)"
             id="g68"><path
               id="path70"
               style="fill:#211d1d;fill-opacity:1;fill-rule:nonzero;stroke:none"
               d="M 0,0 C 0,1.817 -0.698,2.764 -2.054,2.764 -3.39,2.764 -4.168,1.779 -4.207,0 L 0,0 z m -4.068,-1.117 c 0.16,-1.798 1.217,-2.763 2.971,-2.763 0.639,0 1.257,0.113 2.134,0.434 l 0.339,-1.23 c -0.997,-0.341 -1.934,-0.492 -2.871,-0.492 -2.832,0 -4.487,1.722 -4.487,4.714 0,2.782 1.495,4.467 3.948,4.467 2.394,0 3.73,-1.59 3.73,-4.392 0,-0.17 0,-0.416 -0.021,-0.738 l -5.743,0 z"
               inkscape:connector-curvature="0" /></g><g
             transform="translate(557.61301,295.90269)"
             id="g72"><path
               id="path74"
               style="fill:#211d1d;fill-opacity:1;fill-rule:nonzero;stroke:none"
               d="m 0,0 c 0.957,-0.378 1.715,-0.567 2.433,-0.567 1.157,0 1.914,0.454 1.914,1.136 0,0.548 -0.359,0.832 -2.253,1.684 -1.037,0.492 -1.376,0.681 -1.775,1.041 -0.459,0.417 -0.718,1.003 -0.718,1.609 0,1.458 1.376,2.442 3.45,2.442 0.897,0 1.835,-0.189 2.952,-0.587 L 5.544,5.49 C 4.507,5.85 3.729,6.02 3.031,6.02 1.994,6.02 1.336,5.623 1.336,4.979 1.336,4.79 1.396,4.619 1.496,4.468 1.695,4.203 1.874,4.071 2.672,3.692 L 3.39,3.351 4.307,2.896 c 1.397,-0.662 1.875,-1.23 1.875,-2.233 0,-1.591 -1.376,-2.593 -3.55,-2.593 -0.977,0 -1.914,0.17 -3.111,0.587 L 0,0 z"
               inkscape:connector-curvature="0" /></g><g
             transform="translate(490.4059,286.7457)"
             id="g76"><path
               id="path78"
               style="fill:#211d1d;fill-opacity:1;fill-rule:nonzero;stroke:none"
               d="m 0,0 3.989,0 0,-8.252 5.474,0 0,8.252 3.988,0 0,-20.089 -3.988,0 0,9.035 -5.474,0 0,-9.035 -3.989,0 L 0,0 z"
               inkscape:connector-curvature="0" /></g><g
             transform="translate(510.14439,281.2639)"
             id="g80"><path
               id="path82"
               style="fill:#211d1d;fill-opacity:1;fill-rule:nonzero;stroke:none"
               d="m 0,0 0,-9.669 c 0,-1.656 0.582,-2.319 2.067,-2.319 0.757,0 1.485,0.241 2.271,0.814 l 0,10.813 3.494,0 0,-14.247 -3.465,0 -0.029,0.843 c -1.31,-0.843 -2.388,-1.174 -3.698,-1.174 -2.737,0 -4.134,1.445 -4.134,4.277 l 0,10.271 L 0,0 z"
               inkscape:connector-curvature="0" /></g><g
             transform="translate(519.9254,280.90269)"
             id="g84"><path
               id="path86"
               style="fill:#211d1d;fill-opacity:1;fill-rule:nonzero;stroke:none"
               d="m 0,0 1.543,0 0,2.199 3.494,0.482 0,-2.681 2.416,0 0,-2.32 -2.416,-0.271 0,-7.59 c 0,-0.421 0.029,-0.722 0.029,-0.873 0.087,-0.602 0.524,-0.934 1.194,-0.934 0.349,0 0.699,0.091 1.223,0.272 l 0,-2.47 c -0.612,-0.241 -1.602,-0.392 -2.417,-0.392 -2.504,0 -3.523,0.964 -3.523,3.313 l 0,8.674 L 0,-2.32 0,0 z"
               inkscape:connector-curvature="0" /></g><g
             transform="translate(528.8622,280.90269)"
             id="g88"><path
               id="path90"
               style="fill:#211d1d;fill-opacity:1;fill-rule:nonzero;stroke:none"
               d="m 0,0 1.543,0 0,2.199 3.494,0.482 0,-2.681 2.417,0 0,-2.32 -2.417,-0.271 0,-7.59 c 0,-0.421 0.029,-0.722 0.029,-0.873 0.087,-0.602 0.524,-0.934 1.194,-0.934 0.349,0 0.699,0.091 1.223,0.272 l 0,-2.47 c -0.612,-0.241 -1.602,-0.392 -2.417,-0.392 -2.504,0 -3.523,0.964 -3.523,3.313 l 0,8.674 L 0,-2.32 0,0 z"
               inkscape:connector-curvature="0" /></g><g
             transform="translate(544.1465,268.85451)"
             id="g92"><path
               id="path94"
               style="fill:#211d1d;fill-opacity:1;fill-rule:nonzero;stroke:none"
               d="M 0,0 C 1.66,0 2.504,1.597 2.504,4.91 2.504,8.223 1.66,9.849 0,9.849 -1.66,9.849 -2.504,8.223 -2.504,4.97 -2.504,1.597 -1.688,0 0,0 m 0,12.409 c 4.134,0 6.144,-2.439 6.144,-7.499 0,-5.06 -2.01,-7.5 -6.144,-7.5 -4.134,0 -6.143,2.44 -6.143,7.409 0,5.151 1.95,7.59 6.143,7.59"
               inkscape:connector-curvature="0" /></g><g
             transform="translate(552.4427,280.8727)"
             id="g96"><path
               id="path98"
               style="fill:#211d1d;fill-opacity:1;fill-rule:nonzero;stroke:none"
               d="m 0,0 3.465,0.362 0,-1.145 C 4.717,0 5.998,0.421 7.191,0.421 c 1.223,0 2.388,-0.421 3.116,-1.174 0.757,-0.753 1.019,-1.687 1.019,-3.554 l 0,-9.909 -3.494,0 0,9.005 c 0,0.422 -0.029,0.844 -0.058,1.115 -0.146,0.933 -0.931,1.535 -1.98,1.535 -0.699,0 -1.484,-0.3 -2.329,-0.873 l 0,-10.782 -3.465,0 L 0,0 z"
               inkscape:connector-curvature="0" /></g><path
             id="path100"
             style="fill:#211d1d;fill-opacity:1;fill-rule:nonzero;stroke:none"
             d="m 490.394,259.278 3.215,0 0,-17.031 -3.215,0 0,17.031 z"
             inkscape:connector-curvature="0" /><g
             transform="translate(495.83099,254.29871)"
             id="g102"><path
               id="path104"
               style="fill:#211d1d;fill-opacity:1;fill-rule:nonzero;stroke:none"
               d="m 0,0 2.814,0.307 0,-0.971 C 3.83,0 4.87,0.358 5.84,0.358 6.833,0.358 7.779,0 8.37,-0.638 8.984,-1.276 9.197,-2.068 9.197,-3.651 l 0,-8.401 -2.837,0 0,7.635 c 0,0.357 -0.024,0.715 -0.047,0.944 -0.119,0.792 -0.757,1.303 -1.608,1.303 -0.568,0 -1.206,-0.255 -1.891,-0.741 l 0,-9.141 -2.814,0 L 0,0 z"
               inkscape:connector-curvature="0" /></g><g
             transform="translate(507.1545,245.0302)"
             id="g106"><path
               id="path108"
               style="fill:#211d1d;fill-opacity:1;fill-rule:nonzero;stroke:none"
               d="m 0,0 c 0.355,-0.153 0.52,-0.23 0.757,-0.306 0.709,-0.204 1.465,-0.332 2.033,-0.332 1.277,0 2.057,0.459 2.057,1.175 C 4.847,0.919 4.658,1.2 4.209,1.481 3.783,1.762 3.547,1.89 2.435,2.35 1.348,2.834 0.828,3.166 0.355,3.651 -0.213,4.239 -0.544,5.081 -0.544,6 c 0,2.222 1.75,3.651 4.516,3.651 1.135,0 2.27,-0.229 3.688,-0.715 L 7.046,6.639 C 5.84,7.099 4.776,7.328 3.972,7.328 2.908,7.328 2.27,6.919 2.27,6.23 2.27,6.026 2.341,5.822 2.435,5.694 2.672,5.388 2.79,5.286 3.689,4.852 L 4.469,4.468 5.509,3.983 C 7.211,3.166 7.849,2.272 7.849,0.766 7.849,-1.66 6.1,-3.14 3.239,-3.14 c -0.945,0 -2.08,0.179 -3.05,0.459 -0.236,0.077 -0.402,0.128 -0.827,0.281 L 0,0 z"
               inkscape:connector-curvature="0" /></g><g
             transform="translate(516.1852,254.3246)"
             id="g110"><path
               id="path112"
               style="fill:#211d1d;fill-opacity:1;fill-rule:nonzero;stroke:none"
               d="m 0,0 1.253,0 0,1.864 2.837,0.408 0,-2.272 1.963,0 0,-1.966 -1.963,-0.23 0,-6.434 c 0,-0.358 0.024,-0.613 0.024,-0.741 0.071,-0.51 0.426,-0.791 0.969,-0.791 0.284,0 0.568,0.076 0.993,0.229 l 0,-2.093 c -0.496,-0.205 -1.3,-0.332 -1.962,-0.332 -2.033,0 -2.861,0.817 -2.861,2.809 l 0,7.353 L 0,-1.966 0,0 z"
               inkscape:connector-curvature="0" /></g><g
             transform="translate(524.0813,254.29871)"
             id="g114"><path
               id="path116"
               style="fill:#211d1d;fill-opacity:1;fill-rule:nonzero;stroke:none"
               d="m 0,0 2.814,0.307 0,-12.359 -2.814,0 L 0,0 z m 1.395,5.107 c 0.875,0 1.584,-0.689 1.584,-1.532 0,-0.868 -0.709,-1.558 -1.584,-1.558 -0.851,0 -1.561,0.69 -1.561,1.533 0,0.868 0.686,1.557 1.561,1.557"
               inkscape:connector-curvature="0" /></g><g
             transform="translate(528.7144,254.3246)"
             id="g118"><path
               id="path120"
               style="fill:#211d1d;fill-opacity:1;fill-rule:nonzero;stroke:none"
               d="m 0,0 1.253,0 0,1.864 2.837,0.408 0,-2.272 1.963,0 0,-1.966 -1.963,-0.23 0,-6.434 c 0,-0.358 0.024,-0.613 0.024,-0.741 0.071,-0.51 0.426,-0.791 0.97,-0.791 0.283,0 0.567,0.076 0.992,0.229 l 0,-2.093 c -0.496,-0.205 -1.3,-0.332 -1.962,-0.332 -2.033,0 -2.861,0.817 -2.861,2.809 l 0,7.353 L 0,-1.966 0,0 z"
               inkscape:connector-curvature="0" /></g><g
             transform="translate(539.211,254.6308)"
             id="g122"><path
               id="path124"
               style="fill:#211d1d;fill-opacity:1;fill-rule:nonzero;stroke:none"
               d="m 0,0 0,-8.196 c 0,-1.405 0.473,-1.966 1.679,-1.966 0.615,0 1.206,0.204 1.844,0.689 l 0,9.167 2.838,0 0,-12.078 -2.814,0 -0.024,0.715 c -1.063,-0.715 -1.939,-0.995 -3.003,-0.995 -2.222,0 -3.357,1.225 -3.357,3.625 l 0,8.707 L 0,0 z"
               inkscape:connector-curvature="0" /></g><g
             transform="translate(547.1537,254.3246)"
             id="g126"><path
               id="path128"
               style="fill:#211d1d;fill-opacity:1;fill-rule:nonzero;stroke:none"
               d="m 0,0 1.253,0 0,1.864 2.838,0.408 0,-2.272 1.962,0 0,-1.966 -1.962,-0.23 0,-6.434 c 0,-0.358 0.023,-0.613 0.023,-0.741 0.071,-0.51 0.426,-0.791 0.97,-0.791 0.283,0 0.567,0.076 0.993,0.229 l 0,-2.093 c -0.497,-0.205 -1.301,-0.332 -1.963,-0.332 -2.033,0 -2.861,0.817 -2.861,2.809 l 0,7.353 L 0,-1.966 0,0 z"
               inkscape:connector-curvature="0" /></g><g
             transform="translate(561.1732,249.1926)"
             id="g130"><path
               id="path132"
               style="fill:#211d1d;fill-opacity:1;fill-rule:nonzero;stroke:none"
               d="M 0,0 0,0.102 C 0,2.119 -0.686,3.243 -1.962,3.243 -3.239,3.243 -3.972,2.068 -3.995,0 L 0,0 z m -3.712,-1.915 c 0.212,-1.941 1.324,-2.988 3.192,-2.988 0.709,0 1.348,0.128 2.388,0.511 l 0.473,-2.17 c -1.229,-0.46 -2.294,-0.639 -3.523,-0.639 -3.618,0 -5.651,2.349 -5.651,6.486 0,3.855 1.82,6.153 4.918,6.153 2.979,0 4.586,-2.17 4.586,-6.153 0,-0.306 0,-0.613 -0.046,-1.2 l -6.337,0 z"
               inkscape:connector-curvature="0" /></g><g
             transform="translate(525.1597,380.63451)"
             id="g134"><path
               id="path136"
               style="fill:#6ba62e;fill-opacity:1;fill-rule:nonzero;stroke:none"
               d="m 0,0 c 5.643,-3.205 11.999,-4.831 18.89,-4.831 l 0.002,0 c 9.071,0.001 16.687,2.829 19.784,4.169 l 0,4.172 c -0.007,0.785 -0.277,7.745 -7.523,7.745 l -58.355,0 c -0.761,-0.007 -7.524,-0.289 -7.524,-7.745 l 0,-1.289 c 3.535,1.433 8.887,3.016 15.318,3.016 C -12.647,5.237 -6.117,3.475 0,0"
               inkscape:connector-curvature="0" /></g><g
             transform="translate(552.19501,348.39529)"
             id="g138"><path
               id="path140"
               style="fill:#6ba62e;fill-opacity:1;fill-rule:nonzero;stroke:none"
               d="m 0,0 0,-29.906 4.111,0 c 0.782,0.008 7.53,0.297 7.53,7.745 l 0,25.389 C 9.078,2.199 4.994,0.814 0,0"
               inkscape:connector-curvature="0" /></g><g
             transform="translate(544.05321,347.7202)"
             id="g142"><path
               id="path144"
               style="fill:#6ba62e;fill-opacity:1;fill-rule:nonzero;stroke:none"
               d="m 0,0 -0.001,0 c -2.494,0 -4.922,0.202 -7.282,0.597 l 0,-29.828 11.753,0 0,29.437 C 3.029,0.075 1.536,0 0,0"
               inkscape:connector-curvature="0" /></g><g
             transform="translate(523.62379,352.95711)"
             id="g146"><path
               id="path148"
               style="fill:#6ba62e;fill-opacity:1;fill-rule:nonzero;stroke:none"
               d="m 0,0 c -0.753,0.427 -1.512,0.825 -2.277,1.196 l 0,-35.664 11.752,0 0,30.613 C 6.151,-2.981 2.985,-1.696 0,0"
               inkscape:connector-curvature="0" /></g><g
             transform="translate(505.9222,357.7851)"
             id="g150"><path
               id="path152"
               style="fill:#811c76;fill-opacity:1;fill-rule:nonzero;stroke:none"
               d="m 0,0 0,-39.296 11.752,0 0,37.209 C 7.95,-0.721 4.018,-0.019 0,0"
               inkscape:connector-curvature="0" /></g><g
             transform="translate(490.4342,354.6656)"
             id="g154"><path
               id="path156"
               style="fill:#811c76;fill-opacity:1;fill-rule:nonzero;stroke:none"
               d="m 0,0 0,-28.431 c 0.007,-0.785 0.277,-7.746 7.523,-7.746 l 4.292,0 0,39.125 C 6.808,2.476 2.689,1.122 0,0"
               inkscape:connector-curvature="0" /></g><g
             transform="translate(525.1597,368.16879)"
             id="g158"><path
               id="path160"
               style="fill:#6ba62e;fill-opacity:1;fill-rule:nonzero;stroke:none"
               d="m 0,0 c 5.643,-3.206 11.999,-4.832 18.89,-4.832 l 0.002,0 c 9.074,10e-4 16.689,2.83 19.784,4.169 l 0,9.092 C 34.824,6.883 27.534,4.525 18.892,4.525 l -0.002,0 c -7.437,0 -14.309,1.762 -20.426,5.237 -5.643,3.206 -11.656,4.831 -17.872,4.831 -6.693,0 -12.166,-1.888 -15.318,-3.294 l 0,-9.077 c 3.535,1.433 8.891,3.014 15.318,3.014 C -12.647,5.236 -6.117,3.475 0,0"
               inkscape:connector-curvature="0" /></g><g
             transform="translate(525.1597,355.6606)"
             id="g162"><path
               id="path164"
               style="fill:#5c9bc1;fill-opacity:1;fill-rule:nonzero;stroke:none"
               d="m 0,0 c 5.642,-3.205 11.999,-4.831 18.892,-4.831 9.069,0 16.684,2.828 19.784,4.169 l 0,9.132 C 34.824,6.925 27.534,4.568 18.892,4.567 l -0.002,0 c -7.437,0 -14.309,1.762 -20.426,5.238 -5.643,3.205 -11.656,4.83 -17.872,4.83 -6.693,0 -12.166,-1.888 -15.318,-3.294 l 0,-9.119 c 3.535,1.433 8.892,3.015 15.318,3.015 C -12.647,5.237 -6.117,3.475 0,0"
               inkscape:connector-curvature="0" /></g></g></g></g></g></svg>